<?xml version="1.0" encoding="UTF-8"?>
<svg xmlns="http://www.w3.org/2000/svg" width="1200" height="2500" viewBox="2900 0 1200 2500"><defs>
<clipPath id="clip-0">
<path clip-rule="nonzero" d="M 655 1351 L 746 1351 L 746 2317 L 655 2317 Z M 655 1351 " />
</clipPath>
<clipPath id="clip-1">
<path clip-rule="evenodd" d="M 1049.320312 1363.089844 L 952.242188 2323.898438 L 883.292969 2323.898438 L 859.351562 1415.308594 L 834.285156 1415.308594 L 729.175781 2323.898438 L 660.226562 2323.898438 L 640.289062 1363.089844 L 691.074219 1168.191406 L 1012.640625 1168.191406 Z M 1049.320312 1363.089844 " />
</clipPath>
<clipPath id="clip-2">
<path clip-rule="nonzero" d="M 772 567 L 903 567 L 903 638 L 772 638 Z M 772 567 " />
</clipPath>
<clipPath id="clip-3">
<path clip-rule="evenodd" d="M 782.351562 567.179688 C 784.050781 585.859375 779.238281 604.71875 734.25 609.101562 C 776.96875 795.648438 924.960938 838.660156 899.949219 627.410156 C 887.074219 624.980469 883.09375 618.359375 884.726562 609.101562 Z M 782.351562 567.179688 " />
</clipPath>
<clipPath id="clip-4">
<path clip-rule="nonzero" d="M 886 338 L 937 338 L 937 624 L 886 624 Z M 886 338 " />
</clipPath>
<clipPath id="clip-5">
<path clip-rule="evenodd" d="M 928.191406 388.019531 C 921.265625 436.851562 944.78125 607.421875 928.191406 618.578125 C 893.554688 641.898438 743.757812 568.171875 723.363281 517.789062 C 707.136719 477.710938 711.5 354.269531 705.347656 348.078125 C 682.355469 324.960938 663.089844 198.511719 816.109375 200.25 C 961.070312 201.910156 939.183594 310.53125 928.191406 388.019531 Z M 740.207031 257.398438 C 744.566406 251.410156 788.839844 280.671875 830.476562 277.050781 C 857.71875 274.679688 874.59375 251.140625 897.082031 257.398438 C 906.671875 260.070312 923.792969 283.808594 926.578125 309.839844 C 931.378906 354.710938 917.476562 413.859375 914.292969 433.691406 C 912.386719 445.558594 881.621094 435.769531 844.695312 435.898438 C 802.761719 436.039062 762.296875 480.871094 740.207031 455.53125 C 727.109375 440.511719 729.453125 403.609375 729.625 364.199219 C 729.804688 322.011719 721.59375 282.988281 740.207031 257.398438 Z M 740.207031 257.398438 " />
</clipPath>
<clipPath id="clip-6">
<path clip-rule="nonzero" d="M 839 514 L 877 514 L 877 528 L 839 528 Z M 839 514 " />
</clipPath>
<clipPath id="clip-7">
<path clip-rule="evenodd" d="M 928.191406 388.019531 C 921.265625 436.851562 944.78125 607.421875 928.191406 618.578125 C 893.554688 641.898438 743.757812 568.171875 723.363281 517.789062 C 707.136719 477.710938 711.5 354.269531 705.347656 348.078125 C 682.355469 324.960938 663.089844 198.511719 816.109375 200.25 C 961.070312 201.910156 939.183594 310.53125 928.191406 388.019531 Z M 740.207031 257.398438 C 744.566406 251.410156 788.839844 280.671875 830.476562 277.050781 C 857.71875 274.679688 874.59375 251.140625 897.082031 257.398438 C 906.671875 260.070312 923.792969 283.808594 926.578125 309.839844 C 931.378906 354.710938 917.476562 413.859375 914.292969 433.691406 C 912.386719 445.558594 881.621094 435.769531 844.695312 435.898438 C 802.761719 436.039062 762.296875 480.871094 740.207031 455.53125 C 727.109375 440.511719 729.453125 403.609375 729.625 364.199219 C 729.804688 322.011719 721.59375 282.988281 740.207031 257.398438 Z M 740.207031 257.398438 " />
</clipPath>
<clipPath id="clip-8">
<path clip-rule="nonzero" d="M 721 250 L 903 250 L 903 378 L 721 378 Z M 721 250 " />
</clipPath>
<clipPath id="clip-9">
<path clip-rule="evenodd" d="M 928.191406 388.019531 C 921.265625 436.851562 944.78125 607.421875 928.191406 618.578125 C 893.554688 641.898438 743.757812 568.171875 723.363281 517.789062 C 707.136719 477.710938 711.5 354.269531 705.347656 348.078125 C 682.355469 324.960938 663.089844 198.511719 816.109375 200.25 C 961.070312 201.910156 939.183594 310.53125 928.191406 388.019531 Z M 740.207031 257.398438 C 744.566406 251.410156 788.839844 280.671875 830.476562 277.050781 C 857.71875 274.679688 874.59375 251.140625 897.082031 257.398438 C 906.671875 260.070312 923.792969 283.808594 926.578125 309.839844 C 931.378906 354.710938 917.476562 413.859375 914.292969 433.691406 C 912.386719 445.558594 881.621094 435.769531 844.695312 435.898438 C 802.761719 436.039062 762.296875 480.871094 740.207031 455.53125 C 727.109375 440.511719 729.453125 403.609375 729.625 364.199219 C 729.804688 322.011719 721.59375 282.988281 740.207031 257.398438 Z M 740.207031 257.398438 " />
</clipPath>
<clipPath id="clip-10">
<path clip-rule="nonzero" d="M 564 756 L 662 756 L 662 1270 L 564 1270 Z M 564 756 " />
</clipPath>
<clipPath id="clip-11">
<path clip-rule="evenodd" d="M 734.25 609.101562 L 690.351562 1288.21875 L 564.359375 1288.21875 L 656.957031 685.441406 Z M 734.25 609.101562 " />
</clipPath>
<clipPath id="clip-12">
<path clip-rule="nonzero" d="M 1015 790 L 1099 790 L 1099 1310 L 1015 1310 Z M 1015 790 " />
</clipPath>
<clipPath id="clip-13">
<path clip-rule="evenodd" d="M 899.949219 627.410156 C 1163.679688 636.621094 1235.988281 1127.929688 1085.070312 1333.558594 L 1030.679688 1333.558594 Z M 899.949219 627.410156 " />
</clipPath>
<clipPath id="clip-14">
<path clip-rule="nonzero" d="M 787 366 L 807 366 L 807 383 L 787 383 Z M 787 366 " />
</clipPath>
<clipPath id="clip-15">
<path clip-rule="evenodd" d="M 764.386719 366.511719 C 764.386719 378.261719 773.917969 387.800781 785.675781 387.800781 C 797.4375 387.800781 806.96875 378.261719 806.96875 366.511719 Z M 764.386719 366.511719 " />
</clipPath>
<clipPath id="clip-16">
<path clip-rule="nonzero" d="M 797 370 L 804 370 L 804 377 L 797 377 Z M 797 370 " />
</clipPath>
<clipPath id="clip-17">
<path clip-rule="evenodd" d="M 764.386719 366.511719 C 764.386719 378.261719 773.917969 387.800781 785.675781 387.800781 C 797.4375 387.800781 806.96875 378.261719 806.96875 366.511719 Z M 764.386719 366.511719 " />
</clipPath>
<clipPath id="clip-18">
<path clip-rule="nonzero" d="M 895 366 L 915 366 L 915 383 L 895 383 Z M 895 366 " />
</clipPath>
<clipPath id="clip-19">
<path clip-rule="evenodd" d="M 872.058594 366.511719 C 872.058594 378.261719 881.589844 387.800781 893.347656 387.800781 C 905.109375 387.800781 914.640625 378.261719 914.640625 366.511719 Z M 872.058594 366.511719 " />
</clipPath>
<clipPath id="clip-20">
<path clip-rule="nonzero" d="M 904 370 L 912 370 L 912 377 L 904 377 Z M 904 370 " />
</clipPath>
<clipPath id="clip-21">
<path clip-rule="evenodd" d="M 872.058594 366.511719 C 872.058594 378.261719 881.589844 387.800781 893.347656 387.800781 C 905.109375 387.800781 914.640625 378.261719 914.640625 366.511719 Z M 872.058594 366.511719 " />
</clipPath>
<clipPath id="clip-22">
<path clip-rule="nonzero" d="M 1476 1242 L 1555 1242 L 1555 1585 L 1476 1585 Z M 1476 1242 " />
</clipPath>
<clipPath id="clip-23">
<path clip-rule="evenodd" d="M 1554.070312 1242.128906 C 1539.410156 1306.871094 1541.789062 1375 1530.019531 1440.898438 C 1519.058594 1502.265625 1494.128906 1561.546875 1476.050781 1618.183594 C 1488.039062 1643.472656 1436.210938 1759.570312 1417.890625 1731.332031 C 1411.050781 1738.328125 1395.121094 1736.8125 1395.859375 1724.925781 C 1359.589844 1727.171875 1395.628906 1684.144531 1412.070312 1644.839844 C 1414.148438 1639.886719 1412.75 1636.105469 1411.871094 1635.835938 C 1398.199219 1631.644531 1387.339844 1670.894531 1374.378906 1666.296875 C 1353.671875 1658.949219 1405.089844 1585.261719 1436.75 1584.242188 C 1459.578125 1471.859375 1461.429688 1358.25 1467.46875 1242.128906 Z M 1554.070312 1242.128906 " />
</clipPath>
<clipPath id="clip-24">
<path clip-rule="nonzero" d="M 1674 1977 L 1759 1977 L 1759 2042 L 1674 2042 Z M 1674 1977 " />
</clipPath>
<clipPath id="clip-25">
<path clip-rule="evenodd" d="M 1674.691406 1952.035156 L 1689.308594 2326.703125 L 1724.261719 2326.703125 L 1758.628906 1952.035156 Z M 1674.691406 1952.035156 " />
</clipPath>
<clipPath id="clip-26">
<path clip-rule="nonzero" d="M 1540 1977 L 1624 1977 L 1624 2042 L 1540 2042 Z M 1540 1977 " />
</clipPath>
<clipPath id="clip-27">
<path clip-rule="evenodd" d="M 1623.941406 1952.035156 L 1609.320312 2326.703125 L 1574.371094 2326.703125 L 1540 1952.035156 Z M 1623.941406 1952.035156 " />
</clipPath>
<clipPath id="clip-28">
<path clip-rule="nonzero" d="M 1508 1403 L 1760 1403 L 1760 1442 L 1508 1442 Z M 1508 1403 " />
</clipPath>
<clipPath id="clip-29">
<path clip-rule="evenodd" d="M 1923.941406 1998.148438 C 1730.660156 2021.605469 1537.378906 2021.195312 1344.089844 1998.148438 L 1524.25 1403.078125 L 1743.78125 1403.078125 Z M 1923.941406 1998.148438 " />
</clipPath>
<clipPath id="clip-30">
<path clip-rule="nonzero" d="M 1655 1403 L 1924 1403 L 1924 2016 L 1655 2016 Z M 1655 1403 " />
</clipPath>
<clipPath id="clip-31">
<path clip-rule="evenodd" d="M 1923.941406 1998.148438 C 1730.660156 2021.605469 1537.378906 2021.195312 1344.089844 1998.148438 L 1524.25 1403.078125 L 1743.78125 1403.078125 Z M 1923.941406 1998.148438 " />
</clipPath>
<clipPath id="clip-32">
<path clip-rule="nonzero" d="M 1741 1246 L 1834 1246 L 1834 1450 L 1741 1450 Z M 1741 1246 " />
</clipPath>
<clipPath id="clip-33">
<path clip-rule="evenodd" d="M 1827.660156 1246.210938 C 1835.359375 1374.171875 1836.628906 1499.359375 1833.398438 1622.621094 C 1851.96875 1643.558594 1834.601562 1769.507812 1809.128906 1747.503906 C 1804.511719 1756.132812 1788.789062 1759.121094 1786.179688 1747.503906 C 1751.980469 1759.777344 1774.578125 1708.40625 1779.398438 1666.074219 C 1780.011719 1660.738281 1777.609375 1657.496094 1776.691406 1657.480469 C 1762.390625 1657.277344 1762.929688 1697.992188 1749.191406 1697.195312 C 1727.25 1695.925781 1756.070312 1610.808594 1786.179688 1601 C 1776.738281 1486.710938 1760.949219 1369.769531 1749.191406 1255.480469 Z M 1827.660156 1246.210938 " />
</clipPath>
<clipPath id="clip-34">
<path clip-rule="nonzero" d="M 1536 659 L 1859 659 L 1859 1197 L 1536 1197 Z M 1536 659 " />
</clipPath>
<clipPath id="clip-35">
<path clip-rule="evenodd" d="M 1494.28125 861.640625 C 1468.78125 817.300781 1449.78125 792.410156 1454.558594 767.871094 C 1477.910156 648.171875 1568.390625 603.738281 1616.070312 608.128906 C 1658.039062 611.980469 1686.449219 654.898438 1686.449219 654.898438 C 1686.449219 654.898438 1733.191406 647.5 1751.898438 659.050781 C 1783.050781 678.28125 1771.421875 740.210938 1800.300781 789.488281 C 1839.5 856.351562 1882.53125 865.179688 1885.691406 919.449219 C 1887.890625 957.148438 1864.320312 976.101562 1867.160156 1011.449219 C 1870.210938 1049.480469 1908.191406 1070.949219 1893.410156 1121.550781 C 1883.351562 1156.011719 1833.75 1202.648438 1791.480469 1196.128906 C 1742.839844 1188.621094 1634.019531 1065.949219 1634.019531 1065.949219 L 1606.578125 882.820312 Z M 1494.28125 861.640625 " />
</clipPath>
<clipPath id="clip-36">
<path clip-rule="nonzero" d="M 1495 1143 L 1531 1143 L 1531 1269 L 1495 1269 Z M 1495 1143 " />
</clipPath>
<clipPath id="clip-37">
<path clip-rule="evenodd" d="M 1530.019531 1084.339844 C 1472.929688 1099.121094 1436.089844 1153.230469 1419.039062 1245.769531 C 1452.671875 1264.398438 1490.191406 1269.890625 1530.019531 1267.609375 Z M 1530.019531 1084.339844 " />
</clipPath>
<clipPath id="clip-38">
<path clip-rule="nonzero" d="M 1714 1159 L 1760 1159 L 1760 1427 L 1714 1427 Z M 1714 1159 " />
</clipPath>
<clipPath id="clip-39">
<path clip-rule="evenodd" d="M 1634.019531 1065.949219 L 1557.929688 1075.730469 L 1530.019531 1084.339844 C 1530.019531 1084.339844 1512.710938 1330.390625 1508.160156 1395.128906 C 1507.550781 1403.808594 1514.128906 1410.230469 1522.558594 1412.359375 C 1598.640625 1431.660156 1672.890625 1431.140625 1745.460938 1412.351562 C 1753.890625 1410.171875 1760.480469 1403.800781 1759.871094 1395.121094 C 1755.308594 1330.351562 1738.011719 1084.339844 1738.011719 1084.339844 L 1707.28125 1075.730469 Z M 1634.019531 1065.949219 " />
</clipPath>
<clipPath id="clip-40">
<path clip-rule="nonzero" d="M 1554 1084 L 1715 1084 L 1715 1155 L 1554 1155 Z M 1554 1084 " />
</clipPath>
<clipPath id="clip-41">
<path clip-rule="evenodd" d="M 1634.019531 1065.949219 L 1557.929688 1075.730469 L 1530.019531 1084.339844 C 1530.019531 1084.339844 1512.710938 1330.390625 1508.160156 1395.128906 C 1507.550781 1403.808594 1514.128906 1410.230469 1522.558594 1412.359375 C 1598.640625 1431.660156 1672.890625 1431.140625 1745.460938 1412.351562 C 1753.890625 1410.171875 1760.480469 1403.800781 1759.871094 1395.121094 C 1755.308594 1330.351562 1738.011719 1084.339844 1738.011719 1084.339844 L 1707.28125 1075.730469 Z M 1634.019531 1065.949219 " />
</clipPath>
<clipPath id="clip-42">
<path clip-rule="nonzero" d="M 1575 953 L 1693 953 L 1693 1019 L 1575 1019 Z M 1575 953 " />
</clipPath>
<clipPath id="clip-43">
<path clip-rule="evenodd" d="M 1692.441406 1065.949219 C 1653.488281 1088.46875 1614.539062 1092.378906 1575.589844 1065.949219 C 1601.558594 1060.199219 1605.988281 1016.039062 1606.769531 953.21875 L 1659.941406 953.21875 C 1659.691406 1007.109375 1665.449219 1054.609375 1692.441406 1065.949219 Z M 1692.441406 1065.949219 " />
</clipPath>
<clipPath id="clip-44">
<path clip-rule="nonzero" d="M 1664 821 L 1686 821 L 1686 850 L 1664 850 Z M 1664 821 " />
</clipPath>
<clipPath id="clip-45">
<path clip-rule="evenodd" d="M 1700.578125 828.910156 C 1700.578125 823.53125 1698.441406 818.359375 1694.640625 814.558594 C 1690.828125 810.75 1685.671875 808.609375 1680.289062 808.609375 C 1669.070312 808.609375 1659.988281 817.699219 1659.988281 828.910156 C 1659.988281 840.320312 1659.988281 852.300781 1659.988281 852.300781 L 1700.578125 852.300781 C 1700.578125 852.300781 1700.578125 840.320312 1700.578125 828.910156 Z M 1700.578125 828.910156 " />
</clipPath>
<clipPath id="clip-46">
<path clip-rule="nonzero" d="M 1675 826 L 1681 826 L 1681 835 L 1675 835 Z M 1675 826 " />
</clipPath>
<clipPath id="clip-47">
<path clip-rule="evenodd" d="M 1700.578125 828.910156 C 1700.578125 823.53125 1698.441406 818.359375 1694.640625 814.558594 C 1690.828125 810.75 1685.671875 808.609375 1680.289062 808.609375 C 1669.070312 808.609375 1659.988281 817.699219 1659.988281 828.910156 C 1659.988281 840.320312 1659.988281 852.300781 1659.988281 852.300781 L 1700.578125 852.300781 C 1700.578125 852.300781 1700.578125 840.320312 1700.578125 828.910156 Z M 1700.578125 828.910156 " />
</clipPath>
<clipPath id="clip-48">
<path clip-rule="nonzero" d="M 1550 821 L 1572 821 L 1572 850 L 1550 850 Z M 1550 821 " />
</clipPath>
<clipPath id="clip-49">
<path clip-rule="evenodd" d="M 1587.199219 828.910156 C 1587.199219 823.53125 1585.058594 818.359375 1581.25 814.558594 C 1577.449219 810.75 1572.28125 808.609375 1566.898438 808.609375 C 1555.691406 808.609375 1546.601562 817.699219 1546.601562 828.910156 C 1546.601562 840.320312 1546.601562 852.300781 1546.601562 852.300781 L 1587.199219 852.300781 C 1587.199219 852.300781 1587.199219 840.320312 1587.199219 828.910156 Z M 1587.199219 828.910156 " />
</clipPath>
<clipPath id="clip-50">
<path clip-rule="nonzero" d="M 1561 826 L 1567 826 L 1567 835 L 1561 835 Z M 1561 826 " />
</clipPath>
<clipPath id="clip-51">
<path clip-rule="evenodd" d="M 1587.199219 828.910156 C 1587.199219 823.53125 1585.058594 818.359375 1581.25 814.558594 C 1577.449219 810.75 1572.28125 808.609375 1566.898438 808.609375 C 1555.691406 808.609375 1546.601562 817.699219 1546.601562 828.910156 C 1546.601562 840.320312 1546.601562 852.300781 1546.601562 852.300781 L 1587.199219 852.300781 C 1587.199219 852.300781 1587.199219 840.320312 1587.199219 828.910156 Z M 1587.199219 828.910156 " />
</clipPath>
<clipPath id="clip-52">
<path clip-rule="nonzero" d="M 2396 1461 L 2505 1461 L 2505 2326 L 2396 2326 Z M 2396 1461 " />
</clipPath>
<clipPath id="clip-53">
<path clip-rule="evenodd" d="M 2685.800781 1227.890625 L 2259.878906 1227.890625 L 2257.238281 1431.761719 L 2353.789062 2325.125 L 2418.21875 2325.125 L 2441.410156 1484.710938 L 2504.238281 1484.710938 L 2527.429688 2325.125 L 2591.851562 2325.125 L 2688.449219 1431.761719 Z M 2685.800781 1227.890625 " />
</clipPath>
<clipPath id="clip-54">
<path clip-rule="nonzero" d="M 2257 1419 L 2350 1419 L 2350 1485 L 2257 1485 Z M 2257 1419 " />
</clipPath>
<clipPath id="clip-55">
<path clip-rule="evenodd" d="M 2685.800781 1227.890625 L 2259.878906 1227.890625 L 2257.238281 1431.761719 L 2353.789062 2325.125 L 2418.21875 2325.125 L 2441.410156 1484.710938 L 2504.238281 1484.710938 L 2527.429688 2325.125 L 2591.851562 2325.125 L 2688.449219 1431.761719 Z M 2685.800781 1227.890625 " />
</clipPath>
<clipPath id="clip-56">
<path clip-rule="nonzero" d="M 2566 1318 L 2689 1318 L 2689 2326 L 2566 2326 Z M 2566 1318 " />
</clipPath>
<clipPath id="clip-57">
<path clip-rule="evenodd" d="M 2685.800781 1227.890625 L 2259.878906 1227.890625 L 2257.238281 1431.761719 L 2353.789062 2325.125 L 2418.21875 2325.125 L 2441.410156 1484.710938 L 2504.238281 1484.710938 L 2527.429688 2325.125 L 2591.851562 2325.125 L 2688.449219 1431.761719 Z M 2685.800781 1227.890625 " />
</clipPath>
<clipPath id="clip-58">
<path clip-rule="nonzero" d="M 2333 1242 L 2619 1242 L 2619 1271 L 2333 1271 Z M 2333 1242 " />
</clipPath>
<clipPath id="clip-59">
<path clip-rule="evenodd" d="M 2685.800781 1227.890625 L 2259.878906 1227.890625 L 2257.238281 1431.761719 L 2353.789062 2325.125 L 2418.21875 2325.125 L 2441.410156 1484.710938 L 2504.238281 1484.710938 L 2527.429688 2325.125 L 2591.851562 2325.125 L 2688.449219 1431.761719 Z M 2685.800781 1227.890625 " />
</clipPath>
<clipPath id="clip-60">
<path clip-rule="nonzero" d="M 2337 670 L 2609 670 L 2609 1251 L 2337 1251 Z M 2337 670 " />
</clipPath>
<clipPath id="clip-61">
<path clip-rule="evenodd" d="M 2337.550781 1250.609375 L 2608.128906 1250.609375 L 2608.128906 736.96875 L 2579.890625 670.339844 L 2365.789062 670.339844 L 2337.550781 736.96875 Z M 2337.550781 1250.609375 " />
</clipPath>
<clipPath id="clip-62">
<path clip-rule="nonzero" d="M 2318 670 L 2366 670 L 2366 1465 L 2318 1465 Z M 2318 670 " />
</clipPath>
<clipPath id="clip-63">
<path clip-rule="evenodd" d="M 2361.210938 1388.929688 C 2361.058594 1412.628906 2341.800781 1431.761719 2318.109375 1431.761719 L 2251.910156 1431.761719 C 2242.21875 1467.539062 2237.441406 1510.410156 2234.070312 1555.316406 L 2160.378906 1571.863281 C 2037.699219 1153.289062 2125.191406 681.351562 2365.789062 670.339844 Z M 2361.210938 1388.929688 " />
</clipPath>
<clipPath id="clip-64">
<path clip-rule="nonzero" d="M 2416 580 L 2534 580 L 2534 642 L 2416 642 Z M 2416 580 " />
</clipPath>
<clipPath id="clip-65">
<path clip-rule="evenodd" d="M 2515.710938 580.539062 L 2429.96875 580.539062 C 2430.738281 615.25 2419.328125 644.480469 2391.601562 666.359375 C 2410.640625 692.988281 2437.300781 708.660156 2472.839844 711.589844 C 2508.378906 708.660156 2535.039062 692.988281 2554.078125 666.359375 C 2526.351562 644.480469 2514.941406 615.25 2515.710938 580.539062 Z M 2515.710938 580.539062 " />
</clipPath>
<clipPath id="clip-66">
<path clip-rule="nonzero" d="M 2567 670 L 2634 670 L 2634 1297 L 2567 1297 Z M 2567 670 " />
</clipPath>
<clipPath id="clip-67">
<path clip-rule="evenodd" d="M 2579.890625 670.339844 C 2579.890625 670.339844 2551.921875 1119.691406 2579.890625 1227.890625 C 2603.761719 1320.21875 2688.449219 1332.03125 2688.449219 1332.03125 L 2711.390625 1299.378906 L 2699.480469 796.539062 Z M 2579.890625 670.339844 " />
</clipPath>
<clipPath id="clip-68">
<path clip-rule="nonzero" d="M 2523 356 L 2545 356 L 2545 384 L 2523 384 Z M 2523 356 " />
</clipPath>
<clipPath id="clip-69">
<path clip-rule="evenodd" d="M 2559.621094 362.980469 C 2559.621094 357.601562 2557.480469 352.429688 2553.679688 348.628906 C 2549.871094 344.820312 2544.710938 342.679688 2539.320312 342.679688 C 2528.109375 342.679688 2519.019531 351.769531 2519.019531 362.980469 C 2519.019531 374.390625 2519.019531 386.371094 2519.019531 386.371094 L 2559.621094 386.371094 C 2559.621094 386.371094 2559.621094 374.390625 2559.621094 362.980469 Z M 2559.621094 362.980469 " />
</clipPath>
<clipPath id="clip-70">
<path clip-rule="nonzero" d="M 2534 360 L 2540 360 L 2540 369 L 2534 369 Z M 2534 360 " />
</clipPath>
<clipPath id="clip-71">
<path clip-rule="evenodd" d="M 2559.621094 362.980469 C 2559.621094 357.601562 2557.480469 352.429688 2553.679688 348.628906 C 2549.871094 344.820312 2544.710938 342.679688 2539.320312 342.679688 C 2528.109375 342.679688 2519.019531 351.769531 2519.019531 362.980469 C 2519.019531 374.390625 2519.019531 386.371094 2519.019531 386.371094 L 2559.621094 386.371094 C 2559.621094 386.371094 2559.621094 374.390625 2559.621094 362.980469 Z M 2559.621094 362.980469 " />
</clipPath>
<clipPath id="clip-72">
<path clip-rule="nonzero" d="M 2398 356 L 2420 356 L 2420 384 L 2398 384 Z M 2398 356 " />
</clipPath>
<clipPath id="clip-73">
<path clip-rule="evenodd" d="M 2435.179688 362.980469 C 2435.179688 357.601562 2433.039062 352.429688 2429.230469 348.628906 C 2425.421875 344.820312 2420.261719 342.679688 2414.878906 342.679688 C 2403.671875 342.679688 2394.578125 351.769531 2394.578125 362.980469 C 2394.578125 374.390625 2394.578125 386.371094 2394.578125 386.371094 L 2435.179688 386.371094 C 2435.179688 386.371094 2435.179688 374.390625 2435.179688 362.980469 Z M 2435.179688 362.980469 " />
</clipPath>
<clipPath id="clip-74">
<path clip-rule="nonzero" d="M 2409 360 L 2415 360 L 2415 369 L 2409 369 Z M 2409 360 " />
</clipPath>
<clipPath id="clip-75">
<path clip-rule="evenodd" d="M 2435.179688 362.980469 C 2435.179688 357.601562 2433.039062 352.429688 2429.230469 348.628906 C 2425.421875 344.820312 2420.261719 342.679688 2414.878906 342.679688 C 2403.671875 342.679688 2394.578125 351.769531 2394.578125 362.980469 C 2394.578125 374.390625 2394.578125 386.371094 2394.578125 386.371094 L 2435.179688 386.371094 C 2435.179688 386.371094 2435.179688 374.390625 2435.179688 362.980469 Z M 2435.179688 362.980469 " />
</clipPath>
<clipPath id="clip-76">
<path clip-rule="nonzero" d="M 2452 537 L 2491 537 L 2491 552 L 2452 552 Z M 2452 537 " />
</clipPath>
<clipPath id="clip-77">
<path clip-rule="evenodd" d="M 2639.820312 160.878906 C 2646.941406 211.039062 2634.269531 265.339844 2564.609375 273.039062 C 2464.5 284.089844 2409.050781 216.949219 2376.160156 234.351562 C 2334.558594 256.371094 2346.808594 371.148438 2346.808594 371.148438 C 2346.808594 371.148438 2369.980469 406.050781 2376.160156 424.539062 C 2383.148438 445.46875 2388.738281 496.691406 2388.738281 496.691406 L 2547.820312 496.691406 C 2547.820312 496.691406 2549.761719 452.488281 2557.519531 436.679688 C 2564.96875 421.5 2594.371094 401.820312 2594.371094 401.820312 C 2594.371094 401.820312 2633.609375 543.511719 2582.898438 580.761719 C 2538.699219 613.230469 2371.628906 631.109375 2330.710938 573.921875 C 2287.46875 513.5 2329.578125 310.398438 2323.210938 270.980469 C 2268.578125 234.28125 2327.921875 160.699219 2367.78125 183.390625 C 2389.691406 149.148438 2433.011719 128.980469 2472.839844 128.671875 C 2556.109375 128 2564.019531 225.648438 2639.820312 160.878906 Z M 2639.820312 160.878906 " />
</clipPath>
<clipPath id="clip-78">
<path clip-rule="nonzero" d="M 2301 509 L 2622 509 L 2622 612 L 2301 612 Z M 2301 509 " />
</clipPath>
<clipPath id="clip-79">
<path clip-rule="evenodd" d="M 2639.820312 160.878906 C 2646.941406 211.039062 2634.269531 265.339844 2564.609375 273.039062 C 2464.5 284.089844 2409.050781 216.949219 2376.160156 234.351562 C 2334.558594 256.371094 2346.808594 371.148438 2346.808594 371.148438 C 2346.808594 371.148438 2369.980469 406.050781 2376.160156 424.539062 C 2383.148438 445.46875 2388.738281 496.691406 2388.738281 496.691406 L 2547.820312 496.691406 C 2547.820312 496.691406 2549.761719 452.488281 2557.519531 436.679688 C 2564.96875 421.5 2594.371094 401.820312 2594.371094 401.820312 C 2594.371094 401.820312 2633.609375 543.511719 2582.898438 580.761719 C 2538.699219 613.230469 2371.628906 631.109375 2330.710938 573.921875 C 2287.46875 513.5 2329.578125 310.398438 2323.210938 270.980469 C 2268.578125 234.28125 2327.921875 160.699219 2367.78125 183.390625 C 2389.691406 149.148438 2433.011719 128.980469 2472.839844 128.671875 C 2556.109375 128 2564.019531 225.648438 2639.820312 160.878906 Z M 2639.820312 160.878906 " />
</clipPath>
<clipPath id="clip-80">
<path clip-rule="nonzero" d="M 2343 219 L 2629 219 L 2629 318 L 2343 318 Z M 2343 219 " />
</clipPath>
<clipPath id="clip-81">
<path clip-rule="evenodd" d="M 2639.820312 160.878906 C 2646.941406 211.039062 2634.269531 265.339844 2564.609375 273.039062 C 2464.5 284.089844 2409.050781 216.949219 2376.160156 234.351562 C 2334.558594 256.371094 2346.808594 371.148438 2346.808594 371.148438 C 2346.808594 371.148438 2369.980469 406.050781 2376.160156 424.539062 C 2383.148438 445.46875 2388.738281 496.691406 2388.738281 496.691406 L 2547.820312 496.691406 C 2547.820312 496.691406 2549.761719 452.488281 2557.519531 436.679688 C 2564.96875 421.5 2594.371094 401.820312 2594.371094 401.820312 C 2594.371094 401.820312 2633.609375 543.511719 2582.898438 580.761719 C 2538.699219 613.230469 2371.628906 631.109375 2330.710938 573.921875 C 2287.46875 513.5 2329.578125 310.398438 2323.210938 270.980469 C 2268.578125 234.28125 2327.921875 160.699219 2367.78125 183.390625 C 2389.691406 149.148438 2433.011719 128.980469 2472.839844 128.671875 C 2556.109375 128 2564.019531 225.648438 2639.820312 160.878906 Z M 2639.820312 160.878906 " />
</clipPath>
<clipPath id="clip-82">
<path clip-rule="nonzero" d="M 2336 146 L 2399 146 L 2399 204 L 2336 204 Z M 2336 146 " />
</clipPath>
<clipPath id="clip-83">
<path clip-rule="evenodd" d="M 2639.820312 160.878906 C 2646.941406 211.039062 2634.269531 265.339844 2564.609375 273.039062 C 2464.5 284.089844 2409.050781 216.949219 2376.160156 234.351562 C 2334.558594 256.371094 2346.808594 371.148438 2346.808594 371.148438 C 2346.808594 371.148438 2369.980469 406.050781 2376.160156 424.539062 C 2383.148438 445.46875 2388.738281 496.691406 2388.738281 496.691406 L 2547.820312 496.691406 C 2547.820312 496.691406 2549.761719 452.488281 2557.519531 436.679688 C 2564.96875 421.5 2594.371094 401.820312 2594.371094 401.820312 C 2594.371094 401.820312 2633.609375 543.511719 2582.898438 580.761719 C 2538.699219 613.230469 2371.628906 631.109375 2330.710938 573.921875 C 2287.46875 513.5 2329.578125 310.398438 2323.210938 270.980469 C 2268.578125 234.28125 2327.921875 160.699219 2367.78125 183.390625 C 2389.691406 149.148438 2433.011719 128.980469 2472.839844 128.671875 C 2556.109375 128 2564.019531 225.648438 2639.820312 160.878906 Z M 2639.820312 160.878906 " />
</clipPath>
<clipPath id="clip-84">
<path clip-rule="nonzero" d="M 2699 864 L 2727 864 L 2727 1052 L 2699 1052 Z M 2699 864 " />
</clipPath>
<clipPath id="clip-85">
<path clip-rule="evenodd" d="M 2579.890625 670.339844 C 2730.398438 660.539062 2839.601562 921.761719 2873.921875 1134.558594 C 2885.851562 1208.511719 2720.800781 1329.621094 2720.800781 1329.621094 L 2662.988281 1261.691406 L 2760.511719 1164.121094 L 2699.480469 1051.160156 Z M 2579.890625 670.339844 " />
</clipPath>
<clipPath id="clip-86">
<path clip-rule="nonzero" d="M 3531 1884 L 3633 1884 L 3633 1929 L 3531 1929 Z M 3531 1884 " />
</clipPath>
<clipPath id="clip-87">
<path clip-rule="evenodd" d="M 3531.378906 1884.960938 L 3549.078125 2325.125 L 3591.390625 2325.125 L 3632.988281 1884.960938 Z M 3531.378906 1884.960938 " />
</clipPath>
<clipPath id="clip-88">
<path clip-rule="nonzero" d="M 3388 1884 L 3491 1884 L 3491 1929 L 3388 1929 Z M 3388 1884 " />
</clipPath>
<clipPath id="clip-89">
<path clip-rule="evenodd" d="M 3490.570312 1884.960938 L 3472.871094 2325.125 L 3430.558594 2325.125 L 3388.949219 1884.960938 Z M 3490.570312 1884.960938 " />
</clipPath>
<clipPath id="clip-90">
<path clip-rule="nonzero" d="M 3625 1068 L 3742 1068 L 3742 1460 L 3625 1460 Z M 3625 1068 " />
</clipPath>
<clipPath id="clip-91">
<path clip-rule="evenodd" d="M 3727.328125 1077.53125 C 3736.789062 1135.949219 3716.011719 1351.730469 3718.289062 1428.019531 C 3719.378906 1464.539062 3745.171875 1506.894531 3741.011719 1535.246094 C 3737.199219 1561.269531 3705.261719 1621.582031 3693.359375 1598.128906 C 3674.179688 1560.347656 3631.238281 1395.308594 3625.941406 1308.539062 C 3621.191406 1230.769531 3644.648438 1116.039062 3661.550781 1077.53125 C 3670.359375 1057.460938 3723.828125 1055.890625 3727.328125 1077.53125 Z M 3727.328125 1077.53125 " />
</clipPath>
<clipPath id="clip-92">
<path clip-rule="nonzero" d="M 3304 1326 L 3718 1326 L 3718 1910 L 3304 1910 Z M 3304 1326 " />
</clipPath>
<clipPath id="clip-93">
<path clip-rule="evenodd" d="M 3717.410156 1899.300781 C 3577.671875 1912.476562 3440.039062 1912.449219 3304.53125 1899.300781 C 3304.53125 1899.300781 3330.589844 1505.285156 3340.640625 1353.210938 C 3342.828125 1320.070312 3370.351562 1294.308594 3403.558594 1294.308594 C 3464.128906 1294.308594 3557.820312 1294.308594 3618.378906 1294.308594 C 3651.589844 1294.308594 3679.109375 1320.070312 3681.300781 1353.210938 C 3691.359375 1505.285156 3717.410156 1899.300781 3717.410156 1899.300781 Z M 3717.410156 1899.300781 " />
</clipPath>
<clipPath id="clip-94">
<path clip-rule="nonzero" d="M 3347 378 L 3719 378 L 3719 898 L 3347 898 Z M 3347 378 " />
</clipPath>
<clipPath id="clip-95">
<path clip-rule="evenodd" d="M 3419.101562 840.898438 C 3381.25 792.648438 3283.890625 766.21875 3289.148438 706.089844 C 3302.351562 555.089844 3351.109375 410.929688 3451.140625 376.710938 C 3491.238281 363 3529.570312 365.820312 3559.210938 400.5 C 3629.738281 398.179688 3647.789062 439.011719 3656.261719 479.269531 C 3666.988281 530.269531 3757.71875 535.808594 3697.769531 673.210938 C 3660.351562 758.980469 3759.421875 811.398438 3623.410156 845.308594 L 3501.621094 897.160156 Z M 3419.101562 840.898438 " />
</clipPath>
<clipPath id="clip-96">
<path clip-rule="nonzero" d="M 3356 498 L 3402 498 L 3402 634 L 3356 634 Z M 3356 498 " />
</clipPath>
<clipPath id="clip-97">
<path clip-rule="evenodd" d="M 3419.101562 840.898438 C 3381.25 792.648438 3283.890625 766.21875 3289.148438 706.089844 C 3302.351562 555.089844 3351.109375 410.929688 3451.140625 376.710938 C 3491.238281 363 3529.570312 365.820312 3559.210938 400.5 C 3629.738281 398.179688 3647.789062 439.011719 3656.261719 479.269531 C 3666.988281 530.269531 3757.71875 535.808594 3697.769531 673.210938 C 3660.351562 758.980469 3759.421875 811.398438 3623.410156 845.308594 L 3501.621094 897.160156 Z M 3419.101562 840.898438 " />
</clipPath>
<clipPath id="clip-98">
<path clip-rule="nonzero" d="M 3293 1087 L 3384 1087 L 3384 1209 L 3293 1209 Z M 3293 1087 " />
</clipPath>
<clipPath id="clip-99">
<path clip-rule="evenodd" d="M 3302.609375 1087.351562 L 3293.691406 1174.738281 L 3312.960938 1208.261719 L 3383.53125 1200.101562 L 3383.53125 1087.351562 Z M 3302.609375 1087.351562 " />
</clipPath>
<clipPath id="clip-100">
<path clip-rule="nonzero" d="M 3335 947 L 3362 947 L 3362 1116 L 3335 1116 Z M 3335 947 " />
</clipPath>
<clipPath id="clip-101">
<path clip-rule="evenodd" d="M 3587.191406 836.898438 C 3701.191406 829.378906 3723.808594 932.851562 3741.011719 1087.351562 L 3660.921875 1108.730469 C 3660.75 1159.789062 3664.859375 1207.898438 3672.578125 1244.621094 C 3675.929688 1260.550781 3671.921875 1277.140625 3661.660156 1289.78125 C 3651.410156 1302.421875 3635.550781 1306.929688 3619.71875 1309.761719 C 3555.699219 1321.191406 3465.671875 1320.679688 3406.25 1309.761719 C 3389.539062 1306.679688 3372.761719 1302 3361.921875 1288.640625 C 3351.078125 1275.289062 3346.839844 1257.75 3350.378906 1240.921875 C 3358.011719 1204.640625 3361.011719 1158.421875 3361.738281 1108.859375 L 3281.171875 1087.351562 C 3298.390625 932.699219 3321.03125 829.179688 3435.320312 836.929688 L 3586.859375 836.929688 Z M 3587.191406 836.898438 " />
</clipPath>
<clipPath id="clip-102">
<path clip-rule="nonzero" d="M 3660 947 L 3688 947 L 3688 1116 L 3660 1116 Z M 3660 947 " />
</clipPath>
<clipPath id="clip-103">
<path clip-rule="evenodd" d="M 3587.191406 836.898438 C 3701.191406 829.378906 3723.808594 932.851562 3741.011719 1087.351562 L 3660.921875 1108.730469 C 3660.75 1159.789062 3664.859375 1207.898438 3672.578125 1244.621094 C 3675.929688 1260.550781 3671.921875 1277.140625 3661.660156 1289.78125 C 3651.410156 1302.421875 3635.550781 1306.929688 3619.71875 1309.761719 C 3555.699219 1321.191406 3465.671875 1320.679688 3406.25 1309.761719 C 3389.539062 1306.679688 3372.761719 1302 3361.921875 1288.640625 C 3351.078125 1275.289062 3346.839844 1257.75 3350.378906 1240.921875 C 3358.011719 1204.640625 3361.011719 1158.421875 3361.738281 1108.859375 L 3281.171875 1087.351562 C 3298.390625 932.699219 3321.03125 829.179688 3435.320312 836.929688 L 3586.859375 836.929688 Z M 3587.191406 836.898438 " />
</clipPath>
<clipPath id="clip-104">
<path clip-rule="nonzero" d="M 3299 1240 L 3716 1240 L 3716 1319 L 3299 1319 Z M 3299 1240 " />
</clipPath>
<clipPath id="clip-105">
<path clip-rule="evenodd" d="M 3587.191406 836.898438 C 3701.191406 829.378906 3723.808594 932.851562 3741.011719 1087.351562 L 3660.921875 1108.730469 C 3660.75 1159.789062 3664.859375 1207.898438 3672.578125 1244.621094 C 3675.929688 1260.550781 3671.921875 1277.140625 3661.660156 1289.78125 C 3651.410156 1302.421875 3635.550781 1306.929688 3619.71875 1309.761719 C 3555.699219 1321.191406 3465.671875 1320.679688 3406.25 1309.761719 C 3389.539062 1306.679688 3372.761719 1302 3361.921875 1288.640625 C 3351.078125 1275.289062 3346.839844 1257.75 3350.378906 1240.921875 C 3358.011719 1204.640625 3361.011719 1158.421875 3361.738281 1108.859375 L 3281.171875 1087.351562 C 3298.390625 932.699219 3321.03125 829.179688 3435.320312 836.929688 L 3586.859375 836.929688 Z M 3587.191406 836.898438 " />
</clipPath>
<clipPath id="clip-106">
<path clip-rule="nonzero" d="M 3457 723 L 3565 723 L 3565 787 L 3457 787 Z M 3457 723 " />
</clipPath>
<clipPath id="clip-107">
<path clip-rule="evenodd" d="M 3587.648438 831.878906 C 3537.550781 860.859375 3487.449219 865.878906 3437.351562 831.878906 C 3462.390625 824.148438 3479.089844 771.359375 3485.679688 686.878906 L 3539.320312 686.878906 C 3537.878906 765.859375 3552.171875 826.039062 3587.648438 831.878906 Z M 3587.648438 831.878906 " />
</clipPath>
<clipPath id="clip-108">
<path clip-rule="nonzero" d="M 3447 603 L 3469 603 L 3469 632 L 3447 632 Z M 3447 603 " />
</clipPath>
<clipPath id="clip-109">
<path clip-rule="evenodd" d="M 3438.089844 611.578125 C 3438.089844 606.199219 3440.230469 601.03125 3444.03125 597.230469 C 3447.839844 593.421875 3453 591.28125 3458.390625 591.28125 C 3469.601562 591.28125 3478.691406 600.371094 3478.691406 611.578125 C 3478.691406 622.988281 3478.691406 634.96875 3478.691406 634.96875 L 3438.089844 634.96875 C 3438.089844 634.96875 3438.089844 622.988281 3438.089844 611.578125 Z M 3438.089844 611.578125 " />
</clipPath>
<clipPath id="clip-110">
<path clip-rule="nonzero" d="M 3452 608 L 3458 608 L 3458 617 L 3452 617 Z M 3452 608 " />
</clipPath>
<clipPath id="clip-111">
<path clip-rule="evenodd" d="M 3438.089844 611.578125 C 3438.089844 606.199219 3440.230469 601.03125 3444.03125 597.230469 C 3447.839844 593.421875 3453 591.28125 3458.390625 591.28125 C 3469.601562 591.28125 3478.691406 600.371094 3478.691406 611.578125 C 3478.691406 622.988281 3478.691406 634.96875 3478.691406 634.96875 L 3438.089844 634.96875 C 3438.089844 634.96875 3438.089844 622.988281 3438.089844 611.578125 Z M 3438.089844 611.578125 " />
</clipPath>
<clipPath id="clip-112">
<path clip-rule="nonzero" d="M 3561 603 L 3583 603 L 3583 632 L 3561 632 Z M 3561 603 " />
</clipPath>
<clipPath id="clip-113">
<path clip-rule="evenodd" d="M 3551.46875 611.578125 C 3551.46875 606.199219 3553.609375 601.03125 3557.421875 597.230469 C 3561.230469 593.421875 3566.390625 591.28125 3571.769531 591.28125 C 3582.980469 591.28125 3592.070312 600.371094 3592.070312 611.578125 C 3592.070312 622.988281 3592.070312 634.96875 3592.070312 634.96875 L 3551.46875 634.96875 C 3551.46875 634.96875 3551.46875 622.988281 3551.46875 611.578125 Z M 3551.46875 611.578125 " />
</clipPath>
<clipPath id="clip-114">
<path clip-rule="nonzero" d="M 3566 608 L 3572 608 L 3572 617 L 3566 617 Z M 3566 608 " />
</clipPath>
<clipPath id="clip-115">
<path clip-rule="evenodd" d="M 3551.46875 611.578125 C 3551.46875 606.199219 3553.609375 601.03125 3557.421875 597.230469 C 3561.230469 593.421875 3566.390625 591.28125 3571.769531 591.28125 C 3582.980469 591.28125 3592.070312 600.371094 3592.070312 611.578125 C 3592.070312 622.988281 3592.070312 634.96875 3592.070312 634.96875 L 3551.46875 634.96875 C 3551.46875 634.96875 3551.46875 622.988281 3551.46875 611.578125 Z M 3551.46875 611.578125 " />
</clipPath>
<clipPath id="clip-116">
<path clip-rule="nonzero" d="M 3146 1182 L 3321 1182 L 3321 1373 L 3146 1373 Z M 3146 1182 " />
</clipPath>
<clipPath id="clip-117">
<path clip-rule="evenodd" d="M 3320.480469 1207.78125 C 3342.929688 1213.179688 3320.480469 1391.269531 3320.480469 1391.269531 L 3372.328125 1401.101562 C 3372.328125 1401.101562 3419.429688 1180.621094 3320.480469 1171.421875 C 3236.75 1163.628906 3146.390625 1340.199219 3146.390625 1340.199219 L 3182.140625 1357.859375 L 3245.570312 1274.128906 C 3245.570312 1274.128906 3297.640625 1202.28125 3320.480469 1207.78125 Z M 3320.480469 1207.78125 " />
</clipPath>
<clipPath id="clip-118">
<path clip-rule="nonzero" d="M 3055 1372 L 3406 1372 L 3406 1713 L 3055 1713 Z M 3055 1372 " />
</clipPath>
<clipPath id="clip-119">
<path clip-rule="evenodd" d="M 3129.179688 1326.839844 C 3153.53125 1322.730469 3253.710938 1385.011719 3380.050781 1385.96875 C 3422.878906 1386.300781 3409.800781 1654.898438 3356.21875 1695.679688 C 3302.640625 1736.460938 3104.949219 1695.992188 3066.960938 1633.75 C 3028.980469 1571.503906 3097.191406 1332.238281 3129.179688 1326.839844 Z M 3129.179688 1326.839844 " />
</clipPath>
<clipPath id="clip-120">
<path clip-rule="nonzero" d="M 3174 1326 L 3324 1326 L 3324 1467 L 3174 1467 Z M 3174 1326 " />
</clipPath>
<clipPath id="clip-121">
<path clip-rule="evenodd" d="M 3129.179688 1326.839844 C 3153.53125 1322.730469 3253.710938 1385.011719 3380.050781 1385.96875 C 3422.878906 1386.300781 3409.800781 1654.898438 3356.21875 1695.679688 C 3302.640625 1736.460938 3104.949219 1695.992188 3066.960938 1633.75 C 3028.980469 1571.503906 3097.191406 1332.238281 3129.179688 1326.839844 Z M 3129.179688 1326.839844 " />
</clipPath>
<clipPath id="clip-122">
<path clip-rule="nonzero" d="M 4043 204 L 4438 204 L 4438 805 L 4043 805 Z M 4043 204 " />
</clipPath>
<clipPath id="clip-123">
<path clip-rule="evenodd" d="M 4158.929688 527.140625 C 4052.640625 467.308594 4040.210938 408.058594 4044.558594 345.101562 C 4049.289062 276.558594 4044.648438 218.03125 4136.128906 179.898438 C 4182.621094 160.519531 4232.78125 166.648438 4265.160156 225.089844 C 4383.351562 217.898438 4365.710938 311.839844 4359.960938 352.621094 C 4357.71875 368.511719 4379.351562 377.839844 4382.210938 396.910156 C 4385 415.488281 4382.140625 443.449219 4388.828125 460.699219 C 4396.28125 479.878906 4427.519531 496.351562 4434.058594 514.230469 C 4441.550781 534.660156 4427.511719 553.441406 4434.058594 573.480469 C 4441.808594 597.148438 4500.628906 615.171875 4502.878906 655.988281 C 4504.871094 691.898438 4471.230469 716.199219 4469.140625 735.199219 C 4464.25 779.738281 4447.601562 805.980469 4403.839844 804.699219 L 4217.511719 674.53125 L 4211.21875 540.820312 Z M 4158.929688 527.140625 " />
</clipPath>
<clipPath id="clip-124">
<path clip-rule="nonzero" d="M 4046 1227 L 4391 1227 L 4391 1392 L 4046 1392 Z M 4046 1227 " />
</clipPath>
<clipPath id="clip-125">
<path clip-rule="evenodd" d="M 4387.910156 1227.890625 L 4048.730469 1227.890625 L 4046.621094 1431.761719 L 4123.519531 2325.125 L 4174.820312 2325.125 L 4192.570312 1451.839844 L 4242.601562 1451.839844 L 4261.789062 2325.125 L 4313.101562 2325.125 L 4390.019531 1431.761719 Z M 4387.910156 1227.890625 " />
</clipPath>
<clipPath id="clip-126">
<path clip-rule="nonzero" d="M 4166 1435 L 4243 1435 L 4243 2326 L 4166 2326 Z M 4166 1435 " />
</clipPath>
<clipPath id="clip-127">
<path clip-rule="evenodd" d="M 4387.910156 1227.890625 L 4048.730469 1227.890625 L 4046.621094 1431.761719 L 4123.519531 2325.125 L 4174.820312 2325.125 L 4192.570312 1451.839844 L 4242.601562 1451.839844 L 4261.789062 2325.125 L 4313.101562 2325.125 L 4390.019531 1431.761719 Z M 4387.910156 1227.890625 " />
</clipPath>
<clipPath id="clip-128">
<path clip-rule="nonzero" d="M 4313 1701 L 4391 1701 L 4391 2326 L 4313 2326 Z M 4313 1701 " />
</clipPath>
<clipPath id="clip-129">
<path clip-rule="evenodd" d="M 4387.910156 1227.890625 L 4048.730469 1227.890625 L 4046.621094 1431.761719 L 4123.519531 2325.125 L 4174.820312 2325.125 L 4192.570312 1451.839844 L 4242.601562 1451.839844 L 4261.789062 2325.125 L 4313.101562 2325.125 L 4390.019531 1431.761719 Z M 4387.910156 1227.890625 " />
</clipPath>
<clipPath id="clip-130">
<path clip-rule="nonzero" d="M 4169 527 L 4266 527 L 4266 587 L 4169 587 Z M 4169 527 " />
</clipPath>
<clipPath id="clip-131">
<path clip-rule="evenodd" d="M 4246.191406 527.140625 L 4176.25 527.140625 C 4183.070312 571.328125 4183.121094 614.589844 4169.851562 655.988281 L 4265.160156 655.988281 C 4245.710938 615.808594 4239.21875 572.898438 4246.191406 527.140625 Z M 4246.191406 527.140625 " />
</clipPath>
<clipPath id="clip-132">
<path clip-rule="nonzero" d="M 4152 380 L 4170 380 L 4170 404 L 4152 404 Z M 4152 380 " />
</clipPath>
<clipPath id="clip-133">
<path clip-rule="evenodd" d="M 4178.148438 386.179688 C 4178.148438 381.671875 4176.359375 377.339844 4173.171875 374.148438 C 4169.980469 370.960938 4165.648438 369.160156 4161.128906 369.160156 C 4151.730469 369.160156 4144.121094 376.78125 4144.121094 386.179688 C 4144.121094 395.75 4144.121094 405.789062 4144.121094 405.789062 L 4178.148438 405.789062 C 4178.148438 405.789062 4178.148438 395.75 4178.148438 386.179688 Z M 4178.148438 386.179688 " />
</clipPath>
<clipPath id="clip-134">
<path clip-rule="nonzero" d="M 4156 383 L 4162 383 L 4162 392 L 4156 392 Z M 4156 383 " />
</clipPath>
<clipPath id="clip-135">
<path clip-rule="evenodd" d="M 4178.148438 386.179688 C 4178.148438 381.671875 4176.359375 377.339844 4173.171875 374.148438 C 4169.980469 370.960938 4165.648438 369.160156 4161.128906 369.160156 C 4151.730469 369.160156 4144.121094 376.78125 4144.121094 386.179688 C 4144.121094 395.75 4144.121094 405.789062 4144.121094 405.789062 L 4178.148438 405.789062 C 4178.148438 405.789062 4178.148438 395.75 4178.148438 386.179688 Z M 4178.148438 386.179688 " />
</clipPath>
<clipPath id="clip-136">
<path clip-rule="nonzero" d="M 4252 380 L 4271 380 L 4271 404 L 4252 404 Z M 4252 380 " />
</clipPath>
<clipPath id="clip-137">
<path clip-rule="evenodd" d="M 4278.320312 386.179688 C 4278.320312 381.671875 4276.53125 377.339844 4273.339844 374.148438 C 4270.140625 370.960938 4265.820312 369.160156 4261.300781 369.160156 C 4251.898438 369.160156 4244.289062 376.78125 4244.289062 386.179688 C 4244.289062 395.75 4244.289062 405.789062 4244.289062 405.789062 L 4278.320312 405.789062 C 4278.320312 405.789062 4278.320312 395.75 4278.320312 386.179688 Z M 4278.320312 386.179688 " />
</clipPath>
<clipPath id="clip-138">
<path clip-rule="nonzero" d="M 4257 383 L 4262 383 L 4262 392 L 4257 392 Z M 4257 383 " />
</clipPath>
<clipPath id="clip-139">
<path clip-rule="evenodd" d="M 4278.320312 386.179688 C 4278.320312 381.671875 4276.53125 377.339844 4273.339844 374.148438 C 4270.140625 370.960938 4265.820312 369.160156 4261.300781 369.160156 C 4251.898438 369.160156 4244.289062 376.78125 4244.289062 386.179688 C 4244.289062 395.75 4244.289062 405.789062 4244.289062 405.789062 L 4278.320312 405.789062 C 4278.320312 405.789062 4278.320312 395.75 4278.320312 386.179688 Z M 4278.320312 386.179688 " />
</clipPath>
<clipPath id="clip-140">
<path clip-rule="nonzero" d="M 4124 771 L 4345 771 L 4345 1261 L 4124 1261 Z M 4124 771 " />
</clipPath>
<clipPath id="clip-141">
<path clip-rule="evenodd" d="M 4145.089844 708.730469 C 4156.171875 943.429688 4323.980469 928.671875 4312.671875 708.730469 L 4344.878906 860.75 L 4344.878906 1245.980469 C 4258.808594 1266.390625 4179.171875 1265.121094 4104.820312 1245.980469 Z M 4145.089844 708.730469 " />
</clipPath>
<clipPath id="clip-142">
<path clip-rule="nonzero" d="M 4018 832 L 4079 832 L 4079 1138 L 4018 1138 Z M 4018 832 " />
</clipPath>
<clipPath id="clip-143">
<path clip-rule="evenodd" d="M 4156.699219 1355.890625 C 4083.191406 1353.179688 4018.101562 1343.839844 3994.769531 1327.179688 C 3973.28125 1311.828125 4043.429688 1181.609375 4046.621094 1101.601562 C 4051.449219 980.589844 4078.289062 758.351562 4078.289062 758.351562 L 4144.140625 655.988281 Z M 4156.699219 1355.890625 " />
</clipPath>
<clipPath id="clip-144">
<path clip-rule="nonzero" d="M 4015 1137 L 4157 1137 L 4157 1257 L 4015 1257 Z M 4015 1137 " />
</clipPath>
<clipPath id="clip-145">
<path clip-rule="evenodd" d="M 4156.699219 1355.890625 C 4083.191406 1353.179688 4018.101562 1343.839844 3994.769531 1327.179688 C 3973.28125 1311.828125 4043.429688 1181.609375 4046.621094 1101.601562 C 4051.449219 980.589844 4078.289062 758.351562 4078.289062 758.351562 L 4144.140625 655.988281 Z M 4156.699219 1355.890625 " />
</clipPath>
<clipPath id="clip-146">
<path clip-rule="nonzero" d="M 4341 812 L 4451 812 L 4451 1080 L 4341 1080 Z M 4341 812 " />
</clipPath>
<clipPath id="clip-147">
<path clip-rule="evenodd" d="M 4289.769531 655.988281 C 4314.300781 662.128906 4353.460938 664.03125 4374.269531 686.511719 C 4477.671875 798.191406 4517.699219 1083.339844 4516.800781 1092.859375 C 4511.21875 1151.929688 4405.378906 1191.480469 4405.378906 1191.480469 L 4374.269531 1100.800781 C 4374.269531 1100.800781 4413.761719 1070.621094 4413.761719 1048.070312 C 4413.761719 1018.539062 4374.269531 923.628906 4374.269531 923.628906 L 4334.929688 768.96875 Z M 4289.769531 655.988281 " />
</clipPath>
<clipPath id="clip-148">
<path clip-rule="nonzero" d="M 4289 1137 L 4402 1137 L 4402 1257 L 4289 1257 Z M 4289 1137 " />
</clipPath>
<clipPath id="clip-149">
<path clip-rule="evenodd" d="M 4289.769531 655.988281 L 4329.75 756.019531 C 4329.75 756.019531 4386.5 1018.269531 4398.039062 1113.070312 C 4406.738281 1184.480469 4454.128906 1312.929688 4429.210938 1327.179688 C 4411.101562 1337.53125 4374.5 1345.289062 4329.75 1350.25 C 4333.210938 1103.949219 4348.78125 846.910156 4289.769531 655.988281 Z M 4289.769531 655.988281 " />
</clipPath>
<clipPath id="clip-150">
<path clip-rule="nonzero" d="M 4326 1613 L 4537 1613 L 4537 1790 L 4326 1790 Z M 4326 1613 " />
</clipPath>
<clipPath id="clip-151">
<path clip-rule="evenodd" d="M 4370.738281 1074.210938 C 4407.410156 1352.808594 4283.511719 1755.652344 4374.710938 1769.113281 C 4396.339844 1772.308594 4407.988281 1766.800781 4424.378906 1769.113281 C 4444.679688 1771.984375 4449.878906 1799.507812 4496.5 1786.324219 C 4614.789062 1752.875 4433.460938 1258.421875 4406.878906 1074.210938 L 4327.660156 663.699219 C 4314.851562 652.25 4297.460938 652.390625 4289.769531 655.988281 Z M 4370.738281 1074.210938 " />
</clipPath>
<clipPath id="clip-152">
<path clip-rule="nonzero" d="M 4363 1131 L 4441 1131 L 4441 1297 L 4363 1297 Z M 4363 1131 " />
</clipPath>
<clipPath id="clip-153">
<path clip-rule="evenodd" d="M 4370.738281 1074.210938 C 4407.410156 1352.808594 4283.511719 1755.652344 4374.710938 1769.113281 C 4396.339844 1772.308594 4407.988281 1766.800781 4424.378906 1769.113281 C 4444.679688 1771.984375 4449.878906 1799.507812 4496.5 1786.324219 C 4614.789062 1752.875 4433.460938 1258.421875 4406.878906 1074.210938 L 4327.660156 663.699219 C 4314.851562 652.25 4297.460938 652.390625 4289.769531 655.988281 Z M 4370.738281 1074.210938 " />
</clipPath>
<clipPath id="clip-154">
<path clip-rule="nonzero" d="M 4174 1104 L 4290 1104 L 4290 1226 L 4174 1226 Z M 4174 1104 " />
</clipPath>
<clipPath id="clip-155">
<path clip-rule="evenodd" d="M 4144.140625 655.988281 C 4109.539062 657.738281 4072.859375 659.890625 4044.511719 696.441406 C 3962.359375 802.359375 3915.871094 1035.558594 3923.511719 1116.25 C 3939.808594 1288.628906 4289.769531 1205.609375 4289.769531 1205.609375 C 4276.371094 1176.109375 4270.070312 1144.839844 4273.398438 1111.171875 C 4273.398438 1111.171875 4057.621094 1140.808594 4024.339844 1104.328125 C 3991.050781 1067.851562 4073.691406 897.371094 4073.691406 897.371094 Z M 4144.140625 655.988281 " />
</clipPath>
</defs>
<path fill-rule="evenodd" fill="rgb(31.396484%, 14.501953%, 20.410156%)" fill-opacity="1" d="M 3696.480469 2371.335938 L 3549.078125 2371.335938 L 3549.078125 2325.125 L 3575.210938 2305.664062 L 3591.390625 2325.125 C 3591.390625 2325.125 3609.601562 2325.125 3634.410156 2325.125 C 3650.871094 2325.125 3666.660156 2329.851562 3678.300781 2338.269531 C 3689.941406 2346.6875 3696.480469 2358.101562 3696.480469 2370.003906 C 3696.480469 2370.859375 3696.480469 2371.335938 3696.480469 2371.335938 " />
<path fill-rule="evenodd" fill="rgb(99.609375%, 65.039062%, 49.388123%)" fill-opacity="1" d="M 3531.378906 1884.960938 L 3549.078125 2325.125 L 3591.390625 2325.125 L 3632.988281 1884.960938 L 3531.378906 1884.960938 " />
<g clip-path="url(#clip-86)">
<g clip-path="url(#clip-87)">
<path fill-rule="evenodd" fill="rgb(98.4375%, 50.976562%, 32.200623%)" fill-opacity="1" d="M 3662.550781 1884.960938 L 3374.398438 1884.960938 L 3374.398438 1928.195312 L 3662.550781 1928.195312 L 3662.550781 1884.960938 " />
</g>
</g>
<path fill-rule="evenodd" fill="rgb(31.396484%, 14.501953%, 20.410156%)" fill-opacity="1" d="M 3325.511719 2371.335938 L 3472.871094 2371.335938 L 3472.871094 2325.125 L 3446.730469 2305.664062 L 3430.558594 2325.125 C 3430.558594 2325.125 3412.390625 2325.125 3387.589844 2325.125 C 3371.121094 2325.125 3355.339844 2329.851562 3343.691406 2338.269531 C 3332.050781 2346.6875 3325.511719 2358.101562 3325.511719 2370.003906 C 3325.511719 2370.859375 3325.511719 2371.335938 3325.511719 2371.335938 " />
<path fill-rule="evenodd" fill="rgb(99.609375%, 65.039062%, 49.388123%)" fill-opacity="1" d="M 3490.570312 1884.960938 L 3472.871094 2325.125 L 3430.558594 2325.125 L 3388.949219 1884.960938 L 3490.570312 1884.960938 " />
<g clip-path="url(#clip-88)">
<g clip-path="url(#clip-89)">
<path fill-rule="evenodd" fill="rgb(98.4375%, 50.976562%, 32.200623%)" fill-opacity="1" d="M 3662.550781 1884.960938 L 3374.398438 1884.960938 L 3374.398438 1928.195312 L 3662.550781 1928.195312 L 3662.550781 1884.960938 " />
</g>
</g>
<path fill-rule="evenodd" fill="rgb(99.609375%, 65.039062%, 49.388123%)" fill-opacity="1" d="M 3727.328125 1077.53125 C 3736.789062 1135.949219 3716.011719 1351.730469 3718.289062 1428.019531 C 3719.378906 1464.539062 3745.171875 1506.894531 3741.011719 1535.246094 C 3737.199219 1561.269531 3705.261719 1621.582031 3693.359375 1598.128906 C 3674.179688 1560.347656 3631.238281 1395.308594 3625.941406 1308.539062 C 3621.191406 1230.769531 3644.648438 1116.039062 3661.550781 1077.53125 C 3670.359375 1057.460938 3723.828125 1055.890625 3727.328125 1077.53125 " />
<g clip-path="url(#clip-90)">
<g clip-path="url(#clip-91)">
<path fill-rule="evenodd" fill="rgb(98.4375%, 50.976562%, 32.200623%)" fill-opacity="1" d="M 3741.46875 1104.550781 C 3614.570312 1098.671875 3725.75 1345.910156 3678.789062 1459.351562 L 3608.410156 1287.019531 L 3642.390625 1082.488281 L 3755.800781 1068.808594 L 3741.46875 1104.550781 " />
</g>
</g>
<path fill-rule="evenodd" fill="rgb(90.039062%, 40.989685%, 19.897461%)" fill-opacity="1" d="M 3721.160156 1502.382812 C 3715.230469 1507.792969 3712.140625 1516.238281 3710.511719 1525.71875 C 3710.128906 1527.945312 3709.851562 1530.230469 3709.628906 1532.542969 C 3709.320312 1535.925781 3709.128906 1539.367188 3709.058594 1542.773438 C 3709 1545.15625 3709.011719 1547.519531 3709.03125 1549.835938 C 3709.050781 1552.234375 3709.101562 1554.585938 3709.121094 1556.851562 C 3709.179688 1562 3709.121094 1566.714844 3708.550781 1570.640625 C 3707.570312 1577.371094 3705.148438 1581.679688 3698.949219 1581.195312 C 3698.609375 1581.152344 3698.308594 1581.390625 3698.261719 1581.726562 C 3698.21875 1582.058594 3698.460938 1582.367188 3698.789062 1582.410156 C 3706.050781 1583.703125 3709.601562 1579.046875 3711.46875 1571.199219 C 3712.421875 1567.183594 3712.890625 1562.292969 3713.191406 1556.945312 C 3713.320312 1554.664062 3713.421875 1552.296875 3713.488281 1549.882812 C 3713.550781 1547.578125 3713.609375 1545.226562 3713.640625 1542.863281 C 3713.691406 1539.523438 3713.730469 1536.15625 3713.871094 1532.832031 C 3713.96875 1530.59375 3714.089844 1528.378906 3714.289062 1526.203125 C 3714.75 1520.996094 3715.570312 1516.066406 3717.179688 1511.722656 C 3718.359375 1508.523438 3719.898438 1505.652344 3722.03125 1503.246094 C 3722.269531 1503.003906 3722.269531 1502.617188 3722.03125 1502.378906 C 3721.789062 1502.144531 3721.398438 1502.144531 3721.160156 1502.382812 " />
<path fill-rule="evenodd" fill="rgb(49.804688%, 24.291992%, 25.097656%)" fill-opacity="1" d="M 3717.410156 1899.300781 C 3577.671875 1912.476562 3440.039062 1912.449219 3304.53125 1899.300781 C 3304.53125 1899.300781 3330.589844 1505.285156 3340.640625 1353.210938 C 3342.828125 1320.070312 3370.351562 1294.308594 3403.558594 1294.308594 C 3464.128906 1294.308594 3557.820312 1294.308594 3618.378906 1294.308594 C 3651.589844 1294.308594 3679.109375 1320.070312 3681.300781 1353.210938 C 3691.359375 1505.285156 3717.410156 1899.300781 3717.410156 1899.300781 " />
<g clip-path="url(#clip-92)">
<g clip-path="url(#clip-93)">
<path fill-rule="evenodd" fill="rgb(40.893555%, 19.993591%, 20.701599%)" fill-opacity="1" d="M 3403.558594 1524.867188 C 3523.199219 1541.726562 3570.980469 1486.730469 3540.230469 1353.210938 C 3609.300781 1358.359375 3660.671875 1344.738281 3695.78125 1326.648438 L 3750.941406 1929.960938 L 3281.171875 1929.960938 L 3326.519531 1566.726562 L 3403.558594 1524.867188 " />
</g>
</g>
<path fill-rule="evenodd" fill="rgb(31.396484%, 14.892578%, 19.604492%)" fill-opacity="1" d="M 3419.101562 840.898438 C 3381.25 792.648438 3283.890625 766.21875 3289.148438 706.089844 C 3302.351562 555.089844 3351.109375 410.929688 3451.140625 376.710938 C 3491.238281 363 3529.570312 365.820312 3559.210938 400.5 C 3629.738281 398.179688 3647.789062 439.011719 3656.261719 479.269531 C 3666.988281 530.269531 3757.71875 535.808594 3697.769531 673.210938 C 3660.351562 758.980469 3759.421875 811.398438 3623.410156 845.308594 L 3501.621094 897.160156 L 3419.101562 840.898438 " />
<g clip-path="url(#clip-94)">
<g clip-path="url(#clip-95)">
<path fill-rule="evenodd" fill="rgb(24.804688%, 12.205505%, 15.989685%)" fill-opacity="1" d="M 3347.578125 828.808594 C 3346.738281 829.378906 3354.429688 825.871094 3356.429688 824.820312 C 3365.671875 819.988281 3373.96875 814.71875 3382.589844 808.898438 C 3408.058594 791.699219 3423.839844 756.339844 3409.859375 728.058594 C 3378.898438 665.429688 3379.851562 613.691406 3429.710938 546.300781 C 3436.679688 536.878906 3449.191406 529.699219 3455.511719 521.179688 C 3458.398438 517.28125 3456.601562 505.558594 3458.089844 500.53125 C 3465.148438 476.730469 3475.320312 427.96875 3491.78125 408.570312 C 3535.429688 357.128906 3634.730469 382.988281 3678.890625 408.570312 C 3753.328125 451.710938 3747.320312 704.859375 3729.378906 781.789062 C 3722.800781 809.988281 3699.601562 850.910156 3678.890625 871.089844 C 3648.148438 901.039062 3610.21875 906.429688 3570.179688 914.871094 C 3569.640625 914.980469 3558.921875 917.261719 3558.378906 917.359375 C 3556.421875 917.730469 3554.449219 918.03125 3552.480469 918.359375 C 3471.429688 932.039062 3420.171875 956.328125 3361.21875 885.519531 C 3355.578125 878.75 3344.460938 863.621094 3350.53125 854.421875 " />
</g>
</g>
<g clip-path="url(#clip-96)">
<g clip-path="url(#clip-97)">
<path fill-rule="evenodd" fill="rgb(24.705505%, 12.205505%, 16.088867%)" fill-opacity="1" d="M 3362.371094 632.96875 C 3361.730469 622.289062 3361.769531 611.96875 3362.328125 601.941406 C 3362.71875 594.96875 3363.410156 588.191406 3364.378906 581.558594 C 3365.21875 575.878906 3366.300781 570.351562 3367.558594 564.910156 C 3368.839844 559.371094 3370.300781 553.941406 3372.101562 548.648438 C 3375.121094 539.730469 3378.941406 531.191406 3383.851562 523.039062 C 3388.640625 515.109375 3394.300781 507.53125 3401.148438 500.410156 L 3399.550781 498.710938 C 3387.808594 508.820312 3378.578125 520.160156 3371.640625 532.710938 C 3368.28125 538.78125 3365.5 545.128906 3363.21875 551.71875 C 3362.261719 554.519531 3361.398438 557.371094 3360.660156 560.261719 C 3359.679688 564.070312 3358.890625 567.941406 3358.269531 571.890625 C 3357.378906 577.640625 3356.859375 583.53125 3356.640625 589.539062 C 3356.480469 593.890625 3356.5 598.300781 3356.679688 602.769531 C 3357.089844 612.679688 3358.300781 622.820312 3360.058594 633.238281 L 3362.371094 632.96875 " />
</g>
</g>
<path fill-rule="evenodd" fill="rgb(99.609375%, 65.039062%, 49.388123%)" fill-opacity="1" d="M 3302.609375 1087.351562 L 3293.691406 1174.738281 L 3312.960938 1208.261719 L 3383.53125 1200.101562 L 3383.53125 1087.351562 L 3302.609375 1087.351562 " />
<g clip-path="url(#clip-98)">
<g clip-path="url(#clip-99)">
<path fill-rule="evenodd" fill="rgb(98.4375%, 50.976562%, 32.200623%)" fill-opacity="1" d="M 3287.738281 1102.578125 C 3343.019531 1102.550781 3357.609375 1122.328125 3344.351562 1208.261719 L 3370.558594 1226.789062 L 3383.53125 1092.539062 L 3302.609375 1087.351562 L 3287.738281 1102.578125 " />
</g>
</g>
<path fill-rule="evenodd" fill="rgb(100%, 91.796875%, 82.617188%)" fill-opacity="1" d="M 3587.191406 836.898438 C 3701.191406 829.378906 3723.808594 932.851562 3741.011719 1087.351562 L 3660.921875 1108.730469 C 3660.75 1159.789062 3664.859375 1207.898438 3672.578125 1244.621094 C 3675.929688 1260.550781 3671.921875 1277.140625 3661.660156 1289.78125 C 3651.410156 1302.421875 3635.550781 1306.929688 3619.71875 1309.761719 C 3555.699219 1321.191406 3465.671875 1320.679688 3406.25 1309.761719 C 3389.539062 1306.679688 3372.761719 1302 3361.921875 1288.640625 C 3351.078125 1275.289062 3346.839844 1257.75 3350.378906 1240.921875 C 3358.011719 1204.640625 3361.011719 1158.421875 3361.738281 1108.859375 L 3281.171875 1087.351562 C 3298.390625 932.699219 3321.03125 829.179688 3435.320312 836.929688 L 3586.859375 836.929688 L 3587.191406 836.898438 " />
<g clip-path="url(#clip-100)">
<g clip-path="url(#clip-101)">
<path fill-rule="evenodd" fill="rgb(89.84375%, 75.389099%, 60.15625%)" fill-opacity="1" d="M 3361.738281 1108.859375 L 3361.738281 947.679688 L 3335.628906 1115.269531 L 3361.738281 1108.859375 " />
</g>
</g>
<g clip-path="url(#clip-102)">
<g clip-path="url(#clip-103)">
<path fill-rule="evenodd" fill="rgb(89.84375%, 75.389099%, 60.15625%)" fill-opacity="1" d="M 3660.921875 1108.859375 L 3660.921875 947.679688 L 3687.03125 1115.269531 L 3660.921875 1108.859375 " />
</g>
</g>
<g clip-path="url(#clip-104)">
<g clip-path="url(#clip-105)">
<path fill-rule="evenodd" fill="rgb(89.84375%, 75.389099%, 59.959412%)" fill-opacity="1" d="M 3350.378906 1240.921875 C 3401.070312 1314.019531 3608.441406 1320.351562 3672.578125 1244.621094 L 3715.800781 1287.839844 L 3715.800781 1338.210938 L 3299.519531 1338.210938 L 3299.519531 1274.21875 L 3350.378906 1240.921875 " />
</g>
</g>
<path fill-rule="evenodd" fill="rgb(99.609375%, 65.039062%, 49.388123%)" fill-opacity="1" d="M 3587.648438 831.878906 C 3537.550781 860.859375 3487.449219 865.878906 3437.351562 831.878906 C 3462.390625 824.148438 3479.089844 771.359375 3485.679688 686.878906 L 3539.320312 686.878906 C 3537.878906 765.859375 3552.171875 826.039062 3587.648438 831.878906 " />
<g clip-path="url(#clip-106)">
<g clip-path="url(#clip-107)">
<path fill-rule="evenodd" fill="rgb(98.4375%, 50.976562%, 32.200623%)" fill-opacity="1" d="M 3457.929688 723.070312 C 3457.058594 785.601562 3544.929688 822.890625 3564.71875 730.789062 L 3457.929688 723.070312 " />
</g>
</g>
<path fill-rule="evenodd" fill="rgb(100%, 91.796875%, 82.617188%)" fill-opacity="1" d="M 3577.789062 805.378906 C 3560.109375 813.199219 3541.78125 818 3522.75 819.539062 C 3518.859375 819.851562 3510.980469 834.851562 3510.980469 834.851562 C 3510.980469 834.851562 3504.308594 820.03125 3500.949219 819.871094 C 3480.308594 818.859375 3458.859375 814.121094 3436.550781 805.378906 L 3430.289062 837.109375 C 3465.910156 881.71875 3562.941406 876.050781 3590.699219 837.109375 L 3577.789062 805.378906 " />
<path fill-rule="evenodd" fill="rgb(89.84375%, 75.389099%, 59.959412%)" fill-opacity="1" d="M 3429.871094 837.460938 C 3437.871094 847.398438 3448.058594 855.488281 3459.539062 861.558594 C 3464.390625 864.128906 3469.46875 866.320312 3474.710938 868.140625 C 3481.628906 870.539062 3488.828125 872.289062 3496.140625 873.351562 C 3501 874.050781 3505.910156 874.441406 3510.820312 874.511719 C 3514.511719 874.558594 3518.199219 874.429688 3521.871094 874.121094 C 3530.488281 873.390625 3538.980469 871.679688 3547.070312 868.96875 C 3564.480469 863.128906 3580.03125 852.691406 3591.140625 837.441406 L 3590.261719 836.78125 C 3578.898438 851.308594 3563.339844 860.929688 3546.171875 866.140625 C 3538.238281 868.550781 3529.96875 870.011719 3521.589844 870.578125 C 3518.03125 870.820312 3514.460938 870.910156 3510.878906 870.851562 C 3506.121094 870.761719 3501.359375 870.410156 3496.628906 869.789062 C 3489.511719 868.851562 3482.488281 867.320312 3475.699219 865.160156 C 3470.550781 863.519531 3465.539062 861.539062 3460.730469 859.210938 C 3449.261719 853.671875 3438.941406 846.179688 3430.710938 836.761719 L 3429.871094 837.460938 " />
<path fill-rule="evenodd" fill="rgb(89.84375%, 75.389099%, 59.959412%)" fill-opacity="1" d="M 3510.558594 834.859375 C 3510.558594 834.859375 3510.261719 837.710938 3509.960938 841.789062 C 3509.890625 842.730469 3509.820312 843.71875 3509.761719 844.761719 C 3509.699219 846.03125 3509.640625 847.359375 3509.609375 848.71875 C 3509.601562 849.589844 3509.589844 850.46875 3509.609375 851.359375 C 3509.621094 852.019531 3509.648438 852.679688 3509.691406 853.328125 C 3509.769531 854.921875 3509.890625 856.46875 3510.019531 857.949219 C 3510.5 863.511719 3511.019531 867.820312 3511.019531 867.820312 C 3511.019531 868.058594 3511.21875 868.25 3511.449219 868.238281 C 3511.691406 868.238281 3511.878906 868.050781 3511.878906 867.808594 C 3511.878906 867.808594 3512.269531 863.480469 3512.601562 857.910156 C 3512.691406 856.429688 3512.761719 854.878906 3512.800781 853.289062 C 3512.820312 852.628906 3512.828125 851.96875 3512.820312 851.308594 C 3512.808594 850.429688 3512.78125 849.550781 3512.738281 848.671875 C 3512.679688 847.320312 3512.578125 845.988281 3512.480469 844.71875 C 3512.398438 843.679688 3512.300781 842.691406 3512.199219 841.761719 C 3511.78125 837.691406 3511.410156 834.851562 3511.410156 834.851562 C 3511.410156 834.609375 3511.210938 834.421875 3510.980469 834.421875 C 3510.738281 834.429688 3510.550781 834.621094 3510.558594 834.859375 " />
<path fill-rule="evenodd" fill="rgb(89.84375%, 75.389099%, 59.959412%)" fill-opacity="1" d="M 3510.691406 878.410156 C 3510.691406 878.410156 3510.089844 997.210938 3509.589844 1109.671875 C 3509.328125 1168.921875 3509.03125 1226.410156 3508.960938 1263.839844 C 3508.941406 1270.148438 3508.890625 1275.890625 3508.960938 1280.96875 C 3509.191406 1297.171875 3509.691406 1306.671875 3509.691406 1306.671875 C 3509.691406 1307.628906 3510.480469 1308.421875 3511.449219 1308.421875 C 3512.410156 1308.421875 3513.199219 1307.628906 3513.199219 1306.671875 C 3513.199219 1306.671875 3513.699219 1297.171875 3513.941406 1280.96875 C 3514.011719 1275.890625 3513.949219 1270.148438 3513.941406 1263.839844 C 3513.859375 1226.410156 3513.570312 1168.921875 3513.308594 1109.671875 C 3512.808594 997.210938 3512.199219 878.410156 3512.199219 878.410156 C 3512.199219 877.988281 3511.859375 877.648438 3511.449219 877.648438 C 3511.03125 877.648438 3510.691406 877.988281 3510.691406 878.410156 " />
<path fill-rule="evenodd" fill="rgb(99.609375%, 65.039062%, 49.388123%)" fill-opacity="1" d="M 3389.558594 627.761719 C 3338.449219 607.328125 3340.648438 684.070312 3403.851562 674 L 3419.269531 649.378906 L 3389.558594 627.761719 " />
<path fill-rule="evenodd" fill="rgb(99.609375%, 65.039062%, 49.388123%)" fill-opacity="1" d="M 3637.378906 627.761719 C 3688.488281 607.328125 3686.289062 684.070312 3623.089844 674 L 3607.671875 649.378906 L 3637.378906 627.761719 " />
<path fill-rule="evenodd" fill="rgb(99.609375%, 65.039062%, 49.388123%)" fill-opacity="1" d="M 3571.769531 467.800781 C 3581.941406 540.761719 3622.289062 502.390625 3640.128906 607.910156 C 3640.128906 607.910156 3639.640625 621.261719 3638.730469 627.761719 C 3628.140625 702.910156 3559.859375 761.03125 3514.140625 761.03125 C 3468.421875 761.03125 3400.140625 702.910156 3389.558594 627.761719 C 3388.640625 621.261719 3388.160156 607.910156 3388.160156 607.910156 C 3386.539062 529.941406 3569.609375 582.378906 3571.769531 467.800781 " />
<path fill-rule="evenodd" fill="rgb(100%, 100%, 100%)" fill-opacity="1" d="M 3438.089844 611.578125 C 3438.089844 606.199219 3440.230469 601.03125 3444.03125 597.230469 C 3447.839844 593.421875 3453 591.28125 3458.390625 591.28125 C 3469.601562 591.28125 3478.691406 600.371094 3478.691406 611.578125 C 3478.691406 622.988281 3478.691406 634.96875 3478.691406 634.96875 L 3438.089844 634.96875 C 3438.089844 634.96875 3438.089844 622.988281 3438.089844 611.578125 " />
<g clip-path="url(#clip-108)">
<g clip-path="url(#clip-109)">
<path fill-rule="evenodd" fill="rgb(0%, 0%, 0%)" fill-opacity="1" d="M 3458.390625 603.75 C 3452.601562 603.75 3447.910156 609.878906 3447.910156 617.429688 C 3447.910156 624.980469 3452.601562 631.109375 3458.390625 631.109375 C 3464.171875 631.109375 3468.871094 624.980469 3468.871094 617.429688 C 3468.871094 609.878906 3464.171875 603.75 3458.390625 603.75 " />
</g>
</g>
<g clip-path="url(#clip-110)">
<g clip-path="url(#clip-111)">
<path fill-rule="evenodd" fill="rgb(100%, 100%, 100%)" fill-opacity="1" d="M 3455.339844 608.03125 C 3453.980469 608.03125 3452.871094 609.921875 3452.871094 612.238281 C 3452.871094 614.570312 3453.980469 616.460938 3455.339844 616.460938 C 3456.710938 616.460938 3457.808594 614.570312 3457.808594 612.238281 C 3457.808594 609.921875 3456.710938 608.03125 3455.339844 608.03125 " />
</g>
</g>
<path fill-rule="evenodd" fill="rgb(100%, 100%, 100%)" fill-opacity="1" d="M 3551.46875 611.578125 C 3551.46875 606.199219 3553.609375 601.03125 3557.421875 597.230469 C 3561.230469 593.421875 3566.390625 591.28125 3571.769531 591.28125 C 3582.980469 591.28125 3592.070312 600.371094 3592.070312 611.578125 C 3592.070312 622.988281 3592.070312 634.96875 3592.070312 634.96875 L 3551.46875 634.96875 C 3551.46875 634.96875 3551.46875 622.988281 3551.46875 611.578125 " />
<g clip-path="url(#clip-112)">
<g clip-path="url(#clip-113)">
<path fill-rule="evenodd" fill="rgb(0%, 0%, 0%)" fill-opacity="1" d="M 3571.769531 603.75 C 3565.988281 603.75 3561.289062 609.878906 3561.289062 617.429688 C 3561.289062 624.980469 3565.988281 631.109375 3571.769531 631.109375 C 3577.558594 631.109375 3582.25 624.980469 3582.25 617.429688 C 3582.25 609.878906 3577.558594 603.75 3571.769531 603.75 " />
</g>
</g>
<g clip-path="url(#clip-114)">
<g clip-path="url(#clip-115)">
<path fill-rule="evenodd" fill="rgb(100%, 100%, 100%)" fill-opacity="1" d="M 3568.730469 608.03125 C 3567.359375 608.03125 3566.261719 609.921875 3566.261719 612.238281 C 3566.261719 614.570312 3567.359375 616.460938 3568.730469 616.460938 C 3570.089844 616.460938 3571.199219 614.570312 3571.199219 612.238281 C 3571.199219 609.921875 3570.089844 608.03125 3568.730469 608.03125 " />
</g>
</g>
<path fill-rule="evenodd" fill="rgb(100%, 100%, 100%)" fill-opacity="1" d="M 3470.710938 691.289062 L 3551.46875 691.289062 C 3540.628906 731.601562 3476.351562 721.488281 3470.710938 691.289062 " />
<path fill-rule="evenodd" fill="rgb(90.039062%, 40.989685%, 19.897461%)" fill-opacity="1" d="M 3532.410156 584.050781 C 3528.929688 594.839844 3526.289062 605 3525.160156 614.738281 C 3524.289062 622.179688 3524.28125 629.351562 3525.28125 636.230469 C 3525.988281 641.070312 3527.210938 645.769531 3529.03125 650.300781 C 3531.378906 656.121094 3534.730469 661.621094 3539.019531 666.910156 C 3535.421875 671.179688 3530.660156 673.339844 3525.609375 673.789062 C 3519.449219 674.351562 3512.949219 672.558594 3507.53125 668.898438 C 3507.101562 668.578125 3506.480469 668.660156 3506.160156 669.089844 C 3505.828125 669.519531 3505.910156 670.140625 3506.339844 670.460938 C 3511.878906 675.171875 3518.890625 677.910156 3525.78125 677.988281 C 3533.03125 678.078125 3540.050781 675.121094 3545.339844 668.628906 C 3546.171875 667.511719 3546.140625 665.980469 3545.261719 664.898438 C 3540.851562 659.121094 3537.800781 653.078125 3535.550781 646.878906 C 3534.378906 643.660156 3533.421875 640.410156 3532.699219 637.058594 C 3531.980469 633.730469 3531.441406 630.339844 3531.121094 626.859375 C 3530.621094 621.460938 3530.578125 615.878906 3530.929688 610.039062 C 3531.410156 601.96875 3532.539062 593.5 3534.300781 584.539062 C 3534.441406 584.019531 3534.128906 583.488281 3533.601562 583.351562 C 3533.078125 583.210938 3532.550781 583.53125 3532.410156 584.050781 " />
<path fill-rule="evenodd" fill="rgb(82.617188%, 39.598083%, 32.910156%)" fill-opacity="1" d="M 3320.480469 1207.78125 C 3342.929688 1213.179688 3320.480469 1391.269531 3320.480469 1391.269531 L 3372.328125 1401.101562 C 3372.328125 1401.101562 3419.429688 1180.621094 3320.480469 1171.421875 C 3236.75 1163.628906 3146.390625 1340.199219 3146.390625 1340.199219 L 3182.140625 1357.859375 L 3245.570312 1274.128906 C 3245.570312 1274.128906 3297.640625 1202.28125 3320.480469 1207.78125 " />
<g clip-path="url(#clip-116)">
<g clip-path="url(#clip-117)">
<path fill-rule="evenodd" fill="rgb(72.459412%, 30.297852%, 23.802185%)" fill-opacity="1" d="M 3320.480469 1207.78125 C 3306.140625 1141.878906 3203.710938 1213.410156 3119.25 1326.648438 L 3160.449219 1372.710938 L 3202.210938 1372.710938 L 3320.480469 1207.78125 " />
</g>
</g>
<path fill-rule="evenodd" fill="rgb(82.617188%, 39.598083%, 32.910156%)" fill-opacity="1" d="M 3129.179688 1326.839844 C 3153.53125 1322.730469 3253.710938 1385.011719 3380.050781 1385.96875 C 3422.878906 1386.300781 3409.800781 1654.898438 3356.21875 1695.679688 C 3302.640625 1736.460938 3104.949219 1695.992188 3066.960938 1633.75 C 3028.980469 1571.503906 3097.191406 1332.238281 3129.179688 1326.839844 " />
<g clip-path="url(#clip-118)">
<g clip-path="url(#clip-119)">
<path fill-rule="evenodd" fill="rgb(76.171875%, 33.396912%, 27.709961%)" fill-opacity="1" d="M 3055.761719 1599.003906 C 3314.410156 1771.160156 3414.378906 1662.71875 3380.050781 1385.96875 L 3405.601562 1372.710938 L 3435.871094 1401.101562 L 3383.53125 1756.539062 L 3173.558594 1712.132812 L 3037.398438 1653.28125 L 3055.761719 1599.003906 " />
</g>
</g>
<g clip-path="url(#clip-120)">
<g clip-path="url(#clip-121)">
<path fill-rule="evenodd" fill="rgb(76.171875%, 33.300781%, 27.806091%)" fill-opacity="1" d="M 3174.859375 1411.238281 C 3185.75 1477.53125 3262.300781 1475.988281 3265.871094 1449.78125 C 3270.171875 1418.289062 3295.351562 1380.289062 3323.128906 1381.539062 L 3293.691406 1354.089844 L 3219.871094 1326.648438 L 3174.859375 1411.238281 " />
</g>
</g>
<path fill-rule="evenodd" fill="rgb(99.609375%, 65.039062%, 49.388123%)" fill-opacity="1" d="M 3253.800781 1295.480469 C 3253.800781 1295.480469 3293.21875 1373.601562 3268.601562 1383.070312 C 3257.839844 1387.199219 3255.308594 1351.421875 3248.179688 1355.03125 C 3240.410156 1358.960938 3248.101562 1440.878906 3234.941406 1447.449219 C 3217.460938 1456.171875 3212.449219 1437.648438 3212.449219 1437.648438 C 3205.96875 1447.339844 3184.839844 1446.238281 3180.308594 1417.960938 C 3147.449219 1427.328125 3159.691406 1338.460938 3178.628906 1310.660156 C 3191.890625 1291.210938 3270.058594 1140.070312 3325.191406 1206.960938 C 3357.058594 1245.640625 3253.800781 1295.480469 3253.800781 1295.480469 " />
<path fill-rule="evenodd" fill="rgb(90.039062%, 40.989685%, 19.897461%)" fill-opacity="1" d="M 3213.058594 1437.601562 C 3212.859375 1431.140625 3212.96875 1424.320312 3213.160156 1417.320312 C 3213.28125 1412.871094 3213.46875 1408.359375 3213.660156 1403.859375 C 3213.789062 1400.859375 3213.921875 1397.871094 3214.039062 1394.898438 C 3214.21875 1390.339844 3214.378906 1385.839844 3214.660156 1381.460938 C 3215.191406 1372.828125 3215.988281 1364.691406 3217.371094 1357.558594 C 3217.449219 1357.230469 3217.25 1356.898438 3216.921875 1356.820312 C 3216.601562 1356.738281 3216.261719 1356.941406 3216.179688 1357.269531 C 3214.050781 1364.308594 3212.261719 1372.410156 3210.988281 1381.078125 C 3210.449219 1384.769531 3210.011719 1388.550781 3209.679688 1392.390625 C 3209.539062 1394 3209.429688 1395.628906 3209.359375 1397.261719 C 3209.261719 1399.410156 3209.199219 1401.578125 3209.191406 1403.75 C 3209.179688 1407.011719 3209.261719 1410.261719 3209.410156 1413.5 C 3209.511719 1415.949219 3209.671875 1418.378906 3209.871094 1420.789062 C 3210.351562 1426.640625 3211.039062 1432.308594 3211.839844 1437.710938 C 3211.878906 1438.039062 3212.171875 1438.289062 3212.511719 1438.261719 C 3212.839844 1438.230469 3213.089844 1437.941406 3213.058594 1437.601562 " />
<path fill-rule="evenodd" fill="rgb(90.039062%, 40.989685%, 19.897461%)" fill-opacity="1" d="M 3180.921875 1418.011719 C 3181.828125 1411.980469 3182.941406 1406.210938 3184.03125 1400.539062 C 3184.328125 1398.980469 3184.621094 1397.441406 3184.910156 1395.910156 C 3185.339844 1393.570312 3185.78125 1391.269531 3186.191406 1388.980469 C 3186.480469 1387.359375 3186.738281 1385.75 3187.011719 1384.148438 C 3187.28125 1382.53125 3187.53125 1380.921875 3187.789062 1379.308594 C 3188.328125 1376.03125 3188.878906 1372.820312 3189.480469 1369.648438 C 3190.25 1365.53125 3191.050781 1361.53125 3191.988281 1357.601562 C 3192.089844 1357.269531 3191.910156 1356.929688 3191.589844 1356.828125 C 3191.261719 1356.730469 3190.921875 1356.910156 3190.820312 1357.230469 C 3188.628906 1362.878906 3186.558594 1368.710938 3184.800781 1374.871094 C 3184.011719 1377.628906 3183.28125 1380.441406 3182.640625 1383.308594 C 3182.359375 1384.519531 3182.109375 1385.730469 3181.890625 1386.96875 C 3181.589844 1388.578125 3181.339844 1390.21875 3181.121094 1391.878906 C 3180.789062 1394.320312 3180.53125 1396.789062 3180.320312 1399.300781 C 3180.171875 1401.140625 3180.050781 1403 3179.960938 1404.878906 C 3179.761719 1409.148438 3179.699219 1413.46875 3179.699219 1417.910156 C 3179.679688 1418.25 3179.929688 1418.539062 3180.261719 1418.570312 C 3180.601562 1418.589844 3180.890625 1418.339844 3180.921875 1418.011719 " />
<path fill-rule="evenodd" fill="rgb(90.039062%, 40.989685%, 19.897461%)" fill-opacity="1" d="M 3662.171875 642.171875 C 3659.601562 641.171875 3657.410156 640.261719 3655.339844 639.601562 C 3654.21875 639.238281 3653.179688 638.988281 3652.160156 638.808594 C 3650.449219 638.519531 3648.878906 638.519531 3647.410156 638.808594 C 3646.28125 639.03125 3645.210938 639.460938 3644.210938 640.089844 C 3643.53125 640.519531 3642.878906 641.050781 3642.28125 641.710938 C 3641.230469 642.859375 3640.25 644.328125 3639.421875 646.269531 C 3638.910156 647.460938 3638.429688 648.789062 3638.011719 650.339844 C 3637.53125 652.140625 3637.121094 654.140625 3636.730469 656.488281 C 3636.628906 656.808594 3636.808594 657.148438 3637.140625 657.25 C 3637.460938 657.351562 3637.800781 657.160156 3637.898438 656.839844 C 3639.578125 653.011719 3641.160156 650.210938 3642.648438 648.039062 C 3643.160156 647.300781 3643.671875 646.671875 3644.171875 646.089844 C 3644.980469 645.148438 3645.808594 644.488281 3646.648438 643.980469 C 3647.238281 643.621094 3647.828125 643.339844 3648.46875 643.148438 C 3649.5 642.851562 3650.601562 642.699219 3651.839844 642.679688 C 3653.609375 642.660156 3655.539062 642.78125 3657.769531 642.988281 C 3659.070312 643.121094 3660.410156 643.230469 3661.878906 643.359375 C 3662.210938 643.441406 3662.539062 643.230469 3662.621094 642.910156 C 3662.699219 642.578125 3662.488281 642.25 3662.171875 642.171875 " />
<path fill-rule="evenodd" fill="rgb(90.039062%, 40.989685%, 19.897461%)" fill-opacity="1" d="M 3365.628906 643.359375 C 3367.101562 643.230469 3368.441406 643.121094 3369.738281 642.988281 C 3371.96875 642.78125 3373.910156 642.660156 3375.671875 642.679688 C 3376.910156 642.699219 3378.011719 642.851562 3379.050781 643.148438 C 3379.691406 643.339844 3380.28125 643.621094 3380.859375 643.980469 C 3381.710938 644.488281 3382.53125 645.148438 3383.339844 646.089844 C 3383.839844 646.671875 3384.351562 647.300781 3384.859375 648.039062 C 3386.359375 650.210938 3387.941406 653.011719 3389.609375 656.839844 C 3389.710938 657.160156 3390.050781 657.351562 3390.378906 657.25 C 3390.699219 657.148438 3390.878906 656.808594 3390.78125 656.488281 C 3390.390625 654.140625 3389.988281 652.140625 3389.5 650.339844 C 3389.078125 648.789062 3388.609375 647.460938 3388.089844 646.269531 C 3387.261719 644.328125 3386.28125 642.859375 3385.238281 641.710938 C 3384.628906 641.050781 3383.980469 640.519531 3383.300781 640.089844 C 3382.300781 639.460938 3381.230469 639.03125 3380.109375 638.808594 C 3378.628906 638.519531 3377.058594 638.519531 3375.351562 638.808594 C 3374.339844 638.988281 3373.289062 639.238281 3372.171875 639.601562 C 3370.109375 640.261719 3367.910156 641.171875 3365.351562 642.171875 C 3365.019531 642.25 3364.808594 642.578125 3364.890625 642.910156 C 3364.96875 643.230469 3365.300781 643.441406 3365.628906 643.359375 " />
<path fill-rule="evenodd" fill="rgb(24.705505%, 12.205505%, 16.088867%)" fill-opacity="1" d="M 3609.441406 582.78125 C 3604.378906 578.960938 3599.761719 575.78125 3595.011719 573.128906 C 3592.691406 571.839844 3590.421875 570.78125 3588.109375 569.839844 C 3584.761719 568.46875 3581.449219 567.488281 3578.109375 566.828125 C 3575.761719 566.371094 3573.398438 566.128906 3571.050781 566.089844 C 3569.261719 566.058594 3567.46875 566.140625 3565.699219 566.378906 C 3561.679688 566.910156 3557.730469 567.898438 3553.75 569.480469 C 3550.660156 570.699219 3547.621094 572.148438 3544.53125 574.03125 C 3540.53125 576.449219 3536.628906 579.320312 3532.46875 582.839844 C 3531.660156 583.328125 3531.410156 584.378906 3531.898438 585.191406 C 3532.390625 585.988281 3533.441406 586.25 3534.25 585.761719 C 3539.550781 583.53125 3544.390625 582.089844 3549.109375 580.878906 C 3554.230469 579.558594 3558.96875 579.039062 3563.671875 578.828125 C 3566.519531 578.699219 3569.308594 578.839844 3572.140625 578.980469 C 3574.949219 579.128906 3577.78125 579.28125 3580.699219 579.660156 C 3584.148438 580.109375 3587.640625 580.621094 3591.371094 581.441406 C 3596.578125 582.589844 3601.929688 583.859375 3607.859375 585.808594 C 3608.691406 586.25 3609.730469 585.929688 3610.171875 585.089844 C 3610.609375 584.25 3610.28125 583.21875 3609.441406 582.78125 " />
<path fill-rule="evenodd" fill="rgb(24.705505%, 12.205505%, 16.088867%)" fill-opacity="1" d="M 3497.609375 583.128906 C 3492.789062 578.769531 3488.089844 575.351562 3483.109375 572.570312 C 3480.730469 571.238281 3478.351562 570.191406 3475.910156 569.269531 C 3472.480469 567.96875 3469.03125 567.101562 3465.550781 566.558594 C 3463.160156 566.191406 3460.761719 566.039062 3458.378906 566.078125 C 3456.570312 566.109375 3454.78125 566.261719 3453.011719 566.539062 C 3448.921875 567.191406 3444.941406 568.261719 3441.03125 569.800781 C 3437.820312 571.058594 3434.71875 572.511719 3431.648438 574.308594 C 3427.328125 576.828125 3423.300781 579.730469 3419.210938 583.101562 C 3418.46875 583.539062 3418.230469 584.5 3418.660156 585.238281 C 3419.101562 585.980469 3420.058594 586.21875 3420.800781 585.78125 C 3428.558594 582.601562 3436.070312 580.789062 3443.679688 579.71875 C 3446.699219 579.300781 3449.660156 579.109375 3452.648438 578.980469 C 3454.609375 578.898438 3456.558594 578.921875 3458.519531 578.921875 C 3460.449219 578.921875 3462.390625 578.921875 3464.359375 578.988281 C 3467.28125 579.109375 3470.199219 579.269531 3473.21875 579.691406 C 3477.660156 580.300781 3482.109375 581.089844 3486.828125 582.550781 C 3489.828125 583.480469 3492.789062 584.441406 3495.929688 585.75 C 3496.648438 586.21875 3497.621094 586.011719 3498.078125 585.28125 C 3498.539062 584.558594 3498.328125 583.601562 3497.609375 583.128906 " />
</svg>