{
  "asset": {
    "version": "2.0",
    "generator": "Axis-Guardian Site Map Generator"
  },
  "scene": 0,
  "scenes": [
    {
      "nodes": [
        0,
        1,
        2,
        3,
        4
      ]
    }
  ],
  "nodes": [
    {
      "name": "Floor",
      "mesh": 0
    },
    {
      "name": "Wall_1",
      "mesh": 1
    },
    {
      "name": "Camera camera1",
      "mesh": 2,
      "translation": [
        0.0,
        3.0,
        0.0
      ]
    },
    {
      "name": "Camera camera2",
      "mesh": 3,
      "translation": [
        0.0,
        3.0,
        0.0
      ]
    },
    {
      "name": "PointCloud",
      "mesh": 4
    }
  ],
  "meshes": [
    {
      "name": "Floor",
      "primitives": [
        {
          "attributes": {
            "POSITION": 0
          },
          "indices": 1,
          "material": 0
        }
      ]
    },
    {
      "name": "Wall_1",
      "primitives": [
        {
          "attributes": {
            "POSITION": 2
          },
          "indices": 3,
          "material": 1
        }
      ]
    },
    {
      "name": "Camera camera1_Frustum",
      "primitives": [
        {
          "attributes": {
            "POSITION": 4
          },
          "indices": 5,
          "material": 2,
          "mode": 1
        }
      ]
    },
    {
      "name": "Camera camera2_Frustum",
      "primitives": [
        {
          "attributes": {
            "POSITION": 6
          },
          "indices": 7,
          "material": 3,
          "mode": 1
        }
      ]
    },
    {
      "name": "PointCloud",
      "primitives": [
        {
          "attributes": {
            "POSITION": 8
          },
          "material": 4,
          "mode": 0
        }
      ]
    }
  ],
  "materials": [
    {
      "name": "Floor_Material",
      "pbrMetallicRoughness": {
        "baseColorFactor": [
          0.8,
          0.8,
          0.8,
          1.0
        ],
        "metallicFactor": 0.0,
        "roughnessFactor": 1.0
      },
      "doubleSided": true
    },
    {
      "name": "Wall_1_Material",
      "pbrMetallicRoughness": {
        "baseColorFactor": [
          0.9,
          0.9,
          0.95,
          0.8
        ],
        "metallicFactor": 0.0,
        "roughnessFactor": 1.0
      },
      "doubleSided": true
    },
    {
      "name": "Camera camera1_Material",
      "pbrMetallicRoughness": {
        "baseColorFactor": [
          0.0,
          0.8,
          1.0,
          1.0
        ],
        "metallicFactor": 0.0,
        "roughnessFactor": 1.0
      }
    },
    {
      "name": "Camera camera2_Material",
      "pbrMetallicRoughness": {
        "baseColorFactor": [
          0.0,
          0.8,
          1.0,
          1.0
        ],
        "metallicFactor": 0.0,
        "roughnessFactor": 1.0
      }
    },
    {
      "name": "PointCloud_Material",
      "pbrMetallicRoughness": {
        "baseColorFactor": [
          1.0,
          1.0,
          1.0,
          1.0
        ],
        "metallicFactor": 0.0,
        "roughnessFactor": 1.0
      }
    }
  ],
  "accessors": [
    {
      "bufferView": 0,
      "componentType": 5126,
      "count": 4,
      "type": "VEC3",
      "min": [
        -25.72180938720703,
        3.676448345184326,
        16.726482391357422
      ],
      "max": [
        18.718910217285156,
        5.487241268157959,
        48.289283752441406
      ]
    },
    {
      "bufferView": 1,
      "componentType": 5123,
      "count": 6,
      "type": "SCALAR"
    },
    {
      "bufferView": 2,
      "componentType": 5126,
      "count": 4,
      "type": "VEC3",
      "min": [
        -25.790895462036133,
        -27.44599151611328,
        47.06179428100586
      ],
      "max": [
        19.42866325378418,
        17.050228118896484,
        49.200252532958984
      ]
    },
    {
      "bufferView": 3,
      "componentType": 5123,
      "count": 6,
      "type": "SCALAR"
    },
    {
      "bufferView": 4,
      "componentType": 5126,
      "count": 8,
      "type": "VEC3",
      "min": [
        -5.132002353668213,
        -2.886751413345337,
        -5.0
      ],
      "max": [
        5.132002353668213,
        2.886751413345337,
        -0.5
      ]
    },
    {
      "bufferView": 5,
      "componentType": 5123,
      "count": 24,
      "type": "SCALAR"
    },
    {
      "bufferView": 6,
      "componentType": 5126,
      "count": 8,
      "type": "VEC3",
      "min": [
        -5.132002353668213,
        -2.886751413345337,
        -5.0
      ],
      "max": [
        5.132002353668213,
        2.886751413345337,
        -0.5
      ]
    },
    {
      "bufferView": 7,
      "componentType": 5123,
      "count": 24,
      "type": "SCALAR"
    },
    {
      "bufferView": 8,
      "componentType": 5126,
      "count": 10000,
      "type": "VEC3",
      "min": [
        -25.696243286132812,
        -13.706939697265625,
        9.100950241088867
      ],
      "max": [
        22.819204330444336,
        6.410243034362793,
        49.804195404052734
      ]
    }
  ],
  "bufferViews": [
    {
      "buffer": 0,
      "byteOffset": 0,
      "byteLength": 48,
      "target": 34962
    },
    {
      "buffer": 0,
      "byteOffset": 48,
      "byteLength": 12,
      "target": 34963
    },
    {
      "buffer": 0,
      "byteOffset": 60,
      "byteLength": 48,
      "target": 34962
    },
    {
      "buffer": 0,
      "byteOffset": 108,
      "byteLength": 12,
      "target": 34963
    },
    {
      "buffer": 0,
      "byteOffset": 120,
      "byteLength": 96
    },
    {
      "buffer": 0,
      "byteOffset": 216,
      "byteLength": 48
    },
    {
      "buffer": 0,
      "byteOffset": 264,
      "byteLength": 96
    },
    {
      "buffer": 0,
      "byteOffset": 360,
      "byteLength": 48
    },
    {
      "buffer": 0,
      "byteOffset": 408,
      "byteLength": 120000
    }
  ],
  "buffers": [
    {
      "byteLength": 120408,
      "uri": "data:application/octet-stream;base64,"
    }
  ]
}