<?xml version="1.0" encoding="UTF-8" standalone="no"?><svg xmlns="http://www.w3.org/2000/svg" xmlns:xlink="http://www.w3.org/1999/xlink" contentScriptType="application/ecmascript" contentStyleType="text/css" height="1030px" preserveAspectRatio="none" style="width:1954px;height:1030px;" version="1.1" viewBox="0 0 1954 1030" width="1954px" zoomAndPan="magnify"><defs><filter height="300%" id="f13mcud7b0lbdb" width="300%" x="-1" y="-1"><feGaussianBlur result="blurOut" stdDeviation="2.0"/><feColorMatrix in="blurOut" result="blurOut2" type="matrix" values="0 0 0 0 0 0 0 0 0 0 0 0 0 0 0 0 0 0 .4 0"/><feOffset dx="4.0" dy="4.0" in="blurOut2" result="blurOut3"/><feBlend in="SourceGraphic" in2="blurOut3" mode="normal"/></filter></defs><g><text fill="#000000" font-family="Arial" font-size="18" lengthAdjust="spacingAndGlyphs" textLength="565" x="693.75" y="26.708">Git Branch Workflow - Three Developers Working on Same File</text><rect fill="#F5F5F5" height="984.6094" style="stroke: #F5F5F5; stroke-width: 1.0;" width="471" x="10" y="33.6982"/><ellipse cx="162.5" cy="69.6514" fill="#000000" filter="url(#f13mcud7b0lbdb)" rx="10" ry="10" style="stroke: none; stroke-width: 1.0;"/><path d="M233.5,124.4404 L233.5,140.5732 L213.5,144.5732 L233.5,148.5732 L233.5,164.7061 A0,0 0 0 0 233.5,164.7061 L450.5,164.7061 A0,0 0 0 0 450.5,164.7061 L450.5,134.4404 L440.5,124.4404 L233.5,124.4404 A0,0 0 0 0 233.5,124.4404 " fill="#FBFB77" filter="url(#f13mcud7b0lbdb)" style="stroke: #A80036; stroke-width: 1.0;"/><path d="M440.5,124.4404 L440.5,134.4404 L450.5,134.4404 L440.5,124.4404 " fill="#FBFB77" style="stroke: #A80036; stroke-width: 1.0;"/><text fill="#000000" font-family="Arial" font-size="13" lengthAdjust="spacingAndGlyphs" textLength="8" x="239.5" y="141.5073">&#128640;</text><text fill="#000000" font-family="Arial" font-size="13" font-weight="bold" lengthAdjust="spacingAndGlyphs" textLength="102" x="251.5" y="141.5073">Starting point</text><text fill="#000000" font-family="Arial" font-size="13" lengthAdjust="spacingAndGlyphs" textLength="196" x="239.5" y="156.6401">All branches diverge from here</text><rect fill="#4A90E2" filter="url(#f13mcud7b0lbdb)" height="89.8438" rx="12.5" ry="12.5" style="stroke: #2E5C8A; stroke-width: 1.5;" width="102" x="111.5" y="99.6514"/><text fill="#FFFFFF" font-family="Arial" font-size="12" lengthAdjust="spacingAndGlyphs" textLength="82" x="121.5" y="120.79">Initial commit</text><text fill="#FFFFFF" font-family="Arial" font-size="12" font-weight="bold" lengthAdjust="spacingAndGlyphs" textLength="72" x="121.5" y="134.7588">File state:</text><text fill="#FFFFFF" font-family="Arial" font-size="12" lengthAdjust="spacingAndGlyphs" textLength="68" x="121.5" y="148.7275">Line 1: The</text><text fill="#FFFFFF" font-family="Arial" font-size="12" lengthAdjust="spacingAndGlyphs" textLength="62" x="121.5" y="162.6963">Line 2: Git</text><text fill="#FFFFFF" font-family="Arial" font-size="12" lengthAdjust="spacingAndGlyphs" textLength="81" x="121.5" y="176.665">Line 3: Three</text><path d="M260.5,465.3701 L260.5,481.5029 L240.5,485.5029 L260.5,489.5029 L260.5,505.6357 A0,0 0 0 0 260.5,505.6357 L450.5,505.6357 A0,0 0 0 0 450.5,505.6357 L450.5,475.3701 L440.5,465.3701 L260.5,465.3701 A0,0 0 0 0 260.5,465.3701 " fill="#FBFB77" filter="url(#f13mcud7b0lbdb)" style="stroke: #A80036; stroke-width: 1.0;"/><path d="M440.5,465.3701 L440.5,475.3701 L450.5,475.3701 L440.5,465.3701 " fill="#FBFB77" style="stroke: #A80036; stroke-width: 1.0;"/><text fill="#000000" font-family="Arial" font-size="13" lengthAdjust="spacingAndGlyphs" textLength="11" x="266.5" y="482.437">✅</text><text fill="#000000" font-family="Arial" font-size="13" font-weight="bold" lengthAdjust="spacingAndGlyphs" textLength="87" x="281.5" y="482.437">No conflicts</text><text fill="#000000" font-family="Arial" font-size="13" lengthAdjust="spacingAndGlyphs" textLength="169" x="266.5" y="497.5698">Different line modified (L1)</text><rect fill="#4A90E2" filter="url(#f13mcud7b0lbdb)" height="33.9688" rx="12.5" ry="12.5" style="stroke: #2E5C8A; stroke-width: 1.5;" width="156" x="84.5" y="468.5186"/><text fill="#FFFFFF" font-family="Arial" font-size="12" lengthAdjust="spacingAndGlyphs" textLength="136" x="94.5" y="489.6572">Merge feature/alice ⬅</text><rect fill="#4A90E2" filter="url(#f13mcud7b0lbdb)" height="75.875" rx="12.5" ry="12.5" style="stroke: #2E5C8A; stroke-width: 1.5;" width="189" x="68" y="525.6357"/><text fill="#FFFFFF" font-family="Arial" font-size="12" lengthAdjust="spacingAndGlyphs" textLength="62" x="78" y="546.7744">File state:</text><text fill="#FFFFFF" font-family="Arial" font-size="12" lengthAdjust="spacingAndGlyphs" textLength="169" x="78" y="560.7432">Line 1: The quick brown fox</text><text fill="#FFFFFF" font-family="Arial" font-size="12" lengthAdjust="spacingAndGlyphs" textLength="62" x="78" y="574.7119">Line 2: Git</text><text fill="#FFFFFF" font-family="Arial" font-size="12" lengthAdjust="spacingAndGlyphs" textLength="81" x="78" y="588.6807">Line 3: Three</text><path d="M258,618.3623 L258,634.4951 L238,638.4951 L258,642.4951 L258,658.6279 A0,0 0 0 0 258,658.6279 L448,658.6279 A0,0 0 0 0 448,658.6279 L448,628.3623 L438,618.3623 L258,618.3623 A0,0 0 0 0 258,618.3623 " fill="#FBFB77" filter="url(#f13mcud7b0lbdb)" style="stroke: #A80036; stroke-width: 1.0;"/><path d="M438,618.3623 L438,628.3623 L448,628.3623 L438,618.3623 " fill="#FBFB77" style="stroke: #A80036; stroke-width: 1.0;"/><text fill="#000000" font-family="Arial" font-size="13" lengthAdjust="spacingAndGlyphs" textLength="11" x="264" y="635.4292">✅</text><text fill="#000000" font-family="Arial" font-size="13" font-weight="bold" lengthAdjust="spacingAndGlyphs" textLength="87" x="279" y="635.4292">No conflicts</text><text fill="#000000" font-family="Arial" font-size="13" lengthAdjust="spacingAndGlyphs" textLength="169" x="264" y="650.562">Different line modified (L2)</text><rect fill="#4A90E2" filter="url(#f13mcud7b0lbdb)" height="33.9688" rx="12.5" ry="12.5" style="stroke: #2E5C8A; stroke-width: 1.5;" width="151" x="87" y="621.5107"/><text fill="#FFFFFF" font-family="Arial" font-size="12" lengthAdjust="spacingAndGlyphs" textLength="131" x="97" y="642.6494">Merge feature/bob ⬅</text><rect fill="#4A90E2" filter="url(#f13mcud7b0lbdb)" height="75.875" rx="12.5" ry="12.5" style="stroke: #2E5C8A; stroke-width: 1.5;" width="225" x="50" y="678.6279"/><text fill="#FFFFFF" font-family="Arial" font-size="12" lengthAdjust="spacingAndGlyphs" textLength="62" x="60" y="699.7666">File state:</text><text fill="#FFFFFF" font-family="Arial" font-size="12" lengthAdjust="spacingAndGlyphs" textLength="169" x="60" y="713.7354">Line 1: The quick brown fox</text><text fill="#FFFFFF" font-family="Arial" font-size="12" lengthAdjust="spacingAndGlyphs" textLength="205" x="60" y="727.7041">Line 2: Git makes teamwork easy</text><text fill="#FFFFFF" font-family="Arial" font-size="12" lengthAdjust="spacingAndGlyphs" textLength="81" x="60" y="741.6729">Line 3: Three</text><path d="M267,764.5029 L267,818.4678 L247,822.4678 L267,826.4678 L267,880.4326 A0,0 0 0 0 267,880.4326 L471,880.4326 A0,0 0 0 0 471,880.4326 L471,774.5029 L461,764.5029 L267,764.5029 A0,0 0 0 0 267,764.5029 " fill="#FBFB77" filter="url(#f13mcud7b0lbdb)" style="stroke: #A80036; stroke-width: 1.0;"/><path d="M461,764.5029 L461,774.5029 L471,774.5029 L461,764.5029 " fill="#FBFB77" style="stroke: #A80036; stroke-width: 1.0;"/><text fill="#000000" font-family="Arial" font-size="13" lengthAdjust="spacingAndGlyphs" textLength="11" x="273" y="781.5698">✅</text><text fill="#000000" font-family="Arial" font-size="13" font-weight="bold" lengthAdjust="spacingAndGlyphs" textLength="87" x="288" y="781.5698">No conflicts</text><text fill="#000000" font-family="Arial" font-size="13" lengthAdjust="spacingAndGlyphs" textLength="169" x="273" y="796.7026">Different line modified (L3)</text><text fill="#000000" font-family="Arial" font-size="13" lengthAdjust="spacingAndGlyphs" textLength="0" x="277" y="811.8354"/><text fill="#000000" font-family="Arial" font-size="13" font-weight="bold" lengthAdjust="spacingAndGlyphs" textLength="108" x="273" y="826.9683">Key takeaway:</text><text fill="#000000" font-family="Arial" font-size="13" lengthAdjust="spacingAndGlyphs" textLength="183" x="273" y="842.1011">All merges succeed because</text><text fill="#000000" font-family="Arial" font-size="13" lengthAdjust="spacingAndGlyphs" textLength="157" x="273" y="857.2339">each developer modified</text><text fill="#000000" font-family="Arial" font-size="13" lengthAdjust="spacingAndGlyphs" textLength="149" x="273" y="872.3667">different lines of the file</text><rect fill="#4A90E2" filter="url(#f13mcud7b0lbdb)" height="33.9688" rx="12.5" ry="12.5" style="stroke: #2E5C8A; stroke-width: 1.5;" width="169" x="78" y="805.4834"/><text fill="#FFFFFF" font-family="Arial" font-size="12" lengthAdjust="spacingAndGlyphs" textLength="149" x="88" y="826.6221">Merge feature/charlie ⬅</text><rect fill="#4A90E2" filter="url(#f13mcud7b0lbdb)" height="75.875" rx="12.5" ry="12.5" style="stroke: #2E5C8A; stroke-width: 1.5;" width="285" x="20" y="900.4326"/><text fill="#FFFFFF" font-family="Arial" font-size="12" lengthAdjust="spacingAndGlyphs" textLength="92" x="30" y="921.5713">Final file state:</text><text fill="#FFFFFF" font-family="Arial" font-size="12" lengthAdjust="spacingAndGlyphs" textLength="169" x="30" y="935.54">Line 1: The quick brown fox</text><text fill="#FFFFFF" font-family="Arial" font-size="12" lengthAdjust="spacingAndGlyphs" textLength="205" x="30" y="949.5088">Line 2: Git makes teamwork easy</text><text fill="#FFFFFF" font-family="Arial" font-size="12" lengthAdjust="spacingAndGlyphs" textLength="265" x="30" y="963.4775">Line 3: Three developers working together</text><ellipse cx="162.5" cy="1007.3076" fill="#FFFFFF" filter="url(#f13mcud7b0lbdb)" rx="11" ry="11" style="stroke: #000000; stroke-width: 1.0;"/><ellipse cx="162.5" cy="1007.3076" fill="#000000" rx="6" ry="6" style="stroke: #7F7F7F; stroke-width: 1.0;"/><rect fill="#E8F5E9" height="984.6094" style="stroke: #E8F5E9; stroke-width: 1.0;" width="501.5" x="481" y="33.6982"/><line style="stroke: #A80036; stroke-width: 1.5;" x1="601" x2="975.5" y1="209.4951" y2="209.4951"/><path d="M679.5,226.3467 L679.5,242.4795 L659.5,246.4795 L679.5,250.4795 L679.5,266.6123 A0,0 0 0 0 679.5,266.6123 L832.5,266.6123 A0,0 0 0 0 832.5,266.6123 L832.5,236.3467 L822.5,226.3467 L679.5,226.3467 A0,0 0 0 0 679.5,226.3467 " fill="#FBFB77" filter="url(#f13mcud7b0lbdb)" style="stroke: #A80036; stroke-width: 1.0;"/><path d="M822.5,226.3467 L822.5,236.3467 L832.5,236.3467 L822.5,226.3467 " fill="#FBFB77" style="stroke: #A80036; stroke-width: 1.0;"/><text fill="#000000" font-family="Arial" font-size="13" font-weight="bold" lengthAdjust="spacingAndGlyphs" textLength="103" x="685.5" y="243.4136">Alice's branch</text><text fill="#000000" font-family="Arial" font-size="13" lengthAdjust="spacingAndGlyphs" textLength="132" x="685.5" y="258.5464">Modifying Line 1 only</text><rect fill="#4A90E2" filter="url(#f13mcud7b0lbdb)" height="33.9688" rx="12.5" ry="12.5" style="stroke: #2E5C8A; stroke-width: 1.5;" width="117" x="542.5" y="229.4951"/><text fill="#FFFFFF" font-family="Arial" font-size="12" lengthAdjust="spacingAndGlyphs" textLength="97" x="552.5" y="250.6338">Branch created</text><rect fill="#4A90E2" filter="url(#f13mcud7b0lbdb)" height="33.9688" rx="12.5" ry="12.5" style="stroke: #2E5C8A; stroke-width: 1.5;" width="156" x="523" y="286.6123"/><text fill="#FFFFFF" font-family="Arial" font-size="12" lengthAdjust="spacingAndGlyphs" textLength="136" x="533" y="307.751">Commit: L1: The quick</text><rect fill="#4A90E2" filter="url(#f13mcud7b0lbdb)" height="33.9688" rx="12.5" ry="12.5" style="stroke: #2E5C8A; stroke-width: 1.5;" width="198" x="502" y="340.5811"/><text fill="#FFFFFF" font-family="Arial" font-size="12" lengthAdjust="spacingAndGlyphs" textLength="178" x="512" y="361.7197">Commit: L1: The quick brown</text><rect fill="#4A90E2" filter="url(#f13mcud7b0lbdb)" height="33.9688" rx="12.5" ry="12.5" style="stroke: #2E5C8A; stroke-width: 1.5;" width="220" x="491" y="394.5498"/><text fill="#FFFFFF" font-family="Arial" font-size="12" lengthAdjust="spacingAndGlyphs" textLength="200" x="501" y="415.6885">Commit: L1: The quick brown fox</text><rect fill="#E3F2FD" height="984.6094" style="stroke: #E3F2FD; stroke-width: 1.0;" width="379.5" x="982.5" y="33.6982"/><path d="M1199,226.3467 L1199,242.4795 L1179,246.4795 L1199,250.4795 L1199,266.6123 A0,0 0 0 0 1199,266.6123 L1352,266.6123 A0,0 0 0 0 1352,266.6123 L1352,236.3467 L1342,226.3467 L1199,226.3467 A0,0 0 0 0 1199,226.3467 " fill="#FBFB77" filter="url(#f13mcud7b0lbdb)" style="stroke: #A80036; stroke-width: 1.0;"/><path d="M1342,226.3467 L1342,236.3467 L1352,236.3467 L1342,226.3467 " fill="#FBFB77" style="stroke: #A80036; stroke-width: 1.0;"/><text fill="#000000" font-family="Arial" font-size="13" font-weight="bold" lengthAdjust="spacingAndGlyphs" textLength="97" x="1205" y="243.4136">Bob's branch</text><text fill="#000000" font-family="Arial" font-size="13" lengthAdjust="spacingAndGlyphs" textLength="132" x="1205" y="258.5464">Modifying Line 2 only</text><rect fill="#4A90E2" filter="url(#f13mcud7b0lbdb)" height="33.9688" rx="12.5" ry="12.5" style="stroke: #2E5C8A; stroke-width: 1.5;" width="117" x="1062" y="229.4951"/><text fill="#FFFFFF" font-family="Arial" font-size="12" lengthAdjust="spacingAndGlyphs" textLength="97" x="1072" y="250.6338">Branch created</text><rect fill="#4A90E2" filter="url(#f13mcud7b0lbdb)" height="33.9688" rx="12.5" ry="12.5" style="stroke: #2E5C8A; stroke-width: 1.5;" width="158" x="1041.5" y="286.6123"/><text fill="#FFFFFF" font-family="Arial" font-size="12" lengthAdjust="spacingAndGlyphs" textLength="138" x="1051.5" y="307.751">Commit: L2: Git makes</text><rect fill="#4A90E2" filter="url(#f13mcud7b0lbdb)" height="33.9688" rx="12.5" ry="12.5" style="stroke: #2E5C8A; stroke-width: 1.5;" width="223" x="1009" y="340.5811"/><text fill="#FFFFFF" font-family="Arial" font-size="12" lengthAdjust="spacingAndGlyphs" textLength="203" x="1019" y="361.7197">Commit: L2: Git makes teamwork</text><rect fill="#4A90E2" filter="url(#f13mcud7b0lbdb)" height="33.9688" rx="12.5" ry="12.5" style="stroke: #2E5C8A; stroke-width: 1.5;" width="256" x="992.5" y="394.5498"/><text fill="#FFFFFF" font-family="Arial" font-size="12" lengthAdjust="spacingAndGlyphs" textLength="236" x="1002.5" y="415.6885">Commit: L2: Git makes teamwork easy</text><rect fill="#FFF3E0" height="984.6094" style="stroke: #FFF3E0; stroke-width: 1.0;" width="580.5" x="1362" y="33.6982"/><path d="M1779.5,226.3467 L1779.5,242.4795 L1759.5,246.4795 L1779.5,250.4795 L1779.5,266.6123 A0,0 0 0 0 1779.5,266.6123 L1932.5,266.6123 A0,0 0 0 0 1932.5,266.6123 L1932.5,236.3467 L1922.5,226.3467 L1779.5,226.3467 A0,0 0 0 0 1779.5,226.3467 " fill="#FBFB77" filter="url(#f13mcud7b0lbdb)" style="stroke: #A80036; stroke-width: 1.0;"/><path d="M1922.5,226.3467 L1922.5,236.3467 L1932.5,236.3467 L1922.5,226.3467 " fill="#FBFB77" style="stroke: #A80036; stroke-width: 1.0;"/><text fill="#000000" font-family="Arial" font-size="13" font-weight="bold" lengthAdjust="spacingAndGlyphs" textLength="119" x="1785.5" y="243.4136">Charlie's branch</text><text fill="#000000" font-family="Arial" font-size="13" lengthAdjust="spacingAndGlyphs" textLength="132" x="1785.5" y="258.5464">Modifying Line 3 only</text><rect fill="#4A90E2" filter="url(#f13mcud7b0lbdb)" height="33.9688" rx="12.5" ry="12.5" style="stroke: #2E5C8A; stroke-width: 1.5;" width="117" x="1642.5" y="229.4951"/><text fill="#FFFFFF" font-family="Arial" font-size="12" lengthAdjust="spacingAndGlyphs" textLength="97" x="1652.5" y="250.6338">Branch created</text><rect fill="#4A90E2" filter="url(#f13mcud7b0lbdb)" height="33.9688" rx="12.5" ry="12.5" style="stroke: #2E5C8A; stroke-width: 1.5;" width="205" x="1598.5" y="286.6123"/><text fill="#FFFFFF" font-family="Arial" font-size="12" lengthAdjust="spacingAndGlyphs" textLength="185" x="1608.5" y="307.751">Commit: L3: Three developers</text><rect fill="#4A90E2" filter="url(#f13mcud7b0lbdb)" height="33.9688" rx="12.5" ry="12.5" style="stroke: #2E5C8A; stroke-width: 1.5;" width="257" x="1572.5" y="340.5811"/><text fill="#FFFFFF" font-family="Arial" font-size="12" lengthAdjust="spacingAndGlyphs" textLength="237" x="1582.5" y="361.7197">Commit: L3: Three developers working</text><rect fill="#4A90E2" filter="url(#f13mcud7b0lbdb)" height="33.9688" rx="12.5" ry="12.5" style="stroke: #2E5C8A; stroke-width: 1.5;" width="316" x="1543" y="394.5498"/><text fill="#FFFFFF" font-family="Arial" font-size="12" lengthAdjust="spacingAndGlyphs" textLength="296" x="1553" y="415.6885">Commit: L3: Three developers working together</text><line style="stroke: #A80036; stroke-width: 1.5;" x1="1372" x2="1701" y1="448.5186" y2="448.5186"/><line style="stroke: #A80036; stroke-width: 1.5;" x1="162.5" x2="162.5" y1="79.6514" y2="99.6514"/><polygon fill="#A80036" points="158.5,89.6514,162.5,99.6514,166.5,89.6514,162.5,93.6514" style="stroke: #A80036; stroke-width: 1.0;"/><line style="stroke: #A80036; stroke-width: 1.5;" x1="162.5" x2="162.5" y1="502.4873" y2="525.6357"/><polygon fill="#A80036" points="158.5,515.6357,162.5,525.6357,166.5,515.6357,162.5,519.6357" style="stroke: #A80036; stroke-width: 1.0;"/><line style="stroke: #A80036; stroke-width: 1.5;" x1="162.5" x2="162.5" y1="601.5107" y2="621.5107"/><polygon fill="#A80036" points="158.5,611.5107,162.5,621.5107,166.5,611.5107,162.5,615.5107" style="stroke: #A80036; stroke-width: 1.0;"/><line style="stroke: #A80036; stroke-width: 1.5;" x1="162.5" x2="162.5" y1="655.4795" y2="678.6279"/><polygon fill="#A80036" points="158.5,668.6279,162.5,678.6279,166.5,668.6279,162.5,672.6279" style="stroke: #A80036; stroke-width: 1.0;"/><line style="stroke: #A80036; stroke-width: 1.5;" x1="162.5" x2="162.5" y1="754.5029" y2="805.4834"/><polygon fill="#A80036" points="158.5,795.4834,162.5,805.4834,166.5,795.4834,162.5,799.4834" style="stroke: #A80036; stroke-width: 1.0;"/><line style="stroke: #A80036; stroke-width: 1.5;" x1="162.5" x2="162.5" y1="839.4521" y2="900.4326"/><polygon fill="#A80036" points="158.5,890.4326,162.5,900.4326,166.5,890.4326,162.5,894.4326" style="stroke: #A80036; stroke-width: 1.0;"/><line style="stroke: #A80036; stroke-width: 1.5;" x1="162.5" x2="162.5" y1="976.3076" y2="996.3076"/><polygon fill="#A80036" points="158.5,986.3076,162.5,996.3076,166.5,986.3076,162.5,990.3076" style="stroke: #A80036; stroke-width: 1.0;"/><line style="stroke: #A80036; stroke-width: 1.5;" x1="601" x2="601" y1="263.4639" y2="286.6123"/><polygon fill="#A80036" points="597,276.6123,601,286.6123,605,276.6123,601,280.6123" style="stroke: #A80036; stroke-width: 1.0;"/><line style="stroke: #A80036; stroke-width: 1.5;" x1="601" x2="601" y1="320.5811" y2="340.5811"/><polygon fill="#A80036" points="597,330.5811,601,340.5811,605,330.5811,601,334.5811" style="stroke: #A80036; stroke-width: 1.0;"/><line style="stroke: #A80036; stroke-width: 1.5;" x1="601" x2="601" y1="374.5498" y2="394.5498"/><polygon fill="#A80036" points="597,384.5498,601,394.5498,605,384.5498,601,388.5498" style="stroke: #A80036; stroke-width: 1.0;"/><line style="stroke: #A80036; stroke-width: 1.5;" x1="601" x2="601" y1="210.9951" y2="229.4951"/><polygon fill="#A80036" points="597,219.4951,601,229.4951,605,219.4951,601,223.4951" style="stroke: #A80036; stroke-width: 1.0;"/><line style="stroke: #A80036; stroke-width: 1.5;" x1="1120.5" x2="1120.5" y1="263.4639" y2="286.6123"/><polygon fill="#A80036" points="1116.5,276.6123,1120.5,286.6123,1124.5,276.6123,1120.5,280.6123" style="stroke: #A80036; stroke-width: 1.0;"/><line style="stroke: #A80036; stroke-width: 1.5;" x1="1120.5" x2="1120.5" y1="320.5811" y2="340.5811"/><polygon fill="#A80036" points="1116.5,330.5811,1120.5,340.5811,1124.5,330.5811,1120.5,334.5811" style="stroke: #A80036; stroke-width: 1.0;"/><line style="stroke: #A80036; stroke-width: 1.5;" x1="1120.5" x2="1120.5" y1="374.5498" y2="394.5498"/><polygon fill="#A80036" points="1116.5,384.5498,1120.5,394.5498,1124.5,384.5498,1120.5,388.5498" style="stroke: #A80036; stroke-width: 1.0;"/><line style="stroke: #A80036; stroke-width: 1.5;" x1="1701" x2="1701" y1="263.4639" y2="286.6123"/><polygon fill="#A80036" points="1697,276.6123,1701,286.6123,1705,276.6123,1701,280.6123" style="stroke: #A80036; stroke-width: 1.0;"/><line style="stroke: #A80036; stroke-width: 1.5;" x1="1701" x2="1701" y1="320.5811" y2="340.5811"/><polygon fill="#A80036" points="1697,330.5811,1701,340.5811,1705,330.5811,1701,334.5811" style="stroke: #A80036; stroke-width: 1.0;"/><line style="stroke: #A80036; stroke-width: 1.5;" x1="1701" x2="1701" y1="374.5498" y2="394.5498"/><polygon fill="#A80036" points="1697,384.5498,1701,394.5498,1705,384.5498,1701,388.5498" style="stroke: #A80036; stroke-width: 1.0;"/><line style="stroke: #A80036; stroke-width: 1.5;" x1="1701" x2="1701" y1="428.5186" y2="448.5186"/><polygon fill="#A80036" points="1697,438.5186,1701,448.5186,1705,438.5186,1701,442.5186" style="stroke: #A80036; stroke-width: 1.0;"/><line style="stroke: #A80036; stroke-width: 1.5;" x1="937.5" x2="937.5" y1="210.9951" y2="214.4951"/><line style="stroke: #A80036; stroke-width: 1.5;" x1="937.5" x2="1120.5" y1="214.4951" y2="214.4951"/><line style="stroke: #A80036; stroke-width: 1.5;" x1="1120.5" x2="1120.5" y1="214.4951" y2="229.4951"/><polygon fill="#A80036" points="1116.5,219.4951,1120.5,229.4951,1124.5,219.4951,1120.5,223.4951" style="stroke: #A80036; stroke-width: 1.0;"/><line style="stroke: #A80036; stroke-width: 1.5;" x1="975.5" x2="975.5" y1="210.9951" y2="214.4951"/><line style="stroke: #A80036; stroke-width: 1.5;" x1="975.5" x2="1701" y1="214.4951" y2="214.4951"/><line style="stroke: #A80036; stroke-width: 1.5;" x1="1701" x2="1701" y1="214.4951" y2="229.4951"/><polygon fill="#A80036" points="1697,219.4951,1701,229.4951,1705,219.4951,1701,223.4951" style="stroke: #A80036; stroke-width: 1.0;"/><line style="stroke: #A80036; stroke-width: 1.5;" x1="601" x2="601" y1="428.5186" y2="434.5186"/><line style="stroke: #A80036; stroke-width: 1.5;" x1="601" x2="1372" y1="434.5186" y2="434.5186"/><line style="stroke: #A80036; stroke-width: 1.5;" x1="1372" x2="1372" y1="434.5186" y2="448.5186"/><polygon fill="#A80036" points="1368,438.5186,1372,448.5186,1376,438.5186,1372,442.5186" style="stroke: #A80036; stroke-width: 1.0;"/><line style="stroke: #A80036; stroke-width: 1.5;" x1="1120.5" x2="1120.5" y1="428.5186" y2="434.5186"/><line style="stroke: #A80036; stroke-width: 1.5;" x1="1120.5" x2="1390" y1="434.5186" y2="434.5186"/><line style="stroke: #A80036; stroke-width: 1.5;" x1="1390" x2="1390" y1="434.5186" y2="448.5186"/><polygon fill="#A80036" points="1386,438.5186,1390,448.5186,1394,438.5186,1390,442.5186" style="stroke: #A80036; stroke-width: 1.0;"/><line style="stroke: #A80036; stroke-width: 1.5;" x1="162.5" x2="162.5" y1="189.4951" y2="194.4951"/><line style="stroke: #A80036; stroke-width: 1.5;" x1="162.5" x2="966.5" y1="194.4951" y2="194.4951"/><line style="stroke: #A80036; stroke-width: 1.5;" x1="966.5" x2="966.5" y1="194.4951" y2="209.4951"/><polygon fill="#A80036" points="962.5,199.4951,966.5,209.4951,970.5,199.4951,966.5,203.4951" style="stroke: #A80036; stroke-width: 1.0;"/><line style="stroke: #A80036; stroke-width: 1.5;" x1="1413.5" x2="1413.5" y1="450.0186" y2="453.5186"/><line style="stroke: #A80036; stroke-width: 1.5;" x1="1413.5" x2="162.5" y1="453.5186" y2="453.5186"/><line style="stroke: #A80036; stroke-width: 1.5;" x1="162.5" x2="162.5" y1="453.5186" y2="468.5186"/><polygon fill="#A80036" points="158.5,458.5186,162.5,468.5186,166.5,458.5186,162.5,462.5186" style="stroke: #A80036; stroke-width: 1.0;"/><text fill="#000000" font-family="Arial" font-size="18" lengthAdjust="spacingAndGlyphs" textLength="43" x="224" y="50.4063">main</text><text fill="#000000" font-family="Arial" font-size="18" lengthAdjust="spacingAndGlyphs" textLength="110" x="842.5" y="50.4063">feature/alice</text><text fill="#000000" font-family="Arial" font-size="18" lengthAdjust="spacingAndGlyphs" textLength="103" x="1120.75" y="50.4063">feature/bob</text><text fill="#000000" font-family="Arial" font-size="18" lengthAdjust="spacingAndGlyphs" textLength="129" x="1404" y="50.4063">feature/charlie</text><line style="stroke: #000000; stroke-width: 2.0;" x1="10" x2="10" y1="33.6982" y2="1018.3076"/><line style="stroke: #000000; stroke-width: 2.0;" x1="481" x2="481" y1="33.6982" y2="1018.3076"/><line style="stroke: #000000; stroke-width: 2.0;" x1="982.5" x2="982.5" y1="33.6982" y2="1018.3076"/><line style="stroke: #000000; stroke-width: 2.0;" x1="1362" x2="1362" y1="33.6982" y2="1018.3076"/><line style="stroke: #000000; stroke-width: 2.0;" x1="1942.5" x2="1942.5" y1="33.6982" y2="1018.3076"/><!--MD5=[837d943a506628547039433f806abfe3]
@startuml branch-merge-example

skinparam backgroundColor #FFFFFF
skinparam defaultFontName Arial
skinparam activity {
  BackgroundColor #4A90E2
  BorderColor #2E5C8A
  FontColor #FFFFFF
}

skinparam swimlane {
  BorderColor #000000
  BorderThickness 2
}

title Git Branch Workflow - Three Developers Working on Same File

|#F5F5F5|main|
start
:Initial commit
**File state:**
Line 1: The
Line 2: Git
Line 3: Three;
note right
  🚀 **Starting point**
  All branches diverge from here
end note

split
  |#E8F5E9|feature/alice|
  :Branch created;
  note right
    **Alice's branch**
    Modifying Line 1 only
  end note
  :Commit: L1: The quick;
  :Commit: L1: The quick brown;
  :Commit: L1: The quick brown fox;
split again
  |#E3F2FD|feature/bob|
  :Branch created;
  note right
    **Bob's branch**
    Modifying Line 2 only
  end note
  :Commit: L2: Git makes;
  :Commit: L2: Git makes teamwork;
  :Commit: L2: Git makes teamwork easy;
split again
  |#FFF3E0|feature/charlie|
  :Branch created;
  note right
    **Charlie's branch**
    Modifying Line 3 only
  end note
  :Commit: L3: Three developers;
  :Commit: L3: Three developers working;
  :Commit: L3: Three developers working together;
end split

|#F5F5F5|main|
:Merge feature/alice ⬅;
note right
  ✅ **No conflicts**
  Different line modified (L1)
end note
:File state:
Line 1: The quick brown fox
Line 2: Git
Line 3: Three;

:Merge feature/bob ⬅;
note right
  ✅ **No conflicts**
  Different line modified (L2)
end note
:File state:
Line 1: The quick brown fox
Line 2: Git makes teamwork easy
Line 3: Three;

:Merge feature/charlie ⬅;
note right
  ✅ **No conflicts**
  Different line modified (L3)

  **Key takeaway:**
  All merges succeed because
  each developer modified
  different lines of the file
end note
:Final file state:
Line 1: The quick brown fox
Line 2: Git makes teamwork easy
Line 3: Three developers working together;

stop

@enduml

PlantUML version 1.2020.02(Sun Mar 01 11:22:07 CET 2020)
(GPL source distribution)
Java Runtime: OpenJDK Runtime Environment
JVM: OpenJDK 64-Bit Server VM
Java Version: 11.0.28+6-post-Ubuntu-1ubuntu122.04.1
Operating System: Linux
Default Encoding: UTF-8
Language: en
Country: null
--></g></svg>