<?xml version="1.0" encoding="UTF-8"?>
<svg xmlns="http://www.w3.org/2000/svg" width="1100" height="2500" viewBox="3900 0 1100 2500"><defs>
<clipPath id="clip-0">
<path clip-rule="nonzero" d="M 655 1351 L 746 1351 L 746 2317 L 655 2317 Z M 655 1351 " />
</clipPath>
<clipPath id="clip-1">
<path clip-rule="evenodd" d="M 1049.320312 1363.089844 L 952.242188 2323.898438 L 883.292969 2323.898438 L 859.351562 1415.308594 L 834.285156 1415.308594 L 729.175781 2323.898438 L 660.226562 2323.898438 L 640.289062 1363.089844 L 691.074219 1168.191406 L 1012.640625 1168.191406 Z M 1049.320312 1363.089844 " />
</clipPath>
<clipPath id="clip-2">
<path clip-rule="nonzero" d="M 772 567 L 903 567 L 903 638 L 772 638 Z M 772 567 " />
</clipPath>
<clipPath id="clip-3">
<path clip-rule="evenodd" d="M 782.351562 567.179688 C 784.050781 585.859375 779.238281 604.71875 734.25 609.101562 C 776.96875 795.648438 924.960938 838.660156 899.949219 627.410156 C 887.074219 624.980469 883.09375 618.359375 884.726562 609.101562 Z M 782.351562 567.179688 " />
</clipPath>
<clipPath id="clip-4">
<path clip-rule="nonzero" d="M 886 338 L 937 338 L 937 624 L 886 624 Z M 886 338 " />
</clipPath>
<clipPath id="clip-5">
<path clip-rule="evenodd" d="M 928.191406 388.019531 C 921.265625 436.851562 944.78125 607.421875 928.191406 618.578125 C 893.554688 641.898438 743.757812 568.171875 723.363281 517.789062 C 707.136719 477.710938 711.5 354.269531 705.347656 348.078125 C 682.355469 324.960938 663.089844 198.511719 816.109375 200.25 C 961.070312 201.910156 939.183594 310.53125 928.191406 388.019531 Z M 740.207031 257.398438 C 744.566406 251.410156 788.839844 280.671875 830.476562 277.050781 C 857.71875 274.679688 874.59375 251.140625 897.082031 257.398438 C 906.671875 260.070312 923.792969 283.808594 926.578125 309.839844 C 931.378906 354.710938 917.476562 413.859375 914.292969 433.691406 C 912.386719 445.558594 881.621094 435.769531 844.695312 435.898438 C 802.761719 436.039062 762.296875 480.871094 740.207031 455.53125 C 727.109375 440.511719 729.453125 403.609375 729.625 364.199219 C 729.804688 322.011719 721.59375 282.988281 740.207031 257.398438 Z M 740.207031 257.398438 " />
</clipPath>
<clipPath id="clip-6">
<path clip-rule="nonzero" d="M 839 514 L 877 514 L 877 528 L 839 528 Z M 839 514 " />
</clipPath>
<clipPath id="clip-7">
<path clip-rule="evenodd" d="M 928.191406 388.019531 C 921.265625 436.851562 944.78125 607.421875 928.191406 618.578125 C 893.554688 641.898438 743.757812 568.171875 723.363281 517.789062 C 707.136719 477.710938 711.5 354.269531 705.347656 348.078125 C 682.355469 324.960938 663.089844 198.511719 816.109375 200.25 C 961.070312 201.910156 939.183594 310.53125 928.191406 388.019531 Z M 740.207031 257.398438 C 744.566406 251.410156 788.839844 280.671875 830.476562 277.050781 C 857.71875 274.679688 874.59375 251.140625 897.082031 257.398438 C 906.671875 260.070312 923.792969 283.808594 926.578125 309.839844 C 931.378906 354.710938 917.476562 413.859375 914.292969 433.691406 C 912.386719 445.558594 881.621094 435.769531 844.695312 435.898438 C 802.761719 436.039062 762.296875 480.871094 740.207031 455.53125 C 727.109375 440.511719 729.453125 403.609375 729.625 364.199219 C 729.804688 322.011719 721.59375 282.988281 740.207031 257.398438 Z M 740.207031 257.398438 " />
</clipPath>
<clipPath id="clip-8">
<path clip-rule="nonzero" d="M 721 250 L 903 250 L 903 378 L 721 378 Z M 721 250 " />
</clipPath>
<clipPath id="clip-9">
<path clip-rule="evenodd" d="M 928.191406 388.019531 C 921.265625 436.851562 944.78125 607.421875 928.191406 618.578125 C 893.554688 641.898438 743.757812 568.171875 723.363281 517.789062 C 707.136719 477.710938 711.5 354.269531 705.347656 348.078125 C 682.355469 324.960938 663.089844 198.511719 816.109375 200.25 C 961.070312 201.910156 939.183594 310.53125 928.191406 388.019531 Z M 740.207031 257.398438 C 744.566406 251.410156 788.839844 280.671875 830.476562 277.050781 C 857.71875 274.679688 874.59375 251.140625 897.082031 257.398438 C 906.671875 260.070312 923.792969 283.808594 926.578125 309.839844 C 931.378906 354.710938 917.476562 413.859375 914.292969 433.691406 C 912.386719 445.558594 881.621094 435.769531 844.695312 435.898438 C 802.761719 436.039062 762.296875 480.871094 740.207031 455.53125 C 727.109375 440.511719 729.453125 403.609375 729.625 364.199219 C 729.804688 322.011719 721.59375 282.988281 740.207031 257.398438 Z M 740.207031 257.398438 " />
</clipPath>
<clipPath id="clip-10">
<path clip-rule="nonzero" d="M 564 756 L 662 756 L 662 1270 L 564 1270 Z M 564 756 " />
</clipPath>
<clipPath id="clip-11">
<path clip-rule="evenodd" d="M 734.25 609.101562 L 690.351562 1288.21875 L 564.359375 1288.21875 L 656.957031 685.441406 Z M 734.25 609.101562 " />
</clipPath>
<clipPath id="clip-12">
<path clip-rule="nonzero" d="M 1015 790 L 1099 790 L 1099 1310 L 1015 1310 Z M 1015 790 " />
</clipPath>
<clipPath id="clip-13">
<path clip-rule="evenodd" d="M 899.949219 627.410156 C 1163.679688 636.621094 1235.988281 1127.929688 1085.070312 1333.558594 L 1030.679688 1333.558594 Z M 899.949219 627.410156 " />
</clipPath>
<clipPath id="clip-14">
<path clip-rule="nonzero" d="M 787 366 L 807 366 L 807 383 L 787 383 Z M 787 366 " />
</clipPath>
<clipPath id="clip-15">
<path clip-rule="evenodd" d="M 764.386719 366.511719 C 764.386719 378.261719 773.917969 387.800781 785.675781 387.800781 C 797.4375 387.800781 806.96875 378.261719 806.96875 366.511719 Z M 764.386719 366.511719 " />
</clipPath>
<clipPath id="clip-16">
<path clip-rule="nonzero" d="M 797 370 L 804 370 L 804 377 L 797 377 Z M 797 370 " />
</clipPath>
<clipPath id="clip-17">
<path clip-rule="evenodd" d="M 764.386719 366.511719 C 764.386719 378.261719 773.917969 387.800781 785.675781 387.800781 C 797.4375 387.800781 806.96875 378.261719 806.96875 366.511719 Z M 764.386719 366.511719 " />
</clipPath>
<clipPath id="clip-18">
<path clip-rule="nonzero" d="M 895 366 L 915 366 L 915 383 L 895 383 Z M 895 366 " />
</clipPath>
<clipPath id="clip-19">
<path clip-rule="evenodd" d="M 872.058594 366.511719 C 872.058594 378.261719 881.589844 387.800781 893.347656 387.800781 C 905.109375 387.800781 914.640625 378.261719 914.640625 366.511719 Z M 872.058594 366.511719 " />
</clipPath>
<clipPath id="clip-20">
<path clip-rule="nonzero" d="M 904 370 L 912 370 L 912 377 L 904 377 Z M 904 370 " />
</clipPath>
<clipPath id="clip-21">
<path clip-rule="evenodd" d="M 872.058594 366.511719 C 872.058594 378.261719 881.589844 387.800781 893.347656 387.800781 C 905.109375 387.800781 914.640625 378.261719 914.640625 366.511719 Z M 872.058594 366.511719 " />
</clipPath>
<clipPath id="clip-22">
<path clip-rule="nonzero" d="M 1476 1242 L 1555 1242 L 1555 1585 L 1476 1585 Z M 1476 1242 " />
</clipPath>
<clipPath id="clip-23">
<path clip-rule="evenodd" d="M 1554.070312 1242.128906 C 1539.410156 1306.871094 1541.789062 1375 1530.019531 1440.898438 C 1519.058594 1502.265625 1494.128906 1561.546875 1476.050781 1618.183594 C 1488.039062 1643.472656 1436.210938 1759.570312 1417.890625 1731.332031 C 1411.050781 1738.328125 1395.121094 1736.8125 1395.859375 1724.925781 C 1359.589844 1727.171875 1395.628906 1684.144531 1412.070312 1644.839844 C 1414.148438 1639.886719 1412.75 1636.105469 1411.871094 1635.835938 C 1398.199219 1631.644531 1387.339844 1670.894531 1374.378906 1666.296875 C 1353.671875 1658.949219 1405.089844 1585.261719 1436.75 1584.242188 C 1459.578125 1471.859375 1461.429688 1358.25 1467.46875 1242.128906 Z M 1554.070312 1242.128906 " />
</clipPath>
<clipPath id="clip-24">
<path clip-rule="nonzero" d="M 1674 1977 L 1759 1977 L 1759 2042 L 1674 2042 Z M 1674 1977 " />
</clipPath>
<clipPath id="clip-25">
<path clip-rule="evenodd" d="M 1674.691406 1952.035156 L 1689.308594 2326.703125 L 1724.261719 2326.703125 L 1758.628906 1952.035156 Z M 1674.691406 1952.035156 " />
</clipPath>
<clipPath id="clip-26">
<path clip-rule="nonzero" d="M 1540 1977 L 1624 1977 L 1624 2042 L 1540 2042 Z M 1540 1977 " />
</clipPath>
<clipPath id="clip-27">
<path clip-rule="evenodd" d="M 1623.941406 1952.035156 L 1609.320312 2326.703125 L 1574.371094 2326.703125 L 1540 1952.035156 Z M 1623.941406 1952.035156 " />
</clipPath>
<clipPath id="clip-28">
<path clip-rule="nonzero" d="M 1508 1403 L 1760 1403 L 1760 1442 L 1508 1442 Z M 1508 1403 " />
</clipPath>
<clipPath id="clip-29">
<path clip-rule="evenodd" d="M 1923.941406 1998.148438 C 1730.660156 2021.605469 1537.378906 2021.195312 1344.089844 1998.148438 L 1524.25 1403.078125 L 1743.78125 1403.078125 Z M 1923.941406 1998.148438 " />
</clipPath>
<clipPath id="clip-30">
<path clip-rule="nonzero" d="M 1655 1403 L 1924 1403 L 1924 2016 L 1655 2016 Z M 1655 1403 " />
</clipPath>
<clipPath id="clip-31">
<path clip-rule="evenodd" d="M 1923.941406 1998.148438 C 1730.660156 2021.605469 1537.378906 2021.195312 1344.089844 1998.148438 L 1524.25 1403.078125 L 1743.78125 1403.078125 Z M 1923.941406 1998.148438 " />
</clipPath>
<clipPath id="clip-32">
<path clip-rule="nonzero" d="M 1741 1246 L 1834 1246 L 1834 1450 L 1741 1450 Z M 1741 1246 " />
</clipPath>
<clipPath id="clip-33">
<path clip-rule="evenodd" d="M 1827.660156 1246.210938 C 1835.359375 1374.171875 1836.628906 1499.359375 1833.398438 1622.621094 C 1851.96875 1643.558594 1834.601562 1769.507812 1809.128906 1747.503906 C 1804.511719 1756.132812 1788.789062 1759.121094 1786.179688 1747.503906 C 1751.980469 1759.777344 1774.578125 1708.40625 1779.398438 1666.074219 C 1780.011719 1660.738281 1777.609375 1657.496094 1776.691406 1657.480469 C 1762.390625 1657.277344 1762.929688 1697.992188 1749.191406 1697.195312 C 1727.25 1695.925781 1756.070312 1610.808594 1786.179688 1601 C 1776.738281 1486.710938 1760.949219 1369.769531 1749.191406 1255.480469 Z M 1827.660156 1246.210938 " />
</clipPath>
<clipPath id="clip-34">
<path clip-rule="nonzero" d="M 1536 659 L 1859 659 L 1859 1197 L 1536 1197 Z M 1536 659 " />
</clipPath>
<clipPath id="clip-35">
<path clip-rule="evenodd" d="M 1494.28125 861.640625 C 1468.78125 817.300781 1449.78125 792.410156 1454.558594 767.871094 C 1477.910156 648.171875 1568.390625 603.738281 1616.070312 608.128906 C 1658.039062 611.980469 1686.449219 654.898438 1686.449219 654.898438 C 1686.449219 654.898438 1733.191406 647.5 1751.898438 659.050781 C 1783.050781 678.28125 1771.421875 740.210938 1800.300781 789.488281 C 1839.5 856.351562 1882.53125 865.179688 1885.691406 919.449219 C 1887.890625 957.148438 1864.320312 976.101562 1867.160156 1011.449219 C 1870.210938 1049.480469 1908.191406 1070.949219 1893.410156 1121.550781 C 1883.351562 1156.011719 1833.75 1202.648438 1791.480469 1196.128906 C 1742.839844 1188.621094 1634.019531 1065.949219 1634.019531 1065.949219 L 1606.578125 882.820312 Z M 1494.28125 861.640625 " />
</clipPath>
<clipPath id="clip-36">
<path clip-rule="nonzero" d="M 1495 1143 L 1531 1143 L 1531 1269 L 1495 1269 Z M 1495 1143 " />
</clipPath>
<clipPath id="clip-37">
<path clip-rule="evenodd" d="M 1530.019531 1084.339844 C 1472.929688 1099.121094 1436.089844 1153.230469 1419.039062 1245.769531 C 1452.671875 1264.398438 1490.191406 1269.890625 1530.019531 1267.609375 Z M 1530.019531 1084.339844 " />
</clipPath>
<clipPath id="clip-38">
<path clip-rule="nonzero" d="M 1714 1159 L 1760 1159 L 1760 1427 L 1714 1427 Z M 1714 1159 " />
</clipPath>
<clipPath id="clip-39">
<path clip-rule="evenodd" d="M 1634.019531 1065.949219 L 1557.929688 1075.730469 L 1530.019531 1084.339844 C 1530.019531 1084.339844 1512.710938 1330.390625 1508.160156 1395.128906 C 1507.550781 1403.808594 1514.128906 1410.230469 1522.558594 1412.359375 C 1598.640625 1431.660156 1672.890625 1431.140625 1745.460938 1412.351562 C 1753.890625 1410.171875 1760.480469 1403.800781 1759.871094 1395.121094 C 1755.308594 1330.351562 1738.011719 1084.339844 1738.011719 1084.339844 L 1707.28125 1075.730469 Z M 1634.019531 1065.949219 " />
</clipPath>
<clipPath id="clip-40">
<path clip-rule="nonzero" d="M 1554 1084 L 1715 1084 L 1715 1155 L 1554 1155 Z M 1554 1084 " />
</clipPath>
<clipPath id="clip-41">
<path clip-rule="evenodd" d="M 1634.019531 1065.949219 L 1557.929688 1075.730469 L 1530.019531 1084.339844 C 1530.019531 1084.339844 1512.710938 1330.390625 1508.160156 1395.128906 C 1507.550781 1403.808594 1514.128906 1410.230469 1522.558594 1412.359375 C 1598.640625 1431.660156 1672.890625 1431.140625 1745.460938 1412.351562 C 1753.890625 1410.171875 1760.480469 1403.800781 1759.871094 1395.121094 C 1755.308594 1330.351562 1738.011719 1084.339844 1738.011719 1084.339844 L 1707.28125 1075.730469 Z M 1634.019531 1065.949219 " />
</clipPath>
<clipPath id="clip-42">
<path clip-rule="nonzero" d="M 1575 953 L 1693 953 L 1693 1019 L 1575 1019 Z M 1575 953 " />
</clipPath>
<clipPath id="clip-43">
<path clip-rule="evenodd" d="M 1692.441406 1065.949219 C 1653.488281 1088.46875 1614.539062 1092.378906 1575.589844 1065.949219 C 1601.558594 1060.199219 1605.988281 1016.039062 1606.769531 953.21875 L 1659.941406 953.21875 C 1659.691406 1007.109375 1665.449219 1054.609375 1692.441406 1065.949219 Z M 1692.441406 1065.949219 " />
</clipPath>
<clipPath id="clip-44">
<path clip-rule="nonzero" d="M 1664 821 L 1686 821 L 1686 850 L 1664 850 Z M 1664 821 " />
</clipPath>
<clipPath id="clip-45">
<path clip-rule="evenodd" d="M 1700.578125 828.910156 C 1700.578125 823.53125 1698.441406 818.359375 1694.640625 814.558594 C 1690.828125 810.75 1685.671875 808.609375 1680.289062 808.609375 C 1669.070312 808.609375 1659.988281 817.699219 1659.988281 828.910156 C 1659.988281 840.320312 1659.988281 852.300781 1659.988281 852.300781 L 1700.578125 852.300781 C 1700.578125 852.300781 1700.578125 840.320312 1700.578125 828.910156 Z M 1700.578125 828.910156 " />
</clipPath>
<clipPath id="clip-46">
<path clip-rule="nonzero" d="M 1675 826 L 1681 826 L 1681 835 L 1675 835 Z M 1675 826 " />
</clipPath>
<clipPath id="clip-47">
<path clip-rule="evenodd" d="M 1700.578125 828.910156 C 1700.578125 823.53125 1698.441406 818.359375 1694.640625 814.558594 C 1690.828125 810.75 1685.671875 808.609375 1680.289062 808.609375 C 1669.070312 808.609375 1659.988281 817.699219 1659.988281 828.910156 C 1659.988281 840.320312 1659.988281 852.300781 1659.988281 852.300781 L 1700.578125 852.300781 C 1700.578125 852.300781 1700.578125 840.320312 1700.578125 828.910156 Z M 1700.578125 828.910156 " />
</clipPath>
<clipPath id="clip-48">
<path clip-rule="nonzero" d="M 1550 821 L 1572 821 L 1572 850 L 1550 850 Z M 1550 821 " />
</clipPath>
<clipPath id="clip-49">
<path clip-rule="evenodd" d="M 1587.199219 828.910156 C 1587.199219 823.53125 1585.058594 818.359375 1581.25 814.558594 C 1577.449219 810.75 1572.28125 808.609375 1566.898438 808.609375 C 1555.691406 808.609375 1546.601562 817.699219 1546.601562 828.910156 C 1546.601562 840.320312 1546.601562 852.300781 1546.601562 852.300781 L 1587.199219 852.300781 C 1587.199219 852.300781 1587.199219 840.320312 1587.199219 828.910156 Z M 1587.199219 828.910156 " />
</clipPath>
<clipPath id="clip-50">
<path clip-rule="nonzero" d="M 1561 826 L 1567 826 L 1567 835 L 1561 835 Z M 1561 826 " />
</clipPath>
<clipPath id="clip-51">
<path clip-rule="evenodd" d="M 1587.199219 828.910156 C 1587.199219 823.53125 1585.058594 818.359375 1581.25 814.558594 C 1577.449219 810.75 1572.28125 808.609375 1566.898438 808.609375 C 1555.691406 808.609375 1546.601562 817.699219 1546.601562 828.910156 C 1546.601562 840.320312 1546.601562 852.300781 1546.601562 852.300781 L 1587.199219 852.300781 C 1587.199219 852.300781 1587.199219 840.320312 1587.199219 828.910156 Z M 1587.199219 828.910156 " />
</clipPath>
<clipPath id="clip-52">
<path clip-rule="nonzero" d="M 2396 1461 L 2505 1461 L 2505 2326 L 2396 2326 Z M 2396 1461 " />
</clipPath>
<clipPath id="clip-53">
<path clip-rule="evenodd" d="M 2685.800781 1227.890625 L 2259.878906 1227.890625 L 2257.238281 1431.761719 L 2353.789062 2325.125 L 2418.21875 2325.125 L 2441.410156 1484.710938 L 2504.238281 1484.710938 L 2527.429688 2325.125 L 2591.851562 2325.125 L 2688.449219 1431.761719 Z M 2685.800781 1227.890625 " />
</clipPath>
<clipPath id="clip-54">
<path clip-rule="nonzero" d="M 2257 1419 L 2350 1419 L 2350 1485 L 2257 1485 Z M 2257 1419 " />
</clipPath>
<clipPath id="clip-55">
<path clip-rule="evenodd" d="M 2685.800781 1227.890625 L 2259.878906 1227.890625 L 2257.238281 1431.761719 L 2353.789062 2325.125 L 2418.21875 2325.125 L 2441.410156 1484.710938 L 2504.238281 1484.710938 L 2527.429688 2325.125 L 2591.851562 2325.125 L 2688.449219 1431.761719 Z M 2685.800781 1227.890625 " />
</clipPath>
<clipPath id="clip-56">
<path clip-rule="nonzero" d="M 2566 1318 L 2689 1318 L 2689 2326 L 2566 2326 Z M 2566 1318 " />
</clipPath>
<clipPath id="clip-57">
<path clip-rule="evenodd" d="M 2685.800781 1227.890625 L 2259.878906 1227.890625 L 2257.238281 1431.761719 L 2353.789062 2325.125 L 2418.21875 2325.125 L 2441.410156 1484.710938 L 2504.238281 1484.710938 L 2527.429688 2325.125 L 2591.851562 2325.125 L 2688.449219 1431.761719 Z M 2685.800781 1227.890625 " />
</clipPath>
<clipPath id="clip-58">
<path clip-rule="nonzero" d="M 2333 1242 L 2619 1242 L 2619 1271 L 2333 1271 Z M 2333 1242 " />
</clipPath>
<clipPath id="clip-59">
<path clip-rule="evenodd" d="M 2685.800781 1227.890625 L 2259.878906 1227.890625 L 2257.238281 1431.761719 L 2353.789062 2325.125 L 2418.21875 2325.125 L 2441.410156 1484.710938 L 2504.238281 1484.710938 L 2527.429688 2325.125 L 2591.851562 2325.125 L 2688.449219 1431.761719 Z M 2685.800781 1227.890625 " />
</clipPath>
<clipPath id="clip-60">
<path clip-rule="nonzero" d="M 2337 670 L 2609 670 L 2609 1251 L 2337 1251 Z M 2337 670 " />
</clipPath>
<clipPath id="clip-61">
<path clip-rule="evenodd" d="M 2337.550781 1250.609375 L 2608.128906 1250.609375 L 2608.128906 736.96875 L 2579.890625 670.339844 L 2365.789062 670.339844 L 2337.550781 736.96875 Z M 2337.550781 1250.609375 " />
</clipPath>
<clipPath id="clip-62">
<path clip-rule="nonzero" d="M 2318 670 L 2366 670 L 2366 1465 L 2318 1465 Z M 2318 670 " />
</clipPath>
<clipPath id="clip-63">
<path clip-rule="evenodd" d="M 2361.210938 1388.929688 C 2361.058594 1412.628906 2341.800781 1431.761719 2318.109375 1431.761719 L 2251.910156 1431.761719 C 2242.21875 1467.539062 2237.441406 1510.410156 2234.070312 1555.316406 L 2160.378906 1571.863281 C 2037.699219 1153.289062 2125.191406 681.351562 2365.789062 670.339844 Z M 2361.210938 1388.929688 " />
</clipPath>
<clipPath id="clip-64">
<path clip-rule="nonzero" d="M 2416 580 L 2534 580 L 2534 642 L 2416 642 Z M 2416 580 " />
</clipPath>
<clipPath id="clip-65">
<path clip-rule="evenodd" d="M 2515.710938 580.539062 L 2429.96875 580.539062 C 2430.738281 615.25 2419.328125 644.480469 2391.601562 666.359375 C 2410.640625 692.988281 2437.300781 708.660156 2472.839844 711.589844 C 2508.378906 708.660156 2535.039062 692.988281 2554.078125 666.359375 C 2526.351562 644.480469 2514.941406 615.25 2515.710938 580.539062 Z M 2515.710938 580.539062 " />
</clipPath>
<clipPath id="clip-66">
<path clip-rule="nonzero" d="M 2567 670 L 2634 670 L 2634 1297 L 2567 1297 Z M 2567 670 " />
</clipPath>
<clipPath id="clip-67">
<path clip-rule="evenodd" d="M 2579.890625 670.339844 C 2579.890625 670.339844 2551.921875 1119.691406 2579.890625 1227.890625 C 2603.761719 1320.21875 2688.449219 1332.03125 2688.449219 1332.03125 L 2711.390625 1299.378906 L 2699.480469 796.539062 Z M 2579.890625 670.339844 " />
</clipPath>
<clipPath id="clip-68">
<path clip-rule="nonzero" d="M 2523 356 L 2545 356 L 2545 384 L 2523 384 Z M 2523 356 " />
</clipPath>
<clipPath id="clip-69">
<path clip-rule="evenodd" d="M 2559.621094 362.980469 C 2559.621094 357.601562 2557.480469 352.429688 2553.679688 348.628906 C 2549.871094 344.820312 2544.710938 342.679688 2539.320312 342.679688 C 2528.109375 342.679688 2519.019531 351.769531 2519.019531 362.980469 C 2519.019531 374.390625 2519.019531 386.371094 2519.019531 386.371094 L 2559.621094 386.371094 C 2559.621094 386.371094 2559.621094 374.390625 2559.621094 362.980469 Z M 2559.621094 362.980469 " />
</clipPath>
<clipPath id="clip-70">
<path clip-rule="nonzero" d="M 2534 360 L 2540 360 L 2540 369 L 2534 369 Z M 2534 360 " />
</clipPath>
<clipPath id="clip-71">
<path clip-rule="evenodd" d="M 2559.621094 362.980469 C 2559.621094 357.601562 2557.480469 352.429688 2553.679688 348.628906 C 2549.871094 344.820312 2544.710938 342.679688 2539.320312 342.679688 C 2528.109375 342.679688 2519.019531 351.769531 2519.019531 362.980469 C 2519.019531 374.390625 2519.019531 386.371094 2519.019531 386.371094 L 2559.621094 386.371094 C 2559.621094 386.371094 2559.621094 374.390625 2559.621094 362.980469 Z M 2559.621094 362.980469 " />
</clipPath>
<clipPath id="clip-72">
<path clip-rule="nonzero" d="M 2398 356 L 2420 356 L 2420 384 L 2398 384 Z M 2398 356 " />
</clipPath>
<clipPath id="clip-73">
<path clip-rule="evenodd" d="M 2435.179688 362.980469 C 2435.179688 357.601562 2433.039062 352.429688 2429.230469 348.628906 C 2425.421875 344.820312 2420.261719 342.679688 2414.878906 342.679688 C 2403.671875 342.679688 2394.578125 351.769531 2394.578125 362.980469 C 2394.578125 374.390625 2394.578125 386.371094 2394.578125 386.371094 L 2435.179688 386.371094 C 2435.179688 386.371094 2435.179688 374.390625 2435.179688 362.980469 Z M 2435.179688 362.980469 " />
</clipPath>
<clipPath id="clip-74">
<path clip-rule="nonzero" d="M 2409 360 L 2415 360 L 2415 369 L 2409 369 Z M 2409 360 " />
</clipPath>
<clipPath id="clip-75">
<path clip-rule="evenodd" d="M 2435.179688 362.980469 C 2435.179688 357.601562 2433.039062 352.429688 2429.230469 348.628906 C 2425.421875 344.820312 2420.261719 342.679688 2414.878906 342.679688 C 2403.671875 342.679688 2394.578125 351.769531 2394.578125 362.980469 C 2394.578125 374.390625 2394.578125 386.371094 2394.578125 386.371094 L 2435.179688 386.371094 C 2435.179688 386.371094 2435.179688 374.390625 2435.179688 362.980469 Z M 2435.179688 362.980469 " />
</clipPath>
<clipPath id="clip-76">
<path clip-rule="nonzero" d="M 2452 537 L 2491 537 L 2491 552 L 2452 552 Z M 2452 537 " />
</clipPath>
<clipPath id="clip-77">
<path clip-rule="evenodd" d="M 2639.820312 160.878906 C 2646.941406 211.039062 2634.269531 265.339844 2564.609375 273.039062 C 2464.5 284.089844 2409.050781 216.949219 2376.160156 234.351562 C 2334.558594 256.371094 2346.808594 371.148438 2346.808594 371.148438 C 2346.808594 371.148438 2369.980469 406.050781 2376.160156 424.539062 C 2383.148438 445.46875 2388.738281 496.691406 2388.738281 496.691406 L 2547.820312 496.691406 C 2547.820312 496.691406 2549.761719 452.488281 2557.519531 436.679688 C 2564.96875 421.5 2594.371094 401.820312 2594.371094 401.820312 C 2594.371094 401.820312 2633.609375 543.511719 2582.898438 580.761719 C 2538.699219 613.230469 2371.628906 631.109375 2330.710938 573.921875 C 2287.46875 513.5 2329.578125 310.398438 2323.210938 270.980469 C 2268.578125 234.28125 2327.921875 160.699219 2367.78125 183.390625 C 2389.691406 149.148438 2433.011719 128.980469 2472.839844 128.671875 C 2556.109375 128 2564.019531 225.648438 2639.820312 160.878906 Z M 2639.820312 160.878906 " />
</clipPath>
<clipPath id="clip-78">
<path clip-rule="nonzero" d="M 2301 509 L 2622 509 L 2622 612 L 2301 612 Z M 2301 509 " />
</clipPath>
<clipPath id="clip-79">
<path clip-rule="evenodd" d="M 2639.820312 160.878906 C 2646.941406 211.039062 2634.269531 265.339844 2564.609375 273.039062 C 2464.5 284.089844 2409.050781 216.949219 2376.160156 234.351562 C 2334.558594 256.371094 2346.808594 371.148438 2346.808594 371.148438 C 2346.808594 371.148438 2369.980469 406.050781 2376.160156 424.539062 C 2383.148438 445.46875 2388.738281 496.691406 2388.738281 496.691406 L 2547.820312 496.691406 C 2547.820312 496.691406 2549.761719 452.488281 2557.519531 436.679688 C 2564.96875 421.5 2594.371094 401.820312 2594.371094 401.820312 C 2594.371094 401.820312 2633.609375 543.511719 2582.898438 580.761719 C 2538.699219 613.230469 2371.628906 631.109375 2330.710938 573.921875 C 2287.46875 513.5 2329.578125 310.398438 2323.210938 270.980469 C 2268.578125 234.28125 2327.921875 160.699219 2367.78125 183.390625 C 2389.691406 149.148438 2433.011719 128.980469 2472.839844 128.671875 C 2556.109375 128 2564.019531 225.648438 2639.820312 160.878906 Z M 2639.820312 160.878906 " />
</clipPath>
<clipPath id="clip-80">
<path clip-rule="nonzero" d="M 2343 219 L 2629 219 L 2629 318 L 2343 318 Z M 2343 219 " />
</clipPath>
<clipPath id="clip-81">
<path clip-rule="evenodd" d="M 2639.820312 160.878906 C 2646.941406 211.039062 2634.269531 265.339844 2564.609375 273.039062 C 2464.5 284.089844 2409.050781 216.949219 2376.160156 234.351562 C 2334.558594 256.371094 2346.808594 371.148438 2346.808594 371.148438 C 2346.808594 371.148438 2369.980469 406.050781 2376.160156 424.539062 C 2383.148438 445.46875 2388.738281 496.691406 2388.738281 496.691406 L 2547.820312 496.691406 C 2547.820312 496.691406 2549.761719 452.488281 2557.519531 436.679688 C 2564.96875 421.5 2594.371094 401.820312 2594.371094 401.820312 C 2594.371094 401.820312 2633.609375 543.511719 2582.898438 580.761719 C 2538.699219 613.230469 2371.628906 631.109375 2330.710938 573.921875 C 2287.46875 513.5 2329.578125 310.398438 2323.210938 270.980469 C 2268.578125 234.28125 2327.921875 160.699219 2367.78125 183.390625 C 2389.691406 149.148438 2433.011719 128.980469 2472.839844 128.671875 C 2556.109375 128 2564.019531 225.648438 2639.820312 160.878906 Z M 2639.820312 160.878906 " />
</clipPath>
<clipPath id="clip-82">
<path clip-rule="nonzero" d="M 2336 146 L 2399 146 L 2399 204 L 2336 204 Z M 2336 146 " />
</clipPath>
<clipPath id="clip-83">
<path clip-rule="evenodd" d="M 2639.820312 160.878906 C 2646.941406 211.039062 2634.269531 265.339844 2564.609375 273.039062 C 2464.5 284.089844 2409.050781 216.949219 2376.160156 234.351562 C 2334.558594 256.371094 2346.808594 371.148438 2346.808594 371.148438 C 2346.808594 371.148438 2369.980469 406.050781 2376.160156 424.539062 C 2383.148438 445.46875 2388.738281 496.691406 2388.738281 496.691406 L 2547.820312 496.691406 C 2547.820312 496.691406 2549.761719 452.488281 2557.519531 436.679688 C 2564.96875 421.5 2594.371094 401.820312 2594.371094 401.820312 C 2594.371094 401.820312 2633.609375 543.511719 2582.898438 580.761719 C 2538.699219 613.230469 2371.628906 631.109375 2330.710938 573.921875 C 2287.46875 513.5 2329.578125 310.398438 2323.210938 270.980469 C 2268.578125 234.28125 2327.921875 160.699219 2367.78125 183.390625 C 2389.691406 149.148438 2433.011719 128.980469 2472.839844 128.671875 C 2556.109375 128 2564.019531 225.648438 2639.820312 160.878906 Z M 2639.820312 160.878906 " />
</clipPath>
<clipPath id="clip-84">
<path clip-rule="nonzero" d="M 2699 864 L 2727 864 L 2727 1052 L 2699 1052 Z M 2699 864 " />
</clipPath>
<clipPath id="clip-85">
<path clip-rule="evenodd" d="M 2579.890625 670.339844 C 2730.398438 660.539062 2839.601562 921.761719 2873.921875 1134.558594 C 2885.851562 1208.511719 2720.800781 1329.621094 2720.800781 1329.621094 L 2662.988281 1261.691406 L 2760.511719 1164.121094 L 2699.480469 1051.160156 Z M 2579.890625 670.339844 " />
</clipPath>
<clipPath id="clip-86">
<path clip-rule="nonzero" d="M 3531 1884 L 3633 1884 L 3633 1929 L 3531 1929 Z M 3531 1884 " />
</clipPath>
<clipPath id="clip-87">
<path clip-rule="evenodd" d="M 3531.378906 1884.960938 L 3549.078125 2325.125 L 3591.390625 2325.125 L 3632.988281 1884.960938 Z M 3531.378906 1884.960938 " />
</clipPath>
<clipPath id="clip-88">
<path clip-rule="nonzero" d="M 3388 1884 L 3491 1884 L 3491 1929 L 3388 1929 Z M 3388 1884 " />
</clipPath>
<clipPath id="clip-89">
<path clip-rule="evenodd" d="M 3490.570312 1884.960938 L 3472.871094 2325.125 L 3430.558594 2325.125 L 3388.949219 1884.960938 Z M 3490.570312 1884.960938 " />
</clipPath>
<clipPath id="clip-90">
<path clip-rule="nonzero" d="M 3625 1068 L 3742 1068 L 3742 1460 L 3625 1460 Z M 3625 1068 " />
</clipPath>
<clipPath id="clip-91">
<path clip-rule="evenodd" d="M 3727.328125 1077.53125 C 3736.789062 1135.949219 3716.011719 1351.730469 3718.289062 1428.019531 C 3719.378906 1464.539062 3745.171875 1506.894531 3741.011719 1535.246094 C 3737.199219 1561.269531 3705.261719 1621.582031 3693.359375 1598.128906 C 3674.179688 1560.347656 3631.238281 1395.308594 3625.941406 1308.539062 C 3621.191406 1230.769531 3644.648438 1116.039062 3661.550781 1077.53125 C 3670.359375 1057.460938 3723.828125 1055.890625 3727.328125 1077.53125 Z M 3727.328125 1077.53125 " />
</clipPath>
<clipPath id="clip-92">
<path clip-rule="nonzero" d="M 3304 1326 L 3718 1326 L 3718 1910 L 3304 1910 Z M 3304 1326 " />
</clipPath>
<clipPath id="clip-93">
<path clip-rule="evenodd" d="M 3717.410156 1899.300781 C 3577.671875 1912.476562 3440.039062 1912.449219 3304.53125 1899.300781 C 3304.53125 1899.300781 3330.589844 1505.285156 3340.640625 1353.210938 C 3342.828125 1320.070312 3370.351562 1294.308594 3403.558594 1294.308594 C 3464.128906 1294.308594 3557.820312 1294.308594 3618.378906 1294.308594 C 3651.589844 1294.308594 3679.109375 1320.070312 3681.300781 1353.210938 C 3691.359375 1505.285156 3717.410156 1899.300781 3717.410156 1899.300781 Z M 3717.410156 1899.300781 " />
</clipPath>
<clipPath id="clip-94">
<path clip-rule="nonzero" d="M 3347 378 L 3719 378 L 3719 898 L 3347 898 Z M 3347 378 " />
</clipPath>
<clipPath id="clip-95">
<path clip-rule="evenodd" d="M 3419.101562 840.898438 C 3381.25 792.648438 3283.890625 766.21875 3289.148438 706.089844 C 3302.351562 555.089844 3351.109375 410.929688 3451.140625 376.710938 C 3491.238281 363 3529.570312 365.820312 3559.210938 400.5 C 3629.738281 398.179688 3647.789062 439.011719 3656.261719 479.269531 C 3666.988281 530.269531 3757.71875 535.808594 3697.769531 673.210938 C 3660.351562 758.980469 3759.421875 811.398438 3623.410156 845.308594 L 3501.621094 897.160156 Z M 3419.101562 840.898438 " />
</clipPath>
<clipPath id="clip-96">
<path clip-rule="nonzero" d="M 3356 498 L 3402 498 L 3402 634 L 3356 634 Z M 3356 498 " />
</clipPath>
<clipPath id="clip-97">
<path clip-rule="evenodd" d="M 3419.101562 840.898438 C 3381.25 792.648438 3283.890625 766.21875 3289.148438 706.089844 C 3302.351562 555.089844 3351.109375 410.929688 3451.140625 376.710938 C 3491.238281 363 3529.570312 365.820312 3559.210938 400.5 C 3629.738281 398.179688 3647.789062 439.011719 3656.261719 479.269531 C 3666.988281 530.269531 3757.71875 535.808594 3697.769531 673.210938 C 3660.351562 758.980469 3759.421875 811.398438 3623.410156 845.308594 L 3501.621094 897.160156 Z M 3419.101562 840.898438 " />
</clipPath>
<clipPath id="clip-98">
<path clip-rule="nonzero" d="M 3293 1087 L 3384 1087 L 3384 1209 L 3293 1209 Z M 3293 1087 " />
</clipPath>
<clipPath id="clip-99">
<path clip-rule="evenodd" d="M 3302.609375 1087.351562 L 3293.691406 1174.738281 L 3312.960938 1208.261719 L 3383.53125 1200.101562 L 3383.53125 1087.351562 Z M 3302.609375 1087.351562 " />
</clipPath>
<clipPath id="clip-100">
<path clip-rule="nonzero" d="M 3335 947 L 3362 947 L 3362 1116 L 3335 1116 Z M 3335 947 " />
</clipPath>
<clipPath id="clip-101">
<path clip-rule="evenodd" d="M 3587.191406 836.898438 C 3701.191406 829.378906 3723.808594 932.851562 3741.011719 1087.351562 L 3660.921875 1108.730469 C 3660.75 1159.789062 3664.859375 1207.898438 3672.578125 1244.621094 C 3675.929688 1260.550781 3671.921875 1277.140625 3661.660156 1289.78125 C 3651.410156 1302.421875 3635.550781 1306.929688 3619.71875 1309.761719 C 3555.699219 1321.191406 3465.671875 1320.679688 3406.25 1309.761719 C 3389.539062 1306.679688 3372.761719 1302 3361.921875 1288.640625 C 3351.078125 1275.289062 3346.839844 1257.75 3350.378906 1240.921875 C 3358.011719 1204.640625 3361.011719 1158.421875 3361.738281 1108.859375 L 3281.171875 1087.351562 C 3298.390625 932.699219 3321.03125 829.179688 3435.320312 836.929688 L 3586.859375 836.929688 Z M 3587.191406 836.898438 " />
</clipPath>
<clipPath id="clip-102">
<path clip-rule="nonzero" d="M 3660 947 L 3688 947 L 3688 1116 L 3660 1116 Z M 3660 947 " />
</clipPath>
<clipPath id="clip-103">
<path clip-rule="evenodd" d="M 3587.191406 836.898438 C 3701.191406 829.378906 3723.808594 932.851562 3741.011719 1087.351562 L 3660.921875 1108.730469 C 3660.75 1159.789062 3664.859375 1207.898438 3672.578125 1244.621094 C 3675.929688 1260.550781 3671.921875 1277.140625 3661.660156 1289.78125 C 3651.410156 1302.421875 3635.550781 1306.929688 3619.71875 1309.761719 C 3555.699219 1321.191406 3465.671875 1320.679688 3406.25 1309.761719 C 3389.539062 1306.679688 3372.761719 1302 3361.921875 1288.640625 C 3351.078125 1275.289062 3346.839844 1257.75 3350.378906 1240.921875 C 3358.011719 1204.640625 3361.011719 1158.421875 3361.738281 1108.859375 L 3281.171875 1087.351562 C 3298.390625 932.699219 3321.03125 829.179688 3435.320312 836.929688 L 3586.859375 836.929688 Z M 3587.191406 836.898438 " />
</clipPath>
<clipPath id="clip-104">
<path clip-rule="nonzero" d="M 3299 1240 L 3716 1240 L 3716 1319 L 3299 1319 Z M 3299 1240 " />
</clipPath>
<clipPath id="clip-105">
<path clip-rule="evenodd" d="M 3587.191406 836.898438 C 3701.191406 829.378906 3723.808594 932.851562 3741.011719 1087.351562 L 3660.921875 1108.730469 C 3660.75 1159.789062 3664.859375 1207.898438 3672.578125 1244.621094 C 3675.929688 1260.550781 3671.921875 1277.140625 3661.660156 1289.78125 C 3651.410156 1302.421875 3635.550781 1306.929688 3619.71875 1309.761719 C 3555.699219 1321.191406 3465.671875 1320.679688 3406.25 1309.761719 C 3389.539062 1306.679688 3372.761719 1302 3361.921875 1288.640625 C 3351.078125 1275.289062 3346.839844 1257.75 3350.378906 1240.921875 C 3358.011719 1204.640625 3361.011719 1158.421875 3361.738281 1108.859375 L 3281.171875 1087.351562 C 3298.390625 932.699219 3321.03125 829.179688 3435.320312 836.929688 L 3586.859375 836.929688 Z M 3587.191406 836.898438 " />
</clipPath>
<clipPath id="clip-106">
<path clip-rule="nonzero" d="M 3457 723 L 3565 723 L 3565 787 L 3457 787 Z M 3457 723 " />
</clipPath>
<clipPath id="clip-107">
<path clip-rule="evenodd" d="M 3587.648438 831.878906 C 3537.550781 860.859375 3487.449219 865.878906 3437.351562 831.878906 C 3462.390625 824.148438 3479.089844 771.359375 3485.679688 686.878906 L 3539.320312 686.878906 C 3537.878906 765.859375 3552.171875 826.039062 3587.648438 831.878906 Z M 3587.648438 831.878906 " />
</clipPath>
<clipPath id="clip-108">
<path clip-rule="nonzero" d="M 3447 603 L 3469 603 L 3469 632 L 3447 632 Z M 3447 603 " />
</clipPath>
<clipPath id="clip-109">
<path clip-rule="evenodd" d="M 3438.089844 611.578125 C 3438.089844 606.199219 3440.230469 601.03125 3444.03125 597.230469 C 3447.839844 593.421875 3453 591.28125 3458.390625 591.28125 C 3469.601562 591.28125 3478.691406 600.371094 3478.691406 611.578125 C 3478.691406 622.988281 3478.691406 634.96875 3478.691406 634.96875 L 3438.089844 634.96875 C 3438.089844 634.96875 3438.089844 622.988281 3438.089844 611.578125 Z M 3438.089844 611.578125 " />
</clipPath>
<clipPath id="clip-110">
<path clip-rule="nonzero" d="M 3452 608 L 3458 608 L 3458 617 L 3452 617 Z M 3452 608 " />
</clipPath>
<clipPath id="clip-111">
<path clip-rule="evenodd" d="M 3438.089844 611.578125 C 3438.089844 606.199219 3440.230469 601.03125 3444.03125 597.230469 C 3447.839844 593.421875 3453 591.28125 3458.390625 591.28125 C 3469.601562 591.28125 3478.691406 600.371094 3478.691406 611.578125 C 3478.691406 622.988281 3478.691406 634.96875 3478.691406 634.96875 L 3438.089844 634.96875 C 3438.089844 634.96875 3438.089844 622.988281 3438.089844 611.578125 Z M 3438.089844 611.578125 " />
</clipPath>
<clipPath id="clip-112">
<path clip-rule="nonzero" d="M 3561 603 L 3583 603 L 3583 632 L 3561 632 Z M 3561 603 " />
</clipPath>
<clipPath id="clip-113">
<path clip-rule="evenodd" d="M 3551.46875 611.578125 C 3551.46875 606.199219 3553.609375 601.03125 3557.421875 597.230469 C 3561.230469 593.421875 3566.390625 591.28125 3571.769531 591.28125 C 3582.980469 591.28125 3592.070312 600.371094 3592.070312 611.578125 C 3592.070312 622.988281 3592.070312 634.96875 3592.070312 634.96875 L 3551.46875 634.96875 C 3551.46875 634.96875 3551.46875 622.988281 3551.46875 611.578125 Z M 3551.46875 611.578125 " />
</clipPath>
<clipPath id="clip-114">
<path clip-rule="nonzero" d="M 3566 608 L 3572 608 L 3572 617 L 3566 617 Z M 3566 608 " />
</clipPath>
<clipPath id="clip-115">
<path clip-rule="evenodd" d="M 3551.46875 611.578125 C 3551.46875 606.199219 3553.609375 601.03125 3557.421875 597.230469 C 3561.230469 593.421875 3566.390625 591.28125 3571.769531 591.28125 C 3582.980469 591.28125 3592.070312 600.371094 3592.070312 611.578125 C 3592.070312 622.988281 3592.070312 634.96875 3592.070312 634.96875 L 3551.46875 634.96875 C 3551.46875 634.96875 3551.46875 622.988281 3551.46875 611.578125 Z M 3551.46875 611.578125 " />
</clipPath>
<clipPath id="clip-116">
<path clip-rule="nonzero" d="M 3146 1182 L 3321 1182 L 3321 1373 L 3146 1373 Z M 3146 1182 " />
</clipPath>
<clipPath id="clip-117">
<path clip-rule="evenodd" d="M 3320.480469 1207.78125 C 3342.929688 1213.179688 3320.480469 1391.269531 3320.480469 1391.269531 L 3372.328125 1401.101562 C 3372.328125 1401.101562 3419.429688 1180.621094 3320.480469 1171.421875 C 3236.75 1163.628906 3146.390625 1340.199219 3146.390625 1340.199219 L 3182.140625 1357.859375 L 3245.570312 1274.128906 C 3245.570312 1274.128906 3297.640625 1202.28125 3320.480469 1207.78125 Z M 3320.480469 1207.78125 " />
</clipPath>
<clipPath id="clip-118">
<path clip-rule="nonzero" d="M 3055 1372 L 3406 1372 L 3406 1713 L 3055 1713 Z M 3055 1372 " />
</clipPath>
<clipPath id="clip-119">
<path clip-rule="evenodd" d="M 3129.179688 1326.839844 C 3153.53125 1322.730469 3253.710938 1385.011719 3380.050781 1385.96875 C 3422.878906 1386.300781 3409.800781 1654.898438 3356.21875 1695.679688 C 3302.640625 1736.460938 3104.949219 1695.992188 3066.960938 1633.75 C 3028.980469 1571.503906 3097.191406 1332.238281 3129.179688 1326.839844 Z M 3129.179688 1326.839844 " />
</clipPath>
<clipPath id="clip-120">
<path clip-rule="nonzero" d="M 3174 1326 L 3324 1326 L 3324 1467 L 3174 1467 Z M 3174 1326 " />
</clipPath>
<clipPath id="clip-121">
<path clip-rule="evenodd" d="M 3129.179688 1326.839844 C 3153.53125 1322.730469 3253.710938 1385.011719 3380.050781 1385.96875 C 3422.878906 1386.300781 3409.800781 1654.898438 3356.21875 1695.679688 C 3302.640625 1736.460938 3104.949219 1695.992188 3066.960938 1633.75 C 3028.980469 1571.503906 3097.191406 1332.238281 3129.179688 1326.839844 Z M 3129.179688 1326.839844 " />
</clipPath>
<clipPath id="clip-122">
<path clip-rule="nonzero" d="M 4043 204 L 4438 204 L 4438 805 L 4043 805 Z M 4043 204 " />
</clipPath>
<clipPath id="clip-123">
<path clip-rule="evenodd" d="M 4158.929688 527.140625 C 4052.640625 467.308594 4040.210938 408.058594 4044.558594 345.101562 C 4049.289062 276.558594 4044.648438 218.03125 4136.128906 179.898438 C 4182.621094 160.519531 4232.78125 166.648438 4265.160156 225.089844 C 4383.351562 217.898438 4365.710938 311.839844 4359.960938 352.621094 C 4357.71875 368.511719 4379.351562 377.839844 4382.210938 396.910156 C 4385 415.488281 4382.140625 443.449219 4388.828125 460.699219 C 4396.28125 479.878906 4427.519531 496.351562 4434.058594 514.230469 C 4441.550781 534.660156 4427.511719 553.441406 4434.058594 573.480469 C 4441.808594 597.148438 4500.628906 615.171875 4502.878906 655.988281 C 4504.871094 691.898438 4471.230469 716.199219 4469.140625 735.199219 C 4464.25 779.738281 4447.601562 805.980469 4403.839844 804.699219 L 4217.511719 674.53125 L 4211.21875 540.820312 Z M 4158.929688 527.140625 " />
</clipPath>
<clipPath id="clip-124">
<path clip-rule="nonzero" d="M 4046 1227 L 4391 1227 L 4391 1392 L 4046 1392 Z M 4046 1227 " />
</clipPath>
<clipPath id="clip-125">
<path clip-rule="evenodd" d="M 4387.910156 1227.890625 L 4048.730469 1227.890625 L 4046.621094 1431.761719 L 4123.519531 2325.125 L 4174.820312 2325.125 L 4192.570312 1451.839844 L 4242.601562 1451.839844 L 4261.789062 2325.125 L 4313.101562 2325.125 L 4390.019531 1431.761719 Z M 4387.910156 1227.890625 " />
</clipPath>
<clipPath id="clip-126">
<path clip-rule="nonzero" d="M 4166 1435 L 4243 1435 L 4243 2326 L 4166 2326 Z M 4166 1435 " />
</clipPath>
<clipPath id="clip-127">
<path clip-rule="evenodd" d="M 4387.910156 1227.890625 L 4048.730469 1227.890625 L 4046.621094 1431.761719 L 4123.519531 2325.125 L 4174.820312 2325.125 L 4192.570312 1451.839844 L 4242.601562 1451.839844 L 4261.789062 2325.125 L 4313.101562 2325.125 L 4390.019531 1431.761719 Z M 4387.910156 1227.890625 " />
</clipPath>
<clipPath id="clip-128">
<path clip-rule="nonzero" d="M 4313 1701 L 4391 1701 L 4391 2326 L 4313 2326 Z M 4313 1701 " />
</clipPath>
<clipPath id="clip-129">
<path clip-rule="evenodd" d="M 4387.910156 1227.890625 L 4048.730469 1227.890625 L 4046.621094 1431.761719 L 4123.519531 2325.125 L 4174.820312 2325.125 L 4192.570312 1451.839844 L 4242.601562 1451.839844 L 4261.789062 2325.125 L 4313.101562 2325.125 L 4390.019531 1431.761719 Z M 4387.910156 1227.890625 " />
</clipPath>
<clipPath id="clip-130">
<path clip-rule="nonzero" d="M 4169 527 L 4266 527 L 4266 587 L 4169 587 Z M 4169 527 " />
</clipPath>
<clipPath id="clip-131">
<path clip-rule="evenodd" d="M 4246.191406 527.140625 L 4176.25 527.140625 C 4183.070312 571.328125 4183.121094 614.589844 4169.851562 655.988281 L 4265.160156 655.988281 C 4245.710938 615.808594 4239.21875 572.898438 4246.191406 527.140625 Z M 4246.191406 527.140625 " />
</clipPath>
<clipPath id="clip-132">
<path clip-rule="nonzero" d="M 4152 380 L 4170 380 L 4170 404 L 4152 404 Z M 4152 380 " />
</clipPath>
<clipPath id="clip-133">
<path clip-rule="evenodd" d="M 4178.148438 386.179688 C 4178.148438 381.671875 4176.359375 377.339844 4173.171875 374.148438 C 4169.980469 370.960938 4165.648438 369.160156 4161.128906 369.160156 C 4151.730469 369.160156 4144.121094 376.78125 4144.121094 386.179688 C 4144.121094 395.75 4144.121094 405.789062 4144.121094 405.789062 L 4178.148438 405.789062 C 4178.148438 405.789062 4178.148438 395.75 4178.148438 386.179688 Z M 4178.148438 386.179688 " />
</clipPath>
<clipPath id="clip-134">
<path clip-rule="nonzero" d="M 4156 383 L 4162 383 L 4162 392 L 4156 392 Z M 4156 383 " />
</clipPath>
<clipPath id="clip-135">
<path clip-rule="evenodd" d="M 4178.148438 386.179688 C 4178.148438 381.671875 4176.359375 377.339844 4173.171875 374.148438 C 4169.980469 370.960938 4165.648438 369.160156 4161.128906 369.160156 C 4151.730469 369.160156 4144.121094 376.78125 4144.121094 386.179688 C 4144.121094 395.75 4144.121094 405.789062 4144.121094 405.789062 L 4178.148438 405.789062 C 4178.148438 405.789062 4178.148438 395.75 4178.148438 386.179688 Z M 4178.148438 386.179688 " />
</clipPath>
<clipPath id="clip-136">
<path clip-rule="nonzero" d="M 4252 380 L 4271 380 L 4271 404 L 4252 404 Z M 4252 380 " />
</clipPath>
<clipPath id="clip-137">
<path clip-rule="evenodd" d="M 4278.320312 386.179688 C 4278.320312 381.671875 4276.53125 377.339844 4273.339844 374.148438 C 4270.140625 370.960938 4265.820312 369.160156 4261.300781 369.160156 C 4251.898438 369.160156 4244.289062 376.78125 4244.289062 386.179688 C 4244.289062 395.75 4244.289062 405.789062 4244.289062 405.789062 L 4278.320312 405.789062 C 4278.320312 405.789062 4278.320312 395.75 4278.320312 386.179688 Z M 4278.320312 386.179688 " />
</clipPath>
<clipPath id="clip-138">
<path clip-rule="nonzero" d="M 4257 383 L 4262 383 L 4262 392 L 4257 392 Z M 4257 383 " />
</clipPath>
<clipPath id="clip-139">
<path clip-rule="evenodd" d="M 4278.320312 386.179688 C 4278.320312 381.671875 4276.53125 377.339844 4273.339844 374.148438 C 4270.140625 370.960938 4265.820312 369.160156 4261.300781 369.160156 C 4251.898438 369.160156 4244.289062 376.78125 4244.289062 386.179688 C 4244.289062 395.75 4244.289062 405.789062 4244.289062 405.789062 L 4278.320312 405.789062 C 4278.320312 405.789062 4278.320312 395.75 4278.320312 386.179688 Z M 4278.320312 386.179688 " />
</clipPath>
<clipPath id="clip-140">
<path clip-rule="nonzero" d="M 4124 771 L 4345 771 L 4345 1261 L 4124 1261 Z M 4124 771 " />
</clipPath>
<clipPath id="clip-141">
<path clip-rule="evenodd" d="M 4145.089844 708.730469 C 4156.171875 943.429688 4323.980469 928.671875 4312.671875 708.730469 L 4344.878906 860.75 L 4344.878906 1245.980469 C 4258.808594 1266.390625 4179.171875 1265.121094 4104.820312 1245.980469 Z M 4145.089844 708.730469 " />
</clipPath>
<clipPath id="clip-142">
<path clip-rule="nonzero" d="M 4018 832 L 4079 832 L 4079 1138 L 4018 1138 Z M 4018 832 " />
</clipPath>
<clipPath id="clip-143">
<path clip-rule="evenodd" d="M 4156.699219 1355.890625 C 4083.191406 1353.179688 4018.101562 1343.839844 3994.769531 1327.179688 C 3973.28125 1311.828125 4043.429688 1181.609375 4046.621094 1101.601562 C 4051.449219 980.589844 4078.289062 758.351562 4078.289062 758.351562 L 4144.140625 655.988281 Z M 4156.699219 1355.890625 " />
</clipPath>
<clipPath id="clip-144">
<path clip-rule="nonzero" d="M 4015 1137 L 4157 1137 L 4157 1257 L 4015 1257 Z M 4015 1137 " />
</clipPath>
<clipPath id="clip-145">
<path clip-rule="evenodd" d="M 4156.699219 1355.890625 C 4083.191406 1353.179688 4018.101562 1343.839844 3994.769531 1327.179688 C 3973.28125 1311.828125 4043.429688 1181.609375 4046.621094 1101.601562 C 4051.449219 980.589844 4078.289062 758.351562 4078.289062 758.351562 L 4144.140625 655.988281 Z M 4156.699219 1355.890625 " />
</clipPath>
<clipPath id="clip-146">
<path clip-rule="nonzero" d="M 4341 812 L 4451 812 L 4451 1080 L 4341 1080 Z M 4341 812 " />
</clipPath>
<clipPath id="clip-147">
<path clip-rule="evenodd" d="M 4289.769531 655.988281 C 4314.300781 662.128906 4353.460938 664.03125 4374.269531 686.511719 C 4477.671875 798.191406 4517.699219 1083.339844 4516.800781 1092.859375 C 4511.21875 1151.929688 4405.378906 1191.480469 4405.378906 1191.480469 L 4374.269531 1100.800781 C 4374.269531 1100.800781 4413.761719 1070.621094 4413.761719 1048.070312 C 4413.761719 1018.539062 4374.269531 923.628906 4374.269531 923.628906 L 4334.929688 768.96875 Z M 4289.769531 655.988281 " />
</clipPath>
<clipPath id="clip-148">
<path clip-rule="nonzero" d="M 4289 1137 L 4402 1137 L 4402 1257 L 4289 1257 Z M 4289 1137 " />
</clipPath>
<clipPath id="clip-149">
<path clip-rule="evenodd" d="M 4289.769531 655.988281 L 4329.75 756.019531 C 4329.75 756.019531 4386.5 1018.269531 4398.039062 1113.070312 C 4406.738281 1184.480469 4454.128906 1312.929688 4429.210938 1327.179688 C 4411.101562 1337.53125 4374.5 1345.289062 4329.75 1350.25 C 4333.210938 1103.949219 4348.78125 846.910156 4289.769531 655.988281 Z M 4289.769531 655.988281 " />
</clipPath>
<clipPath id="clip-150">
<path clip-rule="nonzero" d="M 4326 1613 L 4537 1613 L 4537 1790 L 4326 1790 Z M 4326 1613 " />
</clipPath>
<clipPath id="clip-151">
<path clip-rule="evenodd" d="M 4370.738281 1074.210938 C 4407.410156 1352.808594 4283.511719 1755.652344 4374.710938 1769.113281 C 4396.339844 1772.308594 4407.988281 1766.800781 4424.378906 1769.113281 C 4444.679688 1771.984375 4449.878906 1799.507812 4496.5 1786.324219 C 4614.789062 1752.875 4433.460938 1258.421875 4406.878906 1074.210938 L 4327.660156 663.699219 C 4314.851562 652.25 4297.460938 652.390625 4289.769531 655.988281 Z M 4370.738281 1074.210938 " />
</clipPath>
<clipPath id="clip-152">
<path clip-rule="nonzero" d="M 4363 1131 L 4441 1131 L 4441 1297 L 4363 1297 Z M 4363 1131 " />
</clipPath>
<clipPath id="clip-153">
<path clip-rule="evenodd" d="M 4370.738281 1074.210938 C 4407.410156 1352.808594 4283.511719 1755.652344 4374.710938 1769.113281 C 4396.339844 1772.308594 4407.988281 1766.800781 4424.378906 1769.113281 C 4444.679688 1771.984375 4449.878906 1799.507812 4496.5 1786.324219 C 4614.789062 1752.875 4433.460938 1258.421875 4406.878906 1074.210938 L 4327.660156 663.699219 C 4314.851562 652.25 4297.460938 652.390625 4289.769531 655.988281 Z M 4370.738281 1074.210938 " />
</clipPath>
<clipPath id="clip-154">
<path clip-rule="nonzero" d="M 4174 1104 L 4290 1104 L 4290 1226 L 4174 1226 Z M 4174 1104 " />
</clipPath>
<clipPath id="clip-155">
<path clip-rule="evenodd" d="M 4144.140625 655.988281 C 4109.539062 657.738281 4072.859375 659.890625 4044.511719 696.441406 C 3962.359375 802.359375 3915.871094 1035.558594 3923.511719 1116.25 C 3939.808594 1288.628906 4289.769531 1205.609375 4289.769531 1205.609375 C 4276.371094 1176.109375 4270.070312 1144.839844 4273.398438 1111.171875 C 4273.398438 1111.171875 4057.621094 1140.808594 4024.339844 1104.328125 C 3991.050781 1067.851562 4073.691406 897.371094 4073.691406 897.371094 Z M 4144.140625 655.988281 " />
</clipPath>
</defs>
<path fill-rule="evenodd" fill="rgb(31.396484%, 14.892578%, 19.604492%)" fill-opacity="1" d="M 4158.929688 527.140625 C 4052.640625 467.308594 4040.210938 408.058594 4044.558594 345.101562 C 4049.289062 276.558594 4044.648438 218.03125 4136.128906 179.898438 C 4182.621094 160.519531 4232.78125 166.648438 4265.160156 225.089844 C 4383.351562 217.898438 4365.710938 311.839844 4359.960938 352.621094 C 4357.71875 368.511719 4379.351562 377.839844 4382.210938 396.910156 C 4385 415.488281 4382.140625 443.449219 4388.828125 460.699219 C 4396.28125 479.878906 4427.519531 496.351562 4434.058594 514.230469 C 4441.550781 534.660156 4427.511719 553.441406 4434.058594 573.480469 C 4441.808594 597.148438 4500.628906 615.171875 4502.878906 655.988281 C 4504.871094 691.898438 4471.230469 716.199219 4469.140625 735.199219 C 4464.25 779.738281 4447.601562 805.980469 4403.839844 804.699219 L 4217.511719 674.53125 L 4211.21875 540.820312 L 4158.929688 527.140625 " />
<g clip-path="url(#clip-122)">
<g clip-path="url(#clip-123)">
<path fill-rule="evenodd" fill="rgb(24.705505%, 12.205505%, 16.088867%)" fill-opacity="1" d="M 4011.058594 376.679688 C 4062.640625 417.441406 4079.570312 349.949219 4095.480469 314.238281 C 4103.230469 296.828125 4113.589844 276.46875 4127.589844 263.28125 C 4150.488281 241.691406 4187.621094 235.769531 4215.949219 250.039062 C 4216.648438 250.390625 4226.628906 259.171875 4227.351562 259.078125 C 4238.820312 257.558594 4246.609375 240.25 4253.71875 232.660156 C 4282.789062 201.601562 4329.289062 195.460938 4366.261719 216.929688 C 4391.898438 231.828125 4402.019531 268.511719 4395.730469 296.550781 C 4390.230469 321.058594 4371.738281 341.101562 4369.21875 366.628906 C 4367.589844 383.109375 4374.621094 398.429688 4375.359375 414.679688 C 4376.179688 432.589844 4371.71875 450.628906 4371.300781 468.578125 C 4371.179688 473.769531 4371.339844 478.890625 4372.738281 483.929688 C 4377.730469 501.890625 4394.75 513.191406 4399.488281 531.921875 C 4404.710938 552.550781 4397.480469 572.839844 4400.011719 593.511719 C 4403.238281 619.898438 4435.050781 644.339844 4436.378906 671.328125 C 4438.078125 705.980469 4444.03125 780 4397.03125 803.421875 C 4357.738281 823 4289.199219 811.691406 4258.78125 787.480469 C 4224.828125 760.480469 4211.28125 722.449219 4192.761719 684.828125 C 4184.570312 668.191406 4173.300781 653.21875 4164.140625 637.109375 C 4153.328125 618.109375 4145.308594 598.578125 4131.910156 581.039062 C 4120.960938 566.691406 4105.980469 558.949219 4091.378906 549.011719 C 4065.890625 531.660156 4040.089844 509.789062 4027.308594 481.320312 C 4014.988281 453.890625 3980.710938 395.410156 4000.359375 365.289062 " />
</g>
</g>
<path fill-rule="evenodd" fill="rgb(5.899048%, 22.410583%, 24.705505%)" fill-opacity="1" d="M 4376.238281 2371.335938 L 4261.789062 2371.335938 L 4261.789062 2325.125 L 4303.78125 2305.664062 L 4313.101562 2325.125 C 4313.101562 2325.125 4326.21875 2325.125 4340.5 2325.125 C 4349.980469 2325.125 4359.070312 2329.851562 4365.78125 2338.269531 C 4372.480469 2346.6875 4376.238281 2358.101562 4376.238281 2370.003906 C 4376.238281 2370.859375 4376.238281 2371.335938 4376.238281 2371.335938 " />
<path fill-rule="evenodd" fill="rgb(5.899048%, 22.410583%, 24.705505%)" fill-opacity="1" d="M 4060.371094 2371.335938 L 4174.820312 2371.335938 L 4174.820312 2325.125 L 4132.828125 2305.664062 L 4123.519531 2325.125 C 4123.519531 2325.125 4110.390625 2325.125 4096.109375 2325.125 C 4086.628906 2325.125 4077.539062 2329.851562 4070.839844 2338.269531 C 4064.140625 2346.6875 4060.371094 2358.101562 4060.371094 2370.003906 C 4060.371094 2370.859375 4060.371094 2371.335938 4060.371094 2371.335938 " />
<path fill-rule="evenodd" fill="rgb(46.702576%, 53.318787%, 48.608398%)" fill-opacity="1" d="M 4387.910156 1227.890625 L 4048.730469 1227.890625 L 4046.621094 1431.761719 L 4123.519531 2325.125 L 4174.820312 2325.125 L 4192.570312 1451.839844 L 4242.601562 1451.839844 L 4261.789062 2325.125 L 4313.101562 2325.125 L 4390.019531 1431.761719 L 4387.910156 1227.890625 " />
<g clip-path="url(#clip-124)">
<g clip-path="url(#clip-125)">
<path fill-rule="evenodd" fill="rgb(42.210388%, 48.193359%, 43.896484%)" fill-opacity="1" d="M 4015.070312 1358.589844 C 4070.898438 1370.328125 4125.019531 1375.488281 4176.03125 1368.570312 L 4171.28125 1270.511719 C 4217.789062 1278.828125 4266.898438 1278.800781 4309.988281 1265.890625 L 4309.988281 1358.589844 C 4337.359375 1369.53125 4361.050781 1364.910156 4390.019531 1350.25 L 4436.378906 1391.820312 L 4423.019531 1227.890625 L 4015.730469 1228.070312 L 4015.070312 1358.589844 " />
</g>
</g>
<g clip-path="url(#clip-126)">
<g clip-path="url(#clip-127)">
<path fill-rule="evenodd" fill="rgb(42.405701%, 48.193359%, 43.896484%)" fill-opacity="1" d="M 4242.601562 1451.839844 L 4166.320312 1435.949219 L 4166.320312 2351.601562 L 4205.410156 2351.601562 L 4242.601562 1451.839844 " />
</g>
</g>
<g clip-path="url(#clip-128)">
<g clip-path="url(#clip-129)">
<path fill-rule="evenodd" fill="rgb(42.405701%, 48.193359%, 43.896484%)" fill-opacity="1" d="M 4341.171875 1701.617188 C 4335.019531 1725.203125 4333.71875 1749.574219 4348.230469 1776.507812 L 4313.101562 2325.125 L 4390.019531 1731.605469 L 4341.171875 1701.617188 " />
</g>
</g>
<path fill-rule="evenodd" fill="rgb(39.598083%, 43.896484%, 40.795898%)" fill-opacity="1" d="M 4229.878906 1284.371094 C 4229.878906 1284.371094 4228.761719 1300.46875 4227.660156 1322.269531 C 4227.300781 1329.371094 4226.96875 1337.058594 4226.691406 1345 C 4226.519531 1350 4226.359375 1355.078125 4226.28125 1360.160156 C 4226.199219 1365.238281 4226.160156 1370.328125 4226.199219 1375.320312 C 4226.238281 1380.511719 4226.390625 1385.589844 4226.53125 1390.480469 C 4226.769531 1398.820312 4227.070312 1406.558594 4227.359375 1413.210938 C 4227.75 1422.558594 4228.121094 1429.730469 4228.320312 1433.351562 L 4205.410156 1434.609375 C 4204.671875 1434.609375 4204.070312 1435.210938 4204.070312 1435.949219 C 4204.070312 1436.691406 4204.671875 1437.300781 4205.410156 1437.300781 L 4231.230469 1438.710938 C 4232.75 1438.710938 4233.988281 1437.480469 4233.988281 1435.949219 C 4233.988281 1435.949219 4234.519531 1426.921875 4235.101562 1413.210938 C 4235.378906 1406.558594 4235.679688 1398.820312 4235.929688 1390.480469 C 4236.070312 1385.589844 4236.210938 1380.511719 4236.261719 1375.320312 C 4236.300781 1370.328125 4236.261719 1365.238281 4236.179688 1360.160156 C 4236.089844 1355.078125 4235.941406 1350 4235.769531 1345 C 4235.488281 1337.058594 4235.148438 1329.371094 4234.789062 1322.269531 C 4233.691406 1300.46875 4232.570312 1284.371094 4232.570312 1284.371094 C 4232.570312 1283.628906 4231.96875 1283.03125 4231.230469 1283.03125 C 4230.480469 1283.03125 4229.878906 1283.628906 4229.878906 1284.371094 " />
<path fill-rule="evenodd" fill="rgb(99.609375%, 65.039062%, 49.388123%)" fill-opacity="1" d="M 4246.191406 527.140625 L 4176.25 527.140625 C 4183.070312 571.328125 4183.121094 614.589844 4169.851562 655.988281 L 4265.160156 655.988281 C 4245.710938 615.808594 4239.21875 572.898438 4246.191406 527.140625 " />
<g clip-path="url(#clip-130)">
<g clip-path="url(#clip-131)">
<path fill-rule="evenodd" fill="rgb(98.4375%, 50.976562%, 32.200623%)" fill-opacity="1" d="M 4158.929688 527.140625 L 4265.160156 524.710938 C 4274.101562 598.570312 4190.75 614.570312 4158.929688 527.140625 " />
</g>
</g>
<path fill-rule="evenodd" fill="rgb(99.609375%, 65.039062%, 49.388123%)" fill-opacity="1" d="M 4100.371094 403.398438 L 4113.921875 428.070312 L 4106.410156 453.859375 C 4049.089844 453.660156 4050.820312 384.578125 4100.371094 403.398438 " />
<path fill-rule="evenodd" fill="rgb(99.609375%, 65.039062%, 49.388123%)" fill-opacity="1" d="M 4322.890625 400.148438 L 4309.339844 424.828125 L 4316.851562 450.609375 C 4374.160156 450.410156 4372.441406 381.328125 4322.890625 400.148438 " />
<path fill-rule="evenodd" fill="rgb(99.609375%, 65.039062%, 49.388123%)" fill-opacity="1" d="M 4219.820312 298.230469 C 4296.140625 257.910156 4311.570312 311.691406 4322.519531 403.480469 C 4322.859375 406.308594 4322.890625 409.148438 4322.890625 412.078125 C 4322.890625 496.46875 4236.890625 564.980469 4211.21875 564.980469 C 4185.550781 564.980469 4099.550781 496.46875 4099.550781 412.078125 C 4099.550781 405.78125 4101.300781 399.859375 4101.511719 394.101562 C 4106.390625 260.78125 4193.308594 252.738281 4219.820312 298.230469 " />
<path fill-rule="evenodd" fill="rgb(100%, 100%, 100%)" fill-opacity="1" d="M 4178.148438 386.179688 C 4178.148438 381.671875 4176.359375 377.339844 4173.171875 374.148438 C 4169.980469 370.960938 4165.648438 369.160156 4161.128906 369.160156 C 4151.730469 369.160156 4144.121094 376.78125 4144.121094 386.179688 C 4144.121094 395.75 4144.121094 405.789062 4144.121094 405.789062 L 4178.148438 405.789062 C 4178.148438 405.789062 4178.148438 395.75 4178.148438 386.179688 " />
<g clip-path="url(#clip-132)">
<g clip-path="url(#clip-133)">
<path fill-rule="evenodd" fill="rgb(0%, 0%, 0%)" fill-opacity="1" d="M 4161.128906 380.859375 C 4165.980469 380.859375 4169.921875 386 4169.921875 392.328125 C 4169.921875 398.660156 4165.980469 403.800781 4161.128906 403.800781 C 4156.28125 403.800781 4152.351562 398.660156 4152.351562 392.328125 C 4152.351562 386 4156.28125 380.859375 4161.128906 380.859375 " />
</g>
</g>
<g clip-path="url(#clip-134)">
<g clip-path="url(#clip-135)">
<path fill-rule="evenodd" fill="rgb(100%, 100%, 100%)" fill-opacity="1" d="M 4159.058594 383.941406 C 4160.210938 383.941406 4161.128906 385.53125 4161.128906 387.480469 C 4161.128906 389.429688 4160.210938 391.011719 4159.058594 391.011719 C 4157.921875 391.011719 4156.988281 389.429688 4156.988281 387.480469 C 4156.988281 385.53125 4157.921875 383.941406 4159.058594 383.941406 " />
</g>
</g>
<path fill-rule="evenodd" fill="rgb(100%, 100%, 100%)" fill-opacity="1" d="M 4278.320312 386.179688 C 4278.320312 381.671875 4276.53125 377.339844 4273.339844 374.148438 C 4270.140625 370.960938 4265.820312 369.160156 4261.300781 369.160156 C 4251.898438 369.160156 4244.289062 376.78125 4244.289062 386.179688 C 4244.289062 395.75 4244.289062 405.789062 4244.289062 405.789062 L 4278.320312 405.789062 C 4278.320312 405.789062 4278.320312 395.75 4278.320312 386.179688 " />
<g clip-path="url(#clip-136)">
<g clip-path="url(#clip-137)">
<path fill-rule="evenodd" fill="rgb(0%, 0%, 0%)" fill-opacity="1" d="M 4261.300781 380.859375 C 4266.148438 380.859375 4270.089844 386 4270.089844 392.328125 C 4270.089844 398.660156 4266.148438 403.800781 4261.300781 403.800781 C 4256.449219 403.800781 4252.519531 398.660156 4252.519531 392.328125 C 4252.519531 386 4256.449219 380.859375 4261.300781 380.859375 " />
</g>
</g>
<g clip-path="url(#clip-138)">
<g clip-path="url(#clip-139)">
<path fill-rule="evenodd" fill="rgb(100%, 100%, 100%)" fill-opacity="1" d="M 4259.230469 383.941406 C 4260.378906 383.941406 4261.300781 385.53125 4261.300781 387.480469 C 4261.300781 389.429688 4260.378906 391.011719 4259.230469 391.011719 C 4258.089844 391.011719 4257.160156 389.429688 4257.160156 387.480469 C 4257.160156 385.53125 4258.089844 383.941406 4259.230469 383.941406 " />
</g>
</g>
<path fill-rule="evenodd" fill="rgb(0%, 0%, 0%)" fill-opacity="1" d="M 4199.671875 344.609375 C 4194.859375 340.25 4190.160156 336.828125 4185.179688 334.050781 C 4182.800781 332.71875 4180.421875 331.671875 4177.980469 330.75 C 4174.550781 329.449219 4171.101562 328.578125 4167.621094 328.039062 C 4165.230469 327.671875 4162.828125 327.519531 4160.441406 327.558594 C 4158.640625 327.589844 4156.851562 327.738281 4155.070312 328.019531 C 4150.980469 328.671875 4147.011719 329.738281 4143.101562 331.28125 C 4139.878906 332.539062 4136.789062 333.988281 4133.710938 335.789062 C 4129.398438 338.320312 4125.359375 341.210938 4121.28125 344.578125 C 4120.539062 345.019531 4120.289062 345.980469 4120.730469 346.71875 C 4121.171875 347.460938 4122.121094 347.699219 4122.859375 347.261719 C 4130.628906 344.078125 4138.140625 342.269531 4145.75 341.199219 C 4148.761719 340.78125 4151.71875 340.589844 4154.71875 340.460938 C 4156.671875 340.378906 4158.621094 340.410156 4160.578125 340.398438 C 4162.519531 340.398438 4164.460938 340.398438 4166.421875 340.46875 C 4169.339844 340.578125 4172.269531 340.75 4175.289062 341.171875 C 4179.71875 341.78125 4184.171875 342.570312 4188.890625 344.03125 C 4191.890625 344.960938 4194.859375 345.921875 4197.988281 347.230469 C 4198.71875 347.699219 4199.679688 347.488281 4200.140625 346.761719 C 4200.609375 346.039062 4200.398438 345.078125 4199.671875 344.609375 " />
<path fill-rule="evenodd" fill="rgb(0%, 0%, 0%)" fill-opacity="1" d="M 4223.980469 347.230469 C 4227.121094 345.921875 4230.078125 344.960938 4233.089844 344.03125 C 4237.808594 342.570312 4242.25 341.78125 4246.691406 341.171875 C 4249.710938 340.75 4252.628906 340.578125 4255.558594 340.46875 C 4257.519531 340.398438 4259.460938 340.398438 4261.390625 340.398438 C 4263.359375 340.410156 4265.300781 340.378906 4267.261719 340.460938 C 4270.25 340.589844 4273.210938 340.78125 4276.230469 341.199219 C 4283.839844 342.269531 4291.351562 344.078125 4299.109375 347.261719 C 4299.851562 347.699219 4300.808594 347.460938 4301.25 346.71875 C 4301.679688 345.980469 4301.441406 345.019531 4300.699219 344.578125 C 4296.609375 341.210938 4292.578125 338.320312 4288.261719 335.789062 C 4285.191406 333.988281 4282.089844 332.539062 4278.878906 331.28125 C 4274.96875 329.738281 4270.988281 328.671875 4266.898438 328.019531 C 4265.128906 327.738281 4263.339844 327.589844 4261.539062 327.558594 C 4259.148438 327.519531 4256.75 327.671875 4254.359375 328.039062 C 4250.878906 328.578125 4247.429688 329.449219 4244 330.75 C 4241.558594 331.671875 4239.179688 332.71875 4236.800781 334.050781 C 4231.820312 336.828125 4227.121094 340.25 4222.300781 344.609375 C 4221.578125 345.078125 4221.371094 346.039062 4221.828125 346.761719 C 4222.289062 347.488281 4223.261719 347.699219 4223.980469 347.230469 " />
<path fill-rule="evenodd" fill="rgb(90.039062%, 40.989685%, 19.897461%)" fill-opacity="1" d="M 4217.480469 375.078125 C 4216.519531 383.488281 4215.960938 391.808594 4216.109375 400.128906 C 4216.210938 405.761719 4216.640625 411.351562 4217.390625 416.910156 C 4217.761719 419.699219 4218.230469 422.46875 4218.808594 425.230469 C 4219.390625 427.980469 4220.078125 430.710938 4220.878906 433.421875 C 4223.121094 441.03125 4226.128906 448.46875 4229.699219 455.828125 C 4227.160156 458.820312 4224.640625 461.128906 4222.101562 462.691406 C 4219.730469 464.140625 4217.378906 464.949219 4215 465.011719 C 4214.558594 464.988281 4214.191406 465.339844 4214.179688 465.78125 C 4214.160156 466.21875 4214.5 466.578125 4214.941406 466.601562 C 4217.648438 466.851562 4220.421875 466.25 4223.289062 464.910156 C 4226.558594 463.378906 4229.910156 460.820312 4233.378906 457.371094 C 4233.878906 456.808594 4234.011719 456.011719 4233.699219 455.320312 C 4230.609375 447.589844 4228.339844 439.769531 4226.449219 431.921875 C 4225.820312 429.28125 4225.21875 426.628906 4224.648438 423.988281 C 4224.078125 421.328125 4223.53125 418.671875 4223.03125 416 C 4222.03125 410.640625 4221.21875 405.269531 4220.601562 399.828125 C 4219.671875 391.691406 4219.089844 383.5 4219.070312 375.171875 C 4219.101562 374.730469 4218.761719 374.351562 4218.320312 374.328125 C 4217.878906 374.300781 4217.511719 374.640625 4217.480469 375.078125 " />
<path fill-rule="evenodd" fill="rgb(100%, 100%, 100%)" fill-opacity="1" d="M 4171.519531 481.261719 L 4238.070312 490.269531 C 4223.730469 529.011719 4172.121094 511.808594 4171.519531 481.261719 " />
<path fill-rule="evenodd" fill="rgb(100%, 91.796875%, 82.617188%)" fill-opacity="1" d="M 4265.160156 610.980469 C 4252.238281 618.628906 4241.511719 623.539062 4230.589844 625.609375 C 4226.308594 626.429688 4221.988281 656.058594 4217.511719 655.988281 C 4213.71875 655.941406 4209.808594 626.308594 4205.679688 625.609375 C 4193.488281 623.570312 4179.460938 618.71875 4161.351562 610.980469 L 4144.140625 655.988281 L 4104.820312 915.121094 L 4344.878906 915.121094 L 4333.128906 755.820312 L 4289.769531 655.988281 L 4265.160156 610.980469 " />
<path fill-rule="evenodd" fill="rgb(96.09375%, 84.375%, 71.484375%)" fill-opacity="1" d="M 4149.820312 656.609375 C 4153.289062 659.960938 4156.851562 663.078125 4160.671875 665.960938 C 4162.320312 667.210938 4164 668.378906 4165.730469 669.511719 C 4168.03125 671 4170.398438 672.398438 4172.839844 673.671875 C 4174.46875 674.519531 4176.128906 675.308594 4177.820312 676.03125 C 4179.078125 676.570312 4180.359375 677.070312 4181.660156 677.519531 C 4184.671875 678.578125 4187.738281 679.480469 4190.878906 680.238281 C 4197.378906 681.789062 4204.089844 682.730469 4211.101562 683.261719 C 4211.53125 683.320312 4211.941406 683.03125 4212 682.589844 C 4212.070312 682.160156 4211.769531 681.75 4211.339844 681.691406 C 4206.921875 680.609375 4202.699219 679.308594 4198.539062 677.910156 C 4194.289062 676.480469 4190.210938 674.878906 4186.191406 673.191406 C 4183.761719 672.160156 4181.371094 671.089844 4178.980469 670.03125 C 4176.570312 668.960938 4174.160156 667.921875 4171.789062 666.808594 C 4168.910156 665.460938 4166.070312 664.101562 4163.261719 662.621094 C 4159 660.378906 4154.859375 658.050781 4150.820312 655.371094 C 4150.480469 655.101562 4149.980469 655.160156 4149.699219 655.5 C 4149.429688 655.839844 4149.480469 656.339844 4149.820312 656.609375 " />
<path fill-rule="evenodd" fill="rgb(96.09375%, 84.375%, 71.484375%)" fill-opacity="1" d="M 4224.949219 683.261719 C 4229.589844 683.101562 4234.351562 682.738281 4239.199219 682.039062 C 4241.230469 681.75 4243.238281 681.378906 4245.261719 680.949219 C 4247.949219 680.378906 4250.609375 679.699219 4253.238281 678.878906 C 4254.988281 678.328125 4256.730469 677.710938 4258.421875 677.03125 C 4259.710938 676.511719 4260.96875 675.941406 4262.210938 675.339844 C 4265.148438 673.898438 4267.960938 672.300781 4270.609375 670.53125 C 4276.628906 666.519531 4281.761719 661.828125 4285.730469 656.519531 C 4286.019531 656.191406 4285.988281 655.691406 4285.660156 655.398438 C 4285.328125 655.109375 4284.828125 655.140625 4284.539062 655.46875 C 4281.449219 658.429688 4277.878906 660.949219 4273.980469 663.28125 C 4270.320312 665.460938 4266.378906 667.320312 4262.269531 669.070312 C 4259.890625 670.078125 4257.449219 671.019531 4254.988281 671.96875 C 4252.558594 672.910156 4250.109375 673.871094 4247.640625 674.761719 C 4244.640625 675.851562 4241.648438 676.890625 4238.640625 677.851562 C 4233.941406 679.339844 4229.320312 680.679688 4224.75 681.679688 C 4224.320312 681.738281 4224.011719 682.140625 4224.058594 682.570312 C 4224.121094 683.011719 4224.519531 683.308594 4224.949219 683.261719 " />
<path fill-rule="evenodd" fill="rgb(96.09375%, 84.375%, 71.484375%)" fill-opacity="1" d="M 4216.710938 665.980469 C 4216.710938 665.980469 4217.359375 684.199219 4218.460938 709.898438 C 4218.710938 715.820312 4219 722.128906 4219.328125 728.710938 C 4219.730469 736.761719 4220.171875 745.199219 4220.679688 753.789062 C 4221 759.308594 4221.371094 764.898438 4221.761719 770.488281 C 4222.050781 774.671875 4222.378906 778.859375 4222.710938 783.011719 C 4223.53125 793.019531 4224.390625 802.878906 4225.230469 812.199219 C 4228.398438 847.230469 4231.160156 874.699219 4231.160156 874.699219 C 4231.199219 875.140625 4231.578125 875.46875 4232.011719 875.441406 C 4232.449219 875.410156 4232.78125 875.03125 4232.75 874.589844 C 4232.75 874.589844 4231.699219 847.011719 4230.019531 811.859375 C 4229.570312 802.519531 4229.058594 792.640625 4228.488281 782.609375 C 4228.25 778.449219 4227.988281 774.261719 4227.710938 770.078125 C 4227.328125 764.488281 4226.910156 758.910156 4226.480469 753.390625 C 4225.800781 744.808594 4225.070312 736.390625 4224.359375 728.371094 C 4223.78125 721.800781 4223.191406 715.511719 4222.621094 709.609375 C 4220.179688 684 4218.300781 665.871094 4218.300781 665.871094 C 4218.269531 665.429688 4217.890625 665.101562 4217.449219 665.128906 C 4217.011719 665.160156 4216.679688 665.539062 4216.710938 665.980469 " />
<path fill-rule="evenodd" fill="rgb(7.102966%, 20.410156%, 24.291992%)" fill-opacity="1" d="M 4145.089844 708.730469 C 4156.171875 943.429688 4323.980469 928.671875 4312.671875 708.730469 L 4344.878906 860.75 L 4344.878906 1245.980469 C 4258.808594 1266.390625 4179.171875 1265.121094 4104.820312 1245.980469 L 4145.089844 708.730469 " />
<g clip-path="url(#clip-140)">
<g clip-path="url(#clip-141)">
<path fill-rule="evenodd" fill="rgb(5.299377%, 15.600586%, 18.406677%)" fill-opacity="1" d="M 4147 815.28125 L 4185.988281 1157.820312 L 4311.609375 1122.691406 L 4325.871094 771.019531 L 4357.828125 964.25 L 4357.828125 1260.808594 L 4124.949219 1277.308594 L 4127.699219 940.789062 L 4147 815.28125 " />
</g>
</g>
<path fill-rule="evenodd" fill="rgb(46.702576%, 53.318787%, 48.608398%)" fill-opacity="1" d="M 4156.699219 1355.890625 C 4083.191406 1353.179688 4018.101562 1343.839844 3994.769531 1327.179688 C 3973.28125 1311.828125 4043.429688 1181.609375 4046.621094 1101.601562 C 4051.449219 980.589844 4078.289062 758.351562 4078.289062 758.351562 L 4144.140625 655.988281 L 4156.699219 1355.890625 " />
<g clip-path="url(#clip-142)">
<g clip-path="url(#clip-143)">
<path fill-rule="evenodd" fill="rgb(42.405701%, 48.193359%, 43.896484%)" fill-opacity="1" d="M 4078.289062 1137.210938 L 4069.859375 832.140625 L 4018.601562 1137.210938 L 4078.289062 1137.210938 " />
</g>
</g>
<g clip-path="url(#clip-144)">
<g clip-path="url(#clip-145)">
<path fill-rule="evenodd" fill="rgb(42.405701%, 48.193359%, 43.896484%)" fill-opacity="1" d="M 4015.910156 1225.589844 C 4041.71875 1282.800781 4276.261719 1255.609375 4401.878906 1192.03125 L 4401.878906 1137.210938 L 4015.910156 1174.050781 L 4015.910156 1225.589844 " />
</g>
</g>
<path fill-rule="evenodd" fill="rgb(46.702576%, 53.318787%, 48.608398%)" fill-opacity="1" d="M 4289.769531 655.988281 C 4314.300781 662.128906 4353.460938 664.03125 4374.269531 686.511719 C 4477.671875 798.191406 4517.699219 1083.339844 4516.800781 1092.859375 C 4511.21875 1151.929688 4405.378906 1191.480469 4405.378906 1191.480469 L 4374.269531 1100.800781 C 4374.269531 1100.800781 4413.761719 1070.621094 4413.761719 1048.070312 C 4413.761719 1018.539062 4374.269531 923.628906 4374.269531 923.628906 L 4334.929688 768.96875 L 4289.769531 655.988281 " />
<g clip-path="url(#clip-146)">
<g clip-path="url(#clip-147)">
<path fill-rule="evenodd" fill="rgb(42.405701%, 48.193359%, 43.896484%)" fill-opacity="1" d="M 4363.070312 1079.179688 C 4363.070312 1079.179688 4453.46875 1065.5 4450.828125 1031.078125 C 4447.050781 981.691406 4341.761719 812.570312 4341.761719 812.570312 L 4363.070312 1079.179688 " />
</g>
</g>
<path fill-rule="evenodd" fill="rgb(46.702576%, 53.318787%, 48.608398%)" fill-opacity="1" d="M 4289.769531 655.988281 L 4329.75 756.019531 C 4329.75 756.019531 4386.5 1018.269531 4398.039062 1113.070312 C 4406.738281 1184.480469 4454.128906 1312.929688 4429.210938 1327.179688 C 4411.101562 1337.53125 4374.5 1345.289062 4329.75 1350.25 C 4333.210938 1103.949219 4348.78125 846.910156 4289.769531 655.988281 " />
<g clip-path="url(#clip-148)">
<g clip-path="url(#clip-149)">
<path fill-rule="evenodd" fill="rgb(42.405701%, 48.193359%, 43.896484%)" fill-opacity="1" d="M 4015.910156 1225.589844 C 4041.71875 1282.800781 4276.261719 1255.609375 4401.878906 1192.03125 L 4401.878906 1137.210938 L 4015.910156 1174.050781 L 4015.910156 1225.589844 " />
</g>
</g>
<path fill-rule="evenodd" fill="rgb(34.910583%, 17.30957%, 20.800781%)" fill-opacity="1" d="M 4370.738281 1074.210938 C 4407.410156 1352.808594 4283.511719 1755.652344 4374.710938 1769.113281 C 4396.339844 1772.308594 4407.988281 1766.800781 4424.378906 1769.113281 C 4444.679688 1771.984375 4449.878906 1799.507812 4496.5 1786.324219 C 4614.789062 1752.875 4433.460938 1258.421875 4406.878906 1074.210938 L 4327.660156 663.699219 C 4314.851562 652.25 4297.460938 652.390625 4289.769531 655.988281 L 4370.738281 1074.210938 " />
<g clip-path="url(#clip-150)">
<g clip-path="url(#clip-151)">
<path fill-rule="evenodd" fill="rgb(28.808594%, 14.305115%, 17.210388%)" fill-opacity="1" d="M 4337.960938 1669.828125 C 4338.039062 1745.746094 4395.480469 1788.679688 4407.691406 1681.410156 C 4452.910156 1841.050781 4548.480469 1759.324219 4536.179688 1613.125 L 4554.53125 1825.15625 L 4326.828125 1804.195312 L 4337.960938 1669.828125 " />
</g>
</g>
<g clip-path="url(#clip-152)">
<g clip-path="url(#clip-153)">
<path fill-rule="evenodd" fill="rgb(29.00238%, 14.109802%, 17.30957%)" fill-opacity="1" d="M 4363.070312 1296.949219 C 4378.839844 1230.691406 4401.460938 1167.160156 4440.679688 1165.449219 L 4424.378906 1131.25 L 4372.5 1137.871094 L 4363.070312 1296.949219 " />
</g>
</g>
<path fill-rule="evenodd" fill="rgb(16.209412%, 8.006287%, 9.594727%)" fill-opacity="1" d="M 4424.910156 1749.398438 C 4420.25 1740.441406 4417 1729.871094 4414.628906 1718.054688 C 4413.25 1711.179688 4412.210938 1703.886719 4411.359375 1696.234375 C 4410.769531 1690.894531 4410.28125 1685.382812 4409.851562 1679.722656 C 4409.441406 1674.324219 4409.050781 1668.796875 4408.738281 1663.140625 C 4408.308594 1655.039062 4407.988281 1646.703125 4407.800781 1638.175781 C 4407.609375 1629.976562 4407.5 1621.621094 4407.488281 1613.144531 C 4407.5 1612.804688 4407.238281 1612.523438 4406.898438 1612.511719 C 4406.558594 1612.503906 4406.28125 1612.769531 4406.269531 1613.105469 C 4405.738281 1621.585938 4405.28125 1629.945312 4404.988281 1638.160156 C 4404.699219 1646.730469 4404.558594 1655.121094 4404.671875 1663.28125 C 4404.75 1668.996094 4404.929688 1674.59375 4405.300781 1680.050781 C 4405.679688 1685.792969 4406.261719 1691.378906 4407 1696.777344 C 4408.070312 1704.539062 4409.488281 1711.910156 4411.269531 1718.824219 C 4414.339844 1730.714844 4418.5 1741.207031 4423.851562 1750 C 4424.011719 1750.292969 4424.378906 1750.398438 4424.679688 1750.230469 C 4424.96875 1750.066406 4425.078125 1749.691406 4424.910156 1749.398438 " />
<path fill-rule="evenodd" fill="rgb(99.609375%, 65.039062%, 49.388123%)" fill-opacity="1" d="M 4294.398438 1108.300781 L 4319.988281 1104.769531 C 4331.761719 1070.960938 4357.558594 1049.921875 4372.5 1069.691406 C 4372.5 1069.691406 4401.828125 1056.570312 4411.558594 1069.691406 C 4428.128906 1092.039062 4437.53125 1139.53125 4419.28125 1155.191406 C 4400.261719 1171.5 4363.558594 1163.480469 4344.878906 1169.199219 C 4329.820312 1173.808594 4297.710938 1183.320312 4297.710938 1183.320312 L 4286.429688 1159.710938 L 4294.398438 1108.300781 " />
<path fill-rule="evenodd" fill="rgb(90.039062%, 40.989685%, 19.897461%)" fill-opacity="1" d="M 4372.160156 1069.191406 C 4372.160156 1069.191406 4369.53125 1070.390625 4365.808594 1072.28125 C 4364.949219 1072.710938 4364.058594 1073.171875 4363.128906 1073.679688 C 4362 1074.300781 4360.828125 1074.949219 4359.648438 1075.671875 C 4358.898438 1076.128906 4358.148438 1076.609375 4357.410156 1077.109375 C 4356.859375 1077.488281 4356.320312 1077.878906 4355.789062 1078.289062 C 4354.511719 1079.261719 4353.289062 1080.25 4352.140625 1081.210938 C 4347.769531 1084.859375 4344.539062 1087.828125 4344.539062 1087.828125 C 4344.261719 1088.019531 4344.191406 1088.398438 4344.378906 1088.679688 C 4344.558594 1088.960938 4344.941406 1089.03125 4345.21875 1088.839844 C 4345.21875 1088.839844 4349.191406 1086.960938 4354.199219 1084.269531 C 4355.519531 1083.558594 4356.898438 1082.800781 4358.28125 1081.980469 C 4358.851562 1081.640625 4359.421875 1081.289062 4359.980469 1080.910156 C 4360.71875 1080.421875 4361.449219 1079.898438 4362.148438 1079.371094 C 4363.261719 1078.550781 4364.308594 1077.710938 4365.300781 1076.890625 C 4366.121094 1076.21875 4366.878906 1075.570312 4367.601562 1074.941406 C 4370.738281 1072.191406 4372.851562 1070.199219 4372.851562 1070.199219 C 4373.128906 1070.011719 4373.199219 1069.628906 4373.011719 1069.351562 C 4372.820312 1069.070312 4372.441406 1069 4372.160156 1069.191406 " />
<path fill-rule="evenodd" fill="rgb(100%, 93.359375%, 84.764099%)" fill-opacity="1" d="M 4262.789062 1112.53125 L 4294.398438 1108.300781 C 4290.691406 1142.828125 4299.359375 1169.550781 4310.058594 1193.46875 L 4281.820312 1202.070312 L 4262.789062 1165.019531 L 4262.789062 1112.53125 " />
<path fill-rule="evenodd" fill="rgb(46.702576%, 53.318787%, 48.608398%)" fill-opacity="1" d="M 4144.140625 655.988281 C 4109.539062 657.738281 4072.859375 659.890625 4044.511719 696.441406 C 3962.359375 802.359375 3915.871094 1035.558594 3923.511719 1116.25 C 3939.808594 1288.628906 4289.769531 1205.609375 4289.769531 1205.609375 C 4276.371094 1176.109375 4270.070312 1144.839844 4273.398438 1111.171875 C 4273.398438 1111.171875 4057.621094 1140.808594 4024.339844 1104.328125 C 3991.050781 1067.851562 4073.691406 897.371094 4073.691406 897.371094 L 4144.140625 655.988281 " />
<g clip-path="url(#clip-154)">
<g clip-path="url(#clip-155)">
<path fill-rule="evenodd" fill="rgb(42.405701%, 48.193359%, 43.896484%)" fill-opacity="1" d="M 4242.601562 1104.328125 L 4174.820312 1241.789062 L 4313.101562 1208.691406 L 4300.800781 1104.328125 L 4242.601562 1104.328125 " />
</g>
</g>
<path fill-rule="evenodd" fill="rgb(90.039062%, 40.989685%, 19.897461%)" fill-opacity="1" d="M 4074.351562 420.621094 C 4076.710938 419.25 4078.871094 418.570312 4080.871094 418.339844 C 4082.988281 418.101562 4084.789062 418.660156 4086.429688 419.839844 C 4087.339844 420.5 4088.148438 421.371094 4088.960938 422.421875 C 4089.699219 423.378906 4090.449219 424.460938 4091.148438 425.730469 C 4092.058594 427.410156 4092.941406 429.308594 4093.730469 431.53125 C 4094.410156 433.449219 4095.070312 435.511719 4095.628906 437.828125 C 4095.671875 438.160156 4095.96875 438.398438 4096.308594 438.359375 C 4096.640625 438.320312 4096.878906 438.011719 4096.839844 437.679688 C 4096.828125 434.660156 4096.648438 431.960938 4096.25 429.511719 C 4095.929688 427.480469 4095.449219 425.679688 4094.859375 424.058594 C 4094.25 422.378906 4093.5 420.921875 4092.628906 419.699219 C 4091.511719 418.140625 4090.210938 416.960938 4088.808594 416.148438 C 4086.660156 414.910156 4084.300781 414.410156 4081.839844 414.871094 C 4079.160156 415.378906 4076.378906 416.910156 4073.609375 419.648438 C 4073.339844 419.851562 4073.289062 420.238281 4073.5 420.5 C 4073.699219 420.769531 4074.089844 420.820312 4074.351562 420.621094 " />
<path fill-rule="evenodd" fill="rgb(90.039062%, 40.989685%, 19.897461%)" fill-opacity="1" d="M 4349.460938 414.570312 C 4346.691406 411.839844 4343.910156 410.300781 4341.230469 409.800781 C 4338.769531 409.339844 4336.410156 409.839844 4334.261719 411.078125 C 4332.859375 411.878906 4331.558594 413.070312 4330.441406 414.621094 C 4329.570312 415.839844 4328.820312 417.300781 4328.210938 418.988281 C 4327.621094 420.609375 4327.140625 422.410156 4326.808594 424.441406 C 4326.421875 426.890625 4326.230469 429.578125 4326.230469 432.609375 C 4326.191406 432.941406 4326.429688 433.238281 4326.761719 433.28125 C 4327.101562 433.320312 4327.398438 433.089844 4327.441406 432.75 C 4328 430.429688 4328.660156 428.371094 4329.339844 426.449219 C 4330.128906 424.230469 4331.011719 422.328125 4331.921875 420.660156 C 4332.621094 419.390625 4333.359375 418.308594 4334.109375 417.339844 C 4334.921875 416.289062 4335.730469 415.421875 4336.640625 414.769531 C 4338.28125 413.589844 4340.078125 413.019531 4342.199219 413.269531 C 4344.199219 413.5 4346.359375 414.179688 4348.710938 415.539062 C 4348.980469 415.75 4349.371094 415.699219 4349.570312 415.429688 C 4349.78125 415.160156 4349.730469 414.78125 4349.460938 414.570312 " />
</svg>