<?xml version="1.0" encoding="UTF-8"?>
<svg xmlns="http://www.w3.org/2000/svg" width="1300" height="2500" viewBox="0 0 1300 2500"><defs>
<clipPath id="clip-0">
<path clip-rule="nonzero" d="M 655 1351 L 746 1351 L 746 2317 L 655 2317 Z M 655 1351 " />
</clipPath>
<clipPath id="clip-1">
<path clip-rule="evenodd" d="M 1049.320312 1363.089844 L 952.242188 2323.898438 L 883.292969 2323.898438 L 859.351562 1415.308594 L 834.285156 1415.308594 L 729.175781 2323.898438 L 660.226562 2323.898438 L 640.289062 1363.089844 L 691.074219 1168.191406 L 1012.640625 1168.191406 Z M 1049.320312 1363.089844 " />
</clipPath>
<clipPath id="clip-2">
<path clip-rule="nonzero" d="M 772 567 L 903 567 L 903 638 L 772 638 Z M 772 567 " />
</clipPath>
<clipPath id="clip-3">
<path clip-rule="evenodd" d="M 782.351562 567.179688 C 784.050781 585.859375 779.238281 604.71875 734.25 609.101562 C 776.96875 795.648438 924.960938 838.660156 899.949219 627.410156 C 887.074219 624.980469 883.09375 618.359375 884.726562 609.101562 Z M 782.351562 567.179688 " />
</clipPath>
<clipPath id="clip-4">
<path clip-rule="nonzero" d="M 886 338 L 937 338 L 937 624 L 886 624 Z M 886 338 " />
</clipPath>
<clipPath id="clip-5">
<path clip-rule="evenodd" d="M 928.191406 388.019531 C 921.265625 436.851562 944.78125 607.421875 928.191406 618.578125 C 893.554688 641.898438 743.757812 568.171875 723.363281 517.789062 C 707.136719 477.710938 711.5 354.269531 705.347656 348.078125 C 682.355469 324.960938 663.089844 198.511719 816.109375 200.25 C 961.070312 201.910156 939.183594 310.53125 928.191406 388.019531 Z M 740.207031 257.398438 C 744.566406 251.410156 788.839844 280.671875 830.476562 277.050781 C 857.71875 274.679688 874.59375 251.140625 897.082031 257.398438 C 906.671875 260.070312 923.792969 283.808594 926.578125 309.839844 C 931.378906 354.710938 917.476562 413.859375 914.292969 433.691406 C 912.386719 445.558594 881.621094 435.769531 844.695312 435.898438 C 802.761719 436.039062 762.296875 480.871094 740.207031 455.53125 C 727.109375 440.511719 729.453125 403.609375 729.625 364.199219 C 729.804688 322.011719 721.59375 282.988281 740.207031 257.398438 Z M 740.207031 257.398438 " />
</clipPath>
<clipPath id="clip-6">
<path clip-rule="nonzero" d="M 839 514 L 877 514 L 877 528 L 839 528 Z M 839 514 " />
</clipPath>
<clipPath id="clip-7">
<path clip-rule="evenodd" d="M 928.191406 388.019531 C 921.265625 436.851562 944.78125 607.421875 928.191406 618.578125 C 893.554688 641.898438 743.757812 568.171875 723.363281 517.789062 C 707.136719 477.710938 711.5 354.269531 705.347656 348.078125 C 682.355469 324.960938 663.089844 198.511719 816.109375 200.25 C 961.070312 201.910156 939.183594 310.53125 928.191406 388.019531 Z M 740.207031 257.398438 C 744.566406 251.410156 788.839844 280.671875 830.476562 277.050781 C 857.71875 274.679688 874.59375 251.140625 897.082031 257.398438 C 906.671875 260.070312 923.792969 283.808594 926.578125 309.839844 C 931.378906 354.710938 917.476562 413.859375 914.292969 433.691406 C 912.386719 445.558594 881.621094 435.769531 844.695312 435.898438 C 802.761719 436.039062 762.296875 480.871094 740.207031 455.53125 C 727.109375 440.511719 729.453125 403.609375 729.625 364.199219 C 729.804688 322.011719 721.59375 282.988281 740.207031 257.398438 Z M 740.207031 257.398438 " />
</clipPath>
<clipPath id="clip-8">
<path clip-rule="nonzero" d="M 721 250 L 903 250 L 903 378 L 721 378 Z M 721 250 " />
</clipPath>
<clipPath id="clip-9">
<path clip-rule="evenodd" d="M 928.191406 388.019531 C 921.265625 436.851562 944.78125 607.421875 928.191406 618.578125 C 893.554688 641.898438 743.757812 568.171875 723.363281 517.789062 C 707.136719 477.710938 711.5 354.269531 705.347656 348.078125 C 682.355469 324.960938 663.089844 198.511719 816.109375 200.25 C 961.070312 201.910156 939.183594 310.53125 928.191406 388.019531 Z M 740.207031 257.398438 C 744.566406 251.410156 788.839844 280.671875 830.476562 277.050781 C 857.71875 274.679688 874.59375 251.140625 897.082031 257.398438 C 906.671875 260.070312 923.792969 283.808594 926.578125 309.839844 C 931.378906 354.710938 917.476562 413.859375 914.292969 433.691406 C 912.386719 445.558594 881.621094 435.769531 844.695312 435.898438 C 802.761719 436.039062 762.296875 480.871094 740.207031 455.53125 C 727.109375 440.511719 729.453125 403.609375 729.625 364.199219 C 729.804688 322.011719 721.59375 282.988281 740.207031 257.398438 Z M 740.207031 257.398438 " />
</clipPath>
<clipPath id="clip-10">
<path clip-rule="nonzero" d="M 564 756 L 662 756 L 662 1270 L 564 1270 Z M 564 756 " />
</clipPath>
<clipPath id="clip-11">
<path clip-rule="evenodd" d="M 734.25 609.101562 L 690.351562 1288.21875 L 564.359375 1288.21875 L 656.957031 685.441406 Z M 734.25 609.101562 " />
</clipPath>
<clipPath id="clip-12">
<path clip-rule="nonzero" d="M 1015 790 L 1099 790 L 1099 1310 L 1015 1310 Z M 1015 790 " />
</clipPath>
<clipPath id="clip-13">
<path clip-rule="evenodd" d="M 899.949219 627.410156 C 1163.679688 636.621094 1235.988281 1127.929688 1085.070312 1333.558594 L 1030.679688 1333.558594 Z M 899.949219 627.410156 " />
</clipPath>
<clipPath id="clip-14">
<path clip-rule="nonzero" d="M 787 366 L 807 366 L 807 383 L 787 383 Z M 787 366 " />
</clipPath>
<clipPath id="clip-15">
<path clip-rule="evenodd" d="M 764.386719 366.511719 C 764.386719 378.261719 773.917969 387.800781 785.675781 387.800781 C 797.4375 387.800781 806.96875 378.261719 806.96875 366.511719 Z M 764.386719 366.511719 " />
</clipPath>
<clipPath id="clip-16">
<path clip-rule="nonzero" d="M 797 370 L 804 370 L 804 377 L 797 377 Z M 797 370 " />
</clipPath>
<clipPath id="clip-17">
<path clip-rule="evenodd" d="M 764.386719 366.511719 C 764.386719 378.261719 773.917969 387.800781 785.675781 387.800781 C 797.4375 387.800781 806.96875 378.261719 806.96875 366.511719 Z M 764.386719 366.511719 " />
</clipPath>
<clipPath id="clip-18">
<path clip-rule="nonzero" d="M 895 366 L 915 366 L 915 383 L 895 383 Z M 895 366 " />
</clipPath>
<clipPath id="clip-19">
<path clip-rule="evenodd" d="M 872.058594 366.511719 C 872.058594 378.261719 881.589844 387.800781 893.347656 387.800781 C 905.109375 387.800781 914.640625 378.261719 914.640625 366.511719 Z M 872.058594 366.511719 " />
</clipPath>
<clipPath id="clip-20">
<path clip-rule="nonzero" d="M 904 370 L 912 370 L 912 377 L 904 377 Z M 904 370 " />
</clipPath>
<clipPath id="clip-21">
<path clip-rule="evenodd" d="M 872.058594 366.511719 C 872.058594 378.261719 881.589844 387.800781 893.347656 387.800781 C 905.109375 387.800781 914.640625 378.261719 914.640625 366.511719 Z M 872.058594 366.511719 " />
</clipPath>
<clipPath id="clip-22">
<path clip-rule="nonzero" d="M 1476 1242 L 1555 1242 L 1555 1585 L 1476 1585 Z M 1476 1242 " />
</clipPath>
<clipPath id="clip-23">
<path clip-rule="evenodd" d="M 1554.070312 1242.128906 C 1539.410156 1306.871094 1541.789062 1375 1530.019531 1440.898438 C 1519.058594 1502.265625 1494.128906 1561.546875 1476.050781 1618.183594 C 1488.039062 1643.472656 1436.210938 1759.570312 1417.890625 1731.332031 C 1411.050781 1738.328125 1395.121094 1736.8125 1395.859375 1724.925781 C 1359.589844 1727.171875 1395.628906 1684.144531 1412.070312 1644.839844 C 1414.148438 1639.886719 1412.75 1636.105469 1411.871094 1635.835938 C 1398.199219 1631.644531 1387.339844 1670.894531 1374.378906 1666.296875 C 1353.671875 1658.949219 1405.089844 1585.261719 1436.75 1584.242188 C 1459.578125 1471.859375 1461.429688 1358.25 1467.46875 1242.128906 Z M 1554.070312 1242.128906 " />
</clipPath>
<clipPath id="clip-24">
<path clip-rule="nonzero" d="M 1674 1977 L 1759 1977 L 1759 2042 L 1674 2042 Z M 1674 1977 " />
</clipPath>
<clipPath id="clip-25">
<path clip-rule="evenodd" d="M 1674.691406 1952.035156 L 1689.308594 2326.703125 L 1724.261719 2326.703125 L 1758.628906 1952.035156 Z M 1674.691406 1952.035156 " />
</clipPath>
<clipPath id="clip-26">
<path clip-rule="nonzero" d="M 1540 1977 L 1624 1977 L 1624 2042 L 1540 2042 Z M 1540 1977 " />
</clipPath>
<clipPath id="clip-27">
<path clip-rule="evenodd" d="M 1623.941406 1952.035156 L 1609.320312 2326.703125 L 1574.371094 2326.703125 L 1540 1952.035156 Z M 1623.941406 1952.035156 " />
</clipPath>
<clipPath id="clip-28">
<path clip-rule="nonzero" d="M 1508 1403 L 1760 1403 L 1760 1442 L 1508 1442 Z M 1508 1403 " />
</clipPath>
<clipPath id="clip-29">
<path clip-rule="evenodd" d="M 1923.941406 1998.148438 C 1730.660156 2021.605469 1537.378906 2021.195312 1344.089844 1998.148438 L 1524.25 1403.078125 L 1743.78125 1403.078125 Z M 1923.941406 1998.148438 " />
</clipPath>
<clipPath id="clip-30">
<path clip-rule="nonzero" d="M 1655 1403 L 1924 1403 L 1924 2016 L 1655 2016 Z M 1655 1403 " />
</clipPath>
<clipPath id="clip-31">
<path clip-rule="evenodd" d="M 1923.941406 1998.148438 C 1730.660156 2021.605469 1537.378906 2021.195312 1344.089844 1998.148438 L 1524.25 1403.078125 L 1743.78125 1403.078125 Z M 1923.941406 1998.148438 " />
</clipPath>
<clipPath id="clip-32">
<path clip-rule="nonzero" d="M 1741 1246 L 1834 1246 L 1834 1450 L 1741 1450 Z M 1741 1246 " />
</clipPath>
<clipPath id="clip-33">
<path clip-rule="evenodd" d="M 1827.660156 1246.210938 C 1835.359375 1374.171875 1836.628906 1499.359375 1833.398438 1622.621094 C 1851.96875 1643.558594 1834.601562 1769.507812 1809.128906 1747.503906 C 1804.511719 1756.132812 1788.789062 1759.121094 1786.179688 1747.503906 C 1751.980469 1759.777344 1774.578125 1708.40625 1779.398438 1666.074219 C 1780.011719 1660.738281 1777.609375 1657.496094 1776.691406 1657.480469 C 1762.390625 1657.277344 1762.929688 1697.992188 1749.191406 1697.195312 C 1727.25 1695.925781 1756.070312 1610.808594 1786.179688 1601 C 1776.738281 1486.710938 1760.949219 1369.769531 1749.191406 1255.480469 Z M 1827.660156 1246.210938 " />
</clipPath>
<clipPath id="clip-34">
<path clip-rule="nonzero" d="M 1536 659 L 1859 659 L 1859 1197 L 1536 1197 Z M 1536 659 " />
</clipPath>
<clipPath id="clip-35">
<path clip-rule="evenodd" d="M 1494.28125 861.640625 C 1468.78125 817.300781 1449.78125 792.410156 1454.558594 767.871094 C 1477.910156 648.171875 1568.390625 603.738281 1616.070312 608.128906 C 1658.039062 611.980469 1686.449219 654.898438 1686.449219 654.898438 C 1686.449219 654.898438 1733.191406 647.5 1751.898438 659.050781 C 1783.050781 678.28125 1771.421875 740.210938 1800.300781 789.488281 C 1839.5 856.351562 1882.53125 865.179688 1885.691406 919.449219 C 1887.890625 957.148438 1864.320312 976.101562 1867.160156 1011.449219 C 1870.210938 1049.480469 1908.191406 1070.949219 1893.410156 1121.550781 C 1883.351562 1156.011719 1833.75 1202.648438 1791.480469 1196.128906 C 1742.839844 1188.621094 1634.019531 1065.949219 1634.019531 1065.949219 L 1606.578125 882.820312 Z M 1494.28125 861.640625 " />
</clipPath>
<clipPath id="clip-36">
<path clip-rule="nonzero" d="M 1495 1143 L 1531 1143 L 1531 1269 L 1495 1269 Z M 1495 1143 " />
</clipPath>
<clipPath id="clip-37">
<path clip-rule="evenodd" d="M 1530.019531 1084.339844 C 1472.929688 1099.121094 1436.089844 1153.230469 1419.039062 1245.769531 C 1452.671875 1264.398438 1490.191406 1269.890625 1530.019531 1267.609375 Z M 1530.019531 1084.339844 " />
</clipPath>
<clipPath id="clip-38">
<path clip-rule="nonzero" d="M 1714 1159 L 1760 1159 L 1760 1427 L 1714 1427 Z M 1714 1159 " />
</clipPath>
<clipPath id="clip-39">
<path clip-rule="evenodd" d="M 1634.019531 1065.949219 L 1557.929688 1075.730469 L 1530.019531 1084.339844 C 1530.019531 1084.339844 1512.710938 1330.390625 1508.160156 1395.128906 C 1507.550781 1403.808594 1514.128906 1410.230469 1522.558594 1412.359375 C 1598.640625 1431.660156 1672.890625 1431.140625 1745.460938 1412.351562 C 1753.890625 1410.171875 1760.480469 1403.800781 1759.871094 1395.121094 C 1755.308594 1330.351562 1738.011719 1084.339844 1738.011719 1084.339844 L 1707.28125 1075.730469 Z M 1634.019531 1065.949219 " />
</clipPath>
<clipPath id="clip-40">
<path clip-rule="nonzero" d="M 1554 1084 L 1715 1084 L 1715 1155 L 1554 1155 Z M 1554 1084 " />
</clipPath>
<clipPath id="clip-41">
<path clip-rule="evenodd" d="M 1634.019531 1065.949219 L 1557.929688 1075.730469 L 1530.019531 1084.339844 C 1530.019531 1084.339844 1512.710938 1330.390625 1508.160156 1395.128906 C 1507.550781 1403.808594 1514.128906 1410.230469 1522.558594 1412.359375 C 1598.640625 1431.660156 1672.890625 1431.140625 1745.460938 1412.351562 C 1753.890625 1410.171875 1760.480469 1403.800781 1759.871094 1395.121094 C 1755.308594 1330.351562 1738.011719 1084.339844 1738.011719 1084.339844 L 1707.28125 1075.730469 Z M 1634.019531 1065.949219 " />
</clipPath>
<clipPath id="clip-42">
<path clip-rule="nonzero" d="M 1575 953 L 1693 953 L 1693 1019 L 1575 1019 Z M 1575 953 " />
</clipPath>
<clipPath id="clip-43">
<path clip-rule="evenodd" d="M 1692.441406 1065.949219 C 1653.488281 1088.46875 1614.539062 1092.378906 1575.589844 1065.949219 C 1601.558594 1060.199219 1605.988281 1016.039062 1606.769531 953.21875 L 1659.941406 953.21875 C 1659.691406 1007.109375 1665.449219 1054.609375 1692.441406 1065.949219 Z M 1692.441406 1065.949219 " />
</clipPath>
<clipPath id="clip-44">
<path clip-rule="nonzero" d="M 1664 821 L 1686 821 L 1686 850 L 1664 850 Z M 1664 821 " />
</clipPath>
<clipPath id="clip-45">
<path clip-rule="evenodd" d="M 1700.578125 828.910156 C 1700.578125 823.53125 1698.441406 818.359375 1694.640625 814.558594 C 1690.828125 810.75 1685.671875 808.609375 1680.289062 808.609375 C 1669.070312 808.609375 1659.988281 817.699219 1659.988281 828.910156 C 1659.988281 840.320312 1659.988281 852.300781 1659.988281 852.300781 L 1700.578125 852.300781 C 1700.578125 852.300781 1700.578125 840.320312 1700.578125 828.910156 Z M 1700.578125 828.910156 " />
</clipPath>
<clipPath id="clip-46">
<path clip-rule="nonzero" d="M 1675 826 L 1681 826 L 1681 835 L 1675 835 Z M 1675 826 " />
</clipPath>
<clipPath id="clip-47">
<path clip-rule="evenodd" d="M 1700.578125 828.910156 C 1700.578125 823.53125 1698.441406 818.359375 1694.640625 814.558594 C 1690.828125 810.75 1685.671875 808.609375 1680.289062 808.609375 C 1669.070312 808.609375 1659.988281 817.699219 1659.988281 828.910156 C 1659.988281 840.320312 1659.988281 852.300781 1659.988281 852.300781 L 1700.578125 852.300781 C 1700.578125 852.300781 1700.578125 840.320312 1700.578125 828.910156 Z M 1700.578125 828.910156 " />
</clipPath>
<clipPath id="clip-48">
<path clip-rule="nonzero" d="M 1550 821 L 1572 821 L 1572 850 L 1550 850 Z M 1550 821 " />
</clipPath>
<clipPath id="clip-49">
<path clip-rule="evenodd" d="M 1587.199219 828.910156 C 1587.199219 823.53125 1585.058594 818.359375 1581.25 814.558594 C 1577.449219 810.75 1572.28125 808.609375 1566.898438 808.609375 C 1555.691406 808.609375 1546.601562 817.699219 1546.601562 828.910156 C 1546.601562 840.320312 1546.601562 852.300781 1546.601562 852.300781 L 1587.199219 852.300781 C 1587.199219 852.300781 1587.199219 840.320312 1587.199219 828.910156 Z M 1587.199219 828.910156 " />
</clipPath>
<clipPath id="clip-50">
<path clip-rule="nonzero" d="M 1561 826 L 1567 826 L 1567 835 L 1561 835 Z M 1561 826 " />
</clipPath>
<clipPath id="clip-51">
<path clip-rule="evenodd" d="M 1587.199219 828.910156 C 1587.199219 823.53125 1585.058594 818.359375 1581.25 814.558594 C 1577.449219 810.75 1572.28125 808.609375 1566.898438 808.609375 C 1555.691406 808.609375 1546.601562 817.699219 1546.601562 828.910156 C 1546.601562 840.320312 1546.601562 852.300781 1546.601562 852.300781 L 1587.199219 852.300781 C 1587.199219 852.300781 1587.199219 840.320312 1587.199219 828.910156 Z M 1587.199219 828.910156 " />
</clipPath>
<clipPath id="clip-52">
<path clip-rule="nonzero" d="M 2396 1461 L 2505 1461 L 2505 2326 L 2396 2326 Z M 2396 1461 " />
</clipPath>
<clipPath id="clip-53">
<path clip-rule="evenodd" d="M 2685.800781 1227.890625 L 2259.878906 1227.890625 L 2257.238281 1431.761719 L 2353.789062 2325.125 L 2418.21875 2325.125 L 2441.410156 1484.710938 L 2504.238281 1484.710938 L 2527.429688 2325.125 L 2591.851562 2325.125 L 2688.449219 1431.761719 Z M 2685.800781 1227.890625 " />
</clipPath>
<clipPath id="clip-54">
<path clip-rule="nonzero" d="M 2257 1419 L 2350 1419 L 2350 1485 L 2257 1485 Z M 2257 1419 " />
</clipPath>
<clipPath id="clip-55">
<path clip-rule="evenodd" d="M 2685.800781 1227.890625 L 2259.878906 1227.890625 L 2257.238281 1431.761719 L 2353.789062 2325.125 L 2418.21875 2325.125 L 2441.410156 1484.710938 L 2504.238281 1484.710938 L 2527.429688 2325.125 L 2591.851562 2325.125 L 2688.449219 1431.761719 Z M 2685.800781 1227.890625 " />
</clipPath>
<clipPath id="clip-56">
<path clip-rule="nonzero" d="M 2566 1318 L 2689 1318 L 2689 2326 L 2566 2326 Z M 2566 1318 " />
</clipPath>
<clipPath id="clip-57">
<path clip-rule="evenodd" d="M 2685.800781 1227.890625 L 2259.878906 1227.890625 L 2257.238281 1431.761719 L 2353.789062 2325.125 L 2418.21875 2325.125 L 2441.410156 1484.710938 L 2504.238281 1484.710938 L 2527.429688 2325.125 L 2591.851562 2325.125 L 2688.449219 1431.761719 Z M 2685.800781 1227.890625 " />
</clipPath>
<clipPath id="clip-58">
<path clip-rule="nonzero" d="M 2333 1242 L 2619 1242 L 2619 1271 L 2333 1271 Z M 2333 1242 " />
</clipPath>
<clipPath id="clip-59">
<path clip-rule="evenodd" d="M 2685.800781 1227.890625 L 2259.878906 1227.890625 L 2257.238281 1431.761719 L 2353.789062 2325.125 L 2418.21875 2325.125 L 2441.410156 1484.710938 L 2504.238281 1484.710938 L 2527.429688 2325.125 L 2591.851562 2325.125 L 2688.449219 1431.761719 Z M 2685.800781 1227.890625 " />
</clipPath>
<clipPath id="clip-60">
<path clip-rule="nonzero" d="M 2337 670 L 2609 670 L 2609 1251 L 2337 1251 Z M 2337 670 " />
</clipPath>
<clipPath id="clip-61">
<path clip-rule="evenodd" d="M 2337.550781 1250.609375 L 2608.128906 1250.609375 L 2608.128906 736.96875 L 2579.890625 670.339844 L 2365.789062 670.339844 L 2337.550781 736.96875 Z M 2337.550781 1250.609375 " />
</clipPath>
<clipPath id="clip-62">
<path clip-rule="nonzero" d="M 2318 670 L 2366 670 L 2366 1465 L 2318 1465 Z M 2318 670 " />
</clipPath>
<clipPath id="clip-63">
<path clip-rule="evenodd" d="M 2361.210938 1388.929688 C 2361.058594 1412.628906 2341.800781 1431.761719 2318.109375 1431.761719 L 2251.910156 1431.761719 C 2242.21875 1467.539062 2237.441406 1510.410156 2234.070312 1555.316406 L 2160.378906 1571.863281 C 2037.699219 1153.289062 2125.191406 681.351562 2365.789062 670.339844 Z M 2361.210938 1388.929688 " />
</clipPath>
<clipPath id="clip-64">
<path clip-rule="nonzero" d="M 2416 580 L 2534 580 L 2534 642 L 2416 642 Z M 2416 580 " />
</clipPath>
<clipPath id="clip-65">
<path clip-rule="evenodd" d="M 2515.710938 580.539062 L 2429.96875 580.539062 C 2430.738281 615.25 2419.328125 644.480469 2391.601562 666.359375 C 2410.640625 692.988281 2437.300781 708.660156 2472.839844 711.589844 C 2508.378906 708.660156 2535.039062 692.988281 2554.078125 666.359375 C 2526.351562 644.480469 2514.941406 615.25 2515.710938 580.539062 Z M 2515.710938 580.539062 " />
</clipPath>
<clipPath id="clip-66">
<path clip-rule="nonzero" d="M 2567 670 L 2634 670 L 2634 1297 L 2567 1297 Z M 2567 670 " />
</clipPath>
<clipPath id="clip-67">
<path clip-rule="evenodd" d="M 2579.890625 670.339844 C 2579.890625 670.339844 2551.921875 1119.691406 2579.890625 1227.890625 C 2603.761719 1320.21875 2688.449219 1332.03125 2688.449219 1332.03125 L 2711.390625 1299.378906 L 2699.480469 796.539062 Z M 2579.890625 670.339844 " />
</clipPath>
<clipPath id="clip-68">
<path clip-rule="nonzero" d="M 2523 356 L 2545 356 L 2545 384 L 2523 384 Z M 2523 356 " />
</clipPath>
<clipPath id="clip-69">
<path clip-rule="evenodd" d="M 2559.621094 362.980469 C 2559.621094 357.601562 2557.480469 352.429688 2553.679688 348.628906 C 2549.871094 344.820312 2544.710938 342.679688 2539.320312 342.679688 C 2528.109375 342.679688 2519.019531 351.769531 2519.019531 362.980469 C 2519.019531 374.390625 2519.019531 386.371094 2519.019531 386.371094 L 2559.621094 386.371094 C 2559.621094 386.371094 2559.621094 374.390625 2559.621094 362.980469 Z M 2559.621094 362.980469 " />
</clipPath>
<clipPath id="clip-70">
<path clip-rule="nonzero" d="M 2534 360 L 2540 360 L 2540 369 L 2534 369 Z M 2534 360 " />
</clipPath>
<clipPath id="clip-71">
<path clip-rule="evenodd" d="M 2559.621094 362.980469 C 2559.621094 357.601562 2557.480469 352.429688 2553.679688 348.628906 C 2549.871094 344.820312 2544.710938 342.679688 2539.320312 342.679688 C 2528.109375 342.679688 2519.019531 351.769531 2519.019531 362.980469 C 2519.019531 374.390625 2519.019531 386.371094 2519.019531 386.371094 L 2559.621094 386.371094 C 2559.621094 386.371094 2559.621094 374.390625 2559.621094 362.980469 Z M 2559.621094 362.980469 " />
</clipPath>
<clipPath id="clip-72">
<path clip-rule="nonzero" d="M 2398 356 L 2420 356 L 2420 384 L 2398 384 Z M 2398 356 " />
</clipPath>
<clipPath id="clip-73">
<path clip-rule="evenodd" d="M 2435.179688 362.980469 C 2435.179688 357.601562 2433.039062 352.429688 2429.230469 348.628906 C 2425.421875 344.820312 2420.261719 342.679688 2414.878906 342.679688 C 2403.671875 342.679688 2394.578125 351.769531 2394.578125 362.980469 C 2394.578125 374.390625 2394.578125 386.371094 2394.578125 386.371094 L 2435.179688 386.371094 C 2435.179688 386.371094 2435.179688 374.390625 2435.179688 362.980469 Z M 2435.179688 362.980469 " />
</clipPath>
<clipPath id="clip-74">
<path clip-rule="nonzero" d="M 2409 360 L 2415 360 L 2415 369 L 2409 369 Z M 2409 360 " />
</clipPath>
<clipPath id="clip-75">
<path clip-rule="evenodd" d="M 2435.179688 362.980469 C 2435.179688 357.601562 2433.039062 352.429688 2429.230469 348.628906 C 2425.421875 344.820312 2420.261719 342.679688 2414.878906 342.679688 C 2403.671875 342.679688 2394.578125 351.769531 2394.578125 362.980469 C 2394.578125 374.390625 2394.578125 386.371094 2394.578125 386.371094 L 2435.179688 386.371094 C 2435.179688 386.371094 2435.179688 374.390625 2435.179688 362.980469 Z M 2435.179688 362.980469 " />
</clipPath>
<clipPath id="clip-76">
<path clip-rule="nonzero" d="M 2452 537 L 2491 537 L 2491 552 L 2452 552 Z M 2452 537 " />
</clipPath>
<clipPath id="clip-77">
<path clip-rule="evenodd" d="M 2639.820312 160.878906 C 2646.941406 211.039062 2634.269531 265.339844 2564.609375 273.039062 C 2464.5 284.089844 2409.050781 216.949219 2376.160156 234.351562 C 2334.558594 256.371094 2346.808594 371.148438 2346.808594 371.148438 C 2346.808594 371.148438 2369.980469 406.050781 2376.160156 424.539062 C 2383.148438 445.46875 2388.738281 496.691406 2388.738281 496.691406 L 2547.820312 496.691406 C 2547.820312 496.691406 2549.761719 452.488281 2557.519531 436.679688 C 2564.96875 421.5 2594.371094 401.820312 2594.371094 401.820312 C 2594.371094 401.820312 2633.609375 543.511719 2582.898438 580.761719 C 2538.699219 613.230469 2371.628906 631.109375 2330.710938 573.921875 C 2287.46875 513.5 2329.578125 310.398438 2323.210938 270.980469 C 2268.578125 234.28125 2327.921875 160.699219 2367.78125 183.390625 C 2389.691406 149.148438 2433.011719 128.980469 2472.839844 128.671875 C 2556.109375 128 2564.019531 225.648438 2639.820312 160.878906 Z M 2639.820312 160.878906 " />
</clipPath>
<clipPath id="clip-78">
<path clip-rule="nonzero" d="M 2301 509 L 2622 509 L 2622 612 L 2301 612 Z M 2301 509 " />
</clipPath>
<clipPath id="clip-79">
<path clip-rule="evenodd" d="M 2639.820312 160.878906 C 2646.941406 211.039062 2634.269531 265.339844 2564.609375 273.039062 C 2464.5 284.089844 2409.050781 216.949219 2376.160156 234.351562 C 2334.558594 256.371094 2346.808594 371.148438 2346.808594 371.148438 C 2346.808594 371.148438 2369.980469 406.050781 2376.160156 424.539062 C 2383.148438 445.46875 2388.738281 496.691406 2388.738281 496.691406 L 2547.820312 496.691406 C 2547.820312 496.691406 2549.761719 452.488281 2557.519531 436.679688 C 2564.96875 421.5 2594.371094 401.820312 2594.371094 401.820312 C 2594.371094 401.820312 2633.609375 543.511719 2582.898438 580.761719 C 2538.699219 613.230469 2371.628906 631.109375 2330.710938 573.921875 C 2287.46875 513.5 2329.578125 310.398438 2323.210938 270.980469 C 2268.578125 234.28125 2327.921875 160.699219 2367.78125 183.390625 C 2389.691406 149.148438 2433.011719 128.980469 2472.839844 128.671875 C 2556.109375 128 2564.019531 225.648438 2639.820312 160.878906 Z M 2639.820312 160.878906 " />
</clipPath>
<clipPath id="clip-80">
<path clip-rule="nonzero" d="M 2343 219 L 2629 219 L 2629 318 L 2343 318 Z M 2343 219 " />
</clipPath>
<clipPath id="clip-81">
<path clip-rule="evenodd" d="M 2639.820312 160.878906 C 2646.941406 211.039062 2634.269531 265.339844 2564.609375 273.039062 C 2464.5 284.089844 2409.050781 216.949219 2376.160156 234.351562 C 2334.558594 256.371094 2346.808594 371.148438 2346.808594 371.148438 C 2346.808594 371.148438 2369.980469 406.050781 2376.160156 424.539062 C 2383.148438 445.46875 2388.738281 496.691406 2388.738281 496.691406 L 2547.820312 496.691406 C 2547.820312 496.691406 2549.761719 452.488281 2557.519531 436.679688 C 2564.96875 421.5 2594.371094 401.820312 2594.371094 401.820312 C 2594.371094 401.820312 2633.609375 543.511719 2582.898438 580.761719 C 2538.699219 613.230469 2371.628906 631.109375 2330.710938 573.921875 C 2287.46875 513.5 2329.578125 310.398438 2323.210938 270.980469 C 2268.578125 234.28125 2327.921875 160.699219 2367.78125 183.390625 C 2389.691406 149.148438 2433.011719 128.980469 2472.839844 128.671875 C 2556.109375 128 2564.019531 225.648438 2639.820312 160.878906 Z M 2639.820312 160.878906 " />
</clipPath>
<clipPath id="clip-82">
<path clip-rule="nonzero" d="M 2336 146 L 2399 146 L 2399 204 L 2336 204 Z M 2336 146 " />
</clipPath>
<clipPath id="clip-83">
<path clip-rule="evenodd" d="M 2639.820312 160.878906 C 2646.941406 211.039062 2634.269531 265.339844 2564.609375 273.039062 C 2464.5 284.089844 2409.050781 216.949219 2376.160156 234.351562 C 2334.558594 256.371094 2346.808594 371.148438 2346.808594 371.148438 C 2346.808594 371.148438 2369.980469 406.050781 2376.160156 424.539062 C 2383.148438 445.46875 2388.738281 496.691406 2388.738281 496.691406 L 2547.820312 496.691406 C 2547.820312 496.691406 2549.761719 452.488281 2557.519531 436.679688 C 2564.96875 421.5 2594.371094 401.820312 2594.371094 401.820312 C 2594.371094 401.820312 2633.609375 543.511719 2582.898438 580.761719 C 2538.699219 613.230469 2371.628906 631.109375 2330.710938 573.921875 C 2287.46875 513.5 2329.578125 310.398438 2323.210938 270.980469 C 2268.578125 234.28125 2327.921875 160.699219 2367.78125 183.390625 C 2389.691406 149.148438 2433.011719 128.980469 2472.839844 128.671875 C 2556.109375 128 2564.019531 225.648438 2639.820312 160.878906 Z M 2639.820312 160.878906 " />
</clipPath>
<clipPath id="clip-84">
<path clip-rule="nonzero" d="M 2699 864 L 2727 864 L 2727 1052 L 2699 1052 Z M 2699 864 " />
</clipPath>
<clipPath id="clip-85">
<path clip-rule="evenodd" d="M 2579.890625 670.339844 C 2730.398438 660.539062 2839.601562 921.761719 2873.921875 1134.558594 C 2885.851562 1208.511719 2720.800781 1329.621094 2720.800781 1329.621094 L 2662.988281 1261.691406 L 2760.511719 1164.121094 L 2699.480469 1051.160156 Z M 2579.890625 670.339844 " />
</clipPath>
<clipPath id="clip-86">
<path clip-rule="nonzero" d="M 3531 1884 L 3633 1884 L 3633 1929 L 3531 1929 Z M 3531 1884 " />
</clipPath>
<clipPath id="clip-87">
<path clip-rule="evenodd" d="M 3531.378906 1884.960938 L 3549.078125 2325.125 L 3591.390625 2325.125 L 3632.988281 1884.960938 Z M 3531.378906 1884.960938 " />
</clipPath>
<clipPath id="clip-88">
<path clip-rule="nonzero" d="M 3388 1884 L 3491 1884 L 3491 1929 L 3388 1929 Z M 3388 1884 " />
</clipPath>
<clipPath id="clip-89">
<path clip-rule="evenodd" d="M 3490.570312 1884.960938 L 3472.871094 2325.125 L 3430.558594 2325.125 L 3388.949219 1884.960938 Z M 3490.570312 1884.960938 " />
</clipPath>
<clipPath id="clip-90">
<path clip-rule="nonzero" d="M 3625 1068 L 3742 1068 L 3742 1460 L 3625 1460 Z M 3625 1068 " />
</clipPath>
<clipPath id="clip-91">
<path clip-rule="evenodd" d="M 3727.328125 1077.53125 C 3736.789062 1135.949219 3716.011719 1351.730469 3718.289062 1428.019531 C 3719.378906 1464.539062 3745.171875 1506.894531 3741.011719 1535.246094 C 3737.199219 1561.269531 3705.261719 1621.582031 3693.359375 1598.128906 C 3674.179688 1560.347656 3631.238281 1395.308594 3625.941406 1308.539062 C 3621.191406 1230.769531 3644.648438 1116.039062 3661.550781 1077.53125 C 3670.359375 1057.460938 3723.828125 1055.890625 3727.328125 1077.53125 Z M 3727.328125 1077.53125 " />
</clipPath>
<clipPath id="clip-92">
<path clip-rule="nonzero" d="M 3304 1326 L 3718 1326 L 3718 1910 L 3304 1910 Z M 3304 1326 " />
</clipPath>
<clipPath id="clip-93">
<path clip-rule="evenodd" d="M 3717.410156 1899.300781 C 3577.671875 1912.476562 3440.039062 1912.449219 3304.53125 1899.300781 C 3304.53125 1899.300781 3330.589844 1505.285156 3340.640625 1353.210938 C 3342.828125 1320.070312 3370.351562 1294.308594 3403.558594 1294.308594 C 3464.128906 1294.308594 3557.820312 1294.308594 3618.378906 1294.308594 C 3651.589844 1294.308594 3679.109375 1320.070312 3681.300781 1353.210938 C 3691.359375 1505.285156 3717.410156 1899.300781 3717.410156 1899.300781 Z M 3717.410156 1899.300781 " />
</clipPath>
<clipPath id="clip-94">
<path clip-rule="nonzero" d="M 3347 378 L 3719 378 L 3719 898 L 3347 898 Z M 3347 378 " />
</clipPath>
<clipPath id="clip-95">
<path clip-rule="evenodd" d="M 3419.101562 840.898438 C 3381.25 792.648438 3283.890625 766.21875 3289.148438 706.089844 C 3302.351562 555.089844 3351.109375 410.929688 3451.140625 376.710938 C 3491.238281 363 3529.570312 365.820312 3559.210938 400.5 C 3629.738281 398.179688 3647.789062 439.011719 3656.261719 479.269531 C 3666.988281 530.269531 3757.71875 535.808594 3697.769531 673.210938 C 3660.351562 758.980469 3759.421875 811.398438 3623.410156 845.308594 L 3501.621094 897.160156 Z M 3419.101562 840.898438 " />
</clipPath>
<clipPath id="clip-96">
<path clip-rule="nonzero" d="M 3356 498 L 3402 498 L 3402 634 L 3356 634 Z M 3356 498 " />
</clipPath>
<clipPath id="clip-97">
<path clip-rule="evenodd" d="M 3419.101562 840.898438 C 3381.25 792.648438 3283.890625 766.21875 3289.148438 706.089844 C 3302.351562 555.089844 3351.109375 410.929688 3451.140625 376.710938 C 3491.238281 363 3529.570312 365.820312 3559.210938 400.5 C 3629.738281 398.179688 3647.789062 439.011719 3656.261719 479.269531 C 3666.988281 530.269531 3757.71875 535.808594 3697.769531 673.210938 C 3660.351562 758.980469 3759.421875 811.398438 3623.410156 845.308594 L 3501.621094 897.160156 Z M 3419.101562 840.898438 " />
</clipPath>
<clipPath id="clip-98">
<path clip-rule="nonzero" d="M 3293 1087 L 3384 1087 L 3384 1209 L 3293 1209 Z M 3293 1087 " />
</clipPath>
<clipPath id="clip-99">
<path clip-rule="evenodd" d="M 3302.609375 1087.351562 L 3293.691406 1174.738281 L 3312.960938 1208.261719 L 3383.53125 1200.101562 L 3383.53125 1087.351562 Z M 3302.609375 1087.351562 " />
</clipPath>
<clipPath id="clip-100">
<path clip-rule="nonzero" d="M 3335 947 L 3362 947 L 3362 1116 L 3335 1116 Z M 3335 947 " />
</clipPath>
<clipPath id="clip-101">
<path clip-rule="evenodd" d="M 3587.191406 836.898438 C 3701.191406 829.378906 3723.808594 932.851562 3741.011719 1087.351562 L 3660.921875 1108.730469 C 3660.75 1159.789062 3664.859375 1207.898438 3672.578125 1244.621094 C 3675.929688 1260.550781 3671.921875 1277.140625 3661.660156 1289.78125 C 3651.410156 1302.421875 3635.550781 1306.929688 3619.71875 1309.761719 C 3555.699219 1321.191406 3465.671875 1320.679688 3406.25 1309.761719 C 3389.539062 1306.679688 3372.761719 1302 3361.921875 1288.640625 C 3351.078125 1275.289062 3346.839844 1257.75 3350.378906 1240.921875 C 3358.011719 1204.640625 3361.011719 1158.421875 3361.738281 1108.859375 L 3281.171875 1087.351562 C 3298.390625 932.699219 3321.03125 829.179688 3435.320312 836.929688 L 3586.859375 836.929688 Z M 3587.191406 836.898438 " />
</clipPath>
<clipPath id="clip-102">
<path clip-rule="nonzero" d="M 3660 947 L 3688 947 L 3688 1116 L 3660 1116 Z M 3660 947 " />
</clipPath>
<clipPath id="clip-103">
<path clip-rule="evenodd" d="M 3587.191406 836.898438 C 3701.191406 829.378906 3723.808594 932.851562 3741.011719 1087.351562 L 3660.921875 1108.730469 C 3660.75 1159.789062 3664.859375 1207.898438 3672.578125 1244.621094 C 3675.929688 1260.550781 3671.921875 1277.140625 3661.660156 1289.78125 C 3651.410156 1302.421875 3635.550781 1306.929688 3619.71875 1309.761719 C 3555.699219 1321.191406 3465.671875 1320.679688 3406.25 1309.761719 C 3389.539062 1306.679688 3372.761719 1302 3361.921875 1288.640625 C 3351.078125 1275.289062 3346.839844 1257.75 3350.378906 1240.921875 C 3358.011719 1204.640625 3361.011719 1158.421875 3361.738281 1108.859375 L 3281.171875 1087.351562 C 3298.390625 932.699219 3321.03125 829.179688 3435.320312 836.929688 L 3586.859375 836.929688 Z M 3587.191406 836.898438 " />
</clipPath>
<clipPath id="clip-104">
<path clip-rule="nonzero" d="M 3299 1240 L 3716 1240 L 3716 1319 L 3299 1319 Z M 3299 1240 " />
</clipPath>
<clipPath id="clip-105">
<path clip-rule="evenodd" d="M 3587.191406 836.898438 C 3701.191406 829.378906 3723.808594 932.851562 3741.011719 1087.351562 L 3660.921875 1108.730469 C 3660.75 1159.789062 3664.859375 1207.898438 3672.578125 1244.621094 C 3675.929688 1260.550781 3671.921875 1277.140625 3661.660156 1289.78125 C 3651.410156 1302.421875 3635.550781 1306.929688 3619.71875 1309.761719 C 3555.699219 1321.191406 3465.671875 1320.679688 3406.25 1309.761719 C 3389.539062 1306.679688 3372.761719 1302 3361.921875 1288.640625 C 3351.078125 1275.289062 3346.839844 1257.75 3350.378906 1240.921875 C 3358.011719 1204.640625 3361.011719 1158.421875 3361.738281 1108.859375 L 3281.171875 1087.351562 C 3298.390625 932.699219 3321.03125 829.179688 3435.320312 836.929688 L 3586.859375 836.929688 Z M 3587.191406 836.898438 " />
</clipPath>
<clipPath id="clip-106">
<path clip-rule="nonzero" d="M 3457 723 L 3565 723 L 3565 787 L 3457 787 Z M 3457 723 " />
</clipPath>
<clipPath id="clip-107">
<path clip-rule="evenodd" d="M 3587.648438 831.878906 C 3537.550781 860.859375 3487.449219 865.878906 3437.351562 831.878906 C 3462.390625 824.148438 3479.089844 771.359375 3485.679688 686.878906 L 3539.320312 686.878906 C 3537.878906 765.859375 3552.171875 826.039062 3587.648438 831.878906 Z M 3587.648438 831.878906 " />
</clipPath>
<clipPath id="clip-108">
<path clip-rule="nonzero" d="M 3447 603 L 3469 603 L 3469 632 L 3447 632 Z M 3447 603 " />
</clipPath>
<clipPath id="clip-109">
<path clip-rule="evenodd" d="M 3438.089844 611.578125 C 3438.089844 606.199219 3440.230469 601.03125 3444.03125 597.230469 C 3447.839844 593.421875 3453 591.28125 3458.390625 591.28125 C 3469.601562 591.28125 3478.691406 600.371094 3478.691406 611.578125 C 3478.691406 622.988281 3478.691406 634.96875 3478.691406 634.96875 L 3438.089844 634.96875 C 3438.089844 634.96875 3438.089844 622.988281 3438.089844 611.578125 Z M 3438.089844 611.578125 " />
</clipPath>
<clipPath id="clip-110">
<path clip-rule="nonzero" d="M 3452 608 L 3458 608 L 3458 617 L 3452 617 Z M 3452 608 " />
</clipPath>
<clipPath id="clip-111">
<path clip-rule="evenodd" d="M 3438.089844 611.578125 C 3438.089844 606.199219 3440.230469 601.03125 3444.03125 597.230469 C 3447.839844 593.421875 3453 591.28125 3458.390625 591.28125 C 3469.601562 591.28125 3478.691406 600.371094 3478.691406 611.578125 C 3478.691406 622.988281 3478.691406 634.96875 3478.691406 634.96875 L 3438.089844 634.96875 C 3438.089844 634.96875 3438.089844 622.988281 3438.089844 611.578125 Z M 3438.089844 611.578125 " />
</clipPath>
<clipPath id="clip-112">
<path clip-rule="nonzero" d="M 3561 603 L 3583 603 L 3583 632 L 3561 632 Z M 3561 603 " />
</clipPath>
<clipPath id="clip-113">
<path clip-rule="evenodd" d="M 3551.46875 611.578125 C 3551.46875 606.199219 3553.609375 601.03125 3557.421875 597.230469 C 3561.230469 593.421875 3566.390625 591.28125 3571.769531 591.28125 C 3582.980469 591.28125 3592.070312 600.371094 3592.070312 611.578125 C 3592.070312 622.988281 3592.070312 634.96875 3592.070312 634.96875 L 3551.46875 634.96875 C 3551.46875 634.96875 3551.46875 622.988281 3551.46875 611.578125 Z M 3551.46875 611.578125 " />
</clipPath>
<clipPath id="clip-114">
<path clip-rule="nonzero" d="M 3566 608 L 3572 608 L 3572 617 L 3566 617 Z M 3566 608 " />
</clipPath>
<clipPath id="clip-115">
<path clip-rule="evenodd" d="M 3551.46875 611.578125 C 3551.46875 606.199219 3553.609375 601.03125 3557.421875 597.230469 C 3561.230469 593.421875 3566.390625 591.28125 3571.769531 591.28125 C 3582.980469 591.28125 3592.070312 600.371094 3592.070312 611.578125 C 3592.070312 622.988281 3592.070312 634.96875 3592.070312 634.96875 L 3551.46875 634.96875 C 3551.46875 634.96875 3551.46875 622.988281 3551.46875 611.578125 Z M 3551.46875 611.578125 " />
</clipPath>
<clipPath id="clip-116">
<path clip-rule="nonzero" d="M 3146 1182 L 3321 1182 L 3321 1373 L 3146 1373 Z M 3146 1182 " />
</clipPath>
<clipPath id="clip-117">
<path clip-rule="evenodd" d="M 3320.480469 1207.78125 C 3342.929688 1213.179688 3320.480469 1391.269531 3320.480469 1391.269531 L 3372.328125 1401.101562 C 3372.328125 1401.101562 3419.429688 1180.621094 3320.480469 1171.421875 C 3236.75 1163.628906 3146.390625 1340.199219 3146.390625 1340.199219 L 3182.140625 1357.859375 L 3245.570312 1274.128906 C 3245.570312 1274.128906 3297.640625 1202.28125 3320.480469 1207.78125 Z M 3320.480469 1207.78125 " />
</clipPath>
<clipPath id="clip-118">
<path clip-rule="nonzero" d="M 3055 1372 L 3406 1372 L 3406 1713 L 3055 1713 Z M 3055 1372 " />
</clipPath>
<clipPath id="clip-119">
<path clip-rule="evenodd" d="M 3129.179688 1326.839844 C 3153.53125 1322.730469 3253.710938 1385.011719 3380.050781 1385.96875 C 3422.878906 1386.300781 3409.800781 1654.898438 3356.21875 1695.679688 C 3302.640625 1736.460938 3104.949219 1695.992188 3066.960938 1633.75 C 3028.980469 1571.503906 3097.191406 1332.238281 3129.179688 1326.839844 Z M 3129.179688 1326.839844 " />
</clipPath>
<clipPath id="clip-120">
<path clip-rule="nonzero" d="M 3174 1326 L 3324 1326 L 3324 1467 L 3174 1467 Z M 3174 1326 " />
</clipPath>
<clipPath id="clip-121">
<path clip-rule="evenodd" d="M 3129.179688 1326.839844 C 3153.53125 1322.730469 3253.710938 1385.011719 3380.050781 1385.96875 C 3422.878906 1386.300781 3409.800781 1654.898438 3356.21875 1695.679688 C 3302.640625 1736.460938 3104.949219 1695.992188 3066.960938 1633.75 C 3028.980469 1571.503906 3097.191406 1332.238281 3129.179688 1326.839844 Z M 3129.179688 1326.839844 " />
</clipPath>
<clipPath id="clip-122">
<path clip-rule="nonzero" d="M 4043 204 L 4438 204 L 4438 805 L 4043 805 Z M 4043 204 " />
</clipPath>
<clipPath id="clip-123">
<path clip-rule="evenodd" d="M 4158.929688 527.140625 C 4052.640625 467.308594 4040.210938 408.058594 4044.558594 345.101562 C 4049.289062 276.558594 4044.648438 218.03125 4136.128906 179.898438 C 4182.621094 160.519531 4232.78125 166.648438 4265.160156 225.089844 C 4383.351562 217.898438 4365.710938 311.839844 4359.960938 352.621094 C 4357.71875 368.511719 4379.351562 377.839844 4382.210938 396.910156 C 4385 415.488281 4382.140625 443.449219 4388.828125 460.699219 C 4396.28125 479.878906 4427.519531 496.351562 4434.058594 514.230469 C 4441.550781 534.660156 4427.511719 553.441406 4434.058594 573.480469 C 4441.808594 597.148438 4500.628906 615.171875 4502.878906 655.988281 C 4504.871094 691.898438 4471.230469 716.199219 4469.140625 735.199219 C 4464.25 779.738281 4447.601562 805.980469 4403.839844 804.699219 L 4217.511719 674.53125 L 4211.21875 540.820312 Z M 4158.929688 527.140625 " />
</clipPath>
<clipPath id="clip-124">
<path clip-rule="nonzero" d="M 4046 1227 L 4391 1227 L 4391 1392 L 4046 1392 Z M 4046 1227 " />
</clipPath>
<clipPath id="clip-125">
<path clip-rule="evenodd" d="M 4387.910156 1227.890625 L 4048.730469 1227.890625 L 4046.621094 1431.761719 L 4123.519531 2325.125 L 4174.820312 2325.125 L 4192.570312 1451.839844 L 4242.601562 1451.839844 L 4261.789062 2325.125 L 4313.101562 2325.125 L 4390.019531 1431.761719 Z M 4387.910156 1227.890625 " />
</clipPath>
<clipPath id="clip-126">
<path clip-rule="nonzero" d="M 4166 1435 L 4243 1435 L 4243 2326 L 4166 2326 Z M 4166 1435 " />
</clipPath>
<clipPath id="clip-127">
<path clip-rule="evenodd" d="M 4387.910156 1227.890625 L 4048.730469 1227.890625 L 4046.621094 1431.761719 L 4123.519531 2325.125 L 4174.820312 2325.125 L 4192.570312 1451.839844 L 4242.601562 1451.839844 L 4261.789062 2325.125 L 4313.101562 2325.125 L 4390.019531 1431.761719 Z M 4387.910156 1227.890625 " />
</clipPath>
<clipPath id="clip-128">
<path clip-rule="nonzero" d="M 4313 1701 L 4391 1701 L 4391 2326 L 4313 2326 Z M 4313 1701 " />
</clipPath>
<clipPath id="clip-129">
<path clip-rule="evenodd" d="M 4387.910156 1227.890625 L 4048.730469 1227.890625 L 4046.621094 1431.761719 L 4123.519531 2325.125 L 4174.820312 2325.125 L 4192.570312 1451.839844 L 4242.601562 1451.839844 L 4261.789062 2325.125 L 4313.101562 2325.125 L 4390.019531 1431.761719 Z M 4387.910156 1227.890625 " />
</clipPath>
<clipPath id="clip-130">
<path clip-rule="nonzero" d="M 4169 527 L 4266 527 L 4266 587 L 4169 587 Z M 4169 527 " />
</clipPath>
<clipPath id="clip-131">
<path clip-rule="evenodd" d="M 4246.191406 527.140625 L 4176.25 527.140625 C 4183.070312 571.328125 4183.121094 614.589844 4169.851562 655.988281 L 4265.160156 655.988281 C 4245.710938 615.808594 4239.21875 572.898438 4246.191406 527.140625 Z M 4246.191406 527.140625 " />
</clipPath>
<clipPath id="clip-132">
<path clip-rule="nonzero" d="M 4152 380 L 4170 380 L 4170 404 L 4152 404 Z M 4152 380 " />
</clipPath>
<clipPath id="clip-133">
<path clip-rule="evenodd" d="M 4178.148438 386.179688 C 4178.148438 381.671875 4176.359375 377.339844 4173.171875 374.148438 C 4169.980469 370.960938 4165.648438 369.160156 4161.128906 369.160156 C 4151.730469 369.160156 4144.121094 376.78125 4144.121094 386.179688 C 4144.121094 395.75 4144.121094 405.789062 4144.121094 405.789062 L 4178.148438 405.789062 C 4178.148438 405.789062 4178.148438 395.75 4178.148438 386.179688 Z M 4178.148438 386.179688 " />
</clipPath>
<clipPath id="clip-134">
<path clip-rule="nonzero" d="M 4156 383 L 4162 383 L 4162 392 L 4156 392 Z M 4156 383 " />
</clipPath>
<clipPath id="clip-135">
<path clip-rule="evenodd" d="M 4178.148438 386.179688 C 4178.148438 381.671875 4176.359375 377.339844 4173.171875 374.148438 C 4169.980469 370.960938 4165.648438 369.160156 4161.128906 369.160156 C 4151.730469 369.160156 4144.121094 376.78125 4144.121094 386.179688 C 4144.121094 395.75 4144.121094 405.789062 4144.121094 405.789062 L 4178.148438 405.789062 C 4178.148438 405.789062 4178.148438 395.75 4178.148438 386.179688 Z M 4178.148438 386.179688 " />
</clipPath>
<clipPath id="clip-136">
<path clip-rule="nonzero" d="M 4252 380 L 4271 380 L 4271 404 L 4252 404 Z M 4252 380 " />
</clipPath>
<clipPath id="clip-137">
<path clip-rule="evenodd" d="M 4278.320312 386.179688 C 4278.320312 381.671875 4276.53125 377.339844 4273.339844 374.148438 C 4270.140625 370.960938 4265.820312 369.160156 4261.300781 369.160156 C 4251.898438 369.160156 4244.289062 376.78125 4244.289062 386.179688 C 4244.289062 395.75 4244.289062 405.789062 4244.289062 405.789062 L 4278.320312 405.789062 C 4278.320312 405.789062 4278.320312 395.75 4278.320312 386.179688 Z M 4278.320312 386.179688 " />
</clipPath>
<clipPath id="clip-138">
<path clip-rule="nonzero" d="M 4257 383 L 4262 383 L 4262 392 L 4257 392 Z M 4257 383 " />
</clipPath>
<clipPath id="clip-139">
<path clip-rule="evenodd" d="M 4278.320312 386.179688 C 4278.320312 381.671875 4276.53125 377.339844 4273.339844 374.148438 C 4270.140625 370.960938 4265.820312 369.160156 4261.300781 369.160156 C 4251.898438 369.160156 4244.289062 376.78125 4244.289062 386.179688 C 4244.289062 395.75 4244.289062 405.789062 4244.289062 405.789062 L 4278.320312 405.789062 C 4278.320312 405.789062 4278.320312 395.75 4278.320312 386.179688 Z M 4278.320312 386.179688 " />
</clipPath>
<clipPath id="clip-140">
<path clip-rule="nonzero" d="M 4124 771 L 4345 771 L 4345 1261 L 4124 1261 Z M 4124 771 " />
</clipPath>
<clipPath id="clip-141">
<path clip-rule="evenodd" d="M 4145.089844 708.730469 C 4156.171875 943.429688 4323.980469 928.671875 4312.671875 708.730469 L 4344.878906 860.75 L 4344.878906 1245.980469 C 4258.808594 1266.390625 4179.171875 1265.121094 4104.820312 1245.980469 Z M 4145.089844 708.730469 " />
</clipPath>
<clipPath id="clip-142">
<path clip-rule="nonzero" d="M 4018 832 L 4079 832 L 4079 1138 L 4018 1138 Z M 4018 832 " />
</clipPath>
<clipPath id="clip-143">
<path clip-rule="evenodd" d="M 4156.699219 1355.890625 C 4083.191406 1353.179688 4018.101562 1343.839844 3994.769531 1327.179688 C 3973.28125 1311.828125 4043.429688 1181.609375 4046.621094 1101.601562 C 4051.449219 980.589844 4078.289062 758.351562 4078.289062 758.351562 L 4144.140625 655.988281 Z M 4156.699219 1355.890625 " />
</clipPath>
<clipPath id="clip-144">
<path clip-rule="nonzero" d="M 4015 1137 L 4157 1137 L 4157 1257 L 4015 1257 Z M 4015 1137 " />
</clipPath>
<clipPath id="clip-145">
<path clip-rule="evenodd" d="M 4156.699219 1355.890625 C 4083.191406 1353.179688 4018.101562 1343.839844 3994.769531 1327.179688 C 3973.28125 1311.828125 4043.429688 1181.609375 4046.621094 1101.601562 C 4051.449219 980.589844 4078.289062 758.351562 4078.289062 758.351562 L 4144.140625 655.988281 Z M 4156.699219 1355.890625 " />
</clipPath>
<clipPath id="clip-146">
<path clip-rule="nonzero" d="M 4341 812 L 4451 812 L 4451 1080 L 4341 1080 Z M 4341 812 " />
</clipPath>
<clipPath id="clip-147">
<path clip-rule="evenodd" d="M 4289.769531 655.988281 C 4314.300781 662.128906 4353.460938 664.03125 4374.269531 686.511719 C 4477.671875 798.191406 4517.699219 1083.339844 4516.800781 1092.859375 C 4511.21875 1151.929688 4405.378906 1191.480469 4405.378906 1191.480469 L 4374.269531 1100.800781 C 4374.269531 1100.800781 4413.761719 1070.621094 4413.761719 1048.070312 C 4413.761719 1018.539062 4374.269531 923.628906 4374.269531 923.628906 L 4334.929688 768.96875 Z M 4289.769531 655.988281 " />
</clipPath>
<clipPath id="clip-148">
<path clip-rule="nonzero" d="M 4289 1137 L 4402 1137 L 4402 1257 L 4289 1257 Z M 4289 1137 " />
</clipPath>
<clipPath id="clip-149">
<path clip-rule="evenodd" d="M 4289.769531 655.988281 L 4329.75 756.019531 C 4329.75 756.019531 4386.5 1018.269531 4398.039062 1113.070312 C 4406.738281 1184.480469 4454.128906 1312.929688 4429.210938 1327.179688 C 4411.101562 1337.53125 4374.5 1345.289062 4329.75 1350.25 C 4333.210938 1103.949219 4348.78125 846.910156 4289.769531 655.988281 Z M 4289.769531 655.988281 " />
</clipPath>
<clipPath id="clip-150">
<path clip-rule="nonzero" d="M 4326 1613 L 4537 1613 L 4537 1790 L 4326 1790 Z M 4326 1613 " />
</clipPath>
<clipPath id="clip-151">
<path clip-rule="evenodd" d="M 4370.738281 1074.210938 C 4407.410156 1352.808594 4283.511719 1755.652344 4374.710938 1769.113281 C 4396.339844 1772.308594 4407.988281 1766.800781 4424.378906 1769.113281 C 4444.679688 1771.984375 4449.878906 1799.507812 4496.5 1786.324219 C 4614.789062 1752.875 4433.460938 1258.421875 4406.878906 1074.210938 L 4327.660156 663.699219 C 4314.851562 652.25 4297.460938 652.390625 4289.769531 655.988281 Z M 4370.738281 1074.210938 " />
</clipPath>
<clipPath id="clip-152">
<path clip-rule="nonzero" d="M 4363 1131 L 4441 1131 L 4441 1297 L 4363 1297 Z M 4363 1131 " />
</clipPath>
<clipPath id="clip-153">
<path clip-rule="evenodd" d="M 4370.738281 1074.210938 C 4407.410156 1352.808594 4283.511719 1755.652344 4374.710938 1769.113281 C 4396.339844 1772.308594 4407.988281 1766.800781 4424.378906 1769.113281 C 4444.679688 1771.984375 4449.878906 1799.507812 4496.5 1786.324219 C 4614.789062 1752.875 4433.460938 1258.421875 4406.878906 1074.210938 L 4327.660156 663.699219 C 4314.851562 652.25 4297.460938 652.390625 4289.769531 655.988281 Z M 4370.738281 1074.210938 " />
</clipPath>
<clipPath id="clip-154">
<path clip-rule="nonzero" d="M 4174 1104 L 4290 1104 L 4290 1226 L 4174 1226 Z M 4174 1104 " />
</clipPath>
<clipPath id="clip-155">
<path clip-rule="evenodd" d="M 4144.140625 655.988281 C 4109.539062 657.738281 4072.859375 659.890625 4044.511719 696.441406 C 3962.359375 802.359375 3915.871094 1035.558594 3923.511719 1116.25 C 3939.808594 1288.628906 4289.769531 1205.609375 4289.769531 1205.609375 C 4276.371094 1176.109375 4270.070312 1144.839844 4273.398438 1111.171875 C 4273.398438 1111.171875 4057.621094 1140.808594 4024.339844 1104.328125 C 3991.050781 1067.851562 4073.691406 897.371094 4073.691406 897.371094 Z M 4144.140625 655.988281 " />
</clipPath>
</defs>
<path fill-rule="evenodd" fill="rgb(31.396484%, 14.501953%, 20.410156%)" fill-opacity="1" d="M 729.175781 2323.898438 C 755.621094 2317.417969 790.558594 2333.09375 792.71875 2362.511719 C 793.101562 2367.71875 792.71875 2371.335938 792.71875 2371.335938 L 653.9375 2371.335938 L 660.226562 2323.898438 L 692.550781 2313.445312 L 729.175781 2323.898438 " />
<path fill-rule="evenodd" fill="rgb(31.396484%, 14.501953%, 20.410156%)" fill-opacity="1" d="M 952.242188 2323.898438 C 952.242188 2323.898438 990.234375 2318.597656 1024.050781 2313.878906 C 1037.019531 2312.070312 1050.140625 2315.96875 1060.019531 2324.566406 C 1069.910156 2333.164062 1075.578125 2345.621094 1075.578125 2358.722656 C 1075.578125 2366.152344 1075.578125 2371.335938 1075.578125 2371.335938 L 883.292969 2371.335938 L 883.292969 2323.898438 L 916.277344 2313.972656 L 952.242188 2323.898438 " />
<path fill-rule="evenodd" fill="rgb(5.499268%, 18.406677%, 22.705078%)" fill-opacity="1" d="M 1049.320312 1363.089844 L 952.242188 2323.898438 L 883.292969 2323.898438 L 859.351562 1415.308594 L 834.285156 1415.308594 L 729.175781 2323.898438 L 660.226562 2323.898438 L 640.289062 1363.089844 L 691.074219 1168.191406 L 1012.640625 1168.191406 L 1049.320312 1363.089844 " />
<g clip-path="url(#clip-0)">
<g clip-path="url(#clip-1)">
<path fill-rule="evenodd" fill="rgb(10.594177%, 23.094177%, 26.292419%)" fill-opacity="1" d="M 712.1875 1351.660156 L 655.8125 1434.289062 L 666.515625 2316.839844 L 683.726562 2316.839844 L 745.503906 1366.011719 L 712.1875 1351.660156 " />
</g>
</g>
<path fill-rule="evenodd" fill="rgb(10.594177%, 23.094177%, 26.292419%)" fill-opacity="1" d="M 644.890625 1238.71875 C 789.609375 1269.78125 930.632812 1256.699219 1053.738281 1238.71875 L 1053.738281 1190.960938 L 644.890625 1176.140625 L 644.890625 1238.71875 " />
<path fill-rule="evenodd" fill="rgb(10.594177%, 23.094177%, 26.292419%)" fill-opacity="1" d="M 840.871094 1246.519531 C 840.871094 1246.519531 840.039062 1291.070312 839.570312 1329.660156 C 839.390625 1344.410156 839.292969 1358.28125 839.234375 1368.460938 C 839.175781 1378.609375 839.1875 1385.078125 839.1875 1385.078125 C 839.1875 1385.960938 839.6875 1386.761719 840.480469 1387.148438 C 841.269531 1387.53125 842.210938 1387.429688 842.902344 1386.890625 C 849.234375 1381.859375 854.613281 1375.800781 859.046875 1368.738281 C 865 1359.261719 869.28125 1348.011719 872.070312 1335.191406 C 874.414062 1324.421875 875.703125 1312.539062 876.035156 1299.679688 C 876.453125 1283.429688 875.339844 1265.609375 872.980469 1246.460938 C 872.941406 1246.121094 872.640625 1245.878906 872.304688 1245.910156 C 871.96875 1245.949219 871.726562 1246.25 871.761719 1246.589844 C 873.523438 1265.691406 874.050781 1283.429688 873.183594 1299.570312 C 872.503906 1312.191406 870.953125 1323.820312 868.414062 1334.351562 C 865.464844 1346.609375 861.15625 1357.328125 855.316406 1366.371094 C 851.984375 1371.53125 848.15625 1376.140625 843.773438 1380.140625 C 843.769531 1377.269531 843.757812 1373.28125 843.730469 1368.460938 C 843.671875 1358.28125 843.570312 1344.410156 843.390625 1329.660156 C 842.921875 1291.070312 842.09375 1246.519531 842.09375 1246.519531 C 842.09375 1246.191406 841.820312 1245.910156 841.480469 1245.910156 C 841.144531 1245.910156 840.871094 1246.191406 840.871094 1246.519531 " />
<path fill-rule="evenodd" fill="rgb(5.499268%, 18.406677%, 22.705078%)" fill-opacity="1" d="M 690.351562 683.890625 L 669.824219 1205.261719 C 664.707031 1215.109375 1006.558594 1219.089844 1013.800781 1205.261719 C 1014.238281 1204.421875 995.929688 711.691406 995.929688 711.691406 L 899.949219 627.410156 L 734.25 609.101562 L 690.351562 683.890625 " />
<path fill-rule="evenodd" fill="rgb(99.609375%, 65.039062%, 49.388123%)" fill-opacity="1" d="M 707.519531 358.191406 C 643.324219 337.578125 635.84375 431.160156 710.714844 423.148438 L 746.828125 478.699219 L 912.527344 457.960938 L 926.882812 415.371094 C 978.046875 419.140625 984.730469 340.28125 931.867188 347.859375 C 931.867188 347.859375 937.035156 282.03125 901.273438 246.808594 L 726.96875 246.808594 L 707.519531 358.191406 " />
<path fill-rule="evenodd" fill="rgb(90.039062%, 40.989685%, 19.897461%)" fill-opacity="1" d="M 669.328125 374.230469 C 671.65625 374.011719 673.804688 373.980469 675.855469 374.039062 C 679.347656 374.128906 682.359375 374.699219 685.054688 375.578125 C 687.011719 376.210938 688.71875 377.078125 690.265625 378.109375 C 691.320312 378.808594 692.269531 379.609375 693.160156 380.46875 C 694.5625 381.828125 695.804688 383.359375 696.808594 385.160156 C 697.789062 386.921875 698.632812 388.839844 699.261719 390.980469 C 700.402344 394.871094 701.046875 399.269531 700.992188 404.261719 C 700.945312 404.691406 701.261719 405.089844 701.695312 405.128906 C 702.132812 405.179688 702.523438 404.871094 702.574219 404.429688 C 703.355469 400.808594 703.753906 397.421875 703.761719 394.21875 C 703.769531 391.71875 703.503906 389.378906 703.023438 387.179688 C 702.375 384.199219 701.261719 381.53125 699.765625 379.210938 C 699.066406 378.128906 698.257812 377.140625 697.363281 376.238281 C 696.164062 375.039062 694.804688 373.988281 693.296875 373.140625 C 691.207031 371.96875 688.855469 371.121094 686.238281 370.679688 C 684.539062 370.398438 682.75 370.25 680.839844 370.328125 C 677.238281 370.46875 673.328125 371.230469 668.996094 372.679688 C 668.566406 372.769531 668.292969 373.191406 668.386719 373.621094 C 668.476562 374.050781 668.902344 374.320312 669.328125 374.230469 " />
<path fill-rule="evenodd" fill="rgb(90.039062%, 40.989685%, 19.897461%)" fill-opacity="1" d="M 847.121094 354.171875 C 847.121094 354.171875 848.429688 363.039062 850.347656 374.339844 C 850.996094 378.171875 851.730469 382.261719 852.507812 386.390625 C 853.015625 389.070312 853.535156 391.761719 854.097656 394.390625 C 854.898438 398.109375 855.726562 401.710938 856.542969 404.980469 C 858.027344 410.910156 859.371094 415.789062 860.128906 418.46875 L 837.621094 422.96875 C 837.1875 423.03125 836.882812 423.429688 836.941406 423.871094 C 837.003906 424.300781 837.40625 424.609375 837.839844 424.539062 L 863.324219 422.488281 C 863.957031 422.398438 864.523438 422.050781 864.886719 421.519531 C 865.25 421 865.378906 420.339844 865.234375 419.71875 C 865.234375 419.71875 864.121094 412.910156 862.214844 403.679688 C 861.53125 400.378906 860.722656 396.78125 859.824219 393.078125 C 859.195312 390.46875 858.496094 387.820312 857.789062 385.191406 C 856.703125 381.128906 855.585938 377.128906 854.507812 373.390625 C 851.335938 362.371094 848.671875 353.820312 848.671875 353.820312 C 848.570312 353.390625 848.144531 353.121094 847.71875 353.21875 C 847.289062 353.320312 847.023438 353.75 847.121094 354.171875 " />
<path fill-rule="evenodd" fill="rgb(90.039062%, 40.989685%, 19.897461%)" fill-opacity="1" d="M 956.097656 361.96875 C 952.480469 362 949.21875 362.589844 946.15625 363.75 C 944.734375 364.28125 943.417969 364.96875 942.136719 365.769531 C 940.441406 366.828125 938.894531 368.128906 937.476562 369.640625 C 936.574219 370.589844 935.75 371.660156 935.003906 372.800781 C 934.472656 373.621094 933.980469 374.488281 933.546875 375.410156 C 932.613281 377.371094 931.835938 379.5 931.269531 381.839844 C 930.253906 385.988281 929.824219 390.621094 929.828125 395.871094 C 929.777344 396.300781 930.09375 396.699219 930.527344 396.75 C 930.964844 396.800781 931.359375 396.488281 931.410156 396.050781 C 932.097656 393.25 932.917969 390.71875 933.785156 388.300781 C 934.734375 385.648438 935.8125 383.300781 936.953125 381.109375 C 937.761719 379.539062 938.652344 378.128906 939.527344 376.769531 C 940.445312 375.339844 941.375 374.011719 942.390625 372.78125 C 943.816406 371.050781 945.316406 369.5 947.070312 368.191406 C 949.761719 366.179688 952.726562 364.558594 956.328125 363.539062 C 956.761719 363.480469 957.0625 363.070312 957 362.640625 C 956.9375 362.210938 956.535156 361.910156 956.097656 361.96875 " />
<path fill-rule="evenodd" fill="rgb(99.609375%, 65.039062%, 49.388123%)" fill-opacity="1" d="M 782.351562 567.179688 C 784.050781 585.859375 779.238281 604.71875 734.25 609.101562 C 776.96875 795.648438 924.960938 838.660156 899.949219 627.410156 C 887.074219 624.980469 883.09375 618.359375 884.726562 609.101562 L 782.351562 567.179688 " />
<g clip-path="url(#clip-2)">
<g clip-path="url(#clip-3)">
<path fill-rule="evenodd" fill="rgb(98.4375%, 50.976562%, 32.200623%)" fill-opacity="1" d="M 772.421875 574.359375 C 792.152344 618.351562 858.457031 657.25 911.601562 627.410156 L 911.601562 588.140625 L 772.421875 548.320312 L 772.421875 574.359375 " />
</g>
</g>
<path fill-rule="evenodd" fill="rgb(25.488281%, 12.5%, 17.601013%)" fill-opacity="1" d="M 928.191406 388.019531 C 921.265625 436.851562 944.78125 607.421875 928.191406 618.578125 C 893.554688 641.898438 743.757812 568.171875 723.363281 517.789062 C 707.136719 477.710938 711.5 354.269531 705.347656 348.078125 C 682.355469 324.960938 663.089844 198.511719 816.109375 200.25 C 961.070312 201.910156 939.183594 310.53125 928.191406 388.019531 Z M 740.207031 257.398438 C 744.566406 251.410156 788.839844 280.671875 830.476562 277.050781 C 857.71875 274.679688 874.59375 251.140625 897.082031 257.398438 C 906.671875 260.070312 923.792969 283.808594 926.578125 309.839844 C 931.378906 354.710938 917.476562 413.859375 914.292969 433.691406 C 912.386719 445.558594 881.621094 435.769531 844.695312 435.898438 C 802.761719 436.039062 762.296875 480.871094 740.207031 455.53125 C 727.109375 440.511719 729.453125 403.609375 729.625 364.199219 C 729.804688 322.011719 721.59375 282.988281 740.207031 257.398438 " />
<g clip-path="url(#clip-4)">
<g clip-path="url(#clip-5)">
<path fill-rule="evenodd" fill="rgb(21.18988%, 10.78949%, 14.988708%)" fill-opacity="1" d="M 934.292969 338.71875 L 914.292969 348.078125 L 902.777344 430.5 C 922.085938 467.589844 941.148438 634.828125 886.730469 620.269531 L 902.777344 630.351562 L 945.402344 630.351562 L 946.304688 348.078125 L 934.292969 338.71875 " />
</g>
</g>
<g clip-path="url(#clip-6)">
<g clip-path="url(#clip-7)">
<path fill-rule="evenodd" fill="rgb(21.18988%, 11.009216%, 14.892578%)" fill-opacity="1" d="M 841.480469 524.050781 C 853.640625 529.339844 865.015625 528.710938 875.238281 519.421875 C 885.671875 509.941406 826.378906 517.480469 841.480469 524.050781 " />
</g>
</g>
<g clip-path="url(#clip-8)">
<g clip-path="url(#clip-9)">
<path fill-rule="evenodd" fill="rgb(21.18988%, 11.009216%, 14.892578%)" fill-opacity="1" d="M 902.777344 260.710938 C 879.523438 238.621094 848.949219 273.609375 823.609375 271.421875 C 796.773438 269.109375 764.730469 252.511719 740.871094 250.558594 C 727.105469 249.429688 711.078125 319.359375 729.507812 377.46875 L 902.777344 260.710938 " />
</g>
</g>
<path fill-rule="evenodd" fill="rgb(100%, 100%, 100%)" fill-opacity="1" d="M 814.5625 484.660156 L 886.492188 473.179688 C 879.144531 518.058594 827.421875 510.339844 814.5625 484.660156 " />
<path fill-rule="evenodd" fill="rgb(90.625%, 48.193359%, 30.200195%)" fill-opacity="1" d="M 734.25 609.101562 L 690.351562 1288.21875 L 564.359375 1288.21875 L 656.957031 685.441406 L 734.25 609.101562 " />
<g clip-path="url(#clip-10)">
<g clip-path="url(#clip-11)">
<path fill-rule="evenodd" fill="rgb(83.006287%, 35.693359%, 16.992188%)" fill-opacity="1" d="M 648.96875 756.828125 L 661.546875 1269.148438 L 550.019531 1145.148438 L 648.96875 756.828125 " />
</g>
</g>
<path fill-rule="evenodd" fill="rgb(99.609375%, 65.039062%, 49.388123%)" fill-opacity="1" d="M 628.710938 1358.898438 L 655.042969 1392.578125 L 712.40625 1306.761719 C 712.40625 1306.761719 749.546875 1324.101562 755.875 1306.761719 C 764.371094 1283.46875 722.695312 1290.171875 712.40625 1284.25 C 705.203125 1280.109375 686.210938 1274.539062 686.210938 1274.539062 L 641.828125 1306.761719 L 628.710938 1358.898438 " />
<path fill-rule="evenodd" fill="rgb(98.046875%, 77.539062%, 63.084412%)" fill-opacity="1" d="M 589.503906 1338.53125 C 595.855469 1348.351562 604.101562 1356.648438 615.867188 1362.109375 C 620.386719 1364.210938 625.753906 1362.851562 628.734375 1358.859375 C 641.394531 1341.910156 675.859375 1295.738281 688.984375 1278.160156 C 692.128906 1273.941406 691.679688 1268.058594 687.9375 1264.371094 C 680.550781 1257.03125 672.082031 1251.339844 661.882812 1248.289062 L 607.882812 1280.5 L 589.503906 1338.53125 " />
<path fill-rule="evenodd" fill="rgb(90.625%, 48.193359%, 30.200195%)" fill-opacity="1" d="M 734.25 609.101562 C 734.25 609.101562 639.390625 616.808594 605.617188 645.941406 C 492.613281 743.429688 432.46875 1053.011719 450.730469 1182.101562 C 461.929688 1261.261719 589.503906 1338.53125 589.503906 1338.53125 L 661.882812 1248.289062 C 661.882812 1248.289062 601.085938 1151.800781 599.492188 1129.5 C 596.757812 1091.191406 661.882812 774.800781 661.882812 774.800781 L 734.25 609.101562 " />
<path fill-rule="evenodd" fill="rgb(90.625%, 48.193359%, 30.200195%)" fill-opacity="1" d="M 899.949219 627.410156 C 1163.679688 636.621094 1235.988281 1127.929688 1085.070312 1333.558594 L 1030.679688 1333.558594 L 899.949219 627.410156 " />
<path fill-rule="evenodd" fill="rgb(90.625%, 48.193359%, 30.200195%)" fill-opacity="1" d="M 899.949219 627.410156 C 1020.25 749.25 980.125 1137.511719 995.929688 1248.289062 C 1004.160156 1305.949219 1049.320312 1363.089844 1049.320312 1363.089844 L 1031.410156 736.261719 L 899.949219 627.410156 " />
<path fill-rule="evenodd" fill="rgb(25.488281%, 12.5%, 17.601013%)" fill-opacity="1" d="M 815.625 328.03125 C 813.046875 324.460938 810.472656 321.550781 807.234375 318.929688 C 803.832031 316.179688 800.058594 314.308594 796.128906 312.839844 C 792.867188 311.628906 789.464844 310.960938 786.085938 310.699219 C 780.863281 310.308594 775.679688 310.988281 770.78125 312.328125 C 765.78125 313.699219 761.070312 315.738281 756.851562 318.550781 C 747.371094 324.871094 740.210938 334.21875 737.761719 346.25 C 737.484375 347.140625 737.976562 348.078125 738.855469 348.359375 C 739.738281 348.628906 740.679688 348.140625 740.957031 347.261719 C 745.695312 336.328125 754.800781 329.378906 765.414062 326.058594 C 769.921875 324.648438 774.679688 324.191406 779.550781 324.148438 C 782.65625 324.128906 785.78125 324.410156 788.949219 324.808594 C 791.3125 325.101562 793.671875 325.328125 796.066406 325.800781 C 798.507812 326.269531 800.878906 326.710938 803.359375 327.378906 C 806.816406 328.328125 810.050781 329.058594 813.503906 330.621094 C 814.21875 331.210938 815.273438 331.101562 815.859375 330.390625 C 816.445312 329.671875 816.339844 328.621094 815.625 328.03125 " />
<path fill-rule="evenodd" fill="rgb(25.488281%, 12.5%, 17.601013%)" fill-opacity="1" d="M 859.722656 329.019531 C 862.78125 327.601562 865.527344 326.949219 868.511719 326 C 870.640625 325.328125 872.632812 324.890625 874.691406 324.371094 C 876.6875 323.859375 878.648438 323.589844 880.59375 323.230469 C 883.179688 322.738281 885.714844 322.339844 888.261719 322.25 C 892.21875 322.109375 896.121094 322.300781 899.960938 323.46875 C 908.382812 326.039062 916.296875 331.488281 922.609375 340.691406 C 923.039062 341.511719 924.050781 341.828125 924.867188 341.398438 C 925.6875 340.96875 926.007812 339.960938 925.578125 339.140625 C 921.613281 328.621094 915.410156 320.960938 908.027344 315.769531 C 904.21875 313.089844 900.0625 311.300781 895.726562 310.121094 C 891.28125 308.921875 886.617188 308.460938 881.964844 309.078125 C 878.984375 309.480469 875.996094 310.289062 873.179688 311.640625 C 869.878906 313.21875 866.734375 315.128906 863.96875 317.898438 C 861.398438 320.46875 859.480469 323.160156 857.472656 326.539062 C 856.789062 327.160156 856.738281 328.21875 857.359375 328.910156 C 857.980469 329.589844 859.039062 329.640625 859.722656 329.019531 " />
<path fill-rule="evenodd" fill="rgb(100%, 100%, 100%)" fill-opacity="1" d="M 764.386719 366.511719 C 764.386719 378.261719 773.917969 387.800781 785.675781 387.800781 C 797.4375 387.800781 806.96875 378.261719 806.96875 366.511719 L 764.386719 366.511719 " />
<g clip-path="url(#clip-14)">
<g clip-path="url(#clip-15)">
<path fill-rule="evenodd" fill="rgb(0%, 0%, 0%)" fill-opacity="1" d="M 797.210938 363.460938 C 802.597656 363.460938 806.96875 367.839844 806.96875 373.21875 C 806.96875 378.609375 802.597656 382.980469 797.210938 382.980469 C 791.828125 382.980469 787.457031 378.609375 787.457031 373.21875 C 787.457031 367.839844 791.828125 363.460938 797.210938 363.460938 " />
</g>
</g>
<g clip-path="url(#clip-16)">
<g clip-path="url(#clip-17)">
<path fill-rule="evenodd" fill="rgb(100%, 100%, 100%)" fill-opacity="1" d="M 800.398438 376.410156 C 798.640625 376.410156 797.210938 374.980469 797.210938 373.21875 C 797.210938 371.460938 798.640625 370.03125 800.398438 370.03125 C 802.160156 370.03125 803.589844 371.460938 803.589844 373.21875 C 803.589844 374.980469 802.160156 376.410156 800.398438 376.410156 " />
</g>
</g>
<path fill-rule="evenodd" fill="rgb(100%, 100%, 100%)" fill-opacity="1" d="M 872.058594 366.511719 C 872.058594 378.261719 881.589844 387.800781 893.347656 387.800781 C 905.109375 387.800781 914.640625 378.261719 914.640625 366.511719 L 872.058594 366.511719 " />
<g clip-path="url(#clip-18)">
<g clip-path="url(#clip-19)">
<path fill-rule="evenodd" fill="rgb(0%, 0%, 0%)" fill-opacity="1" d="M 904.882812 363.460938 C 910.269531 363.460938 914.640625 367.839844 914.640625 373.21875 C 914.640625 378.609375 910.269531 382.980469 904.882812 382.980469 C 899.5 382.980469 895.128906 378.609375 895.128906 373.21875 C 895.128906 367.839844 899.5 363.460938 904.882812 363.460938 " />
</g>
</g>
<g clip-path="url(#clip-20)">
<g clip-path="url(#clip-21)">
<path fill-rule="evenodd" fill="rgb(100%, 100%, 100%)" fill-opacity="1" d="M 908.070312 376.410156 C 906.3125 376.410156 904.882812 374.980469 904.882812 373.21875 C 904.882812 371.460938 906.3125 370.03125 908.070312 370.03125 C 909.832031 370.03125 911.261719 371.460938 911.261719 373.21875 C 911.261719 374.980469 909.832031 376.410156 908.070312 376.410156 " />
</g>
</g>
</svg>