<?xml version="1.0" encoding="UTF-8"?>
<svg xmlns="http://www.w3.org/2000/svg" width="1300" height="2500" viewBox="1850 0 1300 2500"><defs>
<clipPath id="clip-0">
<path clip-rule="nonzero" d="M 655 1351 L 746 1351 L 746 2317 L 655 2317 Z M 655 1351 " />
</clipPath>
<clipPath id="clip-1">
<path clip-rule="evenodd" d="M 1049.320312 1363.089844 L 952.242188 2323.898438 L 883.292969 2323.898438 L 859.351562 1415.308594 L 834.285156 1415.308594 L 729.175781 2323.898438 L 660.226562 2323.898438 L 640.289062 1363.089844 L 691.074219 1168.191406 L 1012.640625 1168.191406 Z M 1049.320312 1363.089844 " />
</clipPath>
<clipPath id="clip-2">
<path clip-rule="nonzero" d="M 772 567 L 903 567 L 903 638 L 772 638 Z M 772 567 " />
</clipPath>
<clipPath id="clip-3">
<path clip-rule="evenodd" d="M 782.351562 567.179688 C 784.050781 585.859375 779.238281 604.71875 734.25 609.101562 C 776.96875 795.648438 924.960938 838.660156 899.949219 627.410156 C 887.074219 624.980469 883.09375 618.359375 884.726562 609.101562 Z M 782.351562 567.179688 " />
</clipPath>
<clipPath id="clip-4">
<path clip-rule="nonzero" d="M 886 338 L 937 338 L 937 624 L 886 624 Z M 886 338 " />
</clipPath>
<clipPath id="clip-5">
<path clip-rule="evenodd" d="M 928.191406 388.019531 C 921.265625 436.851562 944.78125 607.421875 928.191406 618.578125 C 893.554688 641.898438 743.757812 568.171875 723.363281 517.789062 C 707.136719 477.710938 711.5 354.269531 705.347656 348.078125 C 682.355469 324.960938 663.089844 198.511719 816.109375 200.25 C 961.070312 201.910156 939.183594 310.53125 928.191406 388.019531 Z M 740.207031 257.398438 C 744.566406 251.410156 788.839844 280.671875 830.476562 277.050781 C 857.71875 274.679688 874.59375 251.140625 897.082031 257.398438 C 906.671875 260.070312 923.792969 283.808594 926.578125 309.839844 C 931.378906 354.710938 917.476562 413.859375 914.292969 433.691406 C 912.386719 445.558594 881.621094 435.769531 844.695312 435.898438 C 802.761719 436.039062 762.296875 480.871094 740.207031 455.53125 C 727.109375 440.511719 729.453125 403.609375 729.625 364.199219 C 729.804688 322.011719 721.59375 282.988281 740.207031 257.398438 Z M 740.207031 257.398438 " />
</clipPath>
<clipPath id="clip-6">
<path clip-rule="nonzero" d="M 839 514 L 877 514 L 877 528 L 839 528 Z M 839 514 " />
</clipPath>
<clipPath id="clip-7">
<path clip-rule="evenodd" d="M 928.191406 388.019531 C 921.265625 436.851562 944.78125 607.421875 928.191406 618.578125 C 893.554688 641.898438 743.757812 568.171875 723.363281 517.789062 C 707.136719 477.710938 711.5 354.269531 705.347656 348.078125 C 682.355469 324.960938 663.089844 198.511719 816.109375 200.25 C 961.070312 201.910156 939.183594 310.53125 928.191406 388.019531 Z M 740.207031 257.398438 C 744.566406 251.410156 788.839844 280.671875 830.476562 277.050781 C 857.71875 274.679688 874.59375 251.140625 897.082031 257.398438 C 906.671875 260.070312 923.792969 283.808594 926.578125 309.839844 C 931.378906 354.710938 917.476562 413.859375 914.292969 433.691406 C 912.386719 445.558594 881.621094 435.769531 844.695312 435.898438 C 802.761719 436.039062 762.296875 480.871094 740.207031 455.53125 C 727.109375 440.511719 729.453125 403.609375 729.625 364.199219 C 729.804688 322.011719 721.59375 282.988281 740.207031 257.398438 Z M 740.207031 257.398438 " />
</clipPath>
<clipPath id="clip-8">
<path clip-rule="nonzero" d="M 721 250 L 903 250 L 903 378 L 721 378 Z M 721 250 " />
</clipPath>
<clipPath id="clip-9">
<path clip-rule="evenodd" d="M 928.191406 388.019531 C 921.265625 436.851562 944.78125 607.421875 928.191406 618.578125 C 893.554688 641.898438 743.757812 568.171875 723.363281 517.789062 C 707.136719 477.710938 711.5 354.269531 705.347656 348.078125 C 682.355469 324.960938 663.089844 198.511719 816.109375 200.25 C 961.070312 201.910156 939.183594 310.53125 928.191406 388.019531 Z M 740.207031 257.398438 C 744.566406 251.410156 788.839844 280.671875 830.476562 277.050781 C 857.71875 274.679688 874.59375 251.140625 897.082031 257.398438 C 906.671875 260.070312 923.792969 283.808594 926.578125 309.839844 C 931.378906 354.710938 917.476562 413.859375 914.292969 433.691406 C 912.386719 445.558594 881.621094 435.769531 844.695312 435.898438 C 802.761719 436.039062 762.296875 480.871094 740.207031 455.53125 C 727.109375 440.511719 729.453125 403.609375 729.625 364.199219 C 729.804688 322.011719 721.59375 282.988281 740.207031 257.398438 Z M 740.207031 257.398438 " />
</clipPath>
<clipPath id="clip-10">
<path clip-rule="nonzero" d="M 564 756 L 662 756 L 662 1270 L 564 1270 Z M 564 756 " />
</clipPath>
<clipPath id="clip-11">
<path clip-rule="evenodd" d="M 734.25 609.101562 L 690.351562 1288.21875 L 564.359375 1288.21875 L 656.957031 685.441406 Z M 734.25 609.101562 " />
</clipPath>
<clipPath id="clip-12">
<path clip-rule="nonzero" d="M 1015 790 L 1099 790 L 1099 1310 L 1015 1310 Z M 1015 790 " />
</clipPath>
<clipPath id="clip-13">
<path clip-rule="evenodd" d="M 899.949219 627.410156 C 1163.679688 636.621094 1235.988281 1127.929688 1085.070312 1333.558594 L 1030.679688 1333.558594 Z M 899.949219 627.410156 " />
</clipPath>
<clipPath id="clip-14">
<path clip-rule="nonzero" d="M 787 366 L 807 366 L 807 383 L 787 383 Z M 787 366 " />
</clipPath>
<clipPath id="clip-15">
<path clip-rule="evenodd" d="M 764.386719 366.511719 C 764.386719 378.261719 773.917969 387.800781 785.675781 387.800781 C 797.4375 387.800781 806.96875 378.261719 806.96875 366.511719 Z M 764.386719 366.511719 " />
</clipPath>
<clipPath id="clip-16">
<path clip-rule="nonzero" d="M 797 370 L 804 370 L 804 377 L 797 377 Z M 797 370 " />
</clipPath>
<clipPath id="clip-17">
<path clip-rule="evenodd" d="M 764.386719 366.511719 C 764.386719 378.261719 773.917969 387.800781 785.675781 387.800781 C 797.4375 387.800781 806.96875 378.261719 806.96875 366.511719 Z M 764.386719 366.511719 " />
</clipPath>
<clipPath id="clip-18">
<path clip-rule="nonzero" d="M 895 366 L 915 366 L 915 383 L 895 383 Z M 895 366 " />
</clipPath>
<clipPath id="clip-19">
<path clip-rule="evenodd" d="M 872.058594 366.511719 C 872.058594 378.261719 881.589844 387.800781 893.347656 387.800781 C 905.109375 387.800781 914.640625 378.261719 914.640625 366.511719 Z M 872.058594 366.511719 " />
</clipPath>
<clipPath id="clip-20">
<path clip-rule="nonzero" d="M 904 370 L 912 370 L 912 377 L 904 377 Z M 904 370 " />
</clipPath>
<clipPath id="clip-21">
<path clip-rule="evenodd" d="M 872.058594 366.511719 C 872.058594 378.261719 881.589844 387.800781 893.347656 387.800781 C 905.109375 387.800781 914.640625 378.261719 914.640625 366.511719 Z M 872.058594 366.511719 " />
</clipPath>
<clipPath id="clip-22">
<path clip-rule="nonzero" d="M 1476 1242 L 1555 1242 L 1555 1585 L 1476 1585 Z M 1476 1242 " />
</clipPath>
<clipPath id="clip-23">
<path clip-rule="evenodd" d="M 1554.070312 1242.128906 C 1539.410156 1306.871094 1541.789062 1375 1530.019531 1440.898438 C 1519.058594 1502.265625 1494.128906 1561.546875 1476.050781 1618.183594 C 1488.039062 1643.472656 1436.210938 1759.570312 1417.890625 1731.332031 C 1411.050781 1738.328125 1395.121094 1736.8125 1395.859375 1724.925781 C 1359.589844 1727.171875 1395.628906 1684.144531 1412.070312 1644.839844 C 1414.148438 1639.886719 1412.75 1636.105469 1411.871094 1635.835938 C 1398.199219 1631.644531 1387.339844 1670.894531 1374.378906 1666.296875 C 1353.671875 1658.949219 1405.089844 1585.261719 1436.75 1584.242188 C 1459.578125 1471.859375 1461.429688 1358.25 1467.46875 1242.128906 Z M 1554.070312 1242.128906 " />
</clipPath>
<clipPath id="clip-24">
<path clip-rule="nonzero" d="M 1674 1977 L 1759 1977 L 1759 2042 L 1674 2042 Z M 1674 1977 " />
</clipPath>
<clipPath id="clip-25">
<path clip-rule="evenodd" d="M 1674.691406 1952.035156 L 1689.308594 2326.703125 L 1724.261719 2326.703125 L 1758.628906 1952.035156 Z M 1674.691406 1952.035156 " />
</clipPath>
<clipPath id="clip-26">
<path clip-rule="nonzero" d="M 1540 1977 L 1624 1977 L 1624 2042 L 1540 2042 Z M 1540 1977 " />
</clipPath>
<clipPath id="clip-27">
<path clip-rule="evenodd" d="M 1623.941406 1952.035156 L 1609.320312 2326.703125 L 1574.371094 2326.703125 L 1540 1952.035156 Z M 1623.941406 1952.035156 " />
</clipPath>
<clipPath id="clip-28">
<path clip-rule="nonzero" d="M 1508 1403 L 1760 1403 L 1760 1442 L 1508 1442 Z M 1508 1403 " />
</clipPath>
<clipPath id="clip-29">
<path clip-rule="evenodd" d="M 1923.941406 1998.148438 C 1730.660156 2021.605469 1537.378906 2021.195312 1344.089844 1998.148438 L 1524.25 1403.078125 L 1743.78125 1403.078125 Z M 1923.941406 1998.148438 " />
</clipPath>
<clipPath id="clip-30">
<path clip-rule="nonzero" d="M 1655 1403 L 1924 1403 L 1924 2016 L 1655 2016 Z M 1655 1403 " />
</clipPath>
<clipPath id="clip-31">
<path clip-rule="evenodd" d="M 1923.941406 1998.148438 C 1730.660156 2021.605469 1537.378906 2021.195312 1344.089844 1998.148438 L 1524.25 1403.078125 L 1743.78125 1403.078125 Z M 1923.941406 1998.148438 " />
</clipPath>
<clipPath id="clip-32">
<path clip-rule="nonzero" d="M 1741 1246 L 1834 1246 L 1834 1450 L 1741 1450 Z M 1741 1246 " />
</clipPath>
<clipPath id="clip-33">
<path clip-rule="evenodd" d="M 1827.660156 1246.210938 C 1835.359375 1374.171875 1836.628906 1499.359375 1833.398438 1622.621094 C 1851.96875 1643.558594 1834.601562 1769.507812 1809.128906 1747.503906 C 1804.511719 1756.132812 1788.789062 1759.121094 1786.179688 1747.503906 C 1751.980469 1759.777344 1774.578125 1708.40625 1779.398438 1666.074219 C 1780.011719 1660.738281 1777.609375 1657.496094 1776.691406 1657.480469 C 1762.390625 1657.277344 1762.929688 1697.992188 1749.191406 1697.195312 C 1727.25 1695.925781 1756.070312 1610.808594 1786.179688 1601 C 1776.738281 1486.710938 1760.949219 1369.769531 1749.191406 1255.480469 Z M 1827.660156 1246.210938 " />
</clipPath>
<clipPath id="clip-34">
<path clip-rule="nonzero" d="M 1536 659 L 1859 659 L 1859 1197 L 1536 1197 Z M 1536 659 " />
</clipPath>
<clipPath id="clip-35">
<path clip-rule="evenodd" d="M 1494.28125 861.640625 C 1468.78125 817.300781 1449.78125 792.410156 1454.558594 767.871094 C 1477.910156 648.171875 1568.390625 603.738281 1616.070312 608.128906 C 1658.039062 611.980469 1686.449219 654.898438 1686.449219 654.898438 C 1686.449219 654.898438 1733.191406 647.5 1751.898438 659.050781 C 1783.050781 678.28125 1771.421875 740.210938 1800.300781 789.488281 C 1839.5 856.351562 1882.53125 865.179688 1885.691406 919.449219 C 1887.890625 957.148438 1864.320312 976.101562 1867.160156 1011.449219 C 1870.210938 1049.480469 1908.191406 1070.949219 1893.410156 1121.550781 C 1883.351562 1156.011719 1833.75 1202.648438 1791.480469 1196.128906 C 1742.839844 1188.621094 1634.019531 1065.949219 1634.019531 1065.949219 L 1606.578125 882.820312 Z M 1494.28125 861.640625 " />
</clipPath>
<clipPath id="clip-36">
<path clip-rule="nonzero" d="M 1495 1143 L 1531 1143 L 1531 1269 L 1495 1269 Z M 1495 1143 " />
</clipPath>
<clipPath id="clip-37">
<path clip-rule="evenodd" d="M 1530.019531 1084.339844 C 1472.929688 1099.121094 1436.089844 1153.230469 1419.039062 1245.769531 C 1452.671875 1264.398438 1490.191406 1269.890625 1530.019531 1267.609375 Z M 1530.019531 1084.339844 " />
</clipPath>
<clipPath id="clip-38">
<path clip-rule="nonzero" d="M 1714 1159 L 1760 1159 L 1760 1427 L 1714 1427 Z M 1714 1159 " />
</clipPath>
<clipPath id="clip-39">
<path clip-rule="evenodd" d="M 1634.019531 1065.949219 L 1557.929688 1075.730469 L 1530.019531 1084.339844 C 1530.019531 1084.339844 1512.710938 1330.390625 1508.160156 1395.128906 C 1507.550781 1403.808594 1514.128906 1410.230469 1522.558594 1412.359375 C 1598.640625 1431.660156 1672.890625 1431.140625 1745.460938 1412.351562 C 1753.890625 1410.171875 1760.480469 1403.800781 1759.871094 1395.121094 C 1755.308594 1330.351562 1738.011719 1084.339844 1738.011719 1084.339844 L 1707.28125 1075.730469 Z M 1634.019531 1065.949219 " />
</clipPath>
<clipPath id="clip-40">
<path clip-rule="nonzero" d="M 1554 1084 L 1715 1084 L 1715 1155 L 1554 1155 Z M 1554 1084 " />
</clipPath>
<clipPath id="clip-41">
<path clip-rule="evenodd" d="M 1634.019531 1065.949219 L 1557.929688 1075.730469 L 1530.019531 1084.339844 C 1530.019531 1084.339844 1512.710938 1330.390625 1508.160156 1395.128906 C 1507.550781 1403.808594 1514.128906 1410.230469 1522.558594 1412.359375 C 1598.640625 1431.660156 1672.890625 1431.140625 1745.460938 1412.351562 C 1753.890625 1410.171875 1760.480469 1403.800781 1759.871094 1395.121094 C 1755.308594 1330.351562 1738.011719 1084.339844 1738.011719 1084.339844 L 1707.28125 1075.730469 Z M 1634.019531 1065.949219 " />
</clipPath>
<clipPath id="clip-42">
<path clip-rule="nonzero" d="M 1575 953 L 1693 953 L 1693 1019 L 1575 1019 Z M 1575 953 " />
</clipPath>
<clipPath id="clip-43">
<path clip-rule="evenodd" d="M 1692.441406 1065.949219 C 1653.488281 1088.46875 1614.539062 1092.378906 1575.589844 1065.949219 C 1601.558594 1060.199219 1605.988281 1016.039062 1606.769531 953.21875 L 1659.941406 953.21875 C 1659.691406 1007.109375 1665.449219 1054.609375 1692.441406 1065.949219 Z M 1692.441406 1065.949219 " />
</clipPath>
<clipPath id="clip-44">
<path clip-rule="nonzero" d="M 1664 821 L 1686 821 L 1686 850 L 1664 850 Z M 1664 821 " />
</clipPath>
<clipPath id="clip-45">
<path clip-rule="evenodd" d="M 1700.578125 828.910156 C 1700.578125 823.53125 1698.441406 818.359375 1694.640625 814.558594 C 1690.828125 810.75 1685.671875 808.609375 1680.289062 808.609375 C 1669.070312 808.609375 1659.988281 817.699219 1659.988281 828.910156 C 1659.988281 840.320312 1659.988281 852.300781 1659.988281 852.300781 L 1700.578125 852.300781 C 1700.578125 852.300781 1700.578125 840.320312 1700.578125 828.910156 Z M 1700.578125 828.910156 " />
</clipPath>
<clipPath id="clip-46">
<path clip-rule="nonzero" d="M 1675 826 L 1681 826 L 1681 835 L 1675 835 Z M 1675 826 " />
</clipPath>
<clipPath id="clip-47">
<path clip-rule="evenodd" d="M 1700.578125 828.910156 C 1700.578125 823.53125 1698.441406 818.359375 1694.640625 814.558594 C 1690.828125 810.75 1685.671875 808.609375 1680.289062 808.609375 C 1669.070312 808.609375 1659.988281 817.699219 1659.988281 828.910156 C 1659.988281 840.320312 1659.988281 852.300781 1659.988281 852.300781 L 1700.578125 852.300781 C 1700.578125 852.300781 1700.578125 840.320312 1700.578125 828.910156 Z M 1700.578125 828.910156 " />
</clipPath>
<clipPath id="clip-48">
<path clip-rule="nonzero" d="M 1550 821 L 1572 821 L 1572 850 L 1550 850 Z M 1550 821 " />
</clipPath>
<clipPath id="clip-49">
<path clip-rule="evenodd" d="M 1587.199219 828.910156 C 1587.199219 823.53125 1585.058594 818.359375 1581.25 814.558594 C 1577.449219 810.75 1572.28125 808.609375 1566.898438 808.609375 C 1555.691406 808.609375 1546.601562 817.699219 1546.601562 828.910156 C 1546.601562 840.320312 1546.601562 852.300781 1546.601562 852.300781 L 1587.199219 852.300781 C 1587.199219 852.300781 1587.199219 840.320312 1587.199219 828.910156 Z M 1587.199219 828.910156 " />
</clipPath>
<clipPath id="clip-50">
<path clip-rule="nonzero" d="M 1561 826 L 1567 826 L 1567 835 L 1561 835 Z M 1561 826 " />
</clipPath>
<clipPath id="clip-51">
<path clip-rule="evenodd" d="M 1587.199219 828.910156 C 1587.199219 823.53125 1585.058594 818.359375 1581.25 814.558594 C 1577.449219 810.75 1572.28125 808.609375 1566.898438 808.609375 C 1555.691406 808.609375 1546.601562 817.699219 1546.601562 828.910156 C 1546.601562 840.320312 1546.601562 852.300781 1546.601562 852.300781 L 1587.199219 852.300781 C 1587.199219 852.300781 1587.199219 840.320312 1587.199219 828.910156 Z M 1587.199219 828.910156 " />
</clipPath>
<clipPath id="clip-52">
<path clip-rule="nonzero" d="M 2396 1461 L 2505 1461 L 2505 2326 L 2396 2326 Z M 2396 1461 " />
</clipPath>
<clipPath id="clip-53">
<path clip-rule="evenodd" d="M 2685.800781 1227.890625 L 2259.878906 1227.890625 L 2257.238281 1431.761719 L 2353.789062 2325.125 L 2418.21875 2325.125 L 2441.410156 1484.710938 L 2504.238281 1484.710938 L 2527.429688 2325.125 L 2591.851562 2325.125 L 2688.449219 1431.761719 Z M 2685.800781 1227.890625 " />
</clipPath>
<clipPath id="clip-54">
<path clip-rule="nonzero" d="M 2257 1419 L 2350 1419 L 2350 1485 L 2257 1485 Z M 2257 1419 " />
</clipPath>
<clipPath id="clip-55">
<path clip-rule="evenodd" d="M 2685.800781 1227.890625 L 2259.878906 1227.890625 L 2257.238281 1431.761719 L 2353.789062 2325.125 L 2418.21875 2325.125 L 2441.410156 1484.710938 L 2504.238281 1484.710938 L 2527.429688 2325.125 L 2591.851562 2325.125 L 2688.449219 1431.761719 Z M 2685.800781 1227.890625 " />
</clipPath>
<clipPath id="clip-56">
<path clip-rule="nonzero" d="M 2566 1318 L 2689 1318 L 2689 2326 L 2566 2326 Z M 2566 1318 " />
</clipPath>
<clipPath id="clip-57">
<path clip-rule="evenodd" d="M 2685.800781 1227.890625 L 2259.878906 1227.890625 L 2257.238281 1431.761719 L 2353.789062 2325.125 L 2418.21875 2325.125 L 2441.410156 1484.710938 L 2504.238281 1484.710938 L 2527.429688 2325.125 L 2591.851562 2325.125 L 2688.449219 1431.761719 Z M 2685.800781 1227.890625 " />
</clipPath>
<clipPath id="clip-58">
<path clip-rule="nonzero" d="M 2333 1242 L 2619 1242 L 2619 1271 L 2333 1271 Z M 2333 1242 " />
</clipPath>
<clipPath id="clip-59">
<path clip-rule="evenodd" d="M 2685.800781 1227.890625 L 2259.878906 1227.890625 L 2257.238281 1431.761719 L 2353.789062 2325.125 L 2418.21875 2325.125 L 2441.410156 1484.710938 L 2504.238281 1484.710938 L 2527.429688 2325.125 L 2591.851562 2325.125 L 2688.449219 1431.761719 Z M 2685.800781 1227.890625 " />
</clipPath>
<clipPath id="clip-60">
<path clip-rule="nonzero" d="M 2337 670 L 2609 670 L 2609 1251 L 2337 1251 Z M 2337 670 " />
</clipPath>
<clipPath id="clip-61">
<path clip-rule="evenodd" d="M 2337.550781 1250.609375 L 2608.128906 1250.609375 L 2608.128906 736.96875 L 2579.890625 670.339844 L 2365.789062 670.339844 L 2337.550781 736.96875 Z M 2337.550781 1250.609375 " />
</clipPath>
<clipPath id="clip-62">
<path clip-rule="nonzero" d="M 2318 670 L 2366 670 L 2366 1465 L 2318 1465 Z M 2318 670 " />
</clipPath>
<clipPath id="clip-63">
<path clip-rule="evenodd" d="M 2361.210938 1388.929688 C 2361.058594 1412.628906 2341.800781 1431.761719 2318.109375 1431.761719 L 2251.910156 1431.761719 C 2242.21875 1467.539062 2237.441406 1510.410156 2234.070312 1555.316406 L 2160.378906 1571.863281 C 2037.699219 1153.289062 2125.191406 681.351562 2365.789062 670.339844 Z M 2361.210938 1388.929688 " />
</clipPath>
<clipPath id="clip-64">
<path clip-rule="nonzero" d="M 2416 580 L 2534 580 L 2534 642 L 2416 642 Z M 2416 580 " />
</clipPath>
<clipPath id="clip-65">
<path clip-rule="evenodd" d="M 2515.710938 580.539062 L 2429.96875 580.539062 C 2430.738281 615.25 2419.328125 644.480469 2391.601562 666.359375 C 2410.640625 692.988281 2437.300781 708.660156 2472.839844 711.589844 C 2508.378906 708.660156 2535.039062 692.988281 2554.078125 666.359375 C 2526.351562 644.480469 2514.941406 615.25 2515.710938 580.539062 Z M 2515.710938 580.539062 " />
</clipPath>
<clipPath id="clip-66">
<path clip-rule="nonzero" d="M 2567 670 L 2634 670 L 2634 1297 L 2567 1297 Z M 2567 670 " />
</clipPath>
<clipPath id="clip-67">
<path clip-rule="evenodd" d="M 2579.890625 670.339844 C 2579.890625 670.339844 2551.921875 1119.691406 2579.890625 1227.890625 C 2603.761719 1320.21875 2688.449219 1332.03125 2688.449219 1332.03125 L 2711.390625 1299.378906 L 2699.480469 796.539062 Z M 2579.890625 670.339844 " />
</clipPath>
<clipPath id="clip-68">
<path clip-rule="nonzero" d="M 2523 356 L 2545 356 L 2545 384 L 2523 384 Z M 2523 356 " />
</clipPath>
<clipPath id="clip-69">
<path clip-rule="evenodd" d="M 2559.621094 362.980469 C 2559.621094 357.601562 2557.480469 352.429688 2553.679688 348.628906 C 2549.871094 344.820312 2544.710938 342.679688 2539.320312 342.679688 C 2528.109375 342.679688 2519.019531 351.769531 2519.019531 362.980469 C 2519.019531 374.390625 2519.019531 386.371094 2519.019531 386.371094 L 2559.621094 386.371094 C 2559.621094 386.371094 2559.621094 374.390625 2559.621094 362.980469 Z M 2559.621094 362.980469 " />
</clipPath>
<clipPath id="clip-70">
<path clip-rule="nonzero" d="M 2534 360 L 2540 360 L 2540 369 L 2534 369 Z M 2534 360 " />
</clipPath>
<clipPath id="clip-71">
<path clip-rule="evenodd" d="M 2559.621094 362.980469 C 2559.621094 357.601562 2557.480469 352.429688 2553.679688 348.628906 C 2549.871094 344.820312 2544.710938 342.679688 2539.320312 342.679688 C 2528.109375 342.679688 2519.019531 351.769531 2519.019531 362.980469 C 2519.019531 374.390625 2519.019531 386.371094 2519.019531 386.371094 L 2559.621094 386.371094 C 2559.621094 386.371094 2559.621094 374.390625 2559.621094 362.980469 Z M 2559.621094 362.980469 " />
</clipPath>
<clipPath id="clip-72">
<path clip-rule="nonzero" d="M 2398 356 L 2420 356 L 2420 384 L 2398 384 Z M 2398 356 " />
</clipPath>
<clipPath id="clip-73">
<path clip-rule="evenodd" d="M 2435.179688 362.980469 C 2435.179688 357.601562 2433.039062 352.429688 2429.230469 348.628906 C 2425.421875 344.820312 2420.261719 342.679688 2414.878906 342.679688 C 2403.671875 342.679688 2394.578125 351.769531 2394.578125 362.980469 C 2394.578125 374.390625 2394.578125 386.371094 2394.578125 386.371094 L 2435.179688 386.371094 C 2435.179688 386.371094 2435.179688 374.390625 2435.179688 362.980469 Z M 2435.179688 362.980469 " />
</clipPath>
<clipPath id="clip-74">
<path clip-rule="nonzero" d="M 2409 360 L 2415 360 L 2415 369 L 2409 369 Z M 2409 360 " />
</clipPath>
<clipPath id="clip-75">
<path clip-rule="evenodd" d="M 2435.179688 362.980469 C 2435.179688 357.601562 2433.039062 352.429688 2429.230469 348.628906 C 2425.421875 344.820312 2420.261719 342.679688 2414.878906 342.679688 C 2403.671875 342.679688 2394.578125 351.769531 2394.578125 362.980469 C 2394.578125 374.390625 2394.578125 386.371094 2394.578125 386.371094 L 2435.179688 386.371094 C 2435.179688 386.371094 2435.179688 374.390625 2435.179688 362.980469 Z M 2435.179688 362.980469 " />
</clipPath>
<clipPath id="clip-76">
<path clip-rule="nonzero" d="M 2452 537 L 2491 537 L 2491 552 L 2452 552 Z M 2452 537 " />
</clipPath>
<clipPath id="clip-77">
<path clip-rule="evenodd" d="M 2639.820312 160.878906 C 2646.941406 211.039062 2634.269531 265.339844 2564.609375 273.039062 C 2464.5 284.089844 2409.050781 216.949219 2376.160156 234.351562 C 2334.558594 256.371094 2346.808594 371.148438 2346.808594 371.148438 C 2346.808594 371.148438 2369.980469 406.050781 2376.160156 424.539062 C 2383.148438 445.46875 2388.738281 496.691406 2388.738281 496.691406 L 2547.820312 496.691406 C 2547.820312 496.691406 2549.761719 452.488281 2557.519531 436.679688 C 2564.96875 421.5 2594.371094 401.820312 2594.371094 401.820312 C 2594.371094 401.820312 2633.609375 543.511719 2582.898438 580.761719 C 2538.699219 613.230469 2371.628906 631.109375 2330.710938 573.921875 C 2287.46875 513.5 2329.578125 310.398438 2323.210938 270.980469 C 2268.578125 234.28125 2327.921875 160.699219 2367.78125 183.390625 C 2389.691406 149.148438 2433.011719 128.980469 2472.839844 128.671875 C 2556.109375 128 2564.019531 225.648438 2639.820312 160.878906 Z M 2639.820312 160.878906 " />
</clipPath>
<clipPath id="clip-78">
<path clip-rule="nonzero" d="M 2301 509 L 2622 509 L 2622 612 L 2301 612 Z M 2301 509 " />
</clipPath>
<clipPath id="clip-79">
<path clip-rule="evenodd" d="M 2639.820312 160.878906 C 2646.941406 211.039062 2634.269531 265.339844 2564.609375 273.039062 C 2464.5 284.089844 2409.050781 216.949219 2376.160156 234.351562 C 2334.558594 256.371094 2346.808594 371.148438 2346.808594 371.148438 C 2346.808594 371.148438 2369.980469 406.050781 2376.160156 424.539062 C 2383.148438 445.46875 2388.738281 496.691406 2388.738281 496.691406 L 2547.820312 496.691406 C 2547.820312 496.691406 2549.761719 452.488281 2557.519531 436.679688 C 2564.96875 421.5 2594.371094 401.820312 2594.371094 401.820312 C 2594.371094 401.820312 2633.609375 543.511719 2582.898438 580.761719 C 2538.699219 613.230469 2371.628906 631.109375 2330.710938 573.921875 C 2287.46875 513.5 2329.578125 310.398438 2323.210938 270.980469 C 2268.578125 234.28125 2327.921875 160.699219 2367.78125 183.390625 C 2389.691406 149.148438 2433.011719 128.980469 2472.839844 128.671875 C 2556.109375 128 2564.019531 225.648438 2639.820312 160.878906 Z M 2639.820312 160.878906 " />
</clipPath>
<clipPath id="clip-80">
<path clip-rule="nonzero" d="M 2343 219 L 2629 219 L 2629 318 L 2343 318 Z M 2343 219 " />
</clipPath>
<clipPath id="clip-81">
<path clip-rule="evenodd" d="M 2639.820312 160.878906 C 2646.941406 211.039062 2634.269531 265.339844 2564.609375 273.039062 C 2464.5 284.089844 2409.050781 216.949219 2376.160156 234.351562 C 2334.558594 256.371094 2346.808594 371.148438 2346.808594 371.148438 C 2346.808594 371.148438 2369.980469 406.050781 2376.160156 424.539062 C 2383.148438 445.46875 2388.738281 496.691406 2388.738281 496.691406 L 2547.820312 496.691406 C 2547.820312 496.691406 2549.761719 452.488281 2557.519531 436.679688 C 2564.96875 421.5 2594.371094 401.820312 2594.371094 401.820312 C 2594.371094 401.820312 2633.609375 543.511719 2582.898438 580.761719 C 2538.699219 613.230469 2371.628906 631.109375 2330.710938 573.921875 C 2287.46875 513.5 2329.578125 310.398438 2323.210938 270.980469 C 2268.578125 234.28125 2327.921875 160.699219 2367.78125 183.390625 C 2389.691406 149.148438 2433.011719 128.980469 2472.839844 128.671875 C 2556.109375 128 2564.019531 225.648438 2639.820312 160.878906 Z M 2639.820312 160.878906 " />
</clipPath>
<clipPath id="clip-82">
<path clip-rule="nonzero" d="M 2336 146 L 2399 146 L 2399 204 L 2336 204 Z M 2336 146 " />
</clipPath>
<clipPath id="clip-83">
<path clip-rule="evenodd" d="M 2639.820312 160.878906 C 2646.941406 211.039062 2634.269531 265.339844 2564.609375 273.039062 C 2464.5 284.089844 2409.050781 216.949219 2376.160156 234.351562 C 2334.558594 256.371094 2346.808594 371.148438 2346.808594 371.148438 C 2346.808594 371.148438 2369.980469 406.050781 2376.160156 424.539062 C 2383.148438 445.46875 2388.738281 496.691406 2388.738281 496.691406 L 2547.820312 496.691406 C 2547.820312 496.691406 2549.761719 452.488281 2557.519531 436.679688 C 2564.96875 421.5 2594.371094 401.820312 2594.371094 401.820312 C 2594.371094 401.820312 2633.609375 543.511719 2582.898438 580.761719 C 2538.699219 613.230469 2371.628906 631.109375 2330.710938 573.921875 C 2287.46875 513.5 2329.578125 310.398438 2323.210938 270.980469 C 2268.578125 234.28125 2327.921875 160.699219 2367.78125 183.390625 C 2389.691406 149.148438 2433.011719 128.980469 2472.839844 128.671875 C 2556.109375 128 2564.019531 225.648438 2639.820312 160.878906 Z M 2639.820312 160.878906 " />
</clipPath>
<clipPath id="clip-84">
<path clip-rule="nonzero" d="M 2699 864 L 2727 864 L 2727 1052 L 2699 1052 Z M 2699 864 " />
</clipPath>
<clipPath id="clip-85">
<path clip-rule="evenodd" d="M 2579.890625 670.339844 C 2730.398438 660.539062 2839.601562 921.761719 2873.921875 1134.558594 C 2885.851562 1208.511719 2720.800781 1329.621094 2720.800781 1329.621094 L 2662.988281 1261.691406 L 2760.511719 1164.121094 L 2699.480469 1051.160156 Z M 2579.890625 670.339844 " />
</clipPath>
<clipPath id="clip-86">
<path clip-rule="nonzero" d="M 3531 1884 L 3633 1884 L 3633 1929 L 3531 1929 Z M 3531 1884 " />
</clipPath>
<clipPath id="clip-87">
<path clip-rule="evenodd" d="M 3531.378906 1884.960938 L 3549.078125 2325.125 L 3591.390625 2325.125 L 3632.988281 1884.960938 Z M 3531.378906 1884.960938 " />
</clipPath>
<clipPath id="clip-88">
<path clip-rule="nonzero" d="M 3388 1884 L 3491 1884 L 3491 1929 L 3388 1929 Z M 3388 1884 " />
</clipPath>
<clipPath id="clip-89">
<path clip-rule="evenodd" d="M 3490.570312 1884.960938 L 3472.871094 2325.125 L 3430.558594 2325.125 L 3388.949219 1884.960938 Z M 3490.570312 1884.960938 " />
</clipPath>
<clipPath id="clip-90">
<path clip-rule="nonzero" d="M 3625 1068 L 3742 1068 L 3742 1460 L 3625 1460 Z M 3625 1068 " />
</clipPath>
<clipPath id="clip-91">
<path clip-rule="evenodd" d="M 3727.328125 1077.53125 C 3736.789062 1135.949219 3716.011719 1351.730469 3718.289062 1428.019531 C 3719.378906 1464.539062 3745.171875 1506.894531 3741.011719 1535.246094 C 3737.199219 1561.269531 3705.261719 1621.582031 3693.359375 1598.128906 C 3674.179688 1560.347656 3631.238281 1395.308594 3625.941406 1308.539062 C 3621.191406 1230.769531 3644.648438 1116.039062 3661.550781 1077.53125 C 3670.359375 1057.460938 3723.828125 1055.890625 3727.328125 1077.53125 Z M 3727.328125 1077.53125 " />
</clipPath>
<clipPath id="clip-92">
<path clip-rule="nonzero" d="M 3304 1326 L 3718 1326 L 3718 1910 L 3304 1910 Z M 3304 1326 " />
</clipPath>
<clipPath id="clip-93">
<path clip-rule="evenodd" d="M 3717.410156 1899.300781 C 3577.671875 1912.476562 3440.039062 1912.449219 3304.53125 1899.300781 C 3304.53125 1899.300781 3330.589844 1505.285156 3340.640625 1353.210938 C 3342.828125 1320.070312 3370.351562 1294.308594 3403.558594 1294.308594 C 3464.128906 1294.308594 3557.820312 1294.308594 3618.378906 1294.308594 C 3651.589844 1294.308594 3679.109375 1320.070312 3681.300781 1353.210938 C 3691.359375 1505.285156 3717.410156 1899.300781 3717.410156 1899.300781 Z M 3717.410156 1899.300781 " />
</clipPath>
<clipPath id="clip-94">
<path clip-rule="nonzero" d="M 3347 378 L 3719 378 L 3719 898 L 3347 898 Z M 3347 378 " />
</clipPath>
<clipPath id="clip-95">
<path clip-rule="evenodd" d="M 3419.101562 840.898438 C 3381.25 792.648438 3283.890625 766.21875 3289.148438 706.089844 C 3302.351562 555.089844 3351.109375 410.929688 3451.140625 376.710938 C 3491.238281 363 3529.570312 365.820312 3559.210938 400.5 C 3629.738281 398.179688 3647.789062 439.011719 3656.261719 479.269531 C 3666.988281 530.269531 3757.71875 535.808594 3697.769531 673.210938 C 3660.351562 758.980469 3759.421875 811.398438 3623.410156 845.308594 L 3501.621094 897.160156 Z M 3419.101562 840.898438 " />
</clipPath>
<clipPath id="clip-96">
<path clip-rule="nonzero" d="M 3356 498 L 3402 498 L 3402 634 L 3356 634 Z M 3356 498 " />
</clipPath>
<clipPath id="clip-97">
<path clip-rule="evenodd" d="M 3419.101562 840.898438 C 3381.25 792.648438 3283.890625 766.21875 3289.148438 706.089844 C 3302.351562 555.089844 3351.109375 410.929688 3451.140625 376.710938 C 3491.238281 363 3529.570312 365.820312 3559.210938 400.5 C 3629.738281 398.179688 3647.789062 439.011719 3656.261719 479.269531 C 3666.988281 530.269531 3757.71875 535.808594 3697.769531 673.210938 C 3660.351562 758.980469 3759.421875 811.398438 3623.410156 845.308594 L 3501.621094 897.160156 Z M 3419.101562 840.898438 " />
</clipPath>
<clipPath id="clip-98">
<path clip-rule="nonzero" d="M 3293 1087 L 3384 1087 L 3384 1209 L 3293 1209 Z M 3293 1087 " />
</clipPath>
<clipPath id="clip-99">
<path clip-rule="evenodd" d="M 3302.609375 1087.351562 L 3293.691406 1174.738281 L 3312.960938 1208.261719 L 3383.53125 1200.101562 L 3383.53125 1087.351562 Z M 3302.609375 1087.351562 " />
</clipPath>
<clipPath id="clip-100">
<path clip-rule="nonzero" d="M 3335 947 L 3362 947 L 3362 1116 L 3335 1116 Z M 3335 947 " />
</clipPath>
<clipPath id="clip-101">
<path clip-rule="evenodd" d="M 3587.191406 836.898438 C 3701.191406 829.378906 3723.808594 932.851562 3741.011719 1087.351562 L 3660.921875 1108.730469 C 3660.75 1159.789062 3664.859375 1207.898438 3672.578125 1244.621094 C 3675.929688 1260.550781 3671.921875 1277.140625 3661.660156 1289.78125 C 3651.410156 1302.421875 3635.550781 1306.929688 3619.71875 1309.761719 C 3555.699219 1321.191406 3465.671875 1320.679688 3406.25 1309.761719 C 3389.539062 1306.679688 3372.761719 1302 3361.921875 1288.640625 C 3351.078125 1275.289062 3346.839844 1257.75 3350.378906 1240.921875 C 3358.011719 1204.640625 3361.011719 1158.421875 3361.738281 1108.859375 L 3281.171875 1087.351562 C 3298.390625 932.699219 3321.03125 829.179688 3435.320312 836.929688 L 3586.859375 836.929688 Z M 3587.191406 836.898438 " />
</clipPath>
<clipPath id="clip-102">
<path clip-rule="nonzero" d="M 3660 947 L 3688 947 L 3688 1116 L 3660 1116 Z M 3660 947 " />
</clipPath>
<clipPath id="clip-103">
<path clip-rule="evenodd" d="M 3587.191406 836.898438 C 3701.191406 829.378906 3723.808594 932.851562 3741.011719 1087.351562 L 3660.921875 1108.730469 C 3660.75 1159.789062 3664.859375 1207.898438 3672.578125 1244.621094 C 3675.929688 1260.550781 3671.921875 1277.140625 3661.660156 1289.78125 C 3651.410156 1302.421875 3635.550781 1306.929688 3619.71875 1309.761719 C 3555.699219 1321.191406 3465.671875 1320.679688 3406.25 1309.761719 C 3389.539062 1306.679688 3372.761719 1302 3361.921875 1288.640625 C 3351.078125 1275.289062 3346.839844 1257.75 3350.378906 1240.921875 C 3358.011719 1204.640625 3361.011719 1158.421875 3361.738281 1108.859375 L 3281.171875 1087.351562 C 3298.390625 932.699219 3321.03125 829.179688 3435.320312 836.929688 L 3586.859375 836.929688 Z M 3587.191406 836.898438 " />
</clipPath>
<clipPath id="clip-104">
<path clip-rule="nonzero" d="M 3299 1240 L 3716 1240 L 3716 1319 L 3299 1319 Z M 3299 1240 " />
</clipPath>
<clipPath id="clip-105">
<path clip-rule="evenodd" d="M 3587.191406 836.898438 C 3701.191406 829.378906 3723.808594 932.851562 3741.011719 1087.351562 L 3660.921875 1108.730469 C 3660.75 1159.789062 3664.859375 1207.898438 3672.578125 1244.621094 C 3675.929688 1260.550781 3671.921875 1277.140625 3661.660156 1289.78125 C 3651.410156 1302.421875 3635.550781 1306.929688 3619.71875 1309.761719 C 3555.699219 1321.191406 3465.671875 1320.679688 3406.25 1309.761719 C 3389.539062 1306.679688 3372.761719 1302 3361.921875 1288.640625 C 3351.078125 1275.289062 3346.839844 1257.75 3350.378906 1240.921875 C 3358.011719 1204.640625 3361.011719 1158.421875 3361.738281 1108.859375 L 3281.171875 1087.351562 C 3298.390625 932.699219 3321.03125 829.179688 3435.320312 836.929688 L 3586.859375 836.929688 Z M 3587.191406 836.898438 " />
</clipPath>
<clipPath id="clip-106">
<path clip-rule="nonzero" d="M 3457 723 L 3565 723 L 3565 787 L 3457 787 Z M 3457 723 " />
</clipPath>
<clipPath id="clip-107">
<path clip-rule="evenodd" d="M 3587.648438 831.878906 C 3537.550781 860.859375 3487.449219 865.878906 3437.351562 831.878906 C 3462.390625 824.148438 3479.089844 771.359375 3485.679688 686.878906 L 3539.320312 686.878906 C 3537.878906 765.859375 3552.171875 826.039062 3587.648438 831.878906 Z M 3587.648438 831.878906 " />
</clipPath>
<clipPath id="clip-108">
<path clip-rule="nonzero" d="M 3447 603 L 3469 603 L 3469 632 L 3447 632 Z M 3447 603 " />
</clipPath>
<clipPath id="clip-109">
<path clip-rule="evenodd" d="M 3438.089844 611.578125 C 3438.089844 606.199219 3440.230469 601.03125 3444.03125 597.230469 C 3447.839844 593.421875 3453 591.28125 3458.390625 591.28125 C 3469.601562 591.28125 3478.691406 600.371094 3478.691406 611.578125 C 3478.691406 622.988281 3478.691406 634.96875 3478.691406 634.96875 L 3438.089844 634.96875 C 3438.089844 634.96875 3438.089844 622.988281 3438.089844 611.578125 Z M 3438.089844 611.578125 " />
</clipPath>
<clipPath id="clip-110">
<path clip-rule="nonzero" d="M 3452 608 L 3458 608 L 3458 617 L 3452 617 Z M 3452 608 " />
</clipPath>
<clipPath id="clip-111">
<path clip-rule="evenodd" d="M 3438.089844 611.578125 C 3438.089844 606.199219 3440.230469 601.03125 3444.03125 597.230469 C 3447.839844 593.421875 3453 591.28125 3458.390625 591.28125 C 3469.601562 591.28125 3478.691406 600.371094 3478.691406 611.578125 C 3478.691406 622.988281 3478.691406 634.96875 3478.691406 634.96875 L 3438.089844 634.96875 C 3438.089844 634.96875 3438.089844 622.988281 3438.089844 611.578125 Z M 3438.089844 611.578125 " />
</clipPath>
<clipPath id="clip-112">
<path clip-rule="nonzero" d="M 3561 603 L 3583 603 L 3583 632 L 3561 632 Z M 3561 603 " />
</clipPath>
<clipPath id="clip-113">
<path clip-rule="evenodd" d="M 3551.46875 611.578125 C 3551.46875 606.199219 3553.609375 601.03125 3557.421875 597.230469 C 3561.230469 593.421875 3566.390625 591.28125 3571.769531 591.28125 C 3582.980469 591.28125 3592.070312 600.371094 3592.070312 611.578125 C 3592.070312 622.988281 3592.070312 634.96875 3592.070312 634.96875 L 3551.46875 634.96875 C 3551.46875 634.96875 3551.46875 622.988281 3551.46875 611.578125 Z M 3551.46875 611.578125 " />
</clipPath>
<clipPath id="clip-114">
<path clip-rule="nonzero" d="M 3566 608 L 3572 608 L 3572 617 L 3566 617 Z M 3566 608 " />
</clipPath>
<clipPath id="clip-115">
<path clip-rule="evenodd" d="M 3551.46875 611.578125 C 3551.46875 606.199219 3553.609375 601.03125 3557.421875 597.230469 C 3561.230469 593.421875 3566.390625 591.28125 3571.769531 591.28125 C 3582.980469 591.28125 3592.070312 600.371094 3592.070312 611.578125 C 3592.070312 622.988281 3592.070312 634.96875 3592.070312 634.96875 L 3551.46875 634.96875 C 3551.46875 634.96875 3551.46875 622.988281 3551.46875 611.578125 Z M 3551.46875 611.578125 " />
</clipPath>
<clipPath id="clip-116">
<path clip-rule="nonzero" d="M 3146 1182 L 3321 1182 L 3321 1373 L 3146 1373 Z M 3146 1182 " />
</clipPath>
<clipPath id="clip-117">
<path clip-rule="evenodd" d="M 3320.480469 1207.78125 C 3342.929688 1213.179688 3320.480469 1391.269531 3320.480469 1391.269531 L 3372.328125 1401.101562 C 3372.328125 1401.101562 3419.429688 1180.621094 3320.480469 1171.421875 C 3236.75 1163.628906 3146.390625 1340.199219 3146.390625 1340.199219 L 3182.140625 1357.859375 L 3245.570312 1274.128906 C 3245.570312 1274.128906 3297.640625 1202.28125 3320.480469 1207.78125 Z M 3320.480469 1207.78125 " />
</clipPath>
<clipPath id="clip-118">
<path clip-rule="nonzero" d="M 3055 1372 L 3406 1372 L 3406 1713 L 3055 1713 Z M 3055 1372 " />
</clipPath>
<clipPath id="clip-119">
<path clip-rule="evenodd" d="M 3129.179688 1326.839844 C 3153.53125 1322.730469 3253.710938 1385.011719 3380.050781 1385.96875 C 3422.878906 1386.300781 3409.800781 1654.898438 3356.21875 1695.679688 C 3302.640625 1736.460938 3104.949219 1695.992188 3066.960938 1633.75 C 3028.980469 1571.503906 3097.191406 1332.238281 3129.179688 1326.839844 Z M 3129.179688 1326.839844 " />
</clipPath>
<clipPath id="clip-120">
<path clip-rule="nonzero" d="M 3174 1326 L 3324 1326 L 3324 1467 L 3174 1467 Z M 3174 1326 " />
</clipPath>
<clipPath id="clip-121">
<path clip-rule="evenodd" d="M 3129.179688 1326.839844 C 3153.53125 1322.730469 3253.710938 1385.011719 3380.050781 1385.96875 C 3422.878906 1386.300781 3409.800781 1654.898438 3356.21875 1695.679688 C 3302.640625 1736.460938 3104.949219 1695.992188 3066.960938 1633.75 C 3028.980469 1571.503906 3097.191406 1332.238281 3129.179688 1326.839844 Z M 3129.179688 1326.839844 " />
</clipPath>
<clipPath id="clip-122">
<path clip-rule="nonzero" d="M 4043 204 L 4438 204 L 4438 805 L 4043 805 Z M 4043 204 " />
</clipPath>
<clipPath id="clip-123">
<path clip-rule="evenodd" d="M 4158.929688 527.140625 C 4052.640625 467.308594 4040.210938 408.058594 4044.558594 345.101562 C 4049.289062 276.558594 4044.648438 218.03125 4136.128906 179.898438 C 4182.621094 160.519531 4232.78125 166.648438 4265.160156 225.089844 C 4383.351562 217.898438 4365.710938 311.839844 4359.960938 352.621094 C 4357.71875 368.511719 4379.351562 377.839844 4382.210938 396.910156 C 4385 415.488281 4382.140625 443.449219 4388.828125 460.699219 C 4396.28125 479.878906 4427.519531 496.351562 4434.058594 514.230469 C 4441.550781 534.660156 4427.511719 553.441406 4434.058594 573.480469 C 4441.808594 597.148438 4500.628906 615.171875 4502.878906 655.988281 C 4504.871094 691.898438 4471.230469 716.199219 4469.140625 735.199219 C 4464.25 779.738281 4447.601562 805.980469 4403.839844 804.699219 L 4217.511719 674.53125 L 4211.21875 540.820312 Z M 4158.929688 527.140625 " />
</clipPath>
<clipPath id="clip-124">
<path clip-rule="nonzero" d="M 4046 1227 L 4391 1227 L 4391 1392 L 4046 1392 Z M 4046 1227 " />
</clipPath>
<clipPath id="clip-125">
<path clip-rule="evenodd" d="M 4387.910156 1227.890625 L 4048.730469 1227.890625 L 4046.621094 1431.761719 L 4123.519531 2325.125 L 4174.820312 2325.125 L 4192.570312 1451.839844 L 4242.601562 1451.839844 L 4261.789062 2325.125 L 4313.101562 2325.125 L 4390.019531 1431.761719 Z M 4387.910156 1227.890625 " />
</clipPath>
<clipPath id="clip-126">
<path clip-rule="nonzero" d="M 4166 1435 L 4243 1435 L 4243 2326 L 4166 2326 Z M 4166 1435 " />
</clipPath>
<clipPath id="clip-127">
<path clip-rule="evenodd" d="M 4387.910156 1227.890625 L 4048.730469 1227.890625 L 4046.621094 1431.761719 L 4123.519531 2325.125 L 4174.820312 2325.125 L 4192.570312 1451.839844 L 4242.601562 1451.839844 L 4261.789062 2325.125 L 4313.101562 2325.125 L 4390.019531 1431.761719 Z M 4387.910156 1227.890625 " />
</clipPath>
<clipPath id="clip-128">
<path clip-rule="nonzero" d="M 4313 1701 L 4391 1701 L 4391 2326 L 4313 2326 Z M 4313 1701 " />
</clipPath>
<clipPath id="clip-129">
<path clip-rule="evenodd" d="M 4387.910156 1227.890625 L 4048.730469 1227.890625 L 4046.621094 1431.761719 L 4123.519531 2325.125 L 4174.820312 2325.125 L 4192.570312 1451.839844 L 4242.601562 1451.839844 L 4261.789062 2325.125 L 4313.101562 2325.125 L 4390.019531 1431.761719 Z M 4387.910156 1227.890625 " />
</clipPath>
<clipPath id="clip-130">
<path clip-rule="nonzero" d="M 4169 527 L 4266 527 L 4266 587 L 4169 587 Z M 4169 527 " />
</clipPath>
<clipPath id="clip-131">
<path clip-rule="evenodd" d="M 4246.191406 527.140625 L 4176.25 527.140625 C 4183.070312 571.328125 4183.121094 614.589844 4169.851562 655.988281 L 4265.160156 655.988281 C 4245.710938 615.808594 4239.21875 572.898438 4246.191406 527.140625 Z M 4246.191406 527.140625 " />
</clipPath>
<clipPath id="clip-132">
<path clip-rule="nonzero" d="M 4152 380 L 4170 380 L 4170 404 L 4152 404 Z M 4152 380 " />
</clipPath>
<clipPath id="clip-133">
<path clip-rule="evenodd" d="M 4178.148438 386.179688 C 4178.148438 381.671875 4176.359375 377.339844 4173.171875 374.148438 C 4169.980469 370.960938 4165.648438 369.160156 4161.128906 369.160156 C 4151.730469 369.160156 4144.121094 376.78125 4144.121094 386.179688 C 4144.121094 395.75 4144.121094 405.789062 4144.121094 405.789062 L 4178.148438 405.789062 C 4178.148438 405.789062 4178.148438 395.75 4178.148438 386.179688 Z M 4178.148438 386.179688 " />
</clipPath>
<clipPath id="clip-134">
<path clip-rule="nonzero" d="M 4156 383 L 4162 383 L 4162 392 L 4156 392 Z M 4156 383 " />
</clipPath>
<clipPath id="clip-135">
<path clip-rule="evenodd" d="M 4178.148438 386.179688 C 4178.148438 381.671875 4176.359375 377.339844 4173.171875 374.148438 C 4169.980469 370.960938 4165.648438 369.160156 4161.128906 369.160156 C 4151.730469 369.160156 4144.121094 376.78125 4144.121094 386.179688 C 4144.121094 395.75 4144.121094 405.789062 4144.121094 405.789062 L 4178.148438 405.789062 C 4178.148438 405.789062 4178.148438 395.75 4178.148438 386.179688 Z M 4178.148438 386.179688 " />
</clipPath>
<clipPath id="clip-136">
<path clip-rule="nonzero" d="M 4252 380 L 4271 380 L 4271 404 L 4252 404 Z M 4252 380 " />
</clipPath>
<clipPath id="clip-137">
<path clip-rule="evenodd" d="M 4278.320312 386.179688 C 4278.320312 381.671875 4276.53125 377.339844 4273.339844 374.148438 C 4270.140625 370.960938 4265.820312 369.160156 4261.300781 369.160156 C 4251.898438 369.160156 4244.289062 376.78125 4244.289062 386.179688 C 4244.289062 395.75 4244.289062 405.789062 4244.289062 405.789062 L 4278.320312 405.789062 C 4278.320312 405.789062 4278.320312 395.75 4278.320312 386.179688 Z M 4278.320312 386.179688 " />
</clipPath>
<clipPath id="clip-138">
<path clip-rule="nonzero" d="M 4257 383 L 4262 383 L 4262 392 L 4257 392 Z M 4257 383 " />
</clipPath>
<clipPath id="clip-139">
<path clip-rule="evenodd" d="M 4278.320312 386.179688 C 4278.320312 381.671875 4276.53125 377.339844 4273.339844 374.148438 C 4270.140625 370.960938 4265.820312 369.160156 4261.300781 369.160156 C 4251.898438 369.160156 4244.289062 376.78125 4244.289062 386.179688 C 4244.289062 395.75 4244.289062 405.789062 4244.289062 405.789062 L 4278.320312 405.789062 C 4278.320312 405.789062 4278.320312 395.75 4278.320312 386.179688 Z M 4278.320312 386.179688 " />
</clipPath>
<clipPath id="clip-140">
<path clip-rule="nonzero" d="M 4124 771 L 4345 771 L 4345 1261 L 4124 1261 Z M 4124 771 " />
</clipPath>
<clipPath id="clip-141">
<path clip-rule="evenodd" d="M 4145.089844 708.730469 C 4156.171875 943.429688 4323.980469 928.671875 4312.671875 708.730469 L 4344.878906 860.75 L 4344.878906 1245.980469 C 4258.808594 1266.390625 4179.171875 1265.121094 4104.820312 1245.980469 Z M 4145.089844 708.730469 " />
</clipPath>
<clipPath id="clip-142">
<path clip-rule="nonzero" d="M 4018 832 L 4079 832 L 4079 1138 L 4018 1138 Z M 4018 832 " />
</clipPath>
<clipPath id="clip-143">
<path clip-rule="evenodd" d="M 4156.699219 1355.890625 C 4083.191406 1353.179688 4018.101562 1343.839844 3994.769531 1327.179688 C 3973.28125 1311.828125 4043.429688 1181.609375 4046.621094 1101.601562 C 4051.449219 980.589844 4078.289062 758.351562 4078.289062 758.351562 L 4144.140625 655.988281 Z M 4156.699219 1355.890625 " />
</clipPath>
<clipPath id="clip-144">
<path clip-rule="nonzero" d="M 4015 1137 L 4157 1137 L 4157 1257 L 4015 1257 Z M 4015 1137 " />
</clipPath>
<clipPath id="clip-145">
<path clip-rule="evenodd" d="M 4156.699219 1355.890625 C 4083.191406 1353.179688 4018.101562 1343.839844 3994.769531 1327.179688 C 3973.28125 1311.828125 4043.429688 1181.609375 4046.621094 1101.601562 C 4051.449219 980.589844 4078.289062 758.351562 4078.289062 758.351562 L 4144.140625 655.988281 Z M 4156.699219 1355.890625 " />
</clipPath>
<clipPath id="clip-146">
<path clip-rule="nonzero" d="M 4341 812 L 4451 812 L 4451 1080 L 4341 1080 Z M 4341 812 " />
</clipPath>
<clipPath id="clip-147">
<path clip-rule="evenodd" d="M 4289.769531 655.988281 C 4314.300781 662.128906 4353.460938 664.03125 4374.269531 686.511719 C 4477.671875 798.191406 4517.699219 1083.339844 4516.800781 1092.859375 C 4511.21875 1151.929688 4405.378906 1191.480469 4405.378906 1191.480469 L 4374.269531 1100.800781 C 4374.269531 1100.800781 4413.761719 1070.621094 4413.761719 1048.070312 C 4413.761719 1018.539062 4374.269531 923.628906 4374.269531 923.628906 L 4334.929688 768.96875 Z M 4289.769531 655.988281 " />
</clipPath>
<clipPath id="clip-148">
<path clip-rule="nonzero" d="M 4289 1137 L 4402 1137 L 4402 1257 L 4289 1257 Z M 4289 1137 " />
</clipPath>
<clipPath id="clip-149">
<path clip-rule="evenodd" d="M 4289.769531 655.988281 L 4329.75 756.019531 C 4329.75 756.019531 4386.5 1018.269531 4398.039062 1113.070312 C 4406.738281 1184.480469 4454.128906 1312.929688 4429.210938 1327.179688 C 4411.101562 1337.53125 4374.5 1345.289062 4329.75 1350.25 C 4333.210938 1103.949219 4348.78125 846.910156 4289.769531 655.988281 Z M 4289.769531 655.988281 " />
</clipPath>
<clipPath id="clip-150">
<path clip-rule="nonzero" d="M 4326 1613 L 4537 1613 L 4537 1790 L 4326 1790 Z M 4326 1613 " />
</clipPath>
<clipPath id="clip-151">
<path clip-rule="evenodd" d="M 4370.738281 1074.210938 C 4407.410156 1352.808594 4283.511719 1755.652344 4374.710938 1769.113281 C 4396.339844 1772.308594 4407.988281 1766.800781 4424.378906 1769.113281 C 4444.679688 1771.984375 4449.878906 1799.507812 4496.5 1786.324219 C 4614.789062 1752.875 4433.460938 1258.421875 4406.878906 1074.210938 L 4327.660156 663.699219 C 4314.851562 652.25 4297.460938 652.390625 4289.769531 655.988281 Z M 4370.738281 1074.210938 " />
</clipPath>
<clipPath id="clip-152">
<path clip-rule="nonzero" d="M 4363 1131 L 4441 1131 L 4441 1297 L 4363 1297 Z M 4363 1131 " />
</clipPath>
<clipPath id="clip-153">
<path clip-rule="evenodd" d="M 4370.738281 1074.210938 C 4407.410156 1352.808594 4283.511719 1755.652344 4374.710938 1769.113281 C 4396.339844 1772.308594 4407.988281 1766.800781 4424.378906 1769.113281 C 4444.679688 1771.984375 4449.878906 1799.507812 4496.5 1786.324219 C 4614.789062 1752.875 4433.460938 1258.421875 4406.878906 1074.210938 L 4327.660156 663.699219 C 4314.851562 652.25 4297.460938 652.390625 4289.769531 655.988281 Z M 4370.738281 1074.210938 " />
</clipPath>
<clipPath id="clip-154">
<path clip-rule="nonzero" d="M 4174 1104 L 4290 1104 L 4290 1226 L 4174 1226 Z M 4174 1104 " />
</clipPath>
<clipPath id="clip-155">
<path clip-rule="evenodd" d="M 4144.140625 655.988281 C 4109.539062 657.738281 4072.859375 659.890625 4044.511719 696.441406 C 3962.359375 802.359375 3915.871094 1035.558594 3923.511719 1116.25 C 3939.808594 1288.628906 4289.769531 1205.609375 4289.769531 1205.609375 C 4276.371094 1176.109375 4270.070312 1144.839844 4273.398438 1111.171875 C 4273.398438 1111.171875 4057.621094 1140.808594 4024.339844 1104.328125 C 3991.050781 1067.851562 4073.691406 897.371094 4073.691406 897.371094 Z M 4144.140625 655.988281 " />
</clipPath>
</defs>
<path fill-rule="evenodd" fill="rgb(23.901367%, 12.109375%, 14.892578%)" fill-opacity="1" d="M 2184.378906 1942.316406 L 2158.488281 1942.316406 L 2148.398438 2121.253906 L 2182.230469 2121.253906 L 2184.378906 1942.316406 " />
<path fill-rule="evenodd" fill="rgb(23.901367%, 12.109375%, 14.892578%)" fill-opacity="1" d="M 2276.089844 1942.316406 L 2252.398438 1942.316406 L 2250.25 2121.253906 L 2284.089844 2121.253906 L 2276.089844 1942.316406 " />
<path fill-rule="evenodd" fill="rgb(31.005859%, 15.696716%, 19.189453%)" fill-opacity="1" d="M 2295.039062 1757.972656 C 2298.710938 1763.691406 2301.339844 1769.960938 2302.878906 1776.507812 C 2303.910156 1780.929688 2304.441406 1785.480469 2304.441406 1790.066406 C 2304.441406 1819.871094 2304.441406 1881.445312 2304.441406 1923.0625 C 2304.441406 1934.253906 2300 1944.988281 2292.078125 1952.902344 C 2284.171875 1960.816406 2273.429688 1965.261719 2262.238281 1965.261719 C 2235.558594 1965.261719 2201.21875 1965.261719 2174.539062 1965.261719 C 2163.351562 1965.261719 2152.621094 1960.816406 2144.699219 1952.902344 C 2136.789062 1944.988281 2132.339844 1934.253906 2132.339844 1923.0625 C 2132.339844 1879.34375 2132.339844 1813.605469 2132.339844 1785.804688 C 2132.339844 1781.363281 2132.839844 1776.949219 2133.820312 1772.644531 C 2134.75 1768.546875 2136.109375 1764.546875 2137.890625 1760.714844 C 2148.738281 1737.394531 2171.691406 1688.035156 2171.691406 1688.035156 L 2244.441406 1678.953125 C 2244.441406 1678.953125 2278.160156 1731.613281 2295.039062 1757.972656 Z M 2261.238281 1772.644531 L 2173.691406 1772.644531 L 2186.628906 1710.203125 L 2244.441406 1710.203125 L 2261.238281 1772.644531 " />
<path fill-rule="evenodd" fill="rgb(99.609375%, 65.039062%, 49.388123%)" fill-opacity="1" d="M 2167.660156 1556.199219 C 2167.660156 1556.199219 2165.160156 1691.890625 2178.25 1719.03125 C 2188.089844 1739.433594 2236.671875 1725.761719 2246.199219 1719.03125 C 2255.738281 1712.300781 2239.039062 1678.265625 2246.199219 1676.226562 C 2254.761719 1673.789062 2251.21875 1704.320312 2263.628906 1699.835938 C 2273.648438 1696.214844 2268.328125 1640.59375 2263.628906 1621.289062 C 2261 1610.445312 2235.480469 1603.195312 2235.480469 1603.195312 L 2228.648438 1540.609375 L 2167.660156 1556.199219 " />
<path fill-rule="evenodd" fill="rgb(31.396484%, 14.501953%, 20.410156%)" fill-opacity="1" d="M 2671.148438 2371.335938 L 2527.429688 2371.335938 L 2527.429688 2325.125 L 2580.160156 2305.664062 L 2591.851562 2325.125 C 2591.851562 2325.125 2608.339844 2325.125 2626.269531 2325.125 C 2638.171875 2325.125 2649.589844 2329.851562 2658 2338.269531 C 2666.421875 2346.6875 2671.148438 2358.101562 2671.148438 2370.003906 C 2671.148438 2370.859375 2671.148438 2371.335938 2671.148438 2371.335938 " />
<path fill-rule="evenodd" fill="rgb(31.396484%, 14.501953%, 20.410156%)" fill-opacity="1" d="M 2274.5 2371.335938 L 2418.21875 2371.335938 L 2418.21875 2325.125 L 2365.488281 2305.664062 L 2353.789062 2325.125 C 2353.789062 2325.125 2337.308594 2325.125 2319.378906 2325.125 C 2307.480469 2325.125 2296.058594 2329.851562 2287.640625 2338.269531 C 2279.230469 2346.6875 2274.5 2358.101562 2274.5 2370.003906 C 2274.5 2370.859375 2274.5 2371.335938 2274.5 2371.335938 " />
<path fill-rule="evenodd" fill="rgb(14.109802%, 25.488281%, 28.196716%)" fill-opacity="1" d="M 2685.800781 1227.890625 L 2259.878906 1227.890625 L 2257.238281 1431.761719 L 2353.789062 2325.125 L 2418.21875 2325.125 L 2441.410156 1484.710938 L 2504.238281 1484.710938 L 2527.429688 2325.125 L 2591.851562 2325.125 L 2688.449219 1431.761719 L 2685.800781 1227.890625 " />
<g clip-path="url(#clip-52)">
<g clip-path="url(#clip-53)">
<path fill-rule="evenodd" fill="rgb(11.009216%, 19.189453%, 21.18988%)" fill-opacity="1" d="M 2504.238281 1484.710938 L 2409.699219 1461.101562 L 2396.238281 2325.125 L 2431.101562 2325.125 L 2504.238281 1484.710938 " />
</g>
</g>
<g clip-path="url(#clip-54)">
<g clip-path="url(#clip-55)">
<path fill-rule="evenodd" fill="rgb(11.009216%, 19.189453%, 21.18988%)" fill-opacity="1" d="M 2257.238281 1484.710938 L 2349.019531 1419.179688 L 2257.238281 1419.179688 L 2257.238281 1484.710938 " />
</g>
</g>
<g clip-path="url(#clip-56)">
<g clip-path="url(#clip-57)">
<path fill-rule="evenodd" fill="rgb(11.009216%, 19.189453%, 21.18988%)" fill-opacity="1" d="M 2632.761719 1364.019531 L 2654.828125 1431.761719 L 2566.570312 2325.125 L 2605.550781 2334.613281 L 2724.769531 1417.421875 L 2688.449219 1318.351562 L 2632.761719 1364.019531 " />
</g>
</g>
<g clip-path="url(#clip-58)">
<g clip-path="url(#clip-59)">
<path fill-rule="evenodd" fill="rgb(11.009216%, 19.189453%, 21.18988%)" fill-opacity="1" d="M 2333.800781 1270.691406 L 2618.039062 1270.691406 L 2618.039062 1242.671875 L 2333.800781 1242.671875 L 2333.800781 1270.691406 " />
</g>
</g>
<path fill-rule="evenodd" fill="rgb(10.888672%, 19.40918%, 21.289062%)" fill-opacity="1" d="M 2454.570312 1281.28125 C 2454.570312 1281.28125 2454.21875 1298.398438 2453.820312 1321.738281 C 2453.511719 1339.921875 2453.140625 1361.871094 2452.878906 1382.421875 C 2452.691406 1397.289062 2452.570312 1411.429688 2452.488281 1422.878906 C 2452.378906 1439.03125 2452.378906 1449.851562 2452.378906 1449.851562 C 2452.378906 1450.910156 2452.941406 1451.878906 2453.851562 1452.421875 C 2454.761719 1452.960938 2455.890625 1452.980469 2456.808594 1452.46875 C 2463.128906 1448.960938 2468.441406 1443.578125 2472.800781 1436.511719 C 2477.808594 1428.378906 2481.609375 1418.011719 2484.339844 1405.839844 C 2488.28125 1388.339844 2490.101562 1367.101562 2490.578125 1343.558594 C 2490.980469 1324.089844 2490.429688 1303.058594 2489.480469 1281.261719 C 2489.46875 1280.820312 2489.101562 1280.480469 2488.660156 1280.488281 C 2488.230469 1280.5 2487.878906 1280.871094 2487.890625 1281.308594 C 2488.121094 1303.058594 2487.921875 1324.039062 2486.941406 1343.429688 C 2485.78125 1366.601562 2483.449219 1387.46875 2479.199219 1404.621094 C 2476.359375 1416.050781 2472.679688 1425.800781 2467.851562 1433.421875 C 2465.078125 1437.800781 2461.941406 1441.46875 2458.351562 1444.308594 C 2458.339844 1439.578125 2458.308594 1432.101562 2458.25 1422.878906 C 2458.171875 1411.429688 2458.039062 1397.289062 2457.859375 1382.421875 C 2457.601562 1361.871094 2457.230469 1339.921875 2456.921875 1321.738281 C 2456.519531 1298.398438 2456.160156 1281.28125 2456.160156 1281.28125 C 2456.160156 1280.839844 2455.808594 1280.488281 2455.371094 1280.488281 C 2454.929688 1280.488281 2454.570312 1280.839844 2454.570312 1281.28125 " />
<path fill-rule="evenodd" fill="rgb(91.014099%, 47.801208%, 29.80957%)" fill-opacity="1" d="M 2337.550781 1250.609375 L 2608.128906 1250.609375 L 2608.128906 736.96875 L 2579.890625 670.339844 L 2365.789062 670.339844 L 2337.550781 736.96875 L 2337.550781 1250.609375 " />
<g clip-path="url(#clip-60)">
<g clip-path="url(#clip-61)">
<path fill-rule="evenodd" fill="rgb(89.84375%, 43.309021%, 24.900818%)" fill-opacity="1" d="M 2595.261719 698.578125 C 2572.898438 736.988281 2547.578125 783.621094 2503.25 797.199219 L 2472.839844 712.261719 L 2444.339844 797.199219 C 2418.328125 791.691406 2404.730469 773.71875 2383 751.53125 L 2383 1229.871094 L 2595.261719 1229.871094 L 2608.128906 1270.691406 L 2337.550781 1270.691406 L 2337.550781 652.238281 L 2595.261719 652.238281 L 2595.261719 698.578125 " />
</g>
</g>
<path fill-rule="evenodd" fill="rgb(83.201599%, 34.202576%, 14.793396%)" fill-opacity="1" d="M 2473.328125 711.589844 C 2473.328125 711.589844 2471.339844 925.121094 2470.179688 1080.25 C 2469.519531 1168.75 2469.160156 1238.25 2469.160156 1238.25 C 2471.859375 1238.800781 2472.300781 1239.238281 2472.839844 1239.238281 C 2473.378906 1239.238281 2473.820312 1238.800781 2473.820312 1238.261719 L 2476.519531 1238.269531 C 2476.519531 1238.269531 2476.550781 1168.769531 2476.378906 1080.269531 C 2476.089844 925.128906 2475.289062 711.601562 2475.289062 711.601562 C 2475.289062 711.058594 2474.851562 710.621094 2474.308594 710.621094 C 2473.769531 710.621094 2473.328125 711.050781 2473.328125 711.589844 " />
<path fill-rule="evenodd" fill="rgb(98.242188%, 78.90625%, 69.139099%)" fill-opacity="1" d="M 2391.601562 666.359375 L 2365.789062 670.339844 C 2367.011719 711.179688 2388.328125 745.011719 2439.921875 768.300781 C 2442.730469 733.199219 2455.738281 719.621094 2471.371094 711.589844 " />
<path fill-rule="evenodd" fill="rgb(46.702576%, 53.318787%, 48.608398%)" fill-opacity="1" d="M 2361.210938 1388.929688 C 2361.058594 1412.628906 2341.800781 1431.761719 2318.109375 1431.761719 L 2251.910156 1431.761719 C 2242.21875 1467.539062 2237.441406 1510.410156 2234.070312 1555.316406 L 2160.378906 1571.863281 C 2037.699219 1153.289062 2125.191406 681.351562 2365.789062 670.339844 L 2361.210938 1388.929688 " />
<g clip-path="url(#clip-62)">
<g clip-path="url(#clip-63)">
<path fill-rule="evenodd" fill="rgb(39.598083%, 43.896484%, 40.795898%)" fill-opacity="1" d="M 2365.789062 670.339844 C 2333.679688 990.519531 2364.71875 1426.101562 2318.109375 1431.761719 L 2333.800781 1464.410156 L 2390.71875 1464.410156 L 2390.71875 701.21875 L 2365.789062 670.339844 " />
</g>
</g>
<path fill-rule="evenodd" fill="rgb(39.598083%, 43.896484%, 40.795898%)" fill-opacity="1" d="M 2251.910156 1431.761719 C 2192.589844 1108.730469 2196.851562 925.011719 2257.238281 864.28125 L 2251.910156 1431.761719 " />
<path fill-rule="evenodd" fill="rgb(98.242188%, 78.90625%, 69.139099%)" fill-opacity="1" d="M 2554.078125 666.359375 L 2579.890625 670.339844 C 2578.671875 711.179688 2557.351562 745.011719 2505.761719 768.300781 C 2502.949219 733.199219 2489.941406 719.621094 2474.308594 711.589844 " />
<path fill-rule="evenodd" fill="rgb(99.609375%, 65.039062%, 49.388123%)" fill-opacity="1" d="M 2515.710938 580.539062 L 2429.96875 580.539062 C 2430.738281 615.25 2419.328125 644.480469 2391.601562 666.359375 C 2410.640625 692.988281 2437.300781 708.660156 2472.839844 711.589844 C 2508.378906 708.660156 2535.039062 692.988281 2554.078125 666.359375 C 2526.351562 644.480469 2514.941406 615.25 2515.710938 580.539062 " />
<g clip-path="url(#clip-64)">
<g clip-path="url(#clip-65)">
<path fill-rule="evenodd" fill="rgb(98.4375%, 50.976562%, 32.200623%)" fill-opacity="1" d="M 2527.101562 613.238281 C 2488.089844 643.089844 2450.988281 651.539062 2416.761719 627.75 L 2416.761719 593.328125 L 2533.25 580.539062 L 2527.101562 613.238281 " />
</g>
</g>
<path fill-rule="evenodd" fill="rgb(46.702576%, 53.318787%, 48.608398%)" fill-opacity="1" d="M 2579.890625 670.339844 C 2579.890625 670.339844 2551.921875 1119.691406 2579.890625 1227.890625 C 2603.761719 1320.21875 2688.449219 1332.03125 2688.449219 1332.03125 L 2711.390625 1299.378906 L 2699.480469 796.539062 L 2579.890625 670.339844 " />
<g clip-path="url(#clip-66)">
<g clip-path="url(#clip-67)">
<path fill-rule="evenodd" fill="rgb(39.598083%, 43.896484%, 40.795898%)" fill-opacity="1" d="M 2579.890625 670.339844 C 2571.671875 976.949219 2565.839844 1216.371094 2633.5 1296.949219 L 2557.019531 1296.949219 L 2557.019531 696.589844 L 2579.890625 670.339844 " />
</g>
</g>
<path fill-rule="evenodd" fill="rgb(99.609375%, 65.039062%, 49.388123%)" fill-opacity="1" d="M 2580 336.890625 C 2626.011719 293.960938 2654.679688 370.980469 2587.898438 394.761719 L 2580 336.890625 " />
<path fill-rule="evenodd" fill="rgb(90.039062%, 40.989685%, 19.897461%)" fill-opacity="1" d="M 2594.039062 374.488281 C 2594.890625 371.660156 2595.828125 369.109375 2596.761719 366.691406 C 2597.160156 365.640625 2597.570312 364.648438 2597.960938 363.671875 C 2598.601562 362.089844 2599.261719 360.640625 2599.878906 359.261719 C 2600.5 357.898438 2601.101562 356.640625 2601.691406 355.460938 C 2602.71875 353.398438 2603.691406 351.609375 2604.789062 350.148438 C 2607.449219 346.640625 2610.398438 344.910156 2613.738281 345.289062 C 2614.070312 345.359375 2614.398438 345.148438 2614.46875 344.820312 C 2614.539062 344.488281 2614.339844 344.171875 2614.011719 344.089844 C 2610.308594 342.859375 2606.429688 343.878906 2602.679688 347.101562 C 2601.488281 348.128906 2600.351562 349.410156 2599.25 350.929688 C 2598.339844 352.191406 2597.460938 353.628906 2596.691406 355.261719 C 2596.03125 356.671875 2595.46875 358.21875 2594.980469 359.898438 C 2594.449219 361.679688 2594.03125 363.570312 2593.691406 365.628906 C 2593.25 368.308594 2593.011719 371.160156 2592.839844 374.28125 C 2592.78125 374.621094 2593 374.929688 2593.328125 374.988281 C 2593.671875 375.050781 2593.980469 374.828125 2594.039062 374.488281 " />
<path fill-rule="evenodd" fill="rgb(99.609375%, 65.039062%, 49.388123%)" fill-opacity="1" d="M 2588.628906 353.28125 L 2594.371094 401.820312 L 2565.03125 519.421875 L 2356.738281 519.421875 L 2314.46875 392.210938 C 2245.460938 388.878906 2275.71875 293.101562 2320.910156 320.671875 L 2356.738281 225.308594 L 2389.179688 212.289062 L 2580 270.378906 L 2594.371094 320.671875 L 2588.628906 353.28125 " />
<path fill-rule="evenodd" fill="rgb(90.039062%, 40.989685%, 19.897461%)" fill-opacity="1" d="M 2289.539062 341.96875 C 2292.351562 341.898438 2294.800781 342.300781 2297.050781 343.058594 C 2297.988281 343.371094 2298.851562 343.78125 2299.699219 344.21875 C 2300.949219 344.878906 2302.058594 345.71875 2303.148438 346.671875 C 2304.179688 347.578125 2305.128906 348.628906 2306.078125 349.78125 C 2306.96875 350.871094 2307.859375 352.039062 2308.710938 353.351562 C 2309.871094 355.160156 2310.988281 357.148438 2312.039062 359.410156 C 2312.988281 361.449219 2313.910156 363.601562 2314.761719 365.988281 C 2314.839844 366.320312 2315.171875 366.53125 2315.488281 366.449219 C 2315.820312 366.371094 2316.03125 366.039062 2315.949219 365.710938 C 2315.558594 362.550781 2315.039062 359.691406 2314.320312 357.050781 C 2313.761719 354.988281 2313.070312 353.121094 2312.28125 351.398438 C 2311.519531 349.75 2310.648438 348.261719 2309.660156 346.960938 C 2308.539062 345.488281 2307.269531 344.25 2305.898438 343.25 C 2303.941406 341.808594 2301.789062 340.808594 2299.449219 340.300781 C 2296.371094 339.640625 2293.039062 339.78125 2289.359375 340.761719 C 2289.03125 340.808594 2288.789062 341.121094 2288.839844 341.449219 C 2288.890625 341.789062 2289.199219 342.019531 2289.539062 341.96875 " />
<path fill-rule="evenodd" fill="rgb(100%, 100%, 100%)" fill-opacity="1" d="M 2559.621094 362.980469 C 2559.621094 357.601562 2557.480469 352.429688 2553.679688 348.628906 C 2549.871094 344.820312 2544.710938 342.679688 2539.320312 342.679688 C 2528.109375 342.679688 2519.019531 351.769531 2519.019531 362.980469 C 2519.019531 374.390625 2519.019531 386.371094 2519.019531 386.371094 L 2559.621094 386.371094 C 2559.621094 386.371094 2559.621094 374.390625 2559.621094 362.980469 " />
<g clip-path="url(#clip-68)">
<g clip-path="url(#clip-69)">
<path fill-rule="evenodd" fill="rgb(0%, 0%, 0%)" fill-opacity="1" d="M 2533.808594 356.03125 C 2539.589844 356.03125 2544.289062 362.160156 2544.289062 369.710938 C 2544.289062 377.261719 2539.589844 383.390625 2533.808594 383.390625 C 2528.019531 383.390625 2523.328125 377.261719 2523.328125 369.710938 C 2523.328125 362.160156 2528.019531 356.03125 2533.808594 356.03125 " />
</g>
</g>
<g clip-path="url(#clip-70)">
<g clip-path="url(#clip-71)">
<path fill-rule="evenodd" fill="rgb(100%, 100%, 100%)" fill-opacity="1" d="M 2536.851562 360.308594 C 2538.210938 360.308594 2539.320312 362.199219 2539.320312 364.519531 C 2539.320312 366.851562 2538.210938 368.738281 2536.851562 368.738281 C 2535.488281 368.738281 2534.378906 366.851562 2534.378906 364.519531 C 2534.378906 362.199219 2535.488281 360.308594 2536.851562 360.308594 " />
</g>
</g>
<path fill-rule="evenodd" fill="rgb(100%, 100%, 100%)" fill-opacity="1" d="M 2435.179688 362.980469 C 2435.179688 357.601562 2433.039062 352.429688 2429.230469 348.628906 C 2425.421875 344.820312 2420.261719 342.679688 2414.878906 342.679688 C 2403.671875 342.679688 2394.578125 351.769531 2394.578125 362.980469 C 2394.578125 374.390625 2394.578125 386.371094 2394.578125 386.371094 L 2435.179688 386.371094 C 2435.179688 386.371094 2435.179688 374.390625 2435.179688 362.980469 " />
<g clip-path="url(#clip-72)">
<g clip-path="url(#clip-73)">
<path fill-rule="evenodd" fill="rgb(0%, 0%, 0%)" fill-opacity="1" d="M 2409.359375 356.03125 C 2415.140625 356.03125 2419.839844 362.160156 2419.839844 369.710938 C 2419.839844 377.261719 2415.140625 383.390625 2409.359375 383.390625 C 2403.578125 383.390625 2398.878906 377.261719 2398.878906 369.710938 C 2398.878906 362.160156 2403.578125 356.03125 2409.359375 356.03125 " />
</g>
</g>
<g clip-path="url(#clip-74)">
<g clip-path="url(#clip-75)">
<path fill-rule="evenodd" fill="rgb(100%, 100%, 100%)" fill-opacity="1" d="M 2412.410156 360.308594 C 2413.769531 360.308594 2414.878906 362.199219 2414.878906 364.519531 C 2414.878906 366.851562 2413.769531 368.738281 2412.410156 368.738281 C 2411.039062 368.738281 2409.929688 366.851562 2409.929688 364.519531 C 2409.929688 362.199219 2411.039062 360.308594 2412.410156 360.308594 " />
</g>
</g>
<path fill-rule="evenodd" fill="rgb(35.594177%, 18.406677%, 18.406677%)" fill-opacity="1" d="M 2557.519531 263.039062 C 2582.519531 289.789062 2591.851562 320.109375 2588.628906 353.28125 C 2605.359375 320.421875 2611 288.109375 2582.011719 257.519531 L 2557.519531 263.039062 " />
<path fill-rule="evenodd" fill="rgb(48.608398%, 25.488281%, 25.097656%)" fill-opacity="1" d="M 2639.820312 160.878906 C 2646.941406 211.039062 2634.269531 265.339844 2564.609375 273.039062 C 2464.5 284.089844 2409.050781 216.949219 2376.160156 234.351562 C 2334.558594 256.371094 2346.808594 371.148438 2346.808594 371.148438 C 2346.808594 371.148438 2369.980469 406.050781 2376.160156 424.539062 C 2383.148438 445.46875 2388.738281 496.691406 2388.738281 496.691406 L 2547.820312 496.691406 C 2547.820312 496.691406 2549.761719 452.488281 2557.519531 436.679688 C 2564.96875 421.5 2594.371094 401.820312 2594.371094 401.820312 C 2594.371094 401.820312 2633.609375 543.511719 2582.898438 580.761719 C 2538.699219 613.230469 2371.628906 631.109375 2330.710938 573.921875 C 2287.46875 513.5 2329.578125 310.398438 2323.210938 270.980469 C 2268.578125 234.28125 2327.921875 160.699219 2367.78125 183.390625 C 2389.691406 149.148438 2433.011719 128.980469 2472.839844 128.671875 C 2556.109375 128 2564.019531 225.648438 2639.820312 160.878906 " />
<g clip-path="url(#clip-76)">
<g clip-path="url(#clip-77)">
<path fill-rule="evenodd" fill="rgb(35.693359%, 18.406677%, 18.406677%)" fill-opacity="1" d="M 2453.941406 544.570312 C 2464.199219 552.699219 2475.449219 553.410156 2487.769531 545.898438 C 2504.820312 535.511719 2440.511719 533.941406 2453.941406 544.570312 " />
</g>
</g>
<g clip-path="url(#clip-78)">
<g clip-path="url(#clip-79)">
<path fill-rule="evenodd" fill="rgb(35.693359%, 18.406677%, 18.406677%)" fill-opacity="1" d="M 2608.460938 517.039062 C 2600.03125 571.558594 2504.710938 603.078125 2457.039062 602.058594 C 2406.039062 600.960938 2323.441406 580.058594 2312.558594 509.738281 L 2301.179688 551.121094 L 2312.558594 619.148438 L 2605.550781 611.078125 L 2621.070312 527.800781 L 2608.460938 517.039062 " />
</g>
</g>
<g clip-path="url(#clip-80)">
<g clip-path="url(#clip-81)">
<path fill-rule="evenodd" fill="rgb(35.693359%, 18.406677%, 18.406677%)" fill-opacity="1" d="M 2345.5 317.78125 C 2345.5 317.78125 2332.628906 246.480469 2365.789062 228.179688 C 2422.109375 197.078125 2469.878906 262.390625 2540.089844 265.238281 C 2575.089844 266.671875 2615.238281 251.648438 2628.859375 236.691406 L 2628.859375 258.691406 L 2594.050781 285.761719 L 2506.121094 285.761719 L 2365.789062 265.238281 L 2345.5 317.78125 " />
</g>
</g>
<g clip-path="url(#clip-82)">
<g clip-path="url(#clip-83)">
<path fill-rule="evenodd" fill="rgb(35.693359%, 18.406677%, 18.406677%)" fill-opacity="1" d="M 2336.890625 178.089844 C 2351.339844 182.140625 2364.660156 189.859375 2376.160156 203.460938 C 2374.210938 182.050781 2385.238281 164.078125 2398.660156 146.761719 L 2336.890625 178.089844 " />
</g>
</g>
<path fill-rule="evenodd" fill="rgb(100%, 100%, 100%)" fill-opacity="1" d="M 2424.261719 490.28125 C 2429.46875 525.691406 2509.46875 528.320312 2527.921875 490.28125 L 2471.371094 470.351562 L 2424.261719 490.28125 " />
<path fill-rule="evenodd" fill="rgb(35.693359%, 18.406677%, 18.406677%)" fill-opacity="1" d="M 2468.570312 320.898438 C 2469.058594 300.199219 2459.519531 284.949219 2446.101562 274.960938 C 2439.800781 270.28125 2432.519531 267 2424.96875 265 C 2419.890625 263.660156 2414.640625 262.960938 2409.5 263.011719 C 2404.140625 263.058594 2398.898438 263.828125 2394 265.28125 C 2389.269531 266.671875 2384.851562 268.460938 2380.960938 270.949219 C 2371.121094 277.238281 2364.210938 286 2363.128906 297.410156 C 2362.859375 298.511719 2363.53125 299.621094 2364.640625 299.890625 C 2365.738281 300.160156 2366.851562 299.488281 2367.121094 298.390625 C 2369.640625 292.359375 2374.199219 288.339844 2379.75 285.21875 C 2384.761719 282.398438 2390.679688 281.121094 2397.058594 280.429688 C 2400.980469 280 2405.019531 280.089844 2409.160156 280.289062 C 2413.140625 280.488281 2417.179688 280.910156 2421.191406 281.660156 C 2429.171875 283.148438 2437 285.691406 2443.789062 290.238281 C 2453.730469 296.921875 2461.660156 306.71875 2464.46875 321.230469 C 2464.558594 322.359375 2465.558594 323.210938 2466.691406 323.109375 C 2467.820312 323.019531 2468.660156 322.03125 2468.570312 320.898438 " />
<path fill-rule="evenodd" fill="rgb(35.693359%, 18.406677%, 18.406677%)" fill-opacity="1" d="M 2504.671875 307.308594 C 2512.628906 305.601562 2519.710938 305.171875 2526.421875 305.441406 C 2529.25 305.550781 2531.851562 305.988281 2534.429688 306.421875 C 2538.261719 307.070312 2541.628906 308.410156 2544.898438 309.910156 C 2547 310.871094 2548.96875 312.03125 2550.929688 313.308594 C 2552.898438 314.601562 2554.921875 315.828125 2556.820312 317.46875 C 2559.699219 319.980469 2562.558594 322.578125 2565.25 326.070312 C 2567.828125 329.429688 2570.378906 332.75 2572.75 337.050781 C 2573.058594 338.148438 2574.191406 338.789062 2575.28125 338.480469 C 2576.378906 338.179688 2577.019531 337.050781 2576.710938 335.949219 C 2576.429688 329.351562 2575.53125 323.851562 2573.921875 318.570312 C 2572.609375 314.269531 2570.671875 310.671875 2568.46875 307.320312 C 2566.378906 304.128906 2563.828125 301.488281 2561.019531 299.269531 C 2558.058594 296.929688 2554.710938 295.171875 2551.171875 294.011719 C 2544.660156 291.878906 2537.539062 291.261719 2529.988281 292.589844 C 2521.371094 294.109375 2512.578125 297.738281 2503.140625 303.488281 C 2502.089844 303.910156 2501.578125 305.109375 2502 306.160156 C 2502.421875 307.21875 2503.621094 307.730469 2504.671875 307.308594 " />
<path fill-rule="evenodd" fill="rgb(35.594177%, 18.406677%, 18.406677%)" fill-opacity="1" d="M 2472 468.859375 L 2497.289062 460.070312 C 2524.480469 465.960938 2539.460938 478.460938 2550.578125 469.179688 C 2559.75 461.519531 2563.589844 446.101562 2560.089844 424.449219 C 2559.949219 423.570312 2560.441406 422.710938 2561.261719 422.378906 C 2562.089844 422.050781 2563.039062 422.339844 2563.539062 423.078125 C 2589.359375 460.839844 2586.378906 487.871094 2574.140625 499.78125 C 2572.5 501.378906 2570.761719 502.699219 2568.929688 503.761719 C 2549.820312 514.859375 2520.949219 497.839844 2482.050781 485.949219 C 2476.429688 484.269531 2472.589844 482.191406 2472.589844 476.320312 C 2472.589844 476.289062 2472.578125 476.261719 2472.578125 476.21875 C 2472.570312 476.261719 2472.570312 476.289062 2472.570312 476.320312 C 2472.570312 482.191406 2468.730469 484.269531 2463.109375 485.949219 C 2420.488281 498.980469 2389.910156 518.160156 2371.011719 499.78125 C 2358.78125 487.871094 2355.789062 460.839844 2381.621094 423.078125 C 2382.121094 422.339844 2383.058594 422.050781 2383.890625 422.378906 C 2384.71875 422.710938 2385.210938 423.570312 2385.070312 424.449219 C 2381.570312 446.101562 2385.410156 461.519531 2394.578125 469.179688 C 2405.699219 478.460938 2420.679688 465.960938 2447.871094 460.070312 L 2472 468.859375 " />
<path fill-rule="evenodd" fill="rgb(99.609375%, 65.039062%, 49.388123%)" fill-opacity="1" d="M 2676.890625 1262.089844 C 2670.890625 1256.609375 2538.21875 1308.699219 2559.289062 1338.871094 C 2569.140625 1352.980469 2585.230469 1316.480469 2599.289062 1325.851562 C 2617.648438 1360.078125 2640.628906 1385.800781 2671.148438 1397.558594 C 2671.148438 1397.558594 2680.929688 1363.730469 2687.359375 1348.289062 C 2693.828125 1332.730469 2709.988281 1304.230469 2709.988281 1304.230469 L 2676.890625 1262.089844 " />
<path fill-rule="evenodd" fill="rgb(46.702576%, 53.318787%, 48.608398%)" fill-opacity="1" d="M 2579.890625 670.339844 C 2730.398438 660.539062 2839.601562 921.761719 2873.921875 1134.558594 C 2885.851562 1208.511719 2720.800781 1329.621094 2720.800781 1329.621094 L 2662.988281 1261.691406 L 2760.511719 1164.121094 L 2699.480469 1051.160156 L 2579.890625 670.339844 " />
<g clip-path="url(#clip-84)">
<g clip-path="url(#clip-85)">
<path fill-rule="evenodd" fill="rgb(39.598083%, 43.896484%, 40.795898%)" fill-opacity="1" d="M 2699.480469 1051.160156 L 2699.480469 864.28125 C 2743.890625 884.878906 2727.179688 962.859375 2699.480469 1051.160156 " />
</g>
</g>
<path fill-rule="evenodd" fill="rgb(90.039062%, 40.989685%, 19.897461%)" fill-opacity="1" d="M 2575.148438 344.960938 C 2575.148438 344.960938 2551.171875 332.171875 2528.960938 335.019531 C 2518.550781 336.359375 2508.570312 341.109375 2501.339844 351.761719 C 2497.738281 357.121094 2496.398438 364.21875 2496.460938 372.359375 C 2496.519531 381.378906 2498.289062 391.738281 2500.179688 402.238281 C 2501.960938 412.03125 2503.808594 421.960938 2504.359375 431.011719 C 2504.761719 437.648438 2504.46875 443.789062 2502.710938 449.011719 C 2499.359375 458.960938 2490.441406 465.019531 2471.441406 464.941406 C 2455.488281 465.03125 2448.410156 458.808594 2445.878906 450.710938 C 2441.480469 436.601562 2449.800781 417.878906 2449.800781 417.878906 C 2450.019531 417.429688 2449.828125 416.878906 2449.371094 416.660156 C 2448.910156 416.441406 2448.359375 416.628906 2448.140625 417.078125 C 2448.140625 417.078125 2443.230469 426.441406 2441.53125 437.261719 C 2440.378906 444.589844 2440.800781 452.539062 2444.800781 458.878906 C 2448.941406 465.441406 2456.929688 470.371094 2471.300781 471.089844 C 2494.738281 472.03125 2505.558594 463.71875 2509.949219 451.53125 C 2512.128906 445.46875 2512.640625 438.28125 2512.128906 430.519531 C 2511.511719 421.171875 2509.390625 410.941406 2507.320312 400.859375 C 2505.25 390.789062 2503.171875 380.890625 2502.800781 372.210938 C 2502.519531 365.398438 2503.191406 359.378906 2506.03125 354.789062 C 2511.929688 345.191406 2520.539062 340.738281 2529.589844 339.140625 C 2550.761719 335.390625 2574.320312 346.601562 2574.320312 346.601562 C 2574.769531 346.828125 2575.328125 346.640625 2575.550781 346.191406 C 2575.78125 345.738281 2575.601562 345.191406 2575.148438 344.960938 " />
<path fill-rule="evenodd" fill="rgb(90.039062%, 40.989685%, 19.897461%)" fill-opacity="1" d="M 2450.171875 340.75 C 2449.128906 335.941406 2447.558594 331.359375 2445.351562 327.109375 C 2444.339844 325.199219 2443.191406 323.410156 2441.910156 321.71875 C 2440.128906 319.359375 2438.078125 317.269531 2435.800781 315.480469 C 2434.238281 314.261719 2432.550781 313.199219 2430.761719 312.339844 C 2429.421875 311.691406 2428.011719 311.148438 2426.558594 310.738281 C 2423.351562 309.851562 2419.929688 309.441406 2416.289062 309.691406 C 2413.578125 309.871094 2410.78125 310.351562 2407.871094 311.289062 C 2404.261719 312.441406 2400.558594 314.160156 2396.671875 316.601562 L 2397.570312 318.46875 C 2403.339844 316.441406 2408.480469 315.71875 2413.179688 315.769531 C 2415.828125 315.800781 2418.261719 316.191406 2420.578125 316.75 C 2423 317.339844 2425.210938 318.261719 2427.328125 319.339844 C 2428.710938 320.039062 2430.058594 320.789062 2431.351562 321.648438 C 2433.339844 322.960938 2435.21875 324.421875 2436.980469 326.101562 C 2439.671875 328.660156 2442.121094 331.5 2444.261719 334.710938 C 2445.699219 336.878906 2447.039062 339.070312 2448.210938 341.429688 L 2450.171875 340.75 " />
</svg>